<?xml version="1.0" encoding="utf-8" standalone="no"?>
<!DOCTYPE svg PUBLIC "-//W3C//DTD SVG 1.1//EN"
  "http://www.w3.org/Graphics/SVG/1.1/DTD/svg11.dtd">
<svg xmlns:xlink="http://www.w3.org/1999/xlink" width="460.8pt" height="345.6pt" viewBox="0 0 460.8 345.6" xmlns="http://www.w3.org/2000/svg" version="1.1">
 <metadata>
  <rdf:RDF xmlns:dc="http://purl.org/dc/elements/1.1/" xmlns:cc="http://creativecommons.org/ns#" xmlns:rdf="http://www.w3.org/1999/02/22-rdf-syntax-ns#">
   <cc:Work>
    <dc:type rdf:resource="http://purl.org/dc/dcmitype/StillImage"/>
    <dc:date>2024-04-29T12:48:43.244370</dc:date>
    <dc:format>image/svg+xml</dc:format>
    <dc:creator>
     <cc:Agent>
      <dc:title>Matplotlib v3.8.2, https://matplotlib.org/</dc:title>
     </cc:Agent>
    </dc:creator>
   </cc:Work>
  </rdf:RDF>
 </metadata>
 <defs>
  <style type="text/css">*{stroke-linejoin: round; stroke-linecap: butt}</style>
 </defs>
 <g id="figure_1">
  <g id="patch_1">
   <path d="M 0 345.6 
L 460.8 345.6 
L 460.8 0 
L 0 0 
L 0 345.6 
z
" style="fill: none"/>
  </g>
  <g id="axes_1">
   <g id="patch_2">
    <path d="M 94.996875 289.4925 
L 365.803125 289.4925 
L 365.803125 18.68625 
L 94.996875 18.68625 
L 94.996875 289.4925 
z
" style="fill: none"/>
   </g>
   <g id="matplotlib.axis_1">
    <g id="xtick_1">
     <g id="line2d_1">
      <defs>
       <path id="m65e8130f32" d="M 0 0 
L 0 6 
" style="stroke: #262626; stroke-width: 1.25"/>
      </defs>
      <g>
       <use xlink:href="#m65e8130f32" x="97.234943" y="289.4925" style="fill: #262626; stroke: #262626; stroke-width: 1.25"/>
      </g>
     </g>
     <g id="text_1">
      <text style="fill: #262626; font: 16px 'Arial', 'DejaVu Sans', 'Liberation Sans', 'Bitstream Vera Sans', sans-serif; text-anchor: middle" x="97.234943" y="310.445" transform="rotate(-0 97.234943 310.445)">0</text>
     </g>
    </g>
    <g id="xtick_2">
     <g id="line2d_2">
      <g>
       <use xlink:href="#m65e8130f32" x="141.996307" y="289.4925" style="fill: #262626; stroke: #262626; stroke-width: 1.25"/>
      </g>
     </g>
     <g id="text_2">
      <text style="fill: #262626; font: 16px 'Arial', 'DejaVu Sans', 'Liberation Sans', 'Bitstream Vera Sans', sans-serif; text-anchor: middle" x="141.996307" y="310.445" transform="rotate(-0 141.996307 310.445)">20</text>
     </g>
    </g>
    <g id="xtick_3">
     <g id="line2d_3">
      <g>
       <use xlink:href="#m65e8130f32" x="186.75767" y="289.4925" style="fill: #262626; stroke: #262626; stroke-width: 1.25"/>
      </g>
     </g>
     <g id="text_3">
      <text style="fill: #262626; font: 16px 'Arial', 'DejaVu Sans', 'Liberation Sans', 'Bitstream Vera Sans', sans-serif; text-anchor: middle" x="186.75767" y="310.445" transform="rotate(-0 186.75767 310.445)">40</text>
     </g>
    </g>
    <g id="xtick_4">
     <g id="line2d_4">
      <g>
       <use xlink:href="#m65e8130f32" x="231.519034" y="289.4925" style="fill: #262626; stroke: #262626; stroke-width: 1.25"/>
      </g>
     </g>
     <g id="text_4">
      <text style="fill: #262626; font: 16px 'Arial', 'DejaVu Sans', 'Liberation Sans', 'Bitstream Vera Sans', sans-serif; text-anchor: middle" x="231.519034" y="310.445" transform="rotate(-0 231.519034 310.445)">60</text>
     </g>
    </g>
    <g id="xtick_5">
     <g id="line2d_5">
      <g>
       <use xlink:href="#m65e8130f32" x="276.280398" y="289.4925" style="fill: #262626; stroke: #262626; stroke-width: 1.25"/>
      </g>
     </g>
     <g id="text_5">
      <text style="fill: #262626; font: 16px 'Arial', 'DejaVu Sans', 'Liberation Sans', 'Bitstream Vera Sans', sans-serif; text-anchor: middle" x="276.280398" y="310.445" transform="rotate(-0 276.280398 310.445)">80</text>
     </g>
    </g>
    <g id="xtick_6">
     <g id="line2d_6">
      <g>
       <use xlink:href="#m65e8130f32" x="321.041761" y="289.4925" style="fill: #262626; stroke: #262626; stroke-width: 1.25"/>
      </g>
     </g>
     <g id="text_6">
      <text style="fill: #262626; font: 16px 'Arial', 'DejaVu Sans', 'Liberation Sans', 'Bitstream Vera Sans', sans-serif; text-anchor: middle" x="321.041761" y="310.445" transform="rotate(-0 321.041761 310.445)">100</text>
     </g>
    </g>
    <g id="xtick_7">
     <g id="line2d_7">
      <g>
       <use xlink:href="#m65e8130f32" x="365.803125" y="289.4925" style="fill: #262626; stroke: #262626; stroke-width: 1.25"/>
      </g>
     </g>
     <g id="text_7">
      <text style="fill: #262626; font: 16px 'Arial', 'DejaVu Sans', 'Liberation Sans', 'Bitstream Vera Sans', sans-serif; text-anchor: middle" x="365.803125" y="310.445" transform="rotate(-0 365.803125 310.445)">120</text>
     </g>
    </g>
    <g id="text_8">
     <text style="fill: #262626; font: 16px 'Arial', 'DejaVu Sans', 'Liberation Sans', 'Bitstream Vera Sans', sans-serif; text-anchor: middle" x="230.4" y="329.2725" transform="rotate(-0 230.4 329.2725)">Day of outbreak</text>
    </g>
   </g>
   <g id="matplotlib.axis_2">
    <g id="ytick_1">
     <g id="line2d_8">
      <defs>
       <path id="m68f8fa0168" d="M 0 0 
L -6 0 
" style="stroke: #262626; stroke-width: 1.25"/>
      </defs>
      <g>
       <use xlink:href="#m68f8fa0168" x="94.996875" y="289.4925" style="fill: #262626; stroke: #262626; stroke-width: 1.25"/>
      </g>
     </g>
     <g id="text_9">
      <text style="fill: #262626; font: 16px 'Arial', 'DejaVu Sans', 'Liberation Sans', 'Bitstream Vera Sans', sans-serif; text-anchor: end" x="85.496875" y="295.21875" transform="rotate(-0 85.496875 295.21875)">0</text>
     </g>
    </g>
    <g id="ytick_2">
     <g id="line2d_9">
      <g>
       <use xlink:href="#m68f8fa0168" x="94.996875" y="199.22375" style="fill: #262626; stroke: #262626; stroke-width: 1.25"/>
      </g>
     </g>
     <g id="text_10">
      <text style="fill: #262626; font: 16px 'Arial', 'DejaVu Sans', 'Liberation Sans', 'Bitstream Vera Sans', sans-serif; text-anchor: end" x="85.496875" y="204.95" transform="rotate(-0 85.496875 204.95)">1</text>
     </g>
    </g>
    <g id="ytick_3">
     <g id="line2d_10">
      <g>
       <use xlink:href="#m68f8fa0168" x="94.996875" y="108.955" style="fill: #262626; stroke: #262626; stroke-width: 1.25"/>
      </g>
     </g>
     <g id="text_11">
      <text style="fill: #262626; font: 16px 'Arial', 'DejaVu Sans', 'Liberation Sans', 'Bitstream Vera Sans', sans-serif; text-anchor: end" x="85.496875" y="114.68125" transform="rotate(-0 85.496875 114.68125)">2</text>
     </g>
    </g>
    <g id="ytick_4">
     <g id="line2d_11">
      <g>
       <use xlink:href="#m68f8fa0168" x="94.996875" y="18.68625" style="fill: #262626; stroke: #262626; stroke-width: 1.25"/>
      </g>
     </g>
     <g id="text_12">
      <text style="fill: #262626; font: 16px 'Arial', 'DejaVu Sans', 'Liberation Sans', 'Bitstream Vera Sans', sans-serif; text-anchor: end" x="85.496875" y="24.4125" transform="rotate(-0 85.496875 24.4125)">3</text>
     </g>
    </g>
    <g id="text_13">
     <text style="fill: #262626; font: 16px 'Arial', 'DejaVu Sans', 'Liberation Sans', 'Bitstream Vera Sans', sans-serif; text-anchor: middle" x="69.419375" y="154.089375" transform="rotate(-90 69.419375 154.089375)">Number of cases</text>
    </g>
   </g>
   <g id="patch_3">
    <path d="M 96.115909 289.4925 
L 98.353977 289.4925 
L 98.353977 199.22375 
L 96.115909 199.22375 
z
" style="fill: #1a1a1a; opacity: 0.25; stroke: #1a1a1a; stroke-width: 0.1; stroke-linejoin: miter"/>
   </g>
   <g id="patch_4">
    <path d="M 98.353977 289.4925 
L 100.592045 289.4925 
L 100.592045 289.4925 
L 98.353977 289.4925 
z
" style="fill: #1a1a1a; opacity: 0.25; stroke: #1a1a1a; stroke-width: 0.1; stroke-linejoin: miter"/>
   </g>
   <g id="patch_5">
    <path d="M 100.592045 289.4925 
L 102.830114 289.4925 
L 102.830114 289.4925 
L 100.592045 289.4925 
z
" style="fill: #1a1a1a; opacity: 0.25; stroke: #1a1a1a; stroke-width: 0.1; stroke-linejoin: miter"/>
   </g>
   <g id="patch_6">
    <path d="M 102.830114 289.4925 
L 105.068182 289.4925 
L 105.068182 289.4925 
L 102.830114 289.4925 
z
" style="fill: #1a1a1a; opacity: 0.25; stroke: #1a1a1a; stroke-width: 0.1; stroke-linejoin: miter"/>
   </g>
   <g id="patch_7">
    <path d="M 105.068182 289.4925 
L 107.30625 289.4925 
L 107.30625 199.22375 
L 105.068182 199.22375 
z
" style="fill: #1a1a1a; opacity: 0.25; stroke: #1a1a1a; stroke-width: 0.1; stroke-linejoin: miter"/>
   </g>
   <g id="patch_8">
    <path d="M 107.30625 289.4925 
L 109.544318 289.4925 
L 109.544318 289.4925 
L 107.30625 289.4925 
z
" style="fill: #1a1a1a; opacity: 0.25; stroke: #1a1a1a; stroke-width: 0.1; stroke-linejoin: miter"/>
   </g>
   <g id="patch_9">
    <path d="M 109.544318 289.4925 
L 111.782386 289.4925 
L 111.782386 289.4925 
L 109.544318 289.4925 
z
" style="fill: #1a1a1a; opacity: 0.25; stroke: #1a1a1a; stroke-width: 0.1; stroke-linejoin: miter"/>
   </g>
   <g id="patch_10">
    <path d="M 111.782386 289.4925 
L 114.020455 289.4925 
L 114.020455 289.4925 
L 111.782386 289.4925 
z
" style="fill: #1a1a1a; opacity: 0.25; stroke: #1a1a1a; stroke-width: 0.1; stroke-linejoin: miter"/>
   </g>
   <g id="patch_11">
    <path d="M 114.020455 289.4925 
L 116.258523 289.4925 
L 116.258523 199.22375 
L 114.020455 199.22375 
z
" style="fill: #1a1a1a; opacity: 0.25; stroke: #1a1a1a; stroke-width: 0.1; stroke-linejoin: miter"/>
   </g>
   <g id="patch_12">
    <path d="M 116.258523 289.4925 
L 118.496591 289.4925 
L 118.496591 199.22375 
L 116.258523 199.22375 
z
" style="fill: #1a1a1a; opacity: 0.25; stroke: #1a1a1a; stroke-width: 0.1; stroke-linejoin: miter"/>
   </g>
   <g id="patch_13">
    <path d="M 118.496591 289.4925 
L 120.734659 289.4925 
L 120.734659 289.4925 
L 118.496591 289.4925 
z
" style="fill: #1a1a1a; opacity: 0.25; stroke: #1a1a1a; stroke-width: 0.1; stroke-linejoin: miter"/>
   </g>
   <g id="patch_14">
    <path d="M 120.734659 289.4925 
L 122.972727 289.4925 
L 122.972727 199.22375 
L 120.734659 199.22375 
z
" style="fill: #1a1a1a; opacity: 0.25; stroke: #1a1a1a; stroke-width: 0.1; stroke-linejoin: miter"/>
   </g>
   <g id="patch_15">
    <path d="M 122.972727 289.4925 
L 125.210795 289.4925 
L 125.210795 108.955 
L 122.972727 108.955 
z
" style="fill: #1a1a1a; opacity: 0.25; stroke: #1a1a1a; stroke-width: 0.1; stroke-linejoin: miter"/>
   </g>
   <g id="patch_16">
    <path d="M 125.210795 289.4925 
L 127.448864 289.4925 
L 127.448864 289.4925 
L 125.210795 289.4925 
z
" style="fill: #1a1a1a; opacity: 0.25; stroke: #1a1a1a; stroke-width: 0.1; stroke-linejoin: miter"/>
   </g>
   <g id="patch_17">
    <path d="M 127.448864 289.4925 
L 129.686932 289.4925 
L 129.686932 289.4925 
L 127.448864 289.4925 
z
" style="fill: #1a1a1a; opacity: 0.25; stroke: #1a1a1a; stroke-width: 0.1; stroke-linejoin: miter"/>
   </g>
   <g id="patch_18">
    <path d="M 129.686932 289.4925 
L 131.925 289.4925 
L 131.925 199.22375 
L 129.686932 199.22375 
z
" style="fill: #1a1a1a; opacity: 0.25; stroke: #1a1a1a; stroke-width: 0.1; stroke-linejoin: miter"/>
   </g>
   <g id="patch_19">
    <path d="M 131.925 289.4925 
L 134.163068 289.4925 
L 134.163068 289.4925 
L 131.925 289.4925 
z
" style="fill: #1a1a1a; opacity: 0.25; stroke: #1a1a1a; stroke-width: 0.1; stroke-linejoin: miter"/>
   </g>
   <g id="patch_20">
    <path d="M 134.163068 289.4925 
L 136.401136 289.4925 
L 136.401136 108.955 
L 134.163068 108.955 
z
" style="fill: #1a1a1a; opacity: 0.25; stroke: #1a1a1a; stroke-width: 0.1; stroke-linejoin: miter"/>
   </g>
   <g id="patch_21">
    <path d="M 136.401136 289.4925 
L 138.639205 289.4925 
L 138.639205 289.4925 
L 136.401136 289.4925 
z
" style="fill: #1a1a1a; opacity: 0.25; stroke: #1a1a1a; stroke-width: 0.1; stroke-linejoin: miter"/>
   </g>
   <g id="patch_22">
    <path d="M 138.639205 289.4925 
L 140.877273 289.4925 
L 140.877273 289.4925 
L 138.639205 289.4925 
z
" style="fill: #1a1a1a; opacity: 0.25; stroke: #1a1a1a; stroke-width: 0.1; stroke-linejoin: miter"/>
   </g>
   <g id="patch_23">
    <path d="M 140.877273 289.4925 
L 143.115341 289.4925 
L 143.115341 289.4925 
L 140.877273 289.4925 
z
" style="fill: #1a1a1a; opacity: 0.25; stroke: #1a1a1a; stroke-width: 0.1; stroke-linejoin: miter"/>
   </g>
   <g id="patch_24">
    <path d="M 143.115341 289.4925 
L 145.353409 289.4925 
L 145.353409 199.22375 
L 143.115341 199.22375 
z
" style="fill: #1a1a1a; opacity: 0.25; stroke: #1a1a1a; stroke-width: 0.1; stroke-linejoin: miter"/>
   </g>
   <g id="patch_25">
    <path d="M 145.353409 289.4925 
L 147.591477 289.4925 
L 147.591477 289.4925 
L 145.353409 289.4925 
z
" style="fill: #1a1a1a; opacity: 0.25; stroke: #1a1a1a; stroke-width: 0.1; stroke-linejoin: miter"/>
   </g>
   <g id="patch_26">
    <path d="M 147.591477 289.4925 
L 149.829545 289.4925 
L 149.829545 289.4925 
L 147.591477 289.4925 
z
" style="fill: #1a1a1a; opacity: 0.25; stroke: #1a1a1a; stroke-width: 0.1; stroke-linejoin: miter"/>
   </g>
   <g id="patch_27">
    <path d="M 149.829545 289.4925 
L 152.067614 289.4925 
L 152.067614 289.4925 
L 149.829545 289.4925 
z
" style="fill: #1a1a1a; opacity: 0.25; stroke: #1a1a1a; stroke-width: 0.1; stroke-linejoin: miter"/>
   </g>
   <g id="patch_28">
    <path d="M 152.067614 289.4925 
L 154.305682 289.4925 
L 154.305682 108.955 
L 152.067614 108.955 
z
" style="fill: #1a1a1a; opacity: 0.25; stroke: #1a1a1a; stroke-width: 0.1; stroke-linejoin: miter"/>
   </g>
   <g id="patch_29">
    <path d="M 154.305682 289.4925 
L 156.54375 289.4925 
L 156.54375 289.4925 
L 154.305682 289.4925 
z
" style="fill: #1a1a1a; opacity: 0.25; stroke: #1a1a1a; stroke-width: 0.1; stroke-linejoin: miter"/>
   </g>
   <g id="patch_30">
    <path d="M 156.54375 289.4925 
L 158.781818 289.4925 
L 158.781818 108.955 
L 156.54375 108.955 
z
" style="fill: #1a1a1a; opacity: 0.25; stroke: #1a1a1a; stroke-width: 0.1; stroke-linejoin: miter"/>
   </g>
   <g id="patch_31">
    <path d="M 158.781818 289.4925 
L 161.019886 289.4925 
L 161.019886 289.4925 
L 158.781818 289.4925 
z
" style="fill: #1a1a1a; opacity: 0.25; stroke: #1a1a1a; stroke-width: 0.1; stroke-linejoin: miter"/>
   </g>
   <g id="patch_32">
    <path d="M 161.019886 289.4925 
L 163.257955 289.4925 
L 163.257955 289.4925 
L 161.019886 289.4925 
z
" style="fill: #1a1a1a; opacity: 0.25; stroke: #1a1a1a; stroke-width: 0.1; stroke-linejoin: miter"/>
   </g>
   <g id="patch_33">
    <path d="M 163.257955 289.4925 
L 165.496023 289.4925 
L 165.496023 289.4925 
L 163.257955 289.4925 
z
" style="fill: #1a1a1a; opacity: 0.25; stroke: #1a1a1a; stroke-width: 0.1; stroke-linejoin: miter"/>
   </g>
   <g id="patch_34">
    <path d="M 165.496023 289.4925 
L 167.734091 289.4925 
L 167.734091 199.22375 
L 165.496023 199.22375 
z
" style="fill: #1a1a1a; opacity: 0.25; stroke: #1a1a1a; stroke-width: 0.1; stroke-linejoin: miter"/>
   </g>
   <g id="patch_35">
    <path d="M 167.734091 289.4925 
L 169.972159 289.4925 
L 169.972159 289.4925 
L 167.734091 289.4925 
z
" style="fill: #1a1a1a; opacity: 0.25; stroke: #1a1a1a; stroke-width: 0.1; stroke-linejoin: miter"/>
   </g>
   <g id="patch_36">
    <path d="M 169.972159 289.4925 
L 172.210227 289.4925 
L 172.210227 108.955 
L 169.972159 108.955 
z
" style="fill: #1a1a1a; opacity: 0.25; stroke: #1a1a1a; stroke-width: 0.1; stroke-linejoin: miter"/>
   </g>
   <g id="patch_37">
    <path d="M 172.210227 289.4925 
L 174.448295 289.4925 
L 174.448295 199.22375 
L 172.210227 199.22375 
z
" style="fill: #1a1a1a; opacity: 0.25; stroke: #1a1a1a; stroke-width: 0.1; stroke-linejoin: miter"/>
   </g>
   <g id="patch_38">
    <path d="M 174.448295 289.4925 
L 176.686364 289.4925 
L 176.686364 289.4925 
L 174.448295 289.4925 
z
" style="fill: #1a1a1a; opacity: 0.25; stroke: #1a1a1a; stroke-width: 0.1; stroke-linejoin: miter"/>
   </g>
   <g id="patch_39">
    <path d="M 176.686364 289.4925 
L 178.924432 289.4925 
L 178.924432 289.4925 
L 176.686364 289.4925 
z
" style="fill: #1a1a1a; opacity: 0.25; stroke: #1a1a1a; stroke-width: 0.1; stroke-linejoin: miter"/>
   </g>
   <g id="patch_40">
    <path d="M 178.924432 289.4925 
L 181.1625 289.4925 
L 181.1625 199.22375 
L 178.924432 199.22375 
z
" style="fill: #1a1a1a; opacity: 0.25; stroke: #1a1a1a; stroke-width: 0.1; stroke-linejoin: miter"/>
   </g>
   <g id="patch_41">
    <path d="M 181.1625 289.4925 
L 183.400568 289.4925 
L 183.400568 199.22375 
L 181.1625 199.22375 
z
" style="fill: #1a1a1a; opacity: 0.25; stroke: #1a1a1a; stroke-width: 0.1; stroke-linejoin: miter"/>
   </g>
   <g id="patch_42">
    <path d="M 183.400568 289.4925 
L 185.638636 289.4925 
L 185.638636 18.68625 
L 183.400568 18.68625 
z
" style="fill: #1a1a1a; opacity: 0.25; stroke: #1a1a1a; stroke-width: 0.1; stroke-linejoin: miter"/>
   </g>
   <g id="patch_43">
    <path d="M 185.638636 289.4925 
L 187.876705 289.4925 
L 187.876705 289.4925 
L 185.638636 289.4925 
z
" style="fill: #1a1a1a; opacity: 0.25; stroke: #1a1a1a; stroke-width: 0.1; stroke-linejoin: miter"/>
   </g>
   <g id="patch_44">
    <path d="M 187.876705 289.4925 
L 190.114773 289.4925 
L 190.114773 199.22375 
L 187.876705 199.22375 
z
" style="fill: #1a1a1a; opacity: 0.25; stroke: #1a1a1a; stroke-width: 0.1; stroke-linejoin: miter"/>
   </g>
   <g id="patch_45">
    <path d="M 190.114773 289.4925 
L 192.352841 289.4925 
L 192.352841 108.955 
L 190.114773 108.955 
z
" style="fill: #1a1a1a; opacity: 0.25; stroke: #1a1a1a; stroke-width: 0.1; stroke-linejoin: miter"/>
   </g>
   <g id="patch_46">
    <path d="M 192.352841 289.4925 
L 194.590909 289.4925 
L 194.590909 108.955 
L 192.352841 108.955 
z
" style="fill: #1a1a1a; opacity: 0.25; stroke: #1a1a1a; stroke-width: 0.1; stroke-linejoin: miter"/>
   </g>
   <g id="patch_47">
    <path d="M 194.590909 289.4925 
L 196.828977 289.4925 
L 196.828977 199.22375 
L 194.590909 199.22375 
z
" style="fill: #1a1a1a; opacity: 0.25; stroke: #1a1a1a; stroke-width: 0.1; stroke-linejoin: miter"/>
   </g>
   <g id="patch_48">
    <path d="M 196.828977 289.4925 
L 199.067045 289.4925 
L 199.067045 289.4925 
L 196.828977 289.4925 
z
" style="fill: #1a1a1a; opacity: 0.25; stroke: #1a1a1a; stroke-width: 0.1; stroke-linejoin: miter"/>
   </g>
   <g id="patch_49">
    <path d="M 199.067045 289.4925 
L 201.305114 289.4925 
L 201.305114 289.4925 
L 199.067045 289.4925 
z
" style="fill: #1a1a1a; opacity: 0.25; stroke: #1a1a1a; stroke-width: 0.1; stroke-linejoin: miter"/>
   </g>
   <g id="patch_50">
    <path d="M 201.305114 289.4925 
L 203.543182 289.4925 
L 203.543182 289.4925 
L 201.305114 289.4925 
z
" style="fill: #1a1a1a; opacity: 0.25; stroke: #1a1a1a; stroke-width: 0.1; stroke-linejoin: miter"/>
   </g>
   <g id="patch_51">
    <path d="M 203.543182 289.4925 
L 205.78125 289.4925 
L 205.78125 199.22375 
L 203.543182 199.22375 
z
" style="fill: #1a1a1a; opacity: 0.25; stroke: #1a1a1a; stroke-width: 0.1; stroke-linejoin: miter"/>
   </g>
   <g id="patch_52">
    <path d="M 205.78125 289.4925 
L 208.019318 289.4925 
L 208.019318 289.4925 
L 205.78125 289.4925 
z
" style="fill: #1a1a1a; opacity: 0.25; stroke: #1a1a1a; stroke-width: 0.1; stroke-linejoin: miter"/>
   </g>
   <g id="patch_53">
    <path d="M 208.019318 289.4925 
L 210.257386 289.4925 
L 210.257386 289.4925 
L 208.019318 289.4925 
z
" style="fill: #1a1a1a; opacity: 0.25; stroke: #1a1a1a; stroke-width: 0.1; stroke-linejoin: miter"/>
   </g>
   <g id="patch_54">
    <path d="M 210.257386 289.4925 
L 212.495455 289.4925 
L 212.495455 289.4925 
L 210.257386 289.4925 
z
" style="fill: #1a1a1a; opacity: 0.25; stroke: #1a1a1a; stroke-width: 0.1; stroke-linejoin: miter"/>
   </g>
   <g id="patch_55">
    <path d="M 212.495455 289.4925 
L 214.733523 289.4925 
L 214.733523 289.4925 
L 212.495455 289.4925 
z
" style="fill: #1a1a1a; opacity: 0.25; stroke: #1a1a1a; stroke-width: 0.1; stroke-linejoin: miter"/>
   </g>
   <g id="patch_56">
    <path d="M 214.733523 289.4925 
L 216.971591 289.4925 
L 216.971591 289.4925 
L 214.733523 289.4925 
z
" style="fill: #1a1a1a; opacity: 0.25; stroke: #1a1a1a; stroke-width: 0.1; stroke-linejoin: miter"/>
   </g>
   <g id="patch_57">
    <path d="M 216.971591 289.4925 
L 219.209659 289.4925 
L 219.209659 289.4925 
L 216.971591 289.4925 
z
" style="fill: #1a1a1a; opacity: 0.25; stroke: #1a1a1a; stroke-width: 0.1; stroke-linejoin: miter"/>
   </g>
   <g id="patch_58">
    <path d="M 219.209659 289.4925 
L 221.447727 289.4925 
L 221.447727 289.4925 
L 219.209659 289.4925 
z
" style="fill: #1a1a1a; opacity: 0.25; stroke: #1a1a1a; stroke-width: 0.1; stroke-linejoin: miter"/>
   </g>
   <g id="patch_59">
    <path d="M 221.447727 289.4925 
L 223.685795 289.4925 
L 223.685795 199.22375 
L 221.447727 199.22375 
z
" style="fill: #1a1a1a; opacity: 0.25; stroke: #1a1a1a; stroke-width: 0.1; stroke-linejoin: miter"/>
   </g>
   <g id="patch_60">
    <path d="M 223.685795 289.4925 
L 225.923864 289.4925 
L 225.923864 289.4925 
L 223.685795 289.4925 
z
" style="fill: #1a1a1a; opacity: 0.25; stroke: #1a1a1a; stroke-width: 0.1; stroke-linejoin: miter"/>
   </g>
   <g id="patch_61">
    <path d="M 225.923864 289.4925 
L 228.161932 289.4925 
L 228.161932 289.4925 
L 225.923864 289.4925 
z
" style="fill: #1a1a1a; opacity: 0.25; stroke: #1a1a1a; stroke-width: 0.1; stroke-linejoin: miter"/>
   </g>
   <g id="patch_62">
    <path d="M 228.161932 289.4925 
L 230.4 289.4925 
L 230.4 289.4925 
L 228.161932 289.4925 
z
" style="fill: #1a1a1a; opacity: 0.25; stroke: #1a1a1a; stroke-width: 0.1; stroke-linejoin: miter"/>
   </g>
   <g id="patch_63">
    <path d="M 230.4 289.4925 
L 232.638068 289.4925 
L 232.638068 108.955 
L 230.4 108.955 
z
" style="fill: #1a1a1a; opacity: 0.25; stroke: #1a1a1a; stroke-width: 0.1; stroke-linejoin: miter"/>
   </g>
   <g id="patch_64">
    <path d="M 232.638068 289.4925 
L 234.876136 289.4925 
L 234.876136 289.4925 
L 232.638068 289.4925 
z
" style="fill: #1a1a1a; opacity: 0.25; stroke: #1a1a1a; stroke-width: 0.1; stroke-linejoin: miter"/>
   </g>
   <g id="patch_65">
    <path d="M 234.876136 289.4925 
L 237.114205 289.4925 
L 237.114205 199.22375 
L 234.876136 199.22375 
z
" style="fill: #1a1a1a; opacity: 0.25; stroke: #1a1a1a; stroke-width: 0.1; stroke-linejoin: miter"/>
   </g>
   <g id="patch_66">
    <path d="M 237.114205 289.4925 
L 239.352273 289.4925 
L 239.352273 289.4925 
L 237.114205 289.4925 
z
" style="fill: #1a1a1a; opacity: 0.25; stroke: #1a1a1a; stroke-width: 0.1; stroke-linejoin: miter"/>
   </g>
   <g id="patch_67">
    <path d="M 239.352273 289.4925 
L 241.590341 289.4925 
L 241.590341 289.4925 
L 239.352273 289.4925 
z
" style="fill: #1a1a1a; opacity: 0.25; stroke: #1a1a1a; stroke-width: 0.1; stroke-linejoin: miter"/>
   </g>
   <g id="patch_68">
    <path d="M 241.590341 289.4925 
L 243.828409 289.4925 
L 243.828409 289.4925 
L 241.590341 289.4925 
z
" style="fill: #1a1a1a; opacity: 0.25; stroke: #1a1a1a; stroke-width: 0.1; stroke-linejoin: miter"/>
   </g>
   <g id="patch_69">
    <path d="M 243.828409 289.4925 
L 246.066477 289.4925 
L 246.066477 289.4925 
L 243.828409 289.4925 
z
" style="fill: #1a1a1a; opacity: 0.25; stroke: #1a1a1a; stroke-width: 0.1; stroke-linejoin: miter"/>
   </g>
   <g id="patch_70">
    <path d="M 246.066477 289.4925 
L 248.304545 289.4925 
L 248.304545 289.4925 
L 246.066477 289.4925 
z
" style="fill: #1a1a1a; opacity: 0.25; stroke: #1a1a1a; stroke-width: 0.1; stroke-linejoin: miter"/>
   </g>
   <g id="patch_71">
    <path d="M 248.304545 289.4925 
L 250.542614 289.4925 
L 250.542614 289.4925 
L 248.304545 289.4925 
z
" style="fill: #1a1a1a; opacity: 0.25; stroke: #1a1a1a; stroke-width: 0.1; stroke-linejoin: miter"/>
   </g>
   <g id="patch_72">
    <path d="M 250.542614 289.4925 
L 252.780682 289.4925 
L 252.780682 199.22375 
L 250.542614 199.22375 
z
" style="fill: #1a1a1a; opacity: 0.25; stroke: #1a1a1a; stroke-width: 0.1; stroke-linejoin: miter"/>
   </g>
   <g id="patch_73">
    <path d="M 252.780682 289.4925 
L 255.01875 289.4925 
L 255.01875 289.4925 
L 252.780682 289.4925 
z
" style="fill: #1a1a1a; opacity: 0.25; stroke: #1a1a1a; stroke-width: 0.1; stroke-linejoin: miter"/>
   </g>
   <g id="patch_74">
    <path d="M 255.01875 289.4925 
L 257.256818 289.4925 
L 257.256818 289.4925 
L 255.01875 289.4925 
z
" style="fill: #1a1a1a; opacity: 0.25; stroke: #1a1a1a; stroke-width: 0.1; stroke-linejoin: miter"/>
   </g>
   <g id="patch_75">
    <path d="M 257.256818 289.4925 
L 259.494886 289.4925 
L 259.494886 289.4925 
L 257.256818 289.4925 
z
" style="fill: #1a1a1a; opacity: 0.25; stroke: #1a1a1a; stroke-width: 0.1; stroke-linejoin: miter"/>
   </g>
   <g id="patch_76">
    <path d="M 259.494886 289.4925 
L 261.732955 289.4925 
L 261.732955 289.4925 
L 259.494886 289.4925 
z
" style="fill: #1a1a1a; opacity: 0.25; stroke: #1a1a1a; stroke-width: 0.1; stroke-linejoin: miter"/>
   </g>
   <g id="patch_77">
    <path d="M 261.732955 289.4925 
L 263.971023 289.4925 
L 263.971023 289.4925 
L 261.732955 289.4925 
z
" style="fill: #1a1a1a; opacity: 0.25; stroke: #1a1a1a; stroke-width: 0.1; stroke-linejoin: miter"/>
   </g>
   <g id="patch_78">
    <path d="M 263.971023 289.4925 
L 266.209091 289.4925 
L 266.209091 289.4925 
L 263.971023 289.4925 
z
" style="fill: #1a1a1a; opacity: 0.25; stroke: #1a1a1a; stroke-width: 0.1; stroke-linejoin: miter"/>
   </g>
   <g id="patch_79">
    <path d="M 266.209091 289.4925 
L 268.447159 289.4925 
L 268.447159 289.4925 
L 266.209091 289.4925 
z
" style="fill: #1a1a1a; opacity: 0.25; stroke: #1a1a1a; stroke-width: 0.1; stroke-linejoin: miter"/>
   </g>
   <g id="patch_80">
    <path d="M 268.447159 289.4925 
L 270.685227 289.4925 
L 270.685227 289.4925 
L 268.447159 289.4925 
z
" style="fill: #1a1a1a; opacity: 0.25; stroke: #1a1a1a; stroke-width: 0.1; stroke-linejoin: miter"/>
   </g>
   <g id="patch_81">
    <path d="M 270.685227 289.4925 
L 272.923295 289.4925 
L 272.923295 289.4925 
L 270.685227 289.4925 
z
" style="fill: #1a1a1a; opacity: 0.25; stroke: #1a1a1a; stroke-width: 0.1; stroke-linejoin: miter"/>
   </g>
   <g id="patch_82">
    <path d="M 272.923295 289.4925 
L 275.161364 289.4925 
L 275.161364 289.4925 
L 272.923295 289.4925 
z
" style="fill: #1a1a1a; opacity: 0.25; stroke: #1a1a1a; stroke-width: 0.1; stroke-linejoin: miter"/>
   </g>
   <g id="patch_83">
    <path d="M 275.161364 289.4925 
L 277.399432 289.4925 
L 277.399432 289.4925 
L 275.161364 289.4925 
z
" style="fill: #1a1a1a; opacity: 0.25; stroke: #1a1a1a; stroke-width: 0.1; stroke-linejoin: miter"/>
   </g>
   <g id="patch_84">
    <path d="M 277.399432 289.4925 
L 279.6375 289.4925 
L 279.6375 289.4925 
L 277.399432 289.4925 
z
" style="fill: #1a1a1a; opacity: 0.25; stroke: #1a1a1a; stroke-width: 0.1; stroke-linejoin: miter"/>
   </g>
   <g id="patch_85">
    <path d="M 279.6375 289.4925 
L 281.875568 289.4925 
L 281.875568 289.4925 
L 279.6375 289.4925 
z
" style="fill: #1a1a1a; opacity: 0.25; stroke: #1a1a1a; stroke-width: 0.1; stroke-linejoin: miter"/>
   </g>
   <g id="patch_86">
    <path d="M 281.875568 289.4925 
L 284.113636 289.4925 
L 284.113636 289.4925 
L 281.875568 289.4925 
z
" style="fill: #1a1a1a; opacity: 0.25; stroke: #1a1a1a; stroke-width: 0.1; stroke-linejoin: miter"/>
   </g>
   <g id="patch_87">
    <path d="M 284.113636 289.4925 
L 286.351705 289.4925 
L 286.351705 289.4925 
L 284.113636 289.4925 
z
" style="fill: #1a1a1a; opacity: 0.25; stroke: #1a1a1a; stroke-width: 0.1; stroke-linejoin: miter"/>
   </g>
   <g id="patch_88">
    <path d="M 286.351705 289.4925 
L 288.589773 289.4925 
L 288.589773 289.4925 
L 286.351705 289.4925 
z
" style="fill: #1a1a1a; opacity: 0.25; stroke: #1a1a1a; stroke-width: 0.1; stroke-linejoin: miter"/>
   </g>
   <g id="patch_89">
    <path d="M 288.589773 289.4925 
L 290.827841 289.4925 
L 290.827841 289.4925 
L 288.589773 289.4925 
z
" style="fill: #1a1a1a; opacity: 0.25; stroke: #1a1a1a; stroke-width: 0.1; stroke-linejoin: miter"/>
   </g>
   <g id="patch_90">
    <path d="M 290.827841 289.4925 
L 293.065909 289.4925 
L 293.065909 289.4925 
L 290.827841 289.4925 
z
" style="fill: #1a1a1a; opacity: 0.25; stroke: #1a1a1a; stroke-width: 0.1; stroke-linejoin: miter"/>
   </g>
   <g id="patch_91">
    <path d="M 293.065909 289.4925 
L 295.303977 289.4925 
L 295.303977 289.4925 
L 293.065909 289.4925 
z
" style="fill: #1a1a1a; opacity: 0.25; stroke: #1a1a1a; stroke-width: 0.1; stroke-linejoin: miter"/>
   </g>
   <g id="patch_92">
    <path d="M 295.303977 289.4925 
L 297.542045 289.4925 
L 297.542045 289.4925 
L 295.303977 289.4925 
z
" style="fill: #1a1a1a; opacity: 0.25; stroke: #1a1a1a; stroke-width: 0.1; stroke-linejoin: miter"/>
   </g>
   <g id="patch_93">
    <path d="M 297.542045 289.4925 
L 299.780114 289.4925 
L 299.780114 289.4925 
L 297.542045 289.4925 
z
" style="fill: #1a1a1a; opacity: 0.25; stroke: #1a1a1a; stroke-width: 0.1; stroke-linejoin: miter"/>
   </g>
   <g id="patch_94">
    <path d="M 299.780114 289.4925 
L 302.018182 289.4925 
L 302.018182 289.4925 
L 299.780114 289.4925 
z
" style="fill: #1a1a1a; opacity: 0.25; stroke: #1a1a1a; stroke-width: 0.1; stroke-linejoin: miter"/>
   </g>
   <g id="patch_95">
    <path d="M 302.018182 289.4925 
L 304.25625 289.4925 
L 304.25625 289.4925 
L 302.018182 289.4925 
z
" style="fill: #1a1a1a; opacity: 0.25; stroke: #1a1a1a; stroke-width: 0.1; stroke-linejoin: miter"/>
   </g>
   <g id="patch_96">
    <path d="M 304.25625 289.4925 
L 306.494318 289.4925 
L 306.494318 289.4925 
L 304.25625 289.4925 
z
" style="fill: #1a1a1a; opacity: 0.25; stroke: #1a1a1a; stroke-width: 0.1; stroke-linejoin: miter"/>
   </g>
   <g id="patch_97">
    <path d="M 306.494318 289.4925 
L 308.732386 289.4925 
L 308.732386 289.4925 
L 306.494318 289.4925 
z
" style="fill: #1a1a1a; opacity: 0.25; stroke: #1a1a1a; stroke-width: 0.1; stroke-linejoin: miter"/>
   </g>
   <g id="patch_98">
    <path d="M 308.732386 289.4925 
L 310.970455 289.4925 
L 310.970455 289.4925 
L 308.732386 289.4925 
z
" style="fill: #1a1a1a; opacity: 0.25; stroke: #1a1a1a; stroke-width: 0.1; stroke-linejoin: miter"/>
   </g>
   <g id="patch_99">
    <path d="M 310.970455 289.4925 
L 313.208523 289.4925 
L 313.208523 289.4925 
L 310.970455 289.4925 
z
" style="fill: #1a1a1a; opacity: 0.25; stroke: #1a1a1a; stroke-width: 0.1; stroke-linejoin: miter"/>
   </g>
   <g id="patch_100">
    <path d="M 313.208523 289.4925 
L 315.446591 289.4925 
L 315.446591 289.4925 
L 313.208523 289.4925 
z
" style="fill: #1a1a1a; opacity: 0.25; stroke: #1a1a1a; stroke-width: 0.1; stroke-linejoin: miter"/>
   </g>
   <g id="patch_101">
    <path d="M 315.446591 289.4925 
L 317.684659 289.4925 
L 317.684659 289.4925 
L 315.446591 289.4925 
z
" style="fill: #1a1a1a; opacity: 0.25; stroke: #1a1a1a; stroke-width: 0.1; stroke-linejoin: miter"/>
   </g>
   <g id="patch_102">
    <path d="M 317.684659 289.4925 
L 319.922727 289.4925 
L 319.922727 289.4925 
L 317.684659 289.4925 
z
" style="fill: #1a1a1a; opacity: 0.25; stroke: #1a1a1a; stroke-width: 0.1; stroke-linejoin: miter"/>
   </g>
   <g id="patch_103">
    <path d="M 319.922727 289.4925 
L 322.160795 289.4925 
L 322.160795 289.4925 
L 319.922727 289.4925 
z
" style="fill: #1a1a1a; opacity: 0.25; stroke: #1a1a1a; stroke-width: 0.1; stroke-linejoin: miter"/>
   </g>
   <g id="patch_104">
    <path d="M 322.160795 289.4925 
L 324.398864 289.4925 
L 324.398864 289.4925 
L 322.160795 289.4925 
z
" style="fill: #1a1a1a; opacity: 0.25; stroke: #1a1a1a; stroke-width: 0.1; stroke-linejoin: miter"/>
   </g>
   <g id="patch_105">
    <path d="M 324.398864 289.4925 
L 326.636932 289.4925 
L 326.636932 289.4925 
L 324.398864 289.4925 
z
" style="fill: #1a1a1a; opacity: 0.25; stroke: #1a1a1a; stroke-width: 0.1; stroke-linejoin: miter"/>
   </g>
   <g id="patch_106">
    <path d="M 326.636932 289.4925 
L 328.875 289.4925 
L 328.875 289.4925 
L 326.636932 289.4925 
z
" style="fill: #1a1a1a; opacity: 0.25; stroke: #1a1a1a; stroke-width: 0.1; stroke-linejoin: miter"/>
   </g>
   <g id="patch_107">
    <path d="M 328.875 289.4925 
L 331.113068 289.4925 
L 331.113068 289.4925 
L 328.875 289.4925 
z
" style="fill: #1a1a1a; opacity: 0.25; stroke: #1a1a1a; stroke-width: 0.1; stroke-linejoin: miter"/>
   </g>
   <g id="patch_108">
    <path d="M 331.113068 289.4925 
L 333.351136 289.4925 
L 333.351136 289.4925 
L 331.113068 289.4925 
z
" style="fill: #1a1a1a; opacity: 0.25; stroke: #1a1a1a; stroke-width: 0.1; stroke-linejoin: miter"/>
   </g>
   <g id="patch_109">
    <path d="M 333.351136 289.4925 
L 335.589205 289.4925 
L 335.589205 289.4925 
L 333.351136 289.4925 
z
" style="fill: #1a1a1a; opacity: 0.25; stroke: #1a1a1a; stroke-width: 0.1; stroke-linejoin: miter"/>
   </g>
   <g id="patch_110">
    <path d="M 335.589205 289.4925 
L 337.827273 289.4925 
L 337.827273 289.4925 
L 335.589205 289.4925 
z
" style="fill: #1a1a1a; opacity: 0.25; stroke: #1a1a1a; stroke-width: 0.1; stroke-linejoin: miter"/>
   </g>
   <g id="patch_111">
    <path d="M 337.827273 289.4925 
L 340.065341 289.4925 
L 340.065341 289.4925 
L 337.827273 289.4925 
z
" style="fill: #1a1a1a; opacity: 0.25; stroke: #1a1a1a; stroke-width: 0.1; stroke-linejoin: miter"/>
   </g>
   <g id="patch_112">
    <path d="M 340.065341 289.4925 
L 342.303409 289.4925 
L 342.303409 289.4925 
L 340.065341 289.4925 
z
" style="fill: #1a1a1a; opacity: 0.25; stroke: #1a1a1a; stroke-width: 0.1; stroke-linejoin: miter"/>
   </g>
   <g id="patch_113">
    <path d="M 342.303409 289.4925 
L 344.541477 289.4925 
L 344.541477 289.4925 
L 342.303409 289.4925 
z
" style="fill: #1a1a1a; opacity: 0.25; stroke: #1a1a1a; stroke-width: 0.1; stroke-linejoin: miter"/>
   </g>
   <g id="patch_114">
    <path d="M 344.541477 289.4925 
L 346.779545 289.4925 
L 346.779545 289.4925 
L 344.541477 289.4925 
z
" style="fill: #1a1a1a; opacity: 0.25; stroke: #1a1a1a; stroke-width: 0.1; stroke-linejoin: miter"/>
   </g>
   <g id="patch_115">
    <path d="M 346.779545 289.4925 
L 349.017614 289.4925 
L 349.017614 289.4925 
L 346.779545 289.4925 
z
" style="fill: #1a1a1a; opacity: 0.25; stroke: #1a1a1a; stroke-width: 0.1; stroke-linejoin: miter"/>
   </g>
   <g id="patch_116">
    <path d="M 349.017614 289.4925 
L 351.255682 289.4925 
L 351.255682 289.4925 
L 349.017614 289.4925 
z
" style="fill: #1a1a1a; opacity: 0.25; stroke: #1a1a1a; stroke-width: 0.1; stroke-linejoin: miter"/>
   </g>
   <g id="patch_117">
    <path d="M 351.255682 289.4925 
L 353.49375 289.4925 
L 353.49375 289.4925 
L 351.255682 289.4925 
z
" style="fill: #1a1a1a; opacity: 0.25; stroke: #1a1a1a; stroke-width: 0.1; stroke-linejoin: miter"/>
   </g>
   <g id="patch_118">
    <path d="M 353.49375 289.4925 
L 355.731818 289.4925 
L 355.731818 289.4925 
L 353.49375 289.4925 
z
" style="fill: #1a1a1a; opacity: 0.25; stroke: #1a1a1a; stroke-width: 0.1; stroke-linejoin: miter"/>
   </g>
   <g id="patch_119">
    <path d="M 355.731818 289.4925 
L 357.969886 289.4925 
L 357.969886 289.4925 
L 355.731818 289.4925 
z
" style="fill: #1a1a1a; opacity: 0.25; stroke: #1a1a1a; stroke-width: 0.1; stroke-linejoin: miter"/>
   </g>
   <g id="patch_120">
    <path d="M 357.969886 289.4925 
L 360.207955 289.4925 
L 360.207955 289.4925 
L 357.969886 289.4925 
z
" style="fill: #1a1a1a; opacity: 0.25; stroke: #1a1a1a; stroke-width: 0.1; stroke-linejoin: miter"/>
   </g>
   <g id="patch_121">
    <path d="M 360.207955 289.4925 
L 362.446023 289.4925 
L 362.446023 289.4925 
L 360.207955 289.4925 
z
" style="fill: #1a1a1a; opacity: 0.25; stroke: #1a1a1a; stroke-width: 0.1; stroke-linejoin: miter"/>
   </g>
   <g id="patch_122">
    <path d="M 362.446023 289.4925 
L 364.684091 289.4925 
L 364.684091 289.4925 
L 362.446023 289.4925 
z
" style="fill: #1a1a1a; opacity: 0.25; stroke: #1a1a1a; stroke-width: 0.1; stroke-linejoin: miter"/>
   </g>
   <g id="patch_123">
    <path d="M 364.684091 289.4925 
L 366.922159 289.4925 
L 366.922159 289.4925 
L 364.684091 289.4925 
z
" style="fill: #1a1a1a; opacity: 0.25; stroke: #1a1a1a; stroke-width: 0.1; stroke-linejoin: miter"/>
   </g>
   <g id="patch_124">
    <path d="M 94.996875 289.4925 
L 94.996875 18.68625 
" style="fill: none; stroke: #262626; stroke-width: 1.25; stroke-linejoin: miter; stroke-linecap: square"/>
   </g>
   <g id="patch_125">
    <path d="M 94.996875 289.4925 
L 365.803125 289.4925 
" style="fill: none; stroke: #262626; stroke-width: 1.25; stroke-linejoin: miter; stroke-linecap: square"/>
   </g>
  </g>
  <g id="axes_2">
   <g id="matplotlib.axis_3">
    <g id="ytick_5">
     <g id="line2d_12">
      <defs>
       <path id="mbdffb85bf7" d="M 0 0 
L 6 0 
" style="stroke: #1f77b4; stroke-width: 1.25"/>
      </defs>
      <g>
       <use xlink:href="#mbdffb85bf7" x="365.803125" y="289.4925" style="fill: #1f77b4; stroke: #1f77b4; stroke-width: 1.25"/>
      </g>
     </g>
     <g id="text_14">
      <text style="fill: #1f77b4; font: 16px 'Arial', 'DejaVu Sans', 'Liberation Sans', 'Bitstream Vera Sans', sans-serif; text-anchor: start" x="375.303125" y="295.21875" transform="rotate(-0 375.303125 295.21875)">0.0</text>
     </g>
    </g>
    <g id="ytick_6">
     <g id="line2d_13">
      <g>
       <use xlink:href="#mbdffb85bf7" x="365.803125" y="235.33125" style="fill: #1f77b4; stroke: #1f77b4; stroke-width: 1.25"/>
      </g>
     </g>
     <g id="text_15">
      <text style="fill: #1f77b4; font: 16px 'Arial', 'DejaVu Sans', 'Liberation Sans', 'Bitstream Vera Sans', sans-serif; text-anchor: start" x="375.303125" y="241.0575" transform="rotate(-0 375.303125 241.0575)">0.2</text>
     </g>
    </g>
    <g id="ytick_7">
     <g id="line2d_14">
      <g>
       <use xlink:href="#mbdffb85bf7" x="365.803125" y="181.17" style="fill: #1f77b4; stroke: #1f77b4; stroke-width: 1.25"/>
      </g>
     </g>
     <g id="text_16">
      <text style="fill: #1f77b4; font: 16px 'Arial', 'DejaVu Sans', 'Liberation Sans', 'Bitstream Vera Sans', sans-serif; text-anchor: start" x="375.303125" y="186.89625" transform="rotate(-0 375.303125 186.89625)">0.4</text>
     </g>
    </g>
    <g id="ytick_8">
     <g id="line2d_15">
      <g>
       <use xlink:href="#mbdffb85bf7" x="365.803125" y="127.00875" style="fill: #1f77b4; stroke: #1f77b4; stroke-width: 1.25"/>
      </g>
     </g>
     <g id="text_17">
      <text style="fill: #1f77b4; font: 16px 'Arial', 'DejaVu Sans', 'Liberation Sans', 'Bitstream Vera Sans', sans-serif; text-anchor: start" x="375.303125" y="132.735" transform="rotate(-0 375.303125 132.735)">0.6</text>
     </g>
    </g>
    <g id="ytick_9">
     <g id="line2d_16">
      <g>
       <use xlink:href="#mbdffb85bf7" x="365.803125" y="72.8475" style="fill: #1f77b4; stroke: #1f77b4; stroke-width: 1.25"/>
      </g>
     </g>
     <g id="text_18">
      <text style="fill: #1f77b4; font: 16px 'Arial', 'DejaVu Sans', 'Liberation Sans', 'Bitstream Vera Sans', sans-serif; text-anchor: start" x="375.303125" y="78.57375" transform="rotate(-0 375.303125 78.57375)">0.8</text>
     </g>
    </g>
    <g id="ytick_10">
     <g id="line2d_17">
      <g>
       <use xlink:href="#mbdffb85bf7" x="365.803125" y="18.68625" style="fill: #1f77b4; stroke: #1f77b4; stroke-width: 1.25"/>
      </g>
     </g>
     <g id="text_19">
      <text style="fill: #1f77b4; font: 16px 'Arial', 'DejaVu Sans', 'Liberation Sans', 'Bitstream Vera Sans', sans-serif; text-anchor: start" x="375.303125" y="24.4125" transform="rotate(-0 375.303125 24.4125)">1.0</text>
     </g>
    </g>
    <g id="text_20">
     <text style="fill: #1f77b4; font: 16px 'Arial', 'DejaVu Sans', 'Liberation Sans', 'Bitstream Vera Sans', sans-serif; text-anchor: middle" x="413.190625" y="154.089375" transform="rotate(-90 413.190625 154.089375)">End-of-outbreak probability</text>
    </g>
   </g>
   <g id="PolyCollection_1">
    <defs>
     <path id="mb3e5423094" d="M 97.234943 -250.667525 
L 97.234943 -250.667525 
L 99.473011 -251.721993 
L 101.71108 -254.110469 
L 103.949148 -257.815955 
L 106.187216 -88.82398 
L 108.425284 -94.693215 
L 110.663352 -101.918846 
L 112.90142 -110.460154 
L 115.139489 -66.265092 
L 117.377557 -58.582781 
L 119.615625 -59.909709 
L 121.853693 -57.333249 
L 124.091761 -56.173116 
L 126.32983 -56.257957 
L 128.567898 -56.415177 
L 130.805966 -56.256721 
L 133.044034 -56.45857 
L 135.282102 -56.14639 
L 137.52017 -56.21083 
L 139.758239 -56.371056 
L 141.996307 -56.735839 
L 144.234375 -56.450208 
L 146.472443 -56.861308 
L 148.710511 -57.557074 
L 150.94858 -58.825642 
L 153.186648 -56.460101 
L 155.424716 -56.866504 
L 157.662784 -56.196601 
L 159.900852 -56.333868 
L 162.13892 -56.599873 
L 164.376989 -57.20551 
L 166.615057 -56.607393 
L 168.853125 -57.201645 
L 171.091193 -56.222975 
L 173.329261 -56.176294 
L 175.56733 -56.277146 
L 177.805398 -56.503504 
L 180.043466 -56.321156 
L 182.281534 -56.223485 
L 184.519602 -56.110611 
L 186.75767 -56.117633 
L 188.995739 -56.114813 
L 191.233807 -56.108742 
L 193.471875 -56.107774 
L 195.709943 -56.107773 
L 197.948011 -56.108861 
L 200.18608 -56.113443 
L 202.424148 -56.129466 
L 204.662216 -56.126816 
L 206.900284 -56.166981 
L 209.138352 -56.277597 
L 211.37642 -56.526117 
L 213.614489 -57.0968 
L 215.852557 -58.083246 
L 218.090625 -59.703586 
L 220.328693 -62.316162 
L 222.566761 -60.285575 
L 224.80483 -63.065084 
L 227.042898 -66.459354 
L 229.280966 -71.849969 
L 231.519034 -57.167373 
L 233.757102 -58.174451 
L 235.99517 -56.779849 
L 238.233239 -57.608473 
L 240.471307 -58.875967 
L 242.709375 -61.94989 
L 244.947443 -64.837613 
L 247.185511 -69.919458 
L 249.42358 -76.169796 
L 251.661648 -64.556176 
L 253.899716 -68.87422 
L 256.137784 -73.808608 
L 258.375852 -81.048505 
L 260.61392 -88.93774 
L 262.851989 -98.551797 
L 265.090057 -109.904748 
L 267.328125 -121.256636 
L 269.566193 -134.077048 
L 271.804261 -147.598792 
L 274.04233 -159.595923 
L 276.280398 -173.819213 
L 278.518466 -186.547942 
L 280.756534 -198.169952 
L 282.994602 -210.945368 
L 285.23267 -222.336319 
L 287.470739 -231.92153 
L 289.708807 -243.247171 
L 291.946875 -251.469522 
L 294.184943 -261.499631 
L 296.423011 -267.014346 
L 298.66108 -274.904752 
L 300.899148 -280.884444 
L 303.137216 -286.619169 
L 305.375284 -291.351738 
L 307.613352 -295.702937 
L 309.85142 -298.976558 
L 312.089489 -303.004608 
L 314.327557 -305.836301 
L 316.565625 -308.762187 
L 318.803693 -310.955397 
L 321.041761 -313.104744 
L 323.27983 -314.558448 
L 325.517898 -316.502392 
L 327.755966 -317.892149 
L 329.994034 -319.020096 
L 332.232102 -320.163366 
L 334.47017 -321.052233 
L 336.708239 -321.839825 
L 338.946307 -322.633862 
L 341.184375 -323.218187 
L 343.422443 -323.686395 
L 345.660511 -324.127289 
L 347.89858 -324.513264 
L 350.136648 -324.887948 
L 352.374716 -325.156065 
L 354.612784 -325.417993 
L 356.850852 -325.625251 
L 359.08892 -325.823274 
L 361.326989 -325.98981 
L 363.565057 -326.13107 
L 365.803125 -326.240639 
L 365.803125 -326.600381 
L 365.803125 -326.600381 
L 363.565057 -326.549971 
L 361.326989 -326.487023 
L 359.08892 -326.409557 
L 356.850852 -326.319903 
L 354.612784 -326.220814 
L 352.374716 -326.110926 
L 350.136648 -325.970261 
L 347.89858 -325.817021 
L 345.660511 -325.614712 
L 343.422443 -325.411316 
L 341.184375 -325.177059 
L 338.946307 -324.888151 
L 336.708239 -324.493665 
L 334.47017 -324.129196 
L 332.232102 -323.633297 
L 329.994034 -323.126769 
L 327.755966 -322.562435 
L 325.517898 -321.896004 
L 323.27983 -320.985342 
L 321.041761 -320.096188 
L 318.803693 -318.955969 
L 316.565625 -317.778163 
L 314.327557 -316.439816 
L 312.089489 -314.832835 
L 309.85142 -313.08888 
L 307.613352 -311.077239 
L 305.375284 -308.836802 
L 303.137216 -306.204369 
L 300.899148 -303.274086 
L 298.66108 -299.980632 
L 296.423011 -296.267733 
L 294.184943 -292.351403 
L 291.946875 -287.567111 
L 289.708807 -282.576483 
L 287.470739 -276.510214 
L 285.23267 -270.41258 
L 282.994602 -263.215345 
L 280.756534 -255.583504 
L 278.518466 -247.040888 
L 276.280398 -238.212769 
L 274.04233 -228.46984 
L 271.804261 -217.890903 
L 269.566193 -206.611248 
L 267.328125 -195.19617 
L 265.090057 -183.233254 
L 262.851989 -170.683995 
L 260.61392 -159.014752 
L 258.375852 -147.206581 
L 256.137784 -135.83828 
L 253.899716 -125.074871 
L 251.661648 -115.150101 
L 249.42358 -134.304509 
L 247.185511 -122.885156 
L 244.947443 -111.699883 
L 242.709375 -101.602484 
L 240.471307 -92.541114 
L 238.233239 -85.370722 
L 235.99517 -78.921084 
L 233.757102 -86.29206 
L 231.519034 -80.056258 
L 229.280966 -107.545732 
L 227.042898 -96.852909 
L 224.80483 -88.110726 
L 222.566761 -81.060483 
L 220.328693 -87.643416 
L 218.090625 -79.077613 
L 215.852557 -72.649265 
L 213.614489 -67.387472 
L 211.37642 -63.05431 
L 209.138352 -60.06165 
L 206.900284 -58.374331 
L 204.662216 -57.30042 
L 202.424148 -57.379859 
L 200.18608 -56.739903 
L 197.948011 -56.380067 
L 195.709943 -56.21444 
L 193.471875 -56.221278 
L 191.233807 -56.445555 
L 188.995739 -57.193707 
L 186.75767 -57.62146 
L 184.519602 -56.852793 
L 182.281534 -62.098584 
L 180.043466 -64.530278 
L 177.805398 -67.557801 
L 175.56733 -63.763063 
L 173.329261 -61.027264 
L 171.091193 -62.494295 
L 168.853125 -73.423413 
L 166.615057 -68.054771 
L 164.376989 -72.074748 
L 162.13892 -67.62786 
L 159.900852 -63.921909 
L 157.662784 -61.088407 
L 155.424716 -69.623348 
L 153.186648 -65.920779 
L 150.94858 -73.770791 
L 148.710511 -68.665259 
L 146.472443 -64.764041 
L 144.234375 -61.886174 
L 141.996307 -62.614882 
L 139.758239 -60.278316 
L 137.52017 -58.697298 
L 135.282102 -57.664599 
L 133.044034 -59.809019 
L 130.805966 -58.372879 
L 128.567898 -59.120462 
L 126.32983 -57.936842 
L 124.091761 -57.186724 
L 121.853693 -60.888345 
L 119.615625 -65.611622 
L 117.377557 -62.757165 
L 115.139489 -73.187122 
L 112.90142 -110.460154 
L 110.663352 -101.918846 
L 108.425284 -94.693215 
L 106.187216 -88.82398 
L 103.949148 -257.815955 
L 101.71108 -254.110469 
L 99.473011 -251.721993 
L 97.234943 -250.667525 
z
" style="stroke: #ffffff; stroke-opacity: 0.5"/>
    </defs>
    <g>
     <use xlink:href="#mb3e5423094" x="0" y="345.6" style="fill: #4c72b0; fill-opacity: 0.5; stroke: #ffffff; stroke-opacity: 0.5"/>
    </g>
   </g>
   <g id="line2d_18">
    <path d="M 97.234943 94.932475 
L 99.473011 93.878007 
L 101.71108 91.489531 
L 103.949148 87.784045 
L 106.187216 256.77602 
L 108.425284 250.906785 
L 110.663352 243.681154 
L 112.90142 235.139846 
L 115.139489 273.3586 
L 117.377557 283.623949 
L 119.615625 280.972617 
L 121.853693 285.642282 
L 124.091761 288.836823 
L 126.32983 288.31202 
L 128.567898 287.427334 
L 130.805966 288.207986 
L 133.044034 287.22599 
L 135.282102 288.922187 
L 137.52017 288.419013 
L 139.758239 287.538901 
L 141.996307 286.020517 
L 144.234375 287.143158 
L 146.472443 285.504076 
L 148.710511 283.025705 
L 150.94858 279.545829 
L 153.186648 286.573982 
L 155.424716 284.703225 
L 157.662784 288.132395 
L 159.900852 287.121525 
L 162.13892 285.52116 
L 164.376989 283.147655 
L 166.615057 285.367709 
L 168.853125 282.824759 
L 171.091193 287.805119 
L 173.329261 288.324896 
L 175.56733 287.438253 
L 177.805398 285.860821 
L 180.043466 287.163587 
L 182.281534 287.989358 
L 184.519602 289.359485 
L 186.75767 289.198678 
L 188.995739 289.272748 
L 191.233807 289.431673 
L 193.471875 289.475042 
L 195.709943 289.475553 
L 197.948011 289.442305 
L 200.18608 289.360297 
L 202.424148 289.166963 
L 204.662216 289.209517 
L 206.900284 288.870891 
L 209.138352 288.229998 
L 211.37642 287.084514 
L 213.614489 285.107674 
L 215.852557 282.342373 
L 218.090625 278.371625 
L 220.328693 273.064487 
L 222.566761 277.335939 
L 224.80483 272.25852 
L 227.042898 265.993279 
L 229.280966 258.322185 
L 231.519034 278.077413 
L 233.757102 273.792174 
L 235.99517 279.308296 
L 238.233239 275.06813 
L 240.471307 269.851224 
L 242.709375 262.938292 
L 244.947443 254.820519 
L 247.185511 244.922502 
L 249.42358 234.535673 
L 251.661648 257.283725 
L 253.899716 248.862619 
L 256.137784 239.656509 
L 258.375852 228.693291 
L 260.61392 217.31995 
L 262.851989 205.315037 
L 265.090057 192.443158 
L 267.328125 179.747905 
L 269.566193 167.012662 
L 271.804261 154.147298 
L 274.04233 141.941169 
L 276.280398 130.073999 
L 278.518466 119.552879 
L 280.756534 109.500339 
L 282.994602 99.890358 
L 285.23267 91.365366 
L 287.470739 83.493718 
L 289.708807 76.016414 
L 291.946875 69.638883 
L 294.184943 63.467993 
L 296.423011 58.462166 
L 298.66108 53.669396 
L 300.899148 49.458176 
L 303.137216 45.596548 
L 305.375284 42.311816 
L 307.613352 39.417608 
L 309.85142 36.788352 
L 312.089489 34.47929 
L 314.327557 32.441962 
L 316.565625 30.657868 
L 318.803693 29.096563 
L 321.041761 27.699084 
L 323.27983 26.523061 
L 325.517898 25.402522 
L 327.755966 24.496706 
L 329.994034 23.74332 
L 332.232102 23.045632 
L 334.47017 22.432965 
L 336.708239 21.939314 
L 338.946307 21.433515 
L 341.184375 21.041958 
L 343.422443 20.72624 
L 345.660511 20.451552 
L 347.89858 20.18776 
L 350.136648 19.973692 
L 352.374716 19.764679 
L 354.612784 19.61677 
L 356.850852 19.476724 
L 359.08892 19.352576 
L 361.326989 19.241676 
L 363.565057 19.154712 
L 365.803125 19.087927 
" style="fill: none; stroke: #4c72b0; stroke-width: 2; stroke-linecap: round"/>
   </g>
   <g id="line2d_19">
    <path d="M 97.234943 94.932475 
L 99.473011 93.878007 
L 101.71108 91.489531 
L 103.949148 87.784045 
L 106.187216 256.77602 
L 108.425284 250.906785 
L 110.663352 243.681154 
L 112.90142 235.139846 
L 115.139489 272.412878 
L 117.377557 282.842835 
L 119.615625 279.988378 
L 121.853693 286.344665 
L 124.091761 289.28561 
L 126.32983 289.088307 
L 128.567898 288.723422 
L 130.805966 288.827908 
L 133.044034 288.255774 
L 135.282102 289.219536 
L 137.52017 288.942323 
L 139.758239 288.43907 
L 141.996307 287.57327 
L 144.234375 287.535031 
L 146.472443 286.174891 
L 148.710511 284.120685 
L 150.94858 281.160867 
L 153.186648 286.329124 
L 155.424716 284.524877 
L 157.662784 286.74199 
L 159.900852 285.221823 
L 162.13892 283.009328 
L 164.376989 279.878837 
L 166.615057 281.782093 
L 168.853125 278.305834 
L 171.091193 283.066221 
L 173.329261 287.322978 
L 175.56733 286.043696 
L 177.805398 284.12791 
L 180.043466 286.820064 
L 182.281534 287.940862 
L 184.519602 289.337568 
L 186.75767 289.174096 
L 188.995739 289.286219 
L 191.233807 289.446653 
L 193.471875 289.465693 
L 195.709943 289.457945 
L 197.948011 289.407219 
L 200.18608 289.293583 
L 202.424148 289.056119 
L 204.662216 289.306224 
L 206.900284 289.083223 
L 209.138352 288.652473 
L 211.37642 287.878715 
L 213.614489 286.584304 
L 215.852557 284.560678 
L 218.090625 281.589938 
L 220.328693 277.472195 
L 222.566761 279.797698 
L 224.80483 275.517971 
L 227.042898 270.039345 
L 229.280966 263.231155 
L 231.519034 274.853122 
L 233.757102 270.154892 
L 235.99517 273.4386 
L 238.233239 268.480264 
L 240.471307 262.293401 
L 242.709375 254.757789 
L 244.947443 245.87654 
L 247.185511 235.75918 
L 249.42358 224.595292 
L 251.661648 266.620808 
L 253.899716 259.964141 
L 256.137784 252.139237 
L 258.375852 243.10493 
L 260.61392 232.937332 
L 262.851989 221.803152 
L 265.090057 209.886247 
L 267.328125 197.514497 
L 269.566193 184.894347 
L 271.804261 172.253924 
L 274.04233 159.760052 
L 276.280398 147.649481 
L 278.518466 136.02035 
L 280.756534 124.973258 
L 282.994602 114.49081 
L 285.23267 104.78307 
L 287.470739 95.811641 
L 289.708807 87.556243 
L 291.946875 79.987499 
L 294.184943 73.127304 
L 296.423011 66.917654 
L 298.66108 61.317671 
L 300.899148 56.293461 
L 303.137216 51.791592 
L 305.375284 47.78383 
L 307.613352 44.219885 
L 309.85142 41.058882 
L 312.089489 38.258263 
L 314.327557 35.78932 
L 316.565625 33.613808 
L 318.803693 31.700355 
L 321.041761 30.012639 
L 323.27983 28.540721 
L 325.517898 27.031515 
L 327.755966 25.935992 
L 329.994034 24.979065 
L 332.232102 24.144164 
L 334.47017 23.369426 
L 336.708239 22.742596 
L 338.946307 22.167787 
L 341.184375 21.694143 
L 343.422443 21.286742 
L 345.660511 20.933196 
L 347.89858 20.55721 
L 350.136648 20.297592 
L 352.374716 20.064869 
L 354.612784 19.875331 
L 356.850852 19.707405 
L 359.08892 19.536386 
L 361.326989 19.41075 
L 363.565057 19.306221 
L 365.803125 19.219939 
" style="fill: none; stroke-dasharray: 7.4,3.2; stroke-dashoffset: 0; stroke: #1a1a1a; stroke-width: 2"/>
   </g>
   <g id="line2d_20">
    <path d="M 97.234943 94.932475 
L 99.473011 94.76193 
L 101.71108 94.355907 
L 103.949148 93.66773 
L 106.187216 148.107398 
L 108.425284 147.098118 
L 110.663352 145.739689 
L 112.90142 144.009106 
L 115.139489 183.467911 
L 117.377557 211.996536 
L 119.615625 210.343031 
L 121.853693 231.170197 
L 124.091761 258.461267 
L 126.32983 257.289167 
L 128.567898 255.832231 
L 130.805966 264.034622 
L 133.044034 262.494701 
L 135.282102 274.611987 
L 137.52017 273.474543 
L 139.758239 272.114485 
L 141.996307 270.498912 
L 144.234375 274.481351 
L 146.472443 272.875434 
L 148.710511 270.995367 
L 150.94858 268.804586 
L 153.186648 277.504566 
L 155.424716 275.974079 
L 157.662784 281.591167 
L 159.900852 280.49659 
L 162.13892 279.197261 
L 164.376989 277.655589 
L 166.615057 279.679778 
L 168.853125 278.13241 
L 171.091193 282.687147 
L 173.329261 283.798633 
L 175.56733 282.835487 
L 177.805398 281.680278 
L 180.043466 282.88615 
L 182.281534 283.890284 
L 184.519602 287.033269 
L 186.75767 286.56682 
L 188.995739 286.978799 
L 191.233807 287.931872 
L 193.471875 288.51703 
L 195.709943 288.636924 
L 197.948011 288.438754 
L 200.18608 288.183948 
L 202.424148 287.856173 
L 204.662216 288.014574 
L 206.900284 287.626141 
L 209.138352 287.128062 
L 211.37642 286.491337 
L 213.614489 285.681323 
L 215.852557 284.657047 
L 218.090625 283.370926 
L 220.328693 281.768851 
L 222.566761 282.522329 
L 224.80483 280.776915 
L 227.042898 278.649573 
L 229.280966 276.078306 
L 231.519034 280.980275 
L 233.757102 279.081882 
L 235.99517 280.391705 
L 238.233239 278.466355 
L 240.471307 276.192657 
L 242.709375 273.525457 
L 244.947443 270.423019 
L 247.185511 266.847504 
L 249.42358 262.766464 
L 251.661648 266.977695 
L 253.899716 263.247225 
L 256.137784 259.073331 
L 258.375852 254.432072 
L 260.61392 249.309822 
L 262.851989 243.701147 
L 265.090057 237.604137 
L 267.328125 231.039732 
L 269.566193 224.022733 
L 271.804261 216.581224 
L 274.04233 208.74401 
L 276.280398 200.570198 
L 278.518466 192.102833 
L 280.756534 183.398855 
L 282.994602 174.509616 
L 285.23267 165.511155 
L 287.470739 156.483371 
L 289.708807 147.468992 
L 291.946875 138.534459 
L 294.184943 129.787595 
L 296.423011 121.257725 
L 298.66108 112.982811 
L 300.899148 105.044389 
L 303.137216 97.429194 
L 305.375284 90.243663 
L 307.613352 83.472199 
L 309.85142 77.130754 
L 312.089489 71.207659 
L 314.327557 65.746722 
L 316.565625 60.720242 
L 318.803693 56.117837 
L 321.041761 51.881029 
L 323.27983 48.08414 
L 325.517898 44.611082 
L 327.755966 41.534608 
L 329.994034 38.778869 
L 332.232102 36.319268 
L 334.47017 34.107858 
L 336.708239 32.170692 
L 338.946307 30.410053 
L 341.184375 28.881739 
L 343.422443 27.561228 
L 345.660511 26.401728 
L 347.89858 25.361456 
L 350.136648 24.451885 
L 352.374716 23.609182 
L 354.612784 22.948607 
L 356.850852 22.348891 
L 359.08892 21.803073 
L 361.326989 21.329446 
L 363.565057 20.943533 
L 365.803125 20.633814 
" style="fill: none; stroke: #dd8452; stroke-width: 2; stroke-linecap: round"/>
   </g>
   <g id="patch_126">
    <path d="M 94.996875 289.4925 
L 94.996875 18.68625 
" style="fill: none; stroke: #262626; stroke-width: 1.25; stroke-linejoin: miter; stroke-linecap: square"/>
   </g>
   <g id="patch_127">
    <path d="M 365.803125 289.4925 
L 365.803125 18.68625 
" style="fill: none; stroke: #1f77b4; stroke-width: 1.25; stroke-linejoin: miter; stroke-linecap: square"/>
   </g>
   <g id="patch_128">
    <path d="M 94.996875 289.4925 
L 365.803125 289.4925 
" style="fill: none; stroke: #262626; stroke-width: 1.25; stroke-linejoin: miter; stroke-linecap: square"/>
   </g>
   <g id="legend_1">
    <g id="patch_129">
     <path d="M 275.25375 283.8925 
L 357.403125 283.8925 
Q 360.203125 283.8925 360.203125 281.0925 
L 360.203125 223.082187 
Q 360.203125 220.282187 357.403125 220.282187 
L 275.25375 220.282187 
Q 272.45375 220.282187 272.45375 223.082187 
L 272.45375 281.0925 
Q 272.45375 283.8925 275.25375 283.8925 
z
" style="fill: #ffffff; opacity: 0.8; stroke: #cccccc; stroke-linejoin: miter"/>
    </g>
    <g id="line2d_21">
     <path d="M 278.05375 231.003125 
L 287.85375 231.003125 
L 297.65375 231.003125 
" style="fill: none; stroke: #4c72b0; stroke-width: 2; stroke-linecap: round"/>
    </g>
    <g id="text_21">
     <text style="fill: #262626; font: 14px 'Arial', 'DejaVu Sans', 'Liberation Sans', 'Bitstream Vera Sans', sans-serif; text-anchor: start" x="303.25375" y="235.903125" transform="rotate(-0 303.25375 235.903125)">MCMC</text>
    </g>
    <g id="line2d_22">
     <path d="M 278.05375 250.806562 
L 287.85375 250.806562 
L 297.65375 250.806562 
" style="fill: none; stroke-dasharray: 7.4,3.2; stroke-dashoffset: 0; stroke: #1a1a1a; stroke-width: 2"/>
    </g>
    <g id="text_22">
     <text style="fill: #262626; font: 14px 'Arial', 'DejaVu Sans', 'Liberation Sans', 'Bitstream Vera Sans', sans-serif; text-anchor: start" x="303.25375" y="255.706562" transform="rotate(-0 303.25375 255.706562)">Traced</text>
    </g>
    <g id="line2d_23">
     <path d="M 278.05375 270.61 
L 287.85375 270.61 
L 297.65375 270.61 
" style="fill: none; stroke: #dd8452; stroke-width: 2; stroke-linecap: round"/>
    </g>
    <g id="text_23">
     <text style="fill: #262626; font: 14px 'Arial', 'DejaVu Sans', 'Liberation Sans', 'Bitstream Vera Sans', sans-serif; text-anchor: start" x="303.25375" y="275.51" transform="rotate(-0 303.25375 275.51)">Nishiura</text>
    </g>
   </g>
  </g>
 </g>
</svg>
