<?xml version="1.0" encoding="utf-8" standalone="no"?>
<!DOCTYPE svg PUBLIC "-//W3C//DTD SVG 1.1//EN"
  "http://www.w3.org/Graphics/SVG/1.1/DTD/svg11.dtd">
<svg xmlns:xlink="http://www.w3.org/1999/xlink" width="460.8pt" height="345.6pt" viewBox="0 0 460.8 345.6" xmlns="http://www.w3.org/2000/svg" version="1.1">
 <metadata>
  <rdf:RDF xmlns:dc="http://purl.org/dc/elements/1.1/" xmlns:cc="http://creativecommons.org/ns#" xmlns:rdf="http://www.w3.org/1999/02/22-rdf-syntax-ns#">
   <cc:Work>
    <dc:type rdf:resource="http://purl.org/dc/dcmitype/StillImage"/>
    <dc:date>2024-04-24T16:07:35.414215</dc:date>
    <dc:format>image/svg+xml</dc:format>
    <dc:creator>
     <cc:Agent>
      <dc:title>Matplotlib v3.8.2, https://matplotlib.org/</dc:title>
     </cc:Agent>
    </dc:creator>
   </cc:Work>
  </rdf:RDF>
 </metadata>
 <defs>
  <style type="text/css">*{stroke-linejoin: round; stroke-linecap: butt}</style>
 </defs>
 <g id="figure_1">
  <g id="patch_1">
   <path d="M 0 345.6 
L 460.8 345.6 
L 460.8 0 
L 0 0 
L 0 345.6 
z
" style="fill: none"/>
  </g>
  <g id="axes_1">
   <g id="patch_2">
    <path d="M 94.996875 289.4925 
L 365.803125 289.4925 
L 365.803125 18.68625 
L 94.996875 18.68625 
L 94.996875 289.4925 
z
" style="fill: none"/>
   </g>
   <g id="matplotlib.axis_1">
    <g id="xtick_1">
     <g id="line2d_1">
      <defs>
       <path id="m35397ac0cc" d="M 0 0 
L 0 6 
" style="stroke: #262626; stroke-width: 1.25"/>
      </defs>
      <g>
       <use xlink:href="#m35397ac0cc" x="96.280317" y="289.4925" style="fill: #262626; stroke: #262626; stroke-width: 1.25"/>
      </g>
     </g>
     <g id="text_1">
      <text style="fill: #262626; font: 16px 'Arial', 'DejaVu Sans', 'Liberation Sans', 'Bitstream Vera Sans', sans-serif; text-anchor: middle" x="96.280317" y="310.445" transform="rotate(-0 96.280317 310.445)">0</text>
     </g>
    </g>
    <g id="xtick_2">
     <g id="line2d_2">
      <g>
       <use xlink:href="#m35397ac0cc" x="134.783575" y="289.4925" style="fill: #262626; stroke: #262626; stroke-width: 1.25"/>
      </g>
     </g>
     <g id="text_2">
      <text style="fill: #262626; font: 16px 'Arial', 'DejaVu Sans', 'Liberation Sans', 'Bitstream Vera Sans', sans-serif; text-anchor: middle" x="134.783575" y="310.445" transform="rotate(-0 134.783575 310.445)">30</text>
     </g>
    </g>
    <g id="xtick_3">
     <g id="line2d_3">
      <g>
       <use xlink:href="#m35397ac0cc" x="173.286834" y="289.4925" style="fill: #262626; stroke: #262626; stroke-width: 1.25"/>
      </g>
     </g>
     <g id="text_3">
      <text style="fill: #262626; font: 16px 'Arial', 'DejaVu Sans', 'Liberation Sans', 'Bitstream Vera Sans', sans-serif; text-anchor: middle" x="173.286834" y="310.445" transform="rotate(-0 173.286834 310.445)">60</text>
     </g>
    </g>
    <g id="xtick_4">
     <g id="line2d_4">
      <g>
       <use xlink:href="#m35397ac0cc" x="211.790092" y="289.4925" style="fill: #262626; stroke: #262626; stroke-width: 1.25"/>
      </g>
     </g>
     <g id="text_4">
      <text style="fill: #262626; font: 16px 'Arial', 'DejaVu Sans', 'Liberation Sans', 'Bitstream Vera Sans', sans-serif; text-anchor: middle" x="211.790092" y="310.445" transform="rotate(-0 211.790092 310.445)">90</text>
     </g>
    </g>
    <g id="xtick_5">
     <g id="line2d_5">
      <g>
       <use xlink:href="#m35397ac0cc" x="250.29335" y="289.4925" style="fill: #262626; stroke: #262626; stroke-width: 1.25"/>
      </g>
     </g>
     <g id="text_5">
      <text style="fill: #262626; font: 16px 'Arial', 'DejaVu Sans', 'Liberation Sans', 'Bitstream Vera Sans', sans-serif; text-anchor: middle" x="250.29335" y="310.445" transform="rotate(-0 250.29335 310.445)">120</text>
     </g>
    </g>
    <g id="xtick_6">
     <g id="line2d_6">
      <g>
       <use xlink:href="#m35397ac0cc" x="288.796608" y="289.4925" style="fill: #262626; stroke: #262626; stroke-width: 1.25"/>
      </g>
     </g>
     <g id="text_6">
      <text style="fill: #262626; font: 16px 'Arial', 'DejaVu Sans', 'Liberation Sans', 'Bitstream Vera Sans', sans-serif; text-anchor: middle" x="288.796608" y="310.445" transform="rotate(-0 288.796608 310.445)">150</text>
     </g>
    </g>
    <g id="xtick_7">
     <g id="line2d_7">
      <g>
       <use xlink:href="#m35397ac0cc" x="327.299867" y="289.4925" style="fill: #262626; stroke: #262626; stroke-width: 1.25"/>
      </g>
     </g>
     <g id="text_7">
      <text style="fill: #262626; font: 16px 'Arial', 'DejaVu Sans', 'Liberation Sans', 'Bitstream Vera Sans', sans-serif; text-anchor: middle" x="327.299867" y="310.445" transform="rotate(-0 327.299867 310.445)">180</text>
     </g>
    </g>
    <g id="xtick_8">
     <g id="line2d_8">
      <g>
       <use xlink:href="#m35397ac0cc" x="365.803125" y="289.4925" style="fill: #262626; stroke: #262626; stroke-width: 1.25"/>
      </g>
     </g>
     <g id="text_8">
      <text style="fill: #262626; font: 16px 'Arial', 'DejaVu Sans', 'Liberation Sans', 'Bitstream Vera Sans', sans-serif; text-anchor: middle" x="365.803125" y="310.445" transform="rotate(-0 365.803125 310.445)">210</text>
     </g>
    </g>
    <g id="text_9">
     <text style="fill: #262626; font: 16px 'Arial', 'DejaVu Sans', 'Liberation Sans', 'Bitstream Vera Sans', sans-serif; text-anchor: middle" x="230.4" y="329.2725" transform="rotate(-0 230.4 329.2725)">Day of outbreak</text>
    </g>
   </g>
   <g id="matplotlib.axis_2">
    <g id="ytick_1">
     <g id="line2d_9">
      <defs>
       <path id="ma02604c3d2" d="M 0 0 
L -6 0 
" style="stroke: #262626; stroke-width: 1.25"/>
      </defs>
      <g>
       <use xlink:href="#ma02604c3d2" x="94.996875" y="289.4925" style="fill: #262626; stroke: #262626; stroke-width: 1.25"/>
      </g>
     </g>
     <g id="text_10">
      <text style="fill: #262626; font: 16px 'Arial', 'DejaVu Sans', 'Liberation Sans', 'Bitstream Vera Sans', sans-serif; text-anchor: end" x="85.496875" y="295.21875" transform="rotate(-0 85.496875 295.21875)">0</text>
     </g>
    </g>
    <g id="ytick_2">
     <g id="line2d_10">
      <g>
       <use xlink:href="#ma02604c3d2" x="94.996875" y="199.22375" style="fill: #262626; stroke: #262626; stroke-width: 1.25"/>
      </g>
     </g>
     <g id="text_11">
      <text style="fill: #262626; font: 16px 'Arial', 'DejaVu Sans', 'Liberation Sans', 'Bitstream Vera Sans', sans-serif; text-anchor: end" x="85.496875" y="204.95" transform="rotate(-0 85.496875 204.95)">1</text>
     </g>
    </g>
    <g id="ytick_3">
     <g id="line2d_11">
      <g>
       <use xlink:href="#ma02604c3d2" x="94.996875" y="108.955" style="fill: #262626; stroke: #262626; stroke-width: 1.25"/>
      </g>
     </g>
     <g id="text_12">
      <text style="fill: #262626; font: 16px 'Arial', 'DejaVu Sans', 'Liberation Sans', 'Bitstream Vera Sans', sans-serif; text-anchor: end" x="85.496875" y="114.68125" transform="rotate(-0 85.496875 114.68125)">2</text>
     </g>
    </g>
    <g id="ytick_4">
     <g id="line2d_12">
      <g>
       <use xlink:href="#ma02604c3d2" x="94.996875" y="18.68625" style="fill: #262626; stroke: #262626; stroke-width: 1.25"/>
      </g>
     </g>
     <g id="text_13">
      <text style="fill: #262626; font: 16px 'Arial', 'DejaVu Sans', 'Liberation Sans', 'Bitstream Vera Sans', sans-serif; text-anchor: end" x="85.496875" y="24.4125" transform="rotate(-0 85.496875 24.4125)">3</text>
     </g>
    </g>
    <g id="text_14">
     <text style="fill: #262626; font: 16px 'Arial', 'DejaVu Sans', 'Liberation Sans', 'Bitstream Vera Sans', sans-serif; text-anchor: middle" x="69.419375" y="154.089375" transform="rotate(-90 69.419375 154.089375)">Number of cases</text>
    </g>
   </g>
   <g id="patch_3">
    <path d="M 95.638596 289.4925 
L 96.922038 289.4925 
L 96.922038 199.22375 
L 95.638596 199.22375 
z
" style="fill: #1a1a1a; opacity: 0.25; stroke: #1a1a1a; stroke-width: 0.1; stroke-linejoin: miter"/>
   </g>
   <g id="patch_4">
    <path d="M 96.922038 289.4925 
L 98.20548 289.4925 
L 98.20548 289.4925 
L 96.922038 289.4925 
z
" style="fill: #1a1a1a; opacity: 0.25; stroke: #1a1a1a; stroke-width: 0.1; stroke-linejoin: miter"/>
   </g>
   <g id="patch_5">
    <path d="M 98.20548 289.4925 
L 99.488922 289.4925 
L 99.488922 289.4925 
L 98.20548 289.4925 
z
" style="fill: #1a1a1a; opacity: 0.25; stroke: #1a1a1a; stroke-width: 0.1; stroke-linejoin: miter"/>
   </g>
   <g id="patch_6">
    <path d="M 99.488922 289.4925 
L 100.772364 289.4925 
L 100.772364 289.4925 
L 99.488922 289.4925 
z
" style="fill: #1a1a1a; opacity: 0.25; stroke: #1a1a1a; stroke-width: 0.1; stroke-linejoin: miter"/>
   </g>
   <g id="patch_7">
    <path d="M 100.772364 289.4925 
L 102.055806 289.4925 
L 102.055806 289.4925 
L 100.772364 289.4925 
z
" style="fill: #1a1a1a; opacity: 0.25; stroke: #1a1a1a; stroke-width: 0.1; stroke-linejoin: miter"/>
   </g>
   <g id="patch_8">
    <path d="M 102.055806 289.4925 
L 103.339248 289.4925 
L 103.339248 289.4925 
L 102.055806 289.4925 
z
" style="fill: #1a1a1a; opacity: 0.25; stroke: #1a1a1a; stroke-width: 0.1; stroke-linejoin: miter"/>
   </g>
   <g id="patch_9">
    <path d="M 103.339248 289.4925 
L 104.62269 289.4925 
L 104.62269 289.4925 
L 103.339248 289.4925 
z
" style="fill: #1a1a1a; opacity: 0.25; stroke: #1a1a1a; stroke-width: 0.1; stroke-linejoin: miter"/>
   </g>
   <g id="patch_10">
    <path d="M 104.62269 289.4925 
L 105.906132 289.4925 
L 105.906132 289.4925 
L 104.62269 289.4925 
z
" style="fill: #1a1a1a; opacity: 0.25; stroke: #1a1a1a; stroke-width: 0.1; stroke-linejoin: miter"/>
   </g>
   <g id="patch_11">
    <path d="M 105.906132 289.4925 
L 107.189573 289.4925 
L 107.189573 289.4925 
L 105.906132 289.4925 
z
" style="fill: #1a1a1a; opacity: 0.25; stroke: #1a1a1a; stroke-width: 0.1; stroke-linejoin: miter"/>
   </g>
   <g id="patch_12">
    <path d="M 107.189573 289.4925 
L 108.473015 289.4925 
L 108.473015 289.4925 
L 107.189573 289.4925 
z
" style="fill: #1a1a1a; opacity: 0.25; stroke: #1a1a1a; stroke-width: 0.1; stroke-linejoin: miter"/>
   </g>
   <g id="patch_13">
    <path d="M 108.473015 289.4925 
L 109.756457 289.4925 
L 109.756457 289.4925 
L 108.473015 289.4925 
z
" style="fill: #1a1a1a; opacity: 0.25; stroke: #1a1a1a; stroke-width: 0.1; stroke-linejoin: miter"/>
   </g>
   <g id="patch_14">
    <path d="M 109.756457 289.4925 
L 111.039899 289.4925 
L 111.039899 289.4925 
L 109.756457 289.4925 
z
" style="fill: #1a1a1a; opacity: 0.25; stroke: #1a1a1a; stroke-width: 0.1; stroke-linejoin: miter"/>
   </g>
   <g id="patch_15">
    <path d="M 111.039899 289.4925 
L 112.323341 289.4925 
L 112.323341 289.4925 
L 111.039899 289.4925 
z
" style="fill: #1a1a1a; opacity: 0.25; stroke: #1a1a1a; stroke-width: 0.1; stroke-linejoin: miter"/>
   </g>
   <g id="patch_16">
    <path d="M 112.323341 289.4925 
L 113.606783 289.4925 
L 113.606783 289.4925 
L 112.323341 289.4925 
z
" style="fill: #1a1a1a; opacity: 0.25; stroke: #1a1a1a; stroke-width: 0.1; stroke-linejoin: miter"/>
   </g>
   <g id="patch_17">
    <path d="M 113.606783 289.4925 
L 114.890225 289.4925 
L 114.890225 199.22375 
L 113.606783 199.22375 
z
" style="fill: #1a1a1a; opacity: 0.25; stroke: #1a1a1a; stroke-width: 0.1; stroke-linejoin: miter"/>
   </g>
   <g id="patch_18">
    <path d="M 114.890225 289.4925 
L 116.173667 289.4925 
L 116.173667 289.4925 
L 114.890225 289.4925 
z
" style="fill: #1a1a1a; opacity: 0.25; stroke: #1a1a1a; stroke-width: 0.1; stroke-linejoin: miter"/>
   </g>
   <g id="patch_19">
    <path d="M 116.173667 289.4925 
L 117.457109 289.4925 
L 117.457109 289.4925 
L 116.173667 289.4925 
z
" style="fill: #1a1a1a; opacity: 0.25; stroke: #1a1a1a; stroke-width: 0.1; stroke-linejoin: miter"/>
   </g>
   <g id="patch_20">
    <path d="M 117.457109 289.4925 
L 118.740551 289.4925 
L 118.740551 289.4925 
L 117.457109 289.4925 
z
" style="fill: #1a1a1a; opacity: 0.25; stroke: #1a1a1a; stroke-width: 0.1; stroke-linejoin: miter"/>
   </g>
   <g id="patch_21">
    <path d="M 118.740551 289.4925 
L 120.023993 289.4925 
L 120.023993 289.4925 
L 118.740551 289.4925 
z
" style="fill: #1a1a1a; opacity: 0.25; stroke: #1a1a1a; stroke-width: 0.1; stroke-linejoin: miter"/>
   </g>
   <g id="patch_22">
    <path d="M 120.023993 289.4925 
L 121.307435 289.4925 
L 121.307435 289.4925 
L 120.023993 289.4925 
z
" style="fill: #1a1a1a; opacity: 0.25; stroke: #1a1a1a; stroke-width: 0.1; stroke-linejoin: miter"/>
   </g>
   <g id="patch_23">
    <path d="M 121.307435 289.4925 
L 122.590877 289.4925 
L 122.590877 199.22375 
L 121.307435 199.22375 
z
" style="fill: #1a1a1a; opacity: 0.25; stroke: #1a1a1a; stroke-width: 0.1; stroke-linejoin: miter"/>
   </g>
   <g id="patch_24">
    <path d="M 122.590877 289.4925 
L 123.874319 289.4925 
L 123.874319 289.4925 
L 122.590877 289.4925 
z
" style="fill: #1a1a1a; opacity: 0.25; stroke: #1a1a1a; stroke-width: 0.1; stroke-linejoin: miter"/>
   </g>
   <g id="patch_25">
    <path d="M 123.874319 289.4925 
L 125.157761 289.4925 
L 125.157761 289.4925 
L 123.874319 289.4925 
z
" style="fill: #1a1a1a; opacity: 0.25; stroke: #1a1a1a; stroke-width: 0.1; stroke-linejoin: miter"/>
   </g>
   <g id="patch_26">
    <path d="M 125.157761 289.4925 
L 126.441203 289.4925 
L 126.441203 289.4925 
L 125.157761 289.4925 
z
" style="fill: #1a1a1a; opacity: 0.25; stroke: #1a1a1a; stroke-width: 0.1; stroke-linejoin: miter"/>
   </g>
   <g id="patch_27">
    <path d="M 126.441203 289.4925 
L 127.724645 289.4925 
L 127.724645 199.22375 
L 126.441203 199.22375 
z
" style="fill: #1a1a1a; opacity: 0.25; stroke: #1a1a1a; stroke-width: 0.1; stroke-linejoin: miter"/>
   </g>
   <g id="patch_28">
    <path d="M 127.724645 289.4925 
L 129.008086 289.4925 
L 129.008086 289.4925 
L 127.724645 289.4925 
z
" style="fill: #1a1a1a; opacity: 0.25; stroke: #1a1a1a; stroke-width: 0.1; stroke-linejoin: miter"/>
   </g>
   <g id="patch_29">
    <path d="M 129.008086 289.4925 
L 130.291528 289.4925 
L 130.291528 289.4925 
L 129.008086 289.4925 
z
" style="fill: #1a1a1a; opacity: 0.25; stroke: #1a1a1a; stroke-width: 0.1; stroke-linejoin: miter"/>
   </g>
   <g id="patch_30">
    <path d="M 130.291528 289.4925 
L 131.57497 289.4925 
L 131.57497 199.22375 
L 130.291528 199.22375 
z
" style="fill: #1a1a1a; opacity: 0.25; stroke: #1a1a1a; stroke-width: 0.1; stroke-linejoin: miter"/>
   </g>
   <g id="patch_31">
    <path d="M 131.57497 289.4925 
L 132.858412 289.4925 
L 132.858412 289.4925 
L 131.57497 289.4925 
z
" style="fill: #1a1a1a; opacity: 0.25; stroke: #1a1a1a; stroke-width: 0.1; stroke-linejoin: miter"/>
   </g>
   <g id="patch_32">
    <path d="M 132.858412 289.4925 
L 134.141854 289.4925 
L 134.141854 289.4925 
L 132.858412 289.4925 
z
" style="fill: #1a1a1a; opacity: 0.25; stroke: #1a1a1a; stroke-width: 0.1; stroke-linejoin: miter"/>
   </g>
   <g id="patch_33">
    <path d="M 134.141854 289.4925 
L 135.425296 289.4925 
L 135.425296 18.68625 
L 134.141854 18.68625 
z
" style="fill: #1a1a1a; opacity: 0.25; stroke: #1a1a1a; stroke-width: 0.1; stroke-linejoin: miter"/>
   </g>
   <g id="patch_34">
    <path d="M 135.425296 289.4925 
L 136.708738 289.4925 
L 136.708738 199.22375 
L 135.425296 199.22375 
z
" style="fill: #1a1a1a; opacity: 0.25; stroke: #1a1a1a; stroke-width: 0.1; stroke-linejoin: miter"/>
   </g>
   <g id="patch_35">
    <path d="M 136.708738 289.4925 
L 137.99218 289.4925 
L 137.99218 289.4925 
L 136.708738 289.4925 
z
" style="fill: #1a1a1a; opacity: 0.25; stroke: #1a1a1a; stroke-width: 0.1; stroke-linejoin: miter"/>
   </g>
   <g id="patch_36">
    <path d="M 137.99218 289.4925 
L 139.275622 289.4925 
L 139.275622 199.22375 
L 137.99218 199.22375 
z
" style="fill: #1a1a1a; opacity: 0.25; stroke: #1a1a1a; stroke-width: 0.1; stroke-linejoin: miter"/>
   </g>
   <g id="patch_37">
    <path d="M 139.275622 289.4925 
L 140.559064 289.4925 
L 140.559064 289.4925 
L 139.275622 289.4925 
z
" style="fill: #1a1a1a; opacity: 0.25; stroke: #1a1a1a; stroke-width: 0.1; stroke-linejoin: miter"/>
   </g>
   <g id="patch_38">
    <path d="M 140.559064 289.4925 
L 141.842506 289.4925 
L 141.842506 289.4925 
L 140.559064 289.4925 
z
" style="fill: #1a1a1a; opacity: 0.25; stroke: #1a1a1a; stroke-width: 0.1; stroke-linejoin: miter"/>
   </g>
   <g id="patch_39">
    <path d="M 141.842506 289.4925 
L 143.125948 289.4925 
L 143.125948 289.4925 
L 141.842506 289.4925 
z
" style="fill: #1a1a1a; opacity: 0.25; stroke: #1a1a1a; stroke-width: 0.1; stroke-linejoin: miter"/>
   </g>
   <g id="patch_40">
    <path d="M 143.125948 289.4925 
L 144.40939 289.4925 
L 144.40939 289.4925 
L 143.125948 289.4925 
z
" style="fill: #1a1a1a; opacity: 0.25; stroke: #1a1a1a; stroke-width: 0.1; stroke-linejoin: miter"/>
   </g>
   <g id="patch_41">
    <path d="M 144.40939 289.4925 
L 145.692832 289.4925 
L 145.692832 289.4925 
L 144.40939 289.4925 
z
" style="fill: #1a1a1a; opacity: 0.25; stroke: #1a1a1a; stroke-width: 0.1; stroke-linejoin: miter"/>
   </g>
   <g id="patch_42">
    <path d="M 145.692832 289.4925 
L 146.976274 289.4925 
L 146.976274 289.4925 
L 145.692832 289.4925 
z
" style="fill: #1a1a1a; opacity: 0.25; stroke: #1a1a1a; stroke-width: 0.1; stroke-linejoin: miter"/>
   </g>
   <g id="patch_43">
    <path d="M 146.976274 289.4925 
L 148.259716 289.4925 
L 148.259716 289.4925 
L 146.976274 289.4925 
z
" style="fill: #1a1a1a; opacity: 0.25; stroke: #1a1a1a; stroke-width: 0.1; stroke-linejoin: miter"/>
   </g>
   <g id="patch_44">
    <path d="M 148.259716 289.4925 
L 149.543158 289.4925 
L 149.543158 289.4925 
L 148.259716 289.4925 
z
" style="fill: #1a1a1a; opacity: 0.25; stroke: #1a1a1a; stroke-width: 0.1; stroke-linejoin: miter"/>
   </g>
   <g id="patch_45">
    <path d="M 149.543158 289.4925 
L 150.8266 289.4925 
L 150.8266 199.22375 
L 149.543158 199.22375 
z
" style="fill: #1a1a1a; opacity: 0.25; stroke: #1a1a1a; stroke-width: 0.1; stroke-linejoin: miter"/>
   </g>
   <g id="patch_46">
    <path d="M 150.8266 289.4925 
L 152.110041 289.4925 
L 152.110041 199.22375 
L 150.8266 199.22375 
z
" style="fill: #1a1a1a; opacity: 0.25; stroke: #1a1a1a; stroke-width: 0.1; stroke-linejoin: miter"/>
   </g>
   <g id="patch_47">
    <path d="M 152.110041 289.4925 
L 153.393483 289.4925 
L 153.393483 199.22375 
L 152.110041 199.22375 
z
" style="fill: #1a1a1a; opacity: 0.25; stroke: #1a1a1a; stroke-width: 0.1; stroke-linejoin: miter"/>
   </g>
   <g id="patch_48">
    <path d="M 153.393483 289.4925 
L 154.676925 289.4925 
L 154.676925 289.4925 
L 153.393483 289.4925 
z
" style="fill: #1a1a1a; opacity: 0.25; stroke: #1a1a1a; stroke-width: 0.1; stroke-linejoin: miter"/>
   </g>
   <g id="patch_49">
    <path d="M 154.676925 289.4925 
L 155.960367 289.4925 
L 155.960367 289.4925 
L 154.676925 289.4925 
z
" style="fill: #1a1a1a; opacity: 0.25; stroke: #1a1a1a; stroke-width: 0.1; stroke-linejoin: miter"/>
   </g>
   <g id="patch_50">
    <path d="M 155.960367 289.4925 
L 157.243809 289.4925 
L 157.243809 289.4925 
L 155.960367 289.4925 
z
" style="fill: #1a1a1a; opacity: 0.25; stroke: #1a1a1a; stroke-width: 0.1; stroke-linejoin: miter"/>
   </g>
   <g id="patch_51">
    <path d="M 157.243809 289.4925 
L 158.527251 289.4925 
L 158.527251 199.22375 
L 157.243809 199.22375 
z
" style="fill: #1a1a1a; opacity: 0.25; stroke: #1a1a1a; stroke-width: 0.1; stroke-linejoin: miter"/>
   </g>
   <g id="patch_52">
    <path d="M 158.527251 289.4925 
L 159.810693 289.4925 
L 159.810693 199.22375 
L 158.527251 199.22375 
z
" style="fill: #1a1a1a; opacity: 0.25; stroke: #1a1a1a; stroke-width: 0.1; stroke-linejoin: miter"/>
   </g>
   <g id="patch_53">
    <path d="M 159.810693 289.4925 
L 161.094135 289.4925 
L 161.094135 199.22375 
L 159.810693 199.22375 
z
" style="fill: #1a1a1a; opacity: 0.25; stroke: #1a1a1a; stroke-width: 0.1; stroke-linejoin: miter"/>
   </g>
   <g id="patch_54">
    <path d="M 161.094135 289.4925 
L 162.377577 289.4925 
L 162.377577 289.4925 
L 161.094135 289.4925 
z
" style="fill: #1a1a1a; opacity: 0.25; stroke: #1a1a1a; stroke-width: 0.1; stroke-linejoin: miter"/>
   </g>
   <g id="patch_55">
    <path d="M 162.377577 289.4925 
L 163.661019 289.4925 
L 163.661019 289.4925 
L 162.377577 289.4925 
z
" style="fill: #1a1a1a; opacity: 0.25; stroke: #1a1a1a; stroke-width: 0.1; stroke-linejoin: miter"/>
   </g>
   <g id="patch_56">
    <path d="M 163.661019 289.4925 
L 164.944461 289.4925 
L 164.944461 108.955 
L 163.661019 108.955 
z
" style="fill: #1a1a1a; opacity: 0.25; stroke: #1a1a1a; stroke-width: 0.1; stroke-linejoin: miter"/>
   </g>
   <g id="patch_57">
    <path d="M 164.944461 289.4925 
L 166.227903 289.4925 
L 166.227903 289.4925 
L 164.944461 289.4925 
z
" style="fill: #1a1a1a; opacity: 0.25; stroke: #1a1a1a; stroke-width: 0.1; stroke-linejoin: miter"/>
   </g>
   <g id="patch_58">
    <path d="M 166.227903 289.4925 
L 167.511345 289.4925 
L 167.511345 199.22375 
L 166.227903 199.22375 
z
" style="fill: #1a1a1a; opacity: 0.25; stroke: #1a1a1a; stroke-width: 0.1; stroke-linejoin: miter"/>
   </g>
   <g id="patch_59">
    <path d="M 167.511345 289.4925 
L 168.794787 289.4925 
L 168.794787 289.4925 
L 167.511345 289.4925 
z
" style="fill: #1a1a1a; opacity: 0.25; stroke: #1a1a1a; stroke-width: 0.1; stroke-linejoin: miter"/>
   </g>
   <g id="patch_60">
    <path d="M 168.794787 289.4925 
L 170.078229 289.4925 
L 170.078229 199.22375 
L 168.794787 199.22375 
z
" style="fill: #1a1a1a; opacity: 0.25; stroke: #1a1a1a; stroke-width: 0.1; stroke-linejoin: miter"/>
   </g>
   <g id="patch_61">
    <path d="M 170.078229 289.4925 
L 171.361671 289.4925 
L 171.361671 18.68625 
L 170.078229 18.68625 
z
" style="fill: #1a1a1a; opacity: 0.25; stroke: #1a1a1a; stroke-width: 0.1; stroke-linejoin: miter"/>
   </g>
   <g id="patch_62">
    <path d="M 171.361671 289.4925 
L 172.645113 289.4925 
L 172.645113 289.4925 
L 171.361671 289.4925 
z
" style="fill: #1a1a1a; opacity: 0.25; stroke: #1a1a1a; stroke-width: 0.1; stroke-linejoin: miter"/>
   </g>
   <g id="patch_63">
    <path d="M 172.645113 289.4925 
L 173.928555 289.4925 
L 173.928555 289.4925 
L 172.645113 289.4925 
z
" style="fill: #1a1a1a; opacity: 0.25; stroke: #1a1a1a; stroke-width: 0.1; stroke-linejoin: miter"/>
   </g>
   <g id="patch_64">
    <path d="M 173.928555 289.4925 
L 175.211996 289.4925 
L 175.211996 199.22375 
L 173.928555 199.22375 
z
" style="fill: #1a1a1a; opacity: 0.25; stroke: #1a1a1a; stroke-width: 0.1; stroke-linejoin: miter"/>
   </g>
   <g id="patch_65">
    <path d="M 175.211996 289.4925 
L 176.495438 289.4925 
L 176.495438 289.4925 
L 175.211996 289.4925 
z
" style="fill: #1a1a1a; opacity: 0.25; stroke: #1a1a1a; stroke-width: 0.1; stroke-linejoin: miter"/>
   </g>
   <g id="patch_66">
    <path d="M 176.495438 289.4925 
L 177.77888 289.4925 
L 177.77888 199.22375 
L 176.495438 199.22375 
z
" style="fill: #1a1a1a; opacity: 0.25; stroke: #1a1a1a; stroke-width: 0.1; stroke-linejoin: miter"/>
   </g>
   <g id="patch_67">
    <path d="M 177.77888 289.4925 
L 179.062322 289.4925 
L 179.062322 289.4925 
L 177.77888 289.4925 
z
" style="fill: #1a1a1a; opacity: 0.25; stroke: #1a1a1a; stroke-width: 0.1; stroke-linejoin: miter"/>
   </g>
   <g id="patch_68">
    <path d="M 179.062322 289.4925 
L 180.345764 289.4925 
L 180.345764 289.4925 
L 179.062322 289.4925 
z
" style="fill: #1a1a1a; opacity: 0.25; stroke: #1a1a1a; stroke-width: 0.1; stroke-linejoin: miter"/>
   </g>
   <g id="patch_69">
    <path d="M 180.345764 289.4925 
L 181.629206 289.4925 
L 181.629206 199.22375 
L 180.345764 199.22375 
z
" style="fill: #1a1a1a; opacity: 0.25; stroke: #1a1a1a; stroke-width: 0.1; stroke-linejoin: miter"/>
   </g>
   <g id="patch_70">
    <path d="M 181.629206 289.4925 
L 182.912648 289.4925 
L 182.912648 289.4925 
L 181.629206 289.4925 
z
" style="fill: #1a1a1a; opacity: 0.25; stroke: #1a1a1a; stroke-width: 0.1; stroke-linejoin: miter"/>
   </g>
   <g id="patch_71">
    <path d="M 182.912648 289.4925 
L 184.19609 289.4925 
L 184.19609 289.4925 
L 182.912648 289.4925 
z
" style="fill: #1a1a1a; opacity: 0.25; stroke: #1a1a1a; stroke-width: 0.1; stroke-linejoin: miter"/>
   </g>
   <g id="patch_72">
    <path d="M 184.19609 289.4925 
L 185.479532 289.4925 
L 185.479532 199.22375 
L 184.19609 199.22375 
z
" style="fill: #1a1a1a; opacity: 0.25; stroke: #1a1a1a; stroke-width: 0.1; stroke-linejoin: miter"/>
   </g>
   <g id="patch_73">
    <path d="M 185.479532 289.4925 
L 186.762974 289.4925 
L 186.762974 199.22375 
L 185.479532 199.22375 
z
" style="fill: #1a1a1a; opacity: 0.25; stroke: #1a1a1a; stroke-width: 0.1; stroke-linejoin: miter"/>
   </g>
   <g id="patch_74">
    <path d="M 186.762974 289.4925 
L 188.046416 289.4925 
L 188.046416 289.4925 
L 186.762974 289.4925 
z
" style="fill: #1a1a1a; opacity: 0.25; stroke: #1a1a1a; stroke-width: 0.1; stroke-linejoin: miter"/>
   </g>
   <g id="patch_75">
    <path d="M 188.046416 289.4925 
L 189.329858 289.4925 
L 189.329858 199.22375 
L 188.046416 199.22375 
z
" style="fill: #1a1a1a; opacity: 0.25; stroke: #1a1a1a; stroke-width: 0.1; stroke-linejoin: miter"/>
   </g>
   <g id="patch_76">
    <path d="M 189.329858 289.4925 
L 190.6133 289.4925 
L 190.6133 289.4925 
L 189.329858 289.4925 
z
" style="fill: #1a1a1a; opacity: 0.25; stroke: #1a1a1a; stroke-width: 0.1; stroke-linejoin: miter"/>
   </g>
   <g id="patch_77">
    <path d="M 190.6133 289.4925 
L 191.896742 289.4925 
L 191.896742 289.4925 
L 190.6133 289.4925 
z
" style="fill: #1a1a1a; opacity: 0.25; stroke: #1a1a1a; stroke-width: 0.1; stroke-linejoin: miter"/>
   </g>
   <g id="patch_78">
    <path d="M 191.896742 289.4925 
L 193.180184 289.4925 
L 193.180184 289.4925 
L 191.896742 289.4925 
z
" style="fill: #1a1a1a; opacity: 0.25; stroke: #1a1a1a; stroke-width: 0.1; stroke-linejoin: miter"/>
   </g>
   <g id="patch_79">
    <path d="M 193.180184 289.4925 
L 194.463626 289.4925 
L 194.463626 289.4925 
L 193.180184 289.4925 
z
" style="fill: #1a1a1a; opacity: 0.25; stroke: #1a1a1a; stroke-width: 0.1; stroke-linejoin: miter"/>
   </g>
   <g id="patch_80">
    <path d="M 194.463626 289.4925 
L 195.747068 289.4925 
L 195.747068 289.4925 
L 194.463626 289.4925 
z
" style="fill: #1a1a1a; opacity: 0.25; stroke: #1a1a1a; stroke-width: 0.1; stroke-linejoin: miter"/>
   </g>
   <g id="patch_81">
    <path d="M 195.747068 289.4925 
L 197.030509 289.4925 
L 197.030509 289.4925 
L 195.747068 289.4925 
z
" style="fill: #1a1a1a; opacity: 0.25; stroke: #1a1a1a; stroke-width: 0.1; stroke-linejoin: miter"/>
   </g>
   <g id="patch_82">
    <path d="M 197.030509 289.4925 
L 198.313951 289.4925 
L 198.313951 289.4925 
L 197.030509 289.4925 
z
" style="fill: #1a1a1a; opacity: 0.25; stroke: #1a1a1a; stroke-width: 0.1; stroke-linejoin: miter"/>
   </g>
   <g id="patch_83">
    <path d="M 198.313951 289.4925 
L 199.597393 289.4925 
L 199.597393 289.4925 
L 198.313951 289.4925 
z
" style="fill: #1a1a1a; opacity: 0.25; stroke: #1a1a1a; stroke-width: 0.1; stroke-linejoin: miter"/>
   </g>
   <g id="patch_84">
    <path d="M 199.597393 289.4925 
L 200.880835 289.4925 
L 200.880835 289.4925 
L 199.597393 289.4925 
z
" style="fill: #1a1a1a; opacity: 0.25; stroke: #1a1a1a; stroke-width: 0.1; stroke-linejoin: miter"/>
   </g>
   <g id="patch_85">
    <path d="M 200.880835 289.4925 
L 202.164277 289.4925 
L 202.164277 199.22375 
L 200.880835 199.22375 
z
" style="fill: #1a1a1a; opacity: 0.25; stroke: #1a1a1a; stroke-width: 0.1; stroke-linejoin: miter"/>
   </g>
   <g id="patch_86">
    <path d="M 202.164277 289.4925 
L 203.447719 289.4925 
L 203.447719 289.4925 
L 202.164277 289.4925 
z
" style="fill: #1a1a1a; opacity: 0.25; stroke: #1a1a1a; stroke-width: 0.1; stroke-linejoin: miter"/>
   </g>
   <g id="patch_87">
    <path d="M 203.447719 289.4925 
L 204.731161 289.4925 
L 204.731161 199.22375 
L 203.447719 199.22375 
z
" style="fill: #1a1a1a; opacity: 0.25; stroke: #1a1a1a; stroke-width: 0.1; stroke-linejoin: miter"/>
   </g>
   <g id="patch_88">
    <path d="M 204.731161 289.4925 
L 206.014603 289.4925 
L 206.014603 289.4925 
L 204.731161 289.4925 
z
" style="fill: #1a1a1a; opacity: 0.25; stroke: #1a1a1a; stroke-width: 0.1; stroke-linejoin: miter"/>
   </g>
   <g id="patch_89">
    <path d="M 206.014603 289.4925 
L 207.298045 289.4925 
L 207.298045 289.4925 
L 206.014603 289.4925 
z
" style="fill: #1a1a1a; opacity: 0.25; stroke: #1a1a1a; stroke-width: 0.1; stroke-linejoin: miter"/>
   </g>
   <g id="patch_90">
    <path d="M 207.298045 289.4925 
L 208.581487 289.4925 
L 208.581487 289.4925 
L 207.298045 289.4925 
z
" style="fill: #1a1a1a; opacity: 0.25; stroke: #1a1a1a; stroke-width: 0.1; stroke-linejoin: miter"/>
   </g>
   <g id="patch_91">
    <path d="M 208.581487 289.4925 
L 209.864929 289.4925 
L 209.864929 199.22375 
L 208.581487 199.22375 
z
" style="fill: #1a1a1a; opacity: 0.25; stroke: #1a1a1a; stroke-width: 0.1; stroke-linejoin: miter"/>
   </g>
   <g id="patch_92">
    <path d="M 209.864929 289.4925 
L 211.148371 289.4925 
L 211.148371 199.22375 
L 209.864929 199.22375 
z
" style="fill: #1a1a1a; opacity: 0.25; stroke: #1a1a1a; stroke-width: 0.1; stroke-linejoin: miter"/>
   </g>
   <g id="patch_93">
    <path d="M 211.148371 289.4925 
L 212.431813 289.4925 
L 212.431813 199.22375 
L 211.148371 199.22375 
z
" style="fill: #1a1a1a; opacity: 0.25; stroke: #1a1a1a; stroke-width: 0.1; stroke-linejoin: miter"/>
   </g>
   <g id="patch_94">
    <path d="M 212.431813 289.4925 
L 213.715255 289.4925 
L 213.715255 289.4925 
L 212.431813 289.4925 
z
" style="fill: #1a1a1a; opacity: 0.25; stroke: #1a1a1a; stroke-width: 0.1; stroke-linejoin: miter"/>
   </g>
   <g id="patch_95">
    <path d="M 213.715255 289.4925 
L 214.998697 289.4925 
L 214.998697 199.22375 
L 213.715255 199.22375 
z
" style="fill: #1a1a1a; opacity: 0.25; stroke: #1a1a1a; stroke-width: 0.1; stroke-linejoin: miter"/>
   </g>
   <g id="patch_96">
    <path d="M 214.998697 289.4925 
L 216.282139 289.4925 
L 216.282139 108.955 
L 214.998697 108.955 
z
" style="fill: #1a1a1a; opacity: 0.25; stroke: #1a1a1a; stroke-width: 0.1; stroke-linejoin: miter"/>
   </g>
   <g id="patch_97">
    <path d="M 216.282139 289.4925 
L 217.565581 289.4925 
L 217.565581 289.4925 
L 216.282139 289.4925 
z
" style="fill: #1a1a1a; opacity: 0.25; stroke: #1a1a1a; stroke-width: 0.1; stroke-linejoin: miter"/>
   </g>
   <g id="patch_98">
    <path d="M 217.565581 289.4925 
L 218.849023 289.4925 
L 218.849023 199.22375 
L 217.565581 199.22375 
z
" style="fill: #1a1a1a; opacity: 0.25; stroke: #1a1a1a; stroke-width: 0.1; stroke-linejoin: miter"/>
   </g>
   <g id="patch_99">
    <path d="M 218.849023 289.4925 
L 220.132464 289.4925 
L 220.132464 289.4925 
L 218.849023 289.4925 
z
" style="fill: #1a1a1a; opacity: 0.25; stroke: #1a1a1a; stroke-width: 0.1; stroke-linejoin: miter"/>
   </g>
   <g id="patch_100">
    <path d="M 220.132464 289.4925 
L 221.415906 289.4925 
L 221.415906 289.4925 
L 220.132464 289.4925 
z
" style="fill: #1a1a1a; opacity: 0.25; stroke: #1a1a1a; stroke-width: 0.1; stroke-linejoin: miter"/>
   </g>
   <g id="patch_101">
    <path d="M 221.415906 289.4925 
L 222.699348 289.4925 
L 222.699348 199.22375 
L 221.415906 199.22375 
z
" style="fill: #1a1a1a; opacity: 0.25; stroke: #1a1a1a; stroke-width: 0.1; stroke-linejoin: miter"/>
   </g>
   <g id="patch_102">
    <path d="M 222.699348 289.4925 
L 223.98279 289.4925 
L 223.98279 289.4925 
L 222.699348 289.4925 
z
" style="fill: #1a1a1a; opacity: 0.25; stroke: #1a1a1a; stroke-width: 0.1; stroke-linejoin: miter"/>
   </g>
   <g id="patch_103">
    <path d="M 223.98279 289.4925 
L 225.266232 289.4925 
L 225.266232 108.955 
L 223.98279 108.955 
z
" style="fill: #1a1a1a; opacity: 0.25; stroke: #1a1a1a; stroke-width: 0.1; stroke-linejoin: miter"/>
   </g>
   <g id="patch_104">
    <path d="M 225.266232 289.4925 
L 226.549674 289.4925 
L 226.549674 289.4925 
L 225.266232 289.4925 
z
" style="fill: #1a1a1a; opacity: 0.25; stroke: #1a1a1a; stroke-width: 0.1; stroke-linejoin: miter"/>
   </g>
   <g id="patch_105">
    <path d="M 226.549674 289.4925 
L 227.833116 289.4925 
L 227.833116 289.4925 
L 226.549674 289.4925 
z
" style="fill: #1a1a1a; opacity: 0.25; stroke: #1a1a1a; stroke-width: 0.1; stroke-linejoin: miter"/>
   </g>
   <g id="patch_106">
    <path d="M 227.833116 289.4925 
L 229.116558 289.4925 
L 229.116558 289.4925 
L 227.833116 289.4925 
z
" style="fill: #1a1a1a; opacity: 0.25; stroke: #1a1a1a; stroke-width: 0.1; stroke-linejoin: miter"/>
   </g>
   <g id="patch_107">
    <path d="M 229.116558 289.4925 
L 230.4 289.4925 
L 230.4 289.4925 
L 229.116558 289.4925 
z
" style="fill: #1a1a1a; opacity: 0.25; stroke: #1a1a1a; stroke-width: 0.1; stroke-linejoin: miter"/>
   </g>
   <g id="patch_108">
    <path d="M 230.4 289.4925 
L 231.683442 289.4925 
L 231.683442 289.4925 
L 230.4 289.4925 
z
" style="fill: #1a1a1a; opacity: 0.25; stroke: #1a1a1a; stroke-width: 0.1; stroke-linejoin: miter"/>
   </g>
   <g id="patch_109">
    <path d="M 231.683442 289.4925 
L 232.966884 289.4925 
L 232.966884 289.4925 
L 231.683442 289.4925 
z
" style="fill: #1a1a1a; opacity: 0.25; stroke: #1a1a1a; stroke-width: 0.1; stroke-linejoin: miter"/>
   </g>
   <g id="patch_110">
    <path d="M 232.966884 289.4925 
L 234.250326 289.4925 
L 234.250326 199.22375 
L 232.966884 199.22375 
z
" style="fill: #1a1a1a; opacity: 0.25; stroke: #1a1a1a; stroke-width: 0.1; stroke-linejoin: miter"/>
   </g>
   <g id="patch_111">
    <path d="M 234.250326 289.4925 
L 235.533768 289.4925 
L 235.533768 199.22375 
L 234.250326 199.22375 
z
" style="fill: #1a1a1a; opacity: 0.25; stroke: #1a1a1a; stroke-width: 0.1; stroke-linejoin: miter"/>
   </g>
   <g id="patch_112">
    <path d="M 235.533768 289.4925 
L 236.81721 289.4925 
L 236.81721 289.4925 
L 235.533768 289.4925 
z
" style="fill: #1a1a1a; opacity: 0.25; stroke: #1a1a1a; stroke-width: 0.1; stroke-linejoin: miter"/>
   </g>
   <g id="patch_113">
    <path d="M 236.81721 289.4925 
L 238.100652 289.4925 
L 238.100652 199.22375 
L 236.81721 199.22375 
z
" style="fill: #1a1a1a; opacity: 0.25; stroke: #1a1a1a; stroke-width: 0.1; stroke-linejoin: miter"/>
   </g>
   <g id="patch_114">
    <path d="M 238.100652 289.4925 
L 239.384094 289.4925 
L 239.384094 289.4925 
L 238.100652 289.4925 
z
" style="fill: #1a1a1a; opacity: 0.25; stroke: #1a1a1a; stroke-width: 0.1; stroke-linejoin: miter"/>
   </g>
   <g id="patch_115">
    <path d="M 239.384094 289.4925 
L 240.667536 289.4925 
L 240.667536 289.4925 
L 239.384094 289.4925 
z
" style="fill: #1a1a1a; opacity: 0.25; stroke: #1a1a1a; stroke-width: 0.1; stroke-linejoin: miter"/>
   </g>
   <g id="patch_116">
    <path d="M 240.667536 289.4925 
L 241.950977 289.4925 
L 241.950977 108.955 
L 240.667536 108.955 
z
" style="fill: #1a1a1a; opacity: 0.25; stroke: #1a1a1a; stroke-width: 0.1; stroke-linejoin: miter"/>
   </g>
   <g id="patch_117">
    <path d="M 241.950977 289.4925 
L 243.234419 289.4925 
L 243.234419 289.4925 
L 241.950977 289.4925 
z
" style="fill: #1a1a1a; opacity: 0.25; stroke: #1a1a1a; stroke-width: 0.1; stroke-linejoin: miter"/>
   </g>
   <g id="patch_118">
    <path d="M 243.234419 289.4925 
L 244.517861 289.4925 
L 244.517861 289.4925 
L 243.234419 289.4925 
z
" style="fill: #1a1a1a; opacity: 0.25; stroke: #1a1a1a; stroke-width: 0.1; stroke-linejoin: miter"/>
   </g>
   <g id="patch_119">
    <path d="M 244.517861 289.4925 
L 245.801303 289.4925 
L 245.801303 289.4925 
L 244.517861 289.4925 
z
" style="fill: #1a1a1a; opacity: 0.25; stroke: #1a1a1a; stroke-width: 0.1; stroke-linejoin: miter"/>
   </g>
   <g id="patch_120">
    <path d="M 245.801303 289.4925 
L 247.084745 289.4925 
L 247.084745 199.22375 
L 245.801303 199.22375 
z
" style="fill: #1a1a1a; opacity: 0.25; stroke: #1a1a1a; stroke-width: 0.1; stroke-linejoin: miter"/>
   </g>
   <g id="patch_121">
    <path d="M 247.084745 289.4925 
L 248.368187 289.4925 
L 248.368187 289.4925 
L 247.084745 289.4925 
z
" style="fill: #1a1a1a; opacity: 0.25; stroke: #1a1a1a; stroke-width: 0.1; stroke-linejoin: miter"/>
   </g>
   <g id="patch_122">
    <path d="M 248.368187 289.4925 
L 249.651629 289.4925 
L 249.651629 289.4925 
L 248.368187 289.4925 
z
" style="fill: #1a1a1a; opacity: 0.25; stroke: #1a1a1a; stroke-width: 0.1; stroke-linejoin: miter"/>
   </g>
   <g id="patch_123">
    <path d="M 249.651629 289.4925 
L 250.935071 289.4925 
L 250.935071 199.22375 
L 249.651629 199.22375 
z
" style="fill: #1a1a1a; opacity: 0.25; stroke: #1a1a1a; stroke-width: 0.1; stroke-linejoin: miter"/>
   </g>
   <g id="patch_124">
    <path d="M 250.935071 289.4925 
L 252.218513 289.4925 
L 252.218513 199.22375 
L 250.935071 199.22375 
z
" style="fill: #1a1a1a; opacity: 0.25; stroke: #1a1a1a; stroke-width: 0.1; stroke-linejoin: miter"/>
   </g>
   <g id="patch_125">
    <path d="M 252.218513 289.4925 
L 253.501955 289.4925 
L 253.501955 108.955 
L 252.218513 108.955 
z
" style="fill: #1a1a1a; opacity: 0.25; stroke: #1a1a1a; stroke-width: 0.1; stroke-linejoin: miter"/>
   </g>
   <g id="patch_126">
    <path d="M 253.501955 289.4925 
L 254.785397 289.4925 
L 254.785397 289.4925 
L 253.501955 289.4925 
z
" style="fill: #1a1a1a; opacity: 0.25; stroke: #1a1a1a; stroke-width: 0.1; stroke-linejoin: miter"/>
   </g>
   <g id="patch_127">
    <path d="M 254.785397 289.4925 
L 256.068839 289.4925 
L 256.068839 289.4925 
L 254.785397 289.4925 
z
" style="fill: #1a1a1a; opacity: 0.25; stroke: #1a1a1a; stroke-width: 0.1; stroke-linejoin: miter"/>
   </g>
   <g id="patch_128">
    <path d="M 256.068839 289.4925 
L 257.352281 289.4925 
L 257.352281 289.4925 
L 256.068839 289.4925 
z
" style="fill: #1a1a1a; opacity: 0.25; stroke: #1a1a1a; stroke-width: 0.1; stroke-linejoin: miter"/>
   </g>
   <g id="patch_129">
    <path d="M 257.352281 289.4925 
L 258.635723 289.4925 
L 258.635723 289.4925 
L 257.352281 289.4925 
z
" style="fill: #1a1a1a; opacity: 0.25; stroke: #1a1a1a; stroke-width: 0.1; stroke-linejoin: miter"/>
   </g>
   <g id="patch_130">
    <path d="M 258.635723 289.4925 
L 259.919165 289.4925 
L 259.919165 199.22375 
L 258.635723 199.22375 
z
" style="fill: #1a1a1a; opacity: 0.25; stroke: #1a1a1a; stroke-width: 0.1; stroke-linejoin: miter"/>
   </g>
   <g id="patch_131">
    <path d="M 259.919165 289.4925 
L 261.202607 289.4925 
L 261.202607 289.4925 
L 259.919165 289.4925 
z
" style="fill: #1a1a1a; opacity: 0.25; stroke: #1a1a1a; stroke-width: 0.1; stroke-linejoin: miter"/>
   </g>
   <g id="patch_132">
    <path d="M 261.202607 289.4925 
L 262.486049 289.4925 
L 262.486049 289.4925 
L 261.202607 289.4925 
z
" style="fill: #1a1a1a; opacity: 0.25; stroke: #1a1a1a; stroke-width: 0.1; stroke-linejoin: miter"/>
   </g>
   <g id="patch_133">
    <path d="M 262.486049 289.4925 
L 263.769491 289.4925 
L 263.769491 289.4925 
L 262.486049 289.4925 
z
" style="fill: #1a1a1a; opacity: 0.25; stroke: #1a1a1a; stroke-width: 0.1; stroke-linejoin: miter"/>
   </g>
   <g id="patch_134">
    <path d="M 263.769491 289.4925 
L 265.052932 289.4925 
L 265.052932 289.4925 
L 263.769491 289.4925 
z
" style="fill: #1a1a1a; opacity: 0.25; stroke: #1a1a1a; stroke-width: 0.1; stroke-linejoin: miter"/>
   </g>
   <g id="patch_135">
    <path d="M 265.052932 289.4925 
L 266.336374 289.4925 
L 266.336374 289.4925 
L 265.052932 289.4925 
z
" style="fill: #1a1a1a; opacity: 0.25; stroke: #1a1a1a; stroke-width: 0.1; stroke-linejoin: miter"/>
   </g>
   <g id="patch_136">
    <path d="M 266.336374 289.4925 
L 267.619816 289.4925 
L 267.619816 289.4925 
L 266.336374 289.4925 
z
" style="fill: #1a1a1a; opacity: 0.25; stroke: #1a1a1a; stroke-width: 0.1; stroke-linejoin: miter"/>
   </g>
   <g id="patch_137">
    <path d="M 267.619816 289.4925 
L 268.903258 289.4925 
L 268.903258 199.22375 
L 267.619816 199.22375 
z
" style="fill: #1a1a1a; opacity: 0.25; stroke: #1a1a1a; stroke-width: 0.1; stroke-linejoin: miter"/>
   </g>
   <g id="patch_138">
    <path d="M 268.903258 289.4925 
L 270.1867 289.4925 
L 270.1867 199.22375 
L 268.903258 199.22375 
z
" style="fill: #1a1a1a; opacity: 0.25; stroke: #1a1a1a; stroke-width: 0.1; stroke-linejoin: miter"/>
   </g>
   <g id="patch_139">
    <path d="M 270.1867 289.4925 
L 271.470142 289.4925 
L 271.470142 199.22375 
L 270.1867 199.22375 
z
" style="fill: #1a1a1a; opacity: 0.25; stroke: #1a1a1a; stroke-width: 0.1; stroke-linejoin: miter"/>
   </g>
   <g id="patch_140">
    <path d="M 271.470142 289.4925 
L 272.753584 289.4925 
L 272.753584 289.4925 
L 271.470142 289.4925 
z
" style="fill: #1a1a1a; opacity: 0.25; stroke: #1a1a1a; stroke-width: 0.1; stroke-linejoin: miter"/>
   </g>
   <g id="patch_141">
    <path d="M 272.753584 289.4925 
L 274.037026 289.4925 
L 274.037026 289.4925 
L 272.753584 289.4925 
z
" style="fill: #1a1a1a; opacity: 0.25; stroke: #1a1a1a; stroke-width: 0.1; stroke-linejoin: miter"/>
   </g>
   <g id="patch_142">
    <path d="M 274.037026 289.4925 
L 275.320468 289.4925 
L 275.320468 289.4925 
L 274.037026 289.4925 
z
" style="fill: #1a1a1a; opacity: 0.25; stroke: #1a1a1a; stroke-width: 0.1; stroke-linejoin: miter"/>
   </g>
   <g id="patch_143">
    <path d="M 275.320468 289.4925 
L 276.60391 289.4925 
L 276.60391 289.4925 
L 275.320468 289.4925 
z
" style="fill: #1a1a1a; opacity: 0.25; stroke: #1a1a1a; stroke-width: 0.1; stroke-linejoin: miter"/>
   </g>
   <g id="patch_144">
    <path d="M 276.60391 289.4925 
L 277.887352 289.4925 
L 277.887352 199.22375 
L 276.60391 199.22375 
z
" style="fill: #1a1a1a; opacity: 0.25; stroke: #1a1a1a; stroke-width: 0.1; stroke-linejoin: miter"/>
   </g>
   <g id="patch_145">
    <path d="M 277.887352 289.4925 
L 279.170794 289.4925 
L 279.170794 289.4925 
L 277.887352 289.4925 
z
" style="fill: #1a1a1a; opacity: 0.25; stroke: #1a1a1a; stroke-width: 0.1; stroke-linejoin: miter"/>
   </g>
   <g id="patch_146">
    <path d="M 279.170794 289.4925 
L 280.454236 289.4925 
L 280.454236 289.4925 
L 279.170794 289.4925 
z
" style="fill: #1a1a1a; opacity: 0.25; stroke: #1a1a1a; stroke-width: 0.1; stroke-linejoin: miter"/>
   </g>
   <g id="patch_147">
    <path d="M 280.454236 289.4925 
L 281.737678 289.4925 
L 281.737678 199.22375 
L 280.454236 199.22375 
z
" style="fill: #1a1a1a; opacity: 0.25; stroke: #1a1a1a; stroke-width: 0.1; stroke-linejoin: miter"/>
   </g>
   <g id="patch_148">
    <path d="M 281.737678 289.4925 
L 283.02112 289.4925 
L 283.02112 289.4925 
L 281.737678 289.4925 
z
" style="fill: #1a1a1a; opacity: 0.25; stroke: #1a1a1a; stroke-width: 0.1; stroke-linejoin: miter"/>
   </g>
   <g id="patch_149">
    <path d="M 283.02112 289.4925 
L 284.304562 289.4925 
L 284.304562 289.4925 
L 283.02112 289.4925 
z
" style="fill: #1a1a1a; opacity: 0.25; stroke: #1a1a1a; stroke-width: 0.1; stroke-linejoin: miter"/>
   </g>
   <g id="patch_150">
    <path d="M 284.304562 289.4925 
L 285.588004 289.4925 
L 285.588004 199.22375 
L 284.304562 199.22375 
z
" style="fill: #1a1a1a; opacity: 0.25; stroke: #1a1a1a; stroke-width: 0.1; stroke-linejoin: miter"/>
   </g>
   <g id="patch_151">
    <path d="M 285.588004 289.4925 
L 286.871445 289.4925 
L 286.871445 289.4925 
L 285.588004 289.4925 
z
" style="fill: #1a1a1a; opacity: 0.25; stroke: #1a1a1a; stroke-width: 0.1; stroke-linejoin: miter"/>
   </g>
   <g id="patch_152">
    <path d="M 286.871445 289.4925 
L 288.154887 289.4925 
L 288.154887 289.4925 
L 286.871445 289.4925 
z
" style="fill: #1a1a1a; opacity: 0.25; stroke: #1a1a1a; stroke-width: 0.1; stroke-linejoin: miter"/>
   </g>
   <g id="patch_153">
    <path d="M 288.154887 289.4925 
L 289.438329 289.4925 
L 289.438329 289.4925 
L 288.154887 289.4925 
z
" style="fill: #1a1a1a; opacity: 0.25; stroke: #1a1a1a; stroke-width: 0.1; stroke-linejoin: miter"/>
   </g>
   <g id="patch_154">
    <path d="M 289.438329 289.4925 
L 290.721771 289.4925 
L 290.721771 289.4925 
L 289.438329 289.4925 
z
" style="fill: #1a1a1a; opacity: 0.25; stroke: #1a1a1a; stroke-width: 0.1; stroke-linejoin: miter"/>
   </g>
   <g id="patch_155">
    <path d="M 290.721771 289.4925 
L 292.005213 289.4925 
L 292.005213 108.955 
L 290.721771 108.955 
z
" style="fill: #1a1a1a; opacity: 0.25; stroke: #1a1a1a; stroke-width: 0.1; stroke-linejoin: miter"/>
   </g>
   <g id="patch_156">
    <path d="M 292.005213 289.4925 
L 293.288655 289.4925 
L 293.288655 289.4925 
L 292.005213 289.4925 
z
" style="fill: #1a1a1a; opacity: 0.25; stroke: #1a1a1a; stroke-width: 0.1; stroke-linejoin: miter"/>
   </g>
   <g id="patch_157">
    <path d="M 293.288655 289.4925 
L 294.572097 289.4925 
L 294.572097 199.22375 
L 293.288655 199.22375 
z
" style="fill: #1a1a1a; opacity: 0.25; stroke: #1a1a1a; stroke-width: 0.1; stroke-linejoin: miter"/>
   </g>
   <g id="patch_158">
    <path d="M 294.572097 289.4925 
L 295.855539 289.4925 
L 295.855539 289.4925 
L 294.572097 289.4925 
z
" style="fill: #1a1a1a; opacity: 0.25; stroke: #1a1a1a; stroke-width: 0.1; stroke-linejoin: miter"/>
   </g>
   <g id="patch_159">
    <path d="M 295.855539 289.4925 
L 297.138981 289.4925 
L 297.138981 289.4925 
L 295.855539 289.4925 
z
" style="fill: #1a1a1a; opacity: 0.25; stroke: #1a1a1a; stroke-width: 0.1; stroke-linejoin: miter"/>
   </g>
   <g id="patch_160">
    <path d="M 297.138981 289.4925 
L 298.422423 289.4925 
L 298.422423 289.4925 
L 297.138981 289.4925 
z
" style="fill: #1a1a1a; opacity: 0.25; stroke: #1a1a1a; stroke-width: 0.1; stroke-linejoin: miter"/>
   </g>
   <g id="patch_161">
    <path d="M 298.422423 289.4925 
L 299.705865 289.4925 
L 299.705865 289.4925 
L 298.422423 289.4925 
z
" style="fill: #1a1a1a; opacity: 0.25; stroke: #1a1a1a; stroke-width: 0.1; stroke-linejoin: miter"/>
   </g>
   <g id="patch_162">
    <path d="M 299.705865 289.4925 
L 300.989307 289.4925 
L 300.989307 289.4925 
L 299.705865 289.4925 
z
" style="fill: #1a1a1a; opacity: 0.25; stroke: #1a1a1a; stroke-width: 0.1; stroke-linejoin: miter"/>
   </g>
   <g id="patch_163">
    <path d="M 300.989307 289.4925 
L 302.272749 289.4925 
L 302.272749 289.4925 
L 300.989307 289.4925 
z
" style="fill: #1a1a1a; opacity: 0.25; stroke: #1a1a1a; stroke-width: 0.1; stroke-linejoin: miter"/>
   </g>
   <g id="patch_164">
    <path d="M 302.272749 289.4925 
L 303.556191 289.4925 
L 303.556191 289.4925 
L 302.272749 289.4925 
z
" style="fill: #1a1a1a; opacity: 0.25; stroke: #1a1a1a; stroke-width: 0.1; stroke-linejoin: miter"/>
   </g>
   <g id="patch_165">
    <path d="M 303.556191 289.4925 
L 304.839633 289.4925 
L 304.839633 289.4925 
L 303.556191 289.4925 
z
" style="fill: #1a1a1a; opacity: 0.25; stroke: #1a1a1a; stroke-width: 0.1; stroke-linejoin: miter"/>
   </g>
   <g id="patch_166">
    <path d="M 304.839633 289.4925 
L 306.123075 289.4925 
L 306.123075 289.4925 
L 304.839633 289.4925 
z
" style="fill: #1a1a1a; opacity: 0.25; stroke: #1a1a1a; stroke-width: 0.1; stroke-linejoin: miter"/>
   </g>
   <g id="patch_167">
    <path d="M 306.123075 289.4925 
L 307.406517 289.4925 
L 307.406517 289.4925 
L 306.123075 289.4925 
z
" style="fill: #1a1a1a; opacity: 0.25; stroke: #1a1a1a; stroke-width: 0.1; stroke-linejoin: miter"/>
   </g>
   <g id="patch_168">
    <path d="M 307.406517 289.4925 
L 308.689959 289.4925 
L 308.689959 289.4925 
L 307.406517 289.4925 
z
" style="fill: #1a1a1a; opacity: 0.25; stroke: #1a1a1a; stroke-width: 0.1; stroke-linejoin: miter"/>
   </g>
   <g id="patch_169">
    <path d="M 308.689959 289.4925 
L 309.9734 289.4925 
L 309.9734 289.4925 
L 308.689959 289.4925 
z
" style="fill: #1a1a1a; opacity: 0.25; stroke: #1a1a1a; stroke-width: 0.1; stroke-linejoin: miter"/>
   </g>
   <g id="patch_170">
    <path d="M 309.9734 289.4925 
L 311.256842 289.4925 
L 311.256842 289.4925 
L 309.9734 289.4925 
z
" style="fill: #1a1a1a; opacity: 0.25; stroke: #1a1a1a; stroke-width: 0.1; stroke-linejoin: miter"/>
   </g>
   <g id="patch_171">
    <path d="M 311.256842 289.4925 
L 312.540284 289.4925 
L 312.540284 289.4925 
L 311.256842 289.4925 
z
" style="fill: #1a1a1a; opacity: 0.25; stroke: #1a1a1a; stroke-width: 0.1; stroke-linejoin: miter"/>
   </g>
   <g id="patch_172">
    <path d="M 312.540284 289.4925 
L 313.823726 289.4925 
L 313.823726 289.4925 
L 312.540284 289.4925 
z
" style="fill: #1a1a1a; opacity: 0.25; stroke: #1a1a1a; stroke-width: 0.1; stroke-linejoin: miter"/>
   </g>
   <g id="patch_173">
    <path d="M 313.823726 289.4925 
L 315.107168 289.4925 
L 315.107168 289.4925 
L 313.823726 289.4925 
z
" style="fill: #1a1a1a; opacity: 0.25; stroke: #1a1a1a; stroke-width: 0.1; stroke-linejoin: miter"/>
   </g>
   <g id="patch_174">
    <path d="M 315.107168 289.4925 
L 316.39061 289.4925 
L 316.39061 289.4925 
L 315.107168 289.4925 
z
" style="fill: #1a1a1a; opacity: 0.25; stroke: #1a1a1a; stroke-width: 0.1; stroke-linejoin: miter"/>
   </g>
   <g id="patch_175">
    <path d="M 316.39061 289.4925 
L 317.674052 289.4925 
L 317.674052 289.4925 
L 316.39061 289.4925 
z
" style="fill: #1a1a1a; opacity: 0.25; stroke: #1a1a1a; stroke-width: 0.1; stroke-linejoin: miter"/>
   </g>
   <g id="patch_176">
    <path d="M 317.674052 289.4925 
L 318.957494 289.4925 
L 318.957494 289.4925 
L 317.674052 289.4925 
z
" style="fill: #1a1a1a; opacity: 0.25; stroke: #1a1a1a; stroke-width: 0.1; stroke-linejoin: miter"/>
   </g>
   <g id="patch_177">
    <path d="M 318.957494 289.4925 
L 320.240936 289.4925 
L 320.240936 289.4925 
L 318.957494 289.4925 
z
" style="fill: #1a1a1a; opacity: 0.25; stroke: #1a1a1a; stroke-width: 0.1; stroke-linejoin: miter"/>
   </g>
   <g id="patch_178">
    <path d="M 320.240936 289.4925 
L 321.524378 289.4925 
L 321.524378 289.4925 
L 320.240936 289.4925 
z
" style="fill: #1a1a1a; opacity: 0.25; stroke: #1a1a1a; stroke-width: 0.1; stroke-linejoin: miter"/>
   </g>
   <g id="patch_179">
    <path d="M 321.524378 289.4925 
L 322.80782 289.4925 
L 322.80782 289.4925 
L 321.524378 289.4925 
z
" style="fill: #1a1a1a; opacity: 0.25; stroke: #1a1a1a; stroke-width: 0.1; stroke-linejoin: miter"/>
   </g>
   <g id="patch_180">
    <path d="M 322.80782 289.4925 
L 324.091262 289.4925 
L 324.091262 289.4925 
L 322.80782 289.4925 
z
" style="fill: #1a1a1a; opacity: 0.25; stroke: #1a1a1a; stroke-width: 0.1; stroke-linejoin: miter"/>
   </g>
   <g id="patch_181">
    <path d="M 324.091262 289.4925 
L 325.374704 289.4925 
L 325.374704 289.4925 
L 324.091262 289.4925 
z
" style="fill: #1a1a1a; opacity: 0.25; stroke: #1a1a1a; stroke-width: 0.1; stroke-linejoin: miter"/>
   </g>
   <g id="patch_182">
    <path d="M 325.374704 289.4925 
L 326.658146 289.4925 
L 326.658146 289.4925 
L 325.374704 289.4925 
z
" style="fill: #1a1a1a; opacity: 0.25; stroke: #1a1a1a; stroke-width: 0.1; stroke-linejoin: miter"/>
   </g>
   <g id="patch_183">
    <path d="M 326.658146 289.4925 
L 327.941588 289.4925 
L 327.941588 289.4925 
L 326.658146 289.4925 
z
" style="fill: #1a1a1a; opacity: 0.25; stroke: #1a1a1a; stroke-width: 0.1; stroke-linejoin: miter"/>
   </g>
   <g id="patch_184">
    <path d="M 327.941588 289.4925 
L 329.22503 289.4925 
L 329.22503 289.4925 
L 327.941588 289.4925 
z
" style="fill: #1a1a1a; opacity: 0.25; stroke: #1a1a1a; stroke-width: 0.1; stroke-linejoin: miter"/>
   </g>
   <g id="patch_185">
    <path d="M 329.22503 289.4925 
L 330.508472 289.4925 
L 330.508472 289.4925 
L 329.22503 289.4925 
z
" style="fill: #1a1a1a; opacity: 0.25; stroke: #1a1a1a; stroke-width: 0.1; stroke-linejoin: miter"/>
   </g>
   <g id="patch_186">
    <path d="M 330.508472 289.4925 
L 331.791914 289.4925 
L 331.791914 289.4925 
L 330.508472 289.4925 
z
" style="fill: #1a1a1a; opacity: 0.25; stroke: #1a1a1a; stroke-width: 0.1; stroke-linejoin: miter"/>
   </g>
   <g id="patch_187">
    <path d="M 331.791914 289.4925 
L 333.075355 289.4925 
L 333.075355 289.4925 
L 331.791914 289.4925 
z
" style="fill: #1a1a1a; opacity: 0.25; stroke: #1a1a1a; stroke-width: 0.1; stroke-linejoin: miter"/>
   </g>
   <g id="patch_188">
    <path d="M 333.075355 289.4925 
L 334.358797 289.4925 
L 334.358797 289.4925 
L 333.075355 289.4925 
z
" style="fill: #1a1a1a; opacity: 0.25; stroke: #1a1a1a; stroke-width: 0.1; stroke-linejoin: miter"/>
   </g>
   <g id="patch_189">
    <path d="M 334.358797 289.4925 
L 335.642239 289.4925 
L 335.642239 289.4925 
L 334.358797 289.4925 
z
" style="fill: #1a1a1a; opacity: 0.25; stroke: #1a1a1a; stroke-width: 0.1; stroke-linejoin: miter"/>
   </g>
   <g id="patch_190">
    <path d="M 335.642239 289.4925 
L 336.925681 289.4925 
L 336.925681 289.4925 
L 335.642239 289.4925 
z
" style="fill: #1a1a1a; opacity: 0.25; stroke: #1a1a1a; stroke-width: 0.1; stroke-linejoin: miter"/>
   </g>
   <g id="patch_191">
    <path d="M 336.925681 289.4925 
L 338.209123 289.4925 
L 338.209123 289.4925 
L 336.925681 289.4925 
z
" style="fill: #1a1a1a; opacity: 0.25; stroke: #1a1a1a; stroke-width: 0.1; stroke-linejoin: miter"/>
   </g>
   <g id="patch_192">
    <path d="M 338.209123 289.4925 
L 339.492565 289.4925 
L 339.492565 289.4925 
L 338.209123 289.4925 
z
" style="fill: #1a1a1a; opacity: 0.25; stroke: #1a1a1a; stroke-width: 0.1; stroke-linejoin: miter"/>
   </g>
   <g id="patch_193">
    <path d="M 339.492565 289.4925 
L 340.776007 289.4925 
L 340.776007 289.4925 
L 339.492565 289.4925 
z
" style="fill: #1a1a1a; opacity: 0.25; stroke: #1a1a1a; stroke-width: 0.1; stroke-linejoin: miter"/>
   </g>
   <g id="patch_194">
    <path d="M 340.776007 289.4925 
L 342.059449 289.4925 
L 342.059449 289.4925 
L 340.776007 289.4925 
z
" style="fill: #1a1a1a; opacity: 0.25; stroke: #1a1a1a; stroke-width: 0.1; stroke-linejoin: miter"/>
   </g>
   <g id="patch_195">
    <path d="M 342.059449 289.4925 
L 343.342891 289.4925 
L 343.342891 289.4925 
L 342.059449 289.4925 
z
" style="fill: #1a1a1a; opacity: 0.25; stroke: #1a1a1a; stroke-width: 0.1; stroke-linejoin: miter"/>
   </g>
   <g id="patch_196">
    <path d="M 343.342891 289.4925 
L 344.626333 289.4925 
L 344.626333 289.4925 
L 343.342891 289.4925 
z
" style="fill: #1a1a1a; opacity: 0.25; stroke: #1a1a1a; stroke-width: 0.1; stroke-linejoin: miter"/>
   </g>
   <g id="patch_197">
    <path d="M 344.626333 289.4925 
L 345.909775 289.4925 
L 345.909775 289.4925 
L 344.626333 289.4925 
z
" style="fill: #1a1a1a; opacity: 0.25; stroke: #1a1a1a; stroke-width: 0.1; stroke-linejoin: miter"/>
   </g>
   <g id="patch_198">
    <path d="M 345.909775 289.4925 
L 347.193217 289.4925 
L 347.193217 289.4925 
L 345.909775 289.4925 
z
" style="fill: #1a1a1a; opacity: 0.25; stroke: #1a1a1a; stroke-width: 0.1; stroke-linejoin: miter"/>
   </g>
   <g id="patch_199">
    <path d="M 347.193217 289.4925 
L 348.476659 289.4925 
L 348.476659 289.4925 
L 347.193217 289.4925 
z
" style="fill: #1a1a1a; opacity: 0.25; stroke: #1a1a1a; stroke-width: 0.1; stroke-linejoin: miter"/>
   </g>
   <g id="patch_200">
    <path d="M 348.476659 289.4925 
L 349.760101 289.4925 
L 349.760101 289.4925 
L 348.476659 289.4925 
z
" style="fill: #1a1a1a; opacity: 0.25; stroke: #1a1a1a; stroke-width: 0.1; stroke-linejoin: miter"/>
   </g>
   <g id="patch_201">
    <path d="M 349.760101 289.4925 
L 351.043543 289.4925 
L 351.043543 289.4925 
L 349.760101 289.4925 
z
" style="fill: #1a1a1a; opacity: 0.25; stroke: #1a1a1a; stroke-width: 0.1; stroke-linejoin: miter"/>
   </g>
   <g id="patch_202">
    <path d="M 351.043543 289.4925 
L 352.326985 289.4925 
L 352.326985 289.4925 
L 351.043543 289.4925 
z
" style="fill: #1a1a1a; opacity: 0.25; stroke: #1a1a1a; stroke-width: 0.1; stroke-linejoin: miter"/>
   </g>
   <g id="patch_203">
    <path d="M 352.326985 289.4925 
L 353.610427 289.4925 
L 353.610427 289.4925 
L 352.326985 289.4925 
z
" style="fill: #1a1a1a; opacity: 0.25; stroke: #1a1a1a; stroke-width: 0.1; stroke-linejoin: miter"/>
   </g>
   <g id="patch_204">
    <path d="M 353.610427 289.4925 
L 354.893868 289.4925 
L 354.893868 289.4925 
L 353.610427 289.4925 
z
" style="fill: #1a1a1a; opacity: 0.25; stroke: #1a1a1a; stroke-width: 0.1; stroke-linejoin: miter"/>
   </g>
   <g id="patch_205">
    <path d="M 354.893868 289.4925 
L 356.17731 289.4925 
L 356.17731 289.4925 
L 354.893868 289.4925 
z
" style="fill: #1a1a1a; opacity: 0.25; stroke: #1a1a1a; stroke-width: 0.1; stroke-linejoin: miter"/>
   </g>
   <g id="patch_206">
    <path d="M 356.17731 289.4925 
L 357.460752 289.4925 
L 357.460752 289.4925 
L 356.17731 289.4925 
z
" style="fill: #1a1a1a; opacity: 0.25; stroke: #1a1a1a; stroke-width: 0.1; stroke-linejoin: miter"/>
   </g>
   <g id="patch_207">
    <path d="M 357.460752 289.4925 
L 358.744194 289.4925 
L 358.744194 289.4925 
L 357.460752 289.4925 
z
" style="fill: #1a1a1a; opacity: 0.25; stroke: #1a1a1a; stroke-width: 0.1; stroke-linejoin: miter"/>
   </g>
   <g id="patch_208">
    <path d="M 358.744194 289.4925 
L 360.027636 289.4925 
L 360.027636 289.4925 
L 358.744194 289.4925 
z
" style="fill: #1a1a1a; opacity: 0.25; stroke: #1a1a1a; stroke-width: 0.1; stroke-linejoin: miter"/>
   </g>
   <g id="patch_209">
    <path d="M 360.027636 289.4925 
L 361.311078 289.4925 
L 361.311078 289.4925 
L 360.027636 289.4925 
z
" style="fill: #1a1a1a; opacity: 0.25; stroke: #1a1a1a; stroke-width: 0.1; stroke-linejoin: miter"/>
   </g>
   <g id="patch_210">
    <path d="M 361.311078 289.4925 
L 362.59452 289.4925 
L 362.59452 289.4925 
L 361.311078 289.4925 
z
" style="fill: #1a1a1a; opacity: 0.25; stroke: #1a1a1a; stroke-width: 0.1; stroke-linejoin: miter"/>
   </g>
   <g id="patch_211">
    <path d="M 362.59452 289.4925 
L 363.877962 289.4925 
L 363.877962 289.4925 
L 362.59452 289.4925 
z
" style="fill: #1a1a1a; opacity: 0.25; stroke: #1a1a1a; stroke-width: 0.1; stroke-linejoin: miter"/>
   </g>
   <g id="patch_212">
    <path d="M 363.877962 289.4925 
L 365.161404 289.4925 
L 365.161404 289.4925 
L 363.877962 289.4925 
z
" style="fill: #1a1a1a; opacity: 0.25; stroke: #1a1a1a; stroke-width: 0.1; stroke-linejoin: miter"/>
   </g>
   <g id="patch_213">
    <path d="M 365.161404 289.4925 
L 366.444846 289.4925 
L 366.444846 289.4925 
L 365.161404 289.4925 
z
" style="fill: #1a1a1a; opacity: 0.25; stroke: #1a1a1a; stroke-width: 0.1; stroke-linejoin: miter"/>
   </g>
   <g id="patch_214">
    <path d="M 94.996875 289.4925 
L 94.996875 18.68625 
" style="fill: none; stroke: #262626; stroke-width: 1.25; stroke-linejoin: miter; stroke-linecap: square"/>
   </g>
   <g id="patch_215">
    <path d="M 94.996875 289.4925 
L 365.803125 289.4925 
" style="fill: none; stroke: #262626; stroke-width: 1.25; stroke-linejoin: miter; stroke-linecap: square"/>
   </g>
  </g>
  <g id="axes_2">
   <g id="matplotlib.axis_3">
    <g id="ytick_5">
     <g id="line2d_13">
      <defs>
       <path id="me1afecb268" d="M 0 0 
L 6 0 
" style="stroke: #1f77b4; stroke-width: 1.25"/>
      </defs>
      <g>
       <use xlink:href="#me1afecb268" x="365.803125" y="289.4925" style="fill: #1f77b4; stroke: #1f77b4; stroke-width: 1.25"/>
      </g>
     </g>
     <g id="text_15">
      <text style="fill: #1f77b4; font: 16px 'Arial', 'DejaVu Sans', 'Liberation Sans', 'Bitstream Vera Sans', sans-serif; text-anchor: start" x="375.303125" y="295.21875" transform="rotate(-0 375.303125 295.21875)">0.0</text>
     </g>
    </g>
    <g id="ytick_6">
     <g id="line2d_14">
      <g>
       <use xlink:href="#me1afecb268" x="365.803125" y="235.33125" style="fill: #1f77b4; stroke: #1f77b4; stroke-width: 1.25"/>
      </g>
     </g>
     <g id="text_16">
      <text style="fill: #1f77b4; font: 16px 'Arial', 'DejaVu Sans', 'Liberation Sans', 'Bitstream Vera Sans', sans-serif; text-anchor: start" x="375.303125" y="241.0575" transform="rotate(-0 375.303125 241.0575)">0.2</text>
     </g>
    </g>
    <g id="ytick_7">
     <g id="line2d_15">
      <g>
       <use xlink:href="#me1afecb268" x="365.803125" y="181.17" style="fill: #1f77b4; stroke: #1f77b4; stroke-width: 1.25"/>
      </g>
     </g>
     <g id="text_17">
      <text style="fill: #1f77b4; font: 16px 'Arial', 'DejaVu Sans', 'Liberation Sans', 'Bitstream Vera Sans', sans-serif; text-anchor: start" x="375.303125" y="186.89625" transform="rotate(-0 375.303125 186.89625)">0.4</text>
     </g>
    </g>
    <g id="ytick_8">
     <g id="line2d_16">
      <g>
       <use xlink:href="#me1afecb268" x="365.803125" y="127.00875" style="fill: #1f77b4; stroke: #1f77b4; stroke-width: 1.25"/>
      </g>
     </g>
     <g id="text_18">
      <text style="fill: #1f77b4; font: 16px 'Arial', 'DejaVu Sans', 'Liberation Sans', 'Bitstream Vera Sans', sans-serif; text-anchor: start" x="375.303125" y="132.735" transform="rotate(-0 375.303125 132.735)">0.6</text>
     </g>
    </g>
    <g id="ytick_9">
     <g id="line2d_17">
      <g>
       <use xlink:href="#me1afecb268" x="365.803125" y="72.8475" style="fill: #1f77b4; stroke: #1f77b4; stroke-width: 1.25"/>
      </g>
     </g>
     <g id="text_19">
      <text style="fill: #1f77b4; font: 16px 'Arial', 'DejaVu Sans', 'Liberation Sans', 'Bitstream Vera Sans', sans-serif; text-anchor: start" x="375.303125" y="78.57375" transform="rotate(-0 375.303125 78.57375)">0.8</text>
     </g>
    </g>
    <g id="ytick_10">
     <g id="line2d_18">
      <g>
       <use xlink:href="#me1afecb268" x="365.803125" y="18.68625" style="fill: #1f77b4; stroke: #1f77b4; stroke-width: 1.25"/>
      </g>
     </g>
     <g id="text_20">
      <text style="fill: #1f77b4; font: 16px 'Arial', 'DejaVu Sans', 'Liberation Sans', 'Bitstream Vera Sans', sans-serif; text-anchor: start" x="375.303125" y="24.4125" transform="rotate(-0 375.303125 24.4125)">1.0</text>
     </g>
    </g>
    <g id="text_21">
     <text style="fill: #1f77b4; font: 16px 'Arial', 'DejaVu Sans', 'Liberation Sans', 'Bitstream Vera Sans', sans-serif; text-anchor: middle" x="413.190625" y="154.089375" transform="rotate(-90 413.190625 154.089375)">End-of-outbreak-probability</text>
    </g>
   </g>
   <g id="PolyCollection_1">
    <defs>
     <path id="m9d4685d2aa" d="M 96.280317 -250.667525 
L 96.280317 -250.667525 
L 97.563759 -251.721993 
L 98.847201 -254.110469 
L 100.130643 -257.815955 
L 101.414085 -262.430241 
L 102.697527 -267.514909 
L 103.980969 -272.722089 
L 105.264411 -277.817505 
L 106.547852 -282.661038 
L 107.831294 -287.178787 
L 109.114736 -291.33958 
L 110.398178 -295.138355 
L 111.68162 -298.585272 
L 112.965062 -301.698862 
L 114.248504 -166.542972 
L 115.531946 -174.726878 
L 116.815388 -183.427074 
L 118.09883 -192.733313 
L 119.382272 -202.450345 
L 120.665714 -212.304761 
L 121.949156 -90.59034 
L 123.232598 -97.797564 
L 124.51604 -106.123742 
L 125.799482 -115.568408 
L 127.082924 -67.190813 
L 128.366366 -70.912254 
L 129.649807 -75.748981 
L 130.933249 -62.190139 
L 132.216691 -64.906023 
L 133.500133 -68.28873 
L 134.783575 -56.243669 
L 136.067017 -56.155309 
L 137.350459 -56.218991 
L 138.633901 -56.159969 
L 139.917343 -56.239078 
L 141.200785 -56.424425 
L 142.484227 -56.820215 
L 143.767669 -57.59753 
L 145.051111 -58.889911 
L 146.334553 -61.247752 
L 147.617995 -63.979283 
L 148.901437 -68.685255 
L 150.184879 -63.297155 
L 151.46832 -59.997065 
L 152.751762 -57.674812 
L 154.035204 -58.650385 
L 155.318646 -60.058203 
L 156.602088 -62.490542 
L 157.88553 -58.186613 
L 159.168972 -56.843908 
L 160.452414 -56.421298 
L 161.735856 -56.775719 
L 163.019298 -57.417336 
L 164.30274 -56.223813 
L 165.586182 -56.388529 
L 166.869624 -56.2377 
L 168.153066 -56.411818 
L 169.436508 -56.265574 
L 170.71995 -56.111533 
L 172.003392 -56.121468 
L 173.286834 -56.149761 
L 174.570275 -56.133849 
L 175.853717 -56.186468 
L 177.137159 -56.160783 
L 178.420601 -56.245785 
L 179.704043 -56.481711 
L 180.987485 -56.340262 
L 182.270927 -56.608608 
L 183.554369 -57.134182 
L 184.837811 -56.731653 
L 186.121253 -56.441049 
L 187.404695 -56.806306 
L 188.688137 -56.478854 
L 189.971579 -56.858829 
L 191.255021 -57.675187 
L 192.538463 -59.015703 
L 193.821905 -61.254626 
L 195.105347 -64.546632 
L 196.388789 -69.020954 
L 197.67223 -74.649558 
L 198.955672 -82.47938 
L 200.239114 -91.010685 
L 201.522556 -74.920225 
L 202.805998 -81.342325 
L 204.08944 -63.389202 
L 205.372882 -65.521416 
L 206.656324 -69.35809 
L 207.939766 -74.605239 
L 209.223208 -61.051703 
L 210.50665 -57.723377 
L 211.790092 -56.726168 
L 213.073534 -57.253435 
L 214.356976 -56.49444 
L 215.640418 -56.137722 
L 216.92386 -56.181714 
L 218.207302 -56.143549 
L 219.490743 -56.2081 
L 220.774185 -56.363026 
L 222.057627 -56.243131 
L 223.341069 -56.425586 
L 224.624511 -56.158709 
L 225.907953 -56.240308 
L 227.191395 -56.433561 
L 228.474837 -56.805597 
L 229.758279 -57.483962 
L 231.041721 -58.892186 
L 232.325163 -60.846951 
L 233.608605 -58.844126 
L 234.892047 -57.504744 
L 236.175489 -58.50747 
L 237.458931 -57.215528 
L 238.742373 -58.126924 
L 240.025815 -59.573355 
L 241.309257 -56.35489 
L 242.592698 -56.664595 
L 243.87614 -57.223698 
L 245.159582 -58.24131 
L 246.443024 -57.018316 
L 247.726466 -57.942533 
L 249.009908 -59.587454 
L 250.29335 -57.635032 
L 251.576792 -56.764445 
L 252.860234 -56.16905 
L 254.143676 -56.255619 
L 255.427118 -56.465025 
L 256.71056 -56.85692 
L 257.994002 -57.645881 
L 259.277444 -56.86226 
L 260.560886 -57.621484 
L 261.844328 -58.963894 
L 263.12777 -61.079252 
L 264.411211 -64.269352 
L 265.694653 -68.418561 
L 266.978095 -74.145911 
L 268.261537 -65.133115 
L 269.544979 -59.931383 
L 270.828421 -57.622463 
L 272.111863 -58.704147 
L 273.395305 -60.223672 
L 274.678747 -62.77965 
L 275.962189 -66.398783 
L 277.245631 -59.548682 
L 278.529073 -61.920433 
L 279.812515 -65.223758 
L 281.095957 -59.474967 
L 282.379399 -61.686291 
L 283.662841 -64.834029 
L 284.946283 -58.953401 
L 286.229725 -60.78376 
L 287.513166 -63.580401 
L 288.796608 -67.263476 
L 290.08005 -72.958712 
L 291.363492 -57.515531 
L 292.646934 -58.609121 
L 293.930376 -57.038999 
L 295.213818 -57.791128 
L 296.49726 -59.057549 
L 297.780702 -60.874474 
L 299.064144 -64.142248 
L 300.347586 -68.650673 
L 301.631028 -74.19813 
L 302.91447 -81.421223 
L 304.197912 -89.184399 
L 305.481354 -99.695088 
L 306.764796 -110.980279 
L 308.048238 -122.899489 
L 309.33168 -136.000588 
L 310.615121 -148.297973 
L 311.898563 -161.991365 
L 313.182005 -175.169216 
L 314.465447 -187.20883 
L 315.748889 -199.870273 
L 317.032331 -212.514947 
L 318.315773 -223.990945 
L 319.599215 -233.990028 
L 320.882657 -243.065592 
L 322.166099 -252.201165 
L 323.449541 -260.465519 
L 324.732983 -267.780604 
L 326.016425 -275.200733 
L 327.299867 -281.204703 
L 328.583309 -286.106336 
L 329.866751 -291.647576 
L 331.150193 -295.611876 
L 332.433634 -299.577907 
L 333.717076 -303.096504 
L 335.000518 -306.141462 
L 336.28396 -308.549567 
L 337.567402 -311.068809 
L 338.850844 -313.027818 
L 340.134286 -314.842698 
L 341.417728 -316.511605 
L 342.70117 -317.909079 
L 343.984612 -319.112204 
L 345.268054 -320.063565 
L 346.551496 -321.078562 
L 347.834938 -321.829187 
L 349.11838 -322.559387 
L 350.401822 -323.126564 
L 351.685264 -323.678867 
L 352.968706 -324.11269 
L 354.252148 -324.508942 
L 355.535589 -324.851845 
L 356.819031 -325.124246 
L 358.102473 -325.382295 
L 359.385915 -325.58954 
L 360.669357 -325.778787 
L 361.952799 -325.939623 
L 363.236241 -326.072035 
L 364.519683 -326.198449 
L 365.803125 -326.32451 
L 365.803125 -326.678135 
L 365.803125 -326.678135 
L 364.519683 -326.635206 
L 363.236241 -326.585401 
L 361.952799 -326.532264 
L 360.669357 -326.470716 
L 359.385915 -326.399465 
L 358.102473 -326.317025 
L 356.819031 -326.221694 
L 355.535589 -326.11152 
L 354.252148 -325.90407 
L 352.968706 -325.743928 
L 351.685264 -325.55705 
L 350.401822 -325.383958 
L 349.11838 -325.100175 
L 347.834938 -324.76606 
L 346.551496 -324.396525 
L 345.268054 -323.97409 
L 343.984612 -323.550488 
L 342.70117 -322.997021 
L 341.417728 -322.378498 
L 340.134286 -321.688666 
L 338.850844 -320.914266 
L 337.567402 -320.013935 
L 336.28396 -318.855785 
L 335.000518 -317.69532 
L 333.717076 -316.335523 
L 332.433634 -314.80379 
L 331.150193 -313.036251 
L 329.866751 -310.915563 
L 328.583309 -308.562331 
L 327.299867 -305.977086 
L 326.016425 -303.03432 
L 324.732983 -299.537455 
L 323.449541 -296.390919 
L 322.166099 -291.834958 
L 320.882657 -287.053915 
L 319.599215 -281.828457 
L 318.315773 -276.553784 
L 317.032331 -269.92788 
L 315.748889 -262.259349 
L 314.465447 -255.115221 
L 313.182005 -246.02535 
L 311.898563 -237.04803 
L 310.615121 -226.374053 
L 309.33168 -216.308419 
L 308.048238 -204.822011 
L 306.764796 -192.742787 
L 305.481354 -180.109521 
L 304.197912 -166.274493 
L 302.91447 -153.440327 
L 301.631028 -140.623137 
L 300.347586 -128.346577 
L 299.064144 -116.690474 
L 297.780702 -105.949731 
L 296.49726 -96.757828 
L 295.213818 -87.863218 
L 293.930376 -80.842718 
L 292.646934 -96.46306 
L 291.363492 -89.206639 
L 290.08005 -141.770805 
L 288.796608 -129.566729 
L 287.513166 -117.794768 
L 286.229725 -108.43066 
L 284.946283 -99.440871 
L 283.662841 -117.573966 
L 282.379399 -107.939063 
L 281.095957 -99.457483 
L 279.812515 -116.79133 
L 278.529073 -106.53578 
L 277.245631 -97.814256 
L 275.962189 -114.424137 
L 274.678747 -104.158455 
L 273.395305 -94.602391 
L 272.111863 -87.15865 
L 270.828421 -80.511128 
L 269.544979 -92.199993 
L 268.261537 -108.086088 
L 266.978095 -132.04204 
L 265.694653 -119.913713 
L 264.411211 -108.781111 
L 263.12777 -97.143862 
L 261.844328 -87.934872 
L 260.560886 -80.359543 
L 259.277444 -73.658003 
L 257.994002 -81.726464 
L 256.71056 -75.151648 
L 255.427118 -69.252795 
L 254.143676 -65.037085 
L 252.860234 -61.869803 
L 251.576792 -75.723334 
L 250.29335 -83.534869 
L 249.009908 -92.685465 
L 247.726466 -85.141097 
L 246.443024 -78.004807 
L 245.159582 -85.309711 
L 243.87614 -78.534158 
L 242.592698 -72.256319 
L 241.309257 -68.214819 
L 240.025815 -84.210655 
L 238.742373 -77.256212 
L 237.458931 -72.249791 
L 236.175489 -76.733756 
L 234.892047 -71.834324 
L 233.608605 -76.809385 
L 232.325163 -85.944153 
L 231.041721 -77.505284 
L 229.758279 -70.793084 
L 228.474837 -66.211252 
L 227.191395 -62.414033 
L 225.907953 -59.953841 
L 224.624511 -58.321889 
L 223.341069 -65.344087 
L 222.057627 -61.876521 
L 220.774185 -67.644172 
L 219.490743 -62.911645 
L 218.207302 -59.811441 
L 216.92386 -64.435817 
L 215.640418 -60.311463 
L 214.356976 -80.483569 
L 213.073534 -93.778606 
L 211.790092 -86.931306 
L 210.50665 -101.929549 
L 209.223208 -119.393994 
L 207.939766 -142.35187 
L 206.656324 -131.669347 
L 205.372882 -121.757443 
L 204.08944 -112.771888 
L 202.805998 -133.66757 
L 201.522556 -123.40701 
L 200.239114 -146.659415 
L 198.955672 -133.607243 
L 197.67223 -120.847326 
L 196.388789 -109.880722 
L 195.105347 -98.627759 
L 193.821905 -89.701762 
L 192.538463 -81.180977 
L 191.255021 -74.997181 
L 189.971579 -69.253421 
L 188.688137 -65.076761 
L 187.404695 -67.838476 
L 186.121253 -64.055289 
L 184.837811 -66.31071 
L 183.554369 -69.495625 
L 182.270927 -64.674092 
L 180.987485 -61.633881 
L 179.704043 -63.385728 
L 178.420601 -60.490495 
L 177.137159 -58.677901 
L 175.853717 -59.474243 
L 174.570275 -57.929706 
L 173.286834 -58.746187 
L 172.003392 -57.509046 
L 170.71995 -56.850275 
L 169.436508 -65.418748 
L 168.153066 -70.798595 
L 166.869624 -66.040903 
L 165.586182 -70.543302 
L 164.30274 -65.988037 
L 163.019298 -82.702449 
L 161.735856 -76.520836 
L 160.452414 -71.666425 
L 159.168972 -77.707854 
L 157.88553 -85.65572 
L 156.602088 -98.479826 
L 155.318646 -89.383836 
L 154.035204 -82.968597 
L 152.751762 -76.980418 
L 151.46832 -89.683401 
L 150.184879 -98.642914 
L 148.901437 -113.141989 
L 147.617995 -102.418303 
L 146.334553 -92.778189 
L 145.051111 -84.377841 
L 143.767669 -77.308069 
L 142.484227 -71.58088 
L 141.200785 -67.124954 
L 139.917343 -63.794147 
L 138.633901 -60.36259 
L 137.350459 -62.792378 
L 136.067017 -60.779804 
L 134.783575 -62.656391 
L 133.500133 -147.407513 
L 132.216691 -138.067549 
L 130.933249 -129.658147 
L 129.649807 -158.035446 
L 128.366366 -148.603182 
L 127.082924 -139.945229 
L 125.799482 -179.235903 
L 124.51604 -169.264041 
L 123.232598 -159.940676 
L 121.949156 -151.219614 
L 120.665714 -212.304761 
L 119.382272 -202.450345 
L 118.09883 -192.733313 
L 116.815388 -183.427074 
L 115.531946 -174.726878 
L 114.248504 -166.542972 
L 112.965062 -301.698862 
L 111.68162 -298.585272 
L 110.398178 -295.138355 
L 109.114736 -291.33958 
L 107.831294 -287.178787 
L 106.547852 -282.661038 
L 105.264411 -277.817505 
L 103.980969 -272.722089 
L 102.697527 -267.514909 
L 101.414085 -262.430241 
L 100.130643 -257.815955 
L 98.847201 -254.110469 
L 97.563759 -251.721993 
L 96.280317 -250.667525 
z
" style="stroke: #ffffff; stroke-opacity: 0.5"/>
    </defs>
    <g>
     <use xlink:href="#m9d4685d2aa" x="0" y="345.6" style="fill: #4c72b0; fill-opacity: 0.5; stroke: #ffffff; stroke-opacity: 0.5"/>
    </g>
   </g>
   <g id="line2d_19">
    <path d="M 96.280317 94.932475 
L 97.563759 93.878007 
L 98.847201 91.489531 
L 100.130643 87.784045 
L 101.414085 83.169759 
L 106.547852 62.938962 
L 109.114736 54.26042 
L 110.398178 50.461645 
L 111.68162 47.014728 
L 112.965062 43.901138 
L 114.248504 179.057028 
L 116.815388 162.172926 
L 119.382272 143.149655 
L 120.665714 133.295239 
L 121.949156 217.934859 
L 124.51604 198.648162 
L 125.799482 186.666069 
L 127.082924 246.890326 
L 128.366366 238.379848 
L 129.649807 227.932243 
L 130.933249 265.037501 
L 132.216691 258.342923 
L 133.500133 250.101535 
L 134.783575 287.725837 
L 136.067017 288.532161 
L 137.350459 287.799172 
L 138.633901 288.534763 
L 139.917343 287.70546 
L 141.200785 286.387774 
L 142.484227 284.269361 
L 143.767669 281.197069 
L 145.051111 276.837666 
L 146.334553 270.973343 
L 147.617995 264.184041 
L 148.901437 255.721866 
L 150.184879 268.547963 
L 151.46832 276.107159 
L 152.751762 280.920885 
L 154.035204 277.509253 
L 155.318646 272.790994 
L 156.602088 266.931241 
L 157.88553 275.94165 
L 159.168972 281.517528 
L 160.452414 284.922414 
L 161.735856 282.453557 
L 163.019298 278.961233 
L 164.30274 287.42841 
L 165.586182 285.932653 
L 166.869624 287.539349 
L 168.153066 286.055509 
L 169.436508 287.522022 
L 170.71995 289.357172 
L 172.003392 289.196143 
L 173.286834 288.866866 
L 174.570275 289.047214 
L 175.853717 288.571265 
L 177.137159 288.815927 
L 178.420601 288.182541 
L 179.704043 287.046853 
L 180.987485 287.747944 
L 182.270927 286.451523 
L 183.554369 284.259614 
L 184.837811 285.855076 
L 186.121253 286.831161 
L 187.404695 285.112329 
L 188.688137 286.385816 
L 189.971579 284.536707 
L 191.255021 281.600458 
L 192.538463 277.712985 
L 193.821905 272.445634 
L 195.105347 265.887213 
L 196.388789 257.588714 
L 197.67223 248.461938 
L 198.955672 237.690144 
L 200.239114 225.85029 
L 201.522556 247.484842 
L 202.805998 238.484056 
L 204.08944 257.392 
L 205.372882 250.042353 
L 206.656324 241.061947 
L 207.939766 231.077191 
L 209.223208 257.195965 
L 210.50665 272.973292 
L 211.790092 281.739119 
L 213.073534 277.926807 
L 214.356976 284.400125 
L 215.640418 288.833212 
L 216.92386 288.228428 
L 218.207302 288.801851 
L 219.490743 288.168937 
L 220.774185 287.030224 
L 222.057627 288.0761 
L 223.341069 286.977284 
L 224.624511 288.896932 
L 225.907953 288.349301 
L 227.191395 287.382561 
L 228.474837 285.844684 
L 229.758279 283.549239 
L 231.041721 280.101942 
L 232.325163 275.329853 
L 233.608605 280.017886 
L 234.892047 282.983264 
L 236.175489 279.922416 
L 237.458931 282.960629 
L 238.742373 280.023715 
L 240.025815 275.594393 
L 241.309257 285.613048 
L 242.592698 283.595993 
L 243.87614 280.39738 
L 245.159582 276.132682 
L 246.443024 281.484365 
L 247.726466 277.762326 
L 249.009908 272.607628 
L 250.29335 279.61982 
L 252.860234 288.264297 
L 254.143676 287.380903 
L 255.427118 285.918436 
L 256.71056 283.574028 
L 257.994002 280.387327 
L 259.277444 283.97143 
L 260.560886 281.046498 
L 261.844328 277.0165 
L 263.12777 271.536028 
L 264.411211 264.423882 
L 265.694653 256.53304 
L 266.978095 247.139286 
L 268.261537 263.520201 
L 269.544979 273.284372 
L 270.828421 279.690122 
L 272.111863 275.733773 
L 273.395305 270.488706 
L 274.678747 264.42222 
L 275.962189 256.274072 
L 277.245631 270.697878 
L 278.529073 264.380955 
L 279.812515 256.804037 
L 281.095957 271.466357 
L 282.379399 265.30731 
L 283.662841 258.303563 
L 284.946283 272.896895 
L 286.229725 266.920828 
L 287.513166 259.828857 
L 288.796608 251.10673 
L 290.08005 241.139689 
L 291.363492 279.329385 
L 292.646934 275.205729 
L 293.930376 281.9024 
L 295.213818 278.470939 
L 296.49726 273.856353 
L 297.780702 267.965919 
L 299.064144 260.669662 
L 300.347586 251.596708 
L 301.631028 241.619855 
L 304.197912 218.993064 
L 308.048238 180.057401 
L 309.33168 166.804136 
L 310.615121 154.893541 
L 311.898563 141.758153 
L 314.465447 119.727962 
L 317.032331 100.088555 
L 318.315773 90.950106 
L 320.882657 76.129064 
L 322.166099 69.41476 
L 323.449541 63.522201 
L 326.016425 53.613721 
L 327.299867 49.221871 
L 329.866751 42.220757 
L 331.150193 39.231121 
L 333.717076 34.302309 
L 336.28396 30.549271 
L 337.567402 28.925332 
L 340.134286 26.438261 
L 342.70117 24.475616 
L 345.268054 23.034291 
L 347.834938 21.911065 
L 350.401822 21.051627 
L 354.252148 20.210602 
L 356.819031 19.795022 
L 361.952799 19.294931 
L 365.803125 19.030139 
L 365.803125 19.030139 
" style="fill: none; stroke: #4c72b0; stroke-width: 2; stroke-linecap: round"/>
   </g>
   <g id="line2d_20">
    <path d="M 96.280317 94.932475 
L 97.563759 93.878007 
L 98.847201 91.489531 
L 100.130643 87.784045 
L 101.414085 83.169759 
L 106.547852 62.938962 
L 109.114736 54.26042 
L 110.398178 50.461645 
L 111.68162 47.014728 
L 112.965062 43.901138 
L 114.248504 179.057028 
L 116.815388 162.172926 
L 119.382272 143.149655 
L 120.665714 133.295239 
L 121.949156 194.380386 
L 124.51604 176.335959 
L 125.799482 166.364097 
L 127.082924 245.614435 
L 128.366366 237.443707 
L 129.649807 228.285505 
L 130.933249 242.686406 
L 132.216691 234.565329 
L 133.500133 225.422579 
L 134.783575 280.534661 
L 136.067017 283.329833 
L 137.350459 280.955537 
L 138.633901 287.84404 
L 139.917343 286.919886 
L 141.200785 285.47552 
L 142.484227 283.311913 
L 143.767669 280.224006 
L 145.051111 276.027364 
L 146.334553 270.584193 
L 147.617995 263.822113 
L 148.901437 255.742958 
L 150.184879 260.918789 
L 151.46832 274.44849 
L 152.751762 280.6282 
L 154.035204 277.210101 
L 155.318646 272.742871 
L 156.602088 267.043113 
L 157.88553 283.366493 
L 159.168972 284.491398 
L 160.452414 285.239614 
L 161.735856 283.127307 
L 163.019298 280.166739 
L 164.30274 288.342622 
L 165.586182 287.621676 
L 166.869624 287.351758 
L 168.153066 286.075726 
L 169.436508 285.990643 
L 170.71995 289.237193 
L 172.003392 289.001295 
L 173.286834 288.576505 
L 174.570275 288.312425 
L 175.853717 287.435003 
L 177.137159 288.050829 
L 178.420601 287.003027 
L 179.704043 285.370839 
L 180.987485 286.257973 
L 182.270927 284.316523 
L 183.554369 281.529495 
L 184.837811 282.931663 
L 186.121253 285.435394 
L 187.404695 283.260402 
L 188.688137 288.321233 
L 189.971579 287.605022 
L 191.255021 286.455496 
L 192.538463 284.679281 
L 193.821905 282.067919 
L 195.105347 278.417049 
L 196.388789 273.558474 
L 197.67223 267.382798 
L 198.955672 259.853999 
L 200.239114 251.013382 
L 201.522556 259.034118 
L 202.805998 251.257473 
L 204.08944 268.551452 
L 205.372882 262.508206 
L 206.656324 255.265777 
L 207.939766 246.747918 
L 209.223208 255.064317 
L 210.50665 267.673721 
L 211.790092 270.98831 
L 213.073534 265.975676 
L 214.356976 271.55991 
L 215.640418 288.33301 
L 216.92386 287.655434 
L 218.207302 287.694363 
L 219.490743 286.596739 
L 220.774185 284.912654 
L 222.057627 284.810949 
L 223.341069 282.397984 
L 224.624511 288.034536 
L 225.907953 287.046184 
L 227.191395 285.524819 
L 228.474837 283.266468 
L 229.758279 280.06012 
L 231.041721 275.70736 
L 232.325163 270.086013 
L 233.608605 281.645305 
L 234.892047 281.269891 
L 236.175489 277.822 
L 237.458931 284.178218 
L 238.742373 281.580963 
L 240.025815 278.026411 
L 241.309257 285.517121 
L 242.592698 283.484675 
L 243.87614 280.642456 
L 245.159582 276.772351 
L 246.443024 286.669892 
L 247.726466 285.074936 
L 249.009908 282.732642 
L 250.29335 285.581129 
L 251.576792 286.952494 
L 252.860234 288.684381 
L 254.143676 288.070847 
L 255.427118 287.071735 
L 256.71056 285.502926 
L 257.994002 283.158704 
L 259.277444 286.316801 
L 260.560886 284.376051 
L 261.844328 281.586721 
L 263.12777 277.743567 
L 264.411211 272.67656 
L 265.694653 266.27421 
L 266.978095 258.505088 
L 268.261537 263.544642 
L 269.544979 285.576924 
L 270.828421 287.921812 
L 272.111863 287.084802 
L 273.395305 285.773181 
L 274.678747 283.788658 
L 275.962189 280.921422 
L 277.245631 286.532914 
L 278.529073 284.750055 
L 279.812515 282.169206 
L 281.095957 286.585094 
L 282.379399 284.80684 
L 283.662841 282.234408 
L 284.946283 285.602689 
L 286.229725 283.402927 
L 287.513166 280.311629 
L 288.796608 276.132316 
L 290.08005 270.711009 
L 291.363492 281.439959 
L 292.646934 278.126094 
L 293.930376 278.300031 
L 295.213818 274.268046 
L 296.49726 269.095585 
L 297.780702 262.626874 
L 299.064144 254.812624 
L 300.347586 245.694377 
L 301.631028 235.403076 
L 304.197912 212.107551 
L 311.898563 137.180651 
L 314.465447 115.388635 
L 317.032331 96.411089 
L 318.315773 88.004402 
L 320.882657 73.338594 
L 322.166099 67.047472 
L 323.449541 61.383696 
L 324.732983 56.304914 
L 326.016425 51.766964 
L 327.299867 47.725318 
L 328.583309 44.136185 
L 331.150193 38.019314 
L 332.433634 35.5606 
L 333.717076 33.393336 
L 335.000518 31.493536 
L 337.567402 28.340243 
L 338.850844 27.06906 
L 341.417728 24.991013 
L 342.70117 24.122266 
L 345.268054 22.757035 
L 347.834938 21.719575 
L 350.401822 20.940011 
L 352.968706 20.362275 
L 356.819031 19.716345 
L 361.952799 19.250225 
L 365.803125 18.998849 
L 365.803125 18.998849 
" style="fill: none; stroke-dasharray: 7.4,3.2; stroke-dashoffset: 0; stroke: #1a1a1a; stroke-width: 2"/>
   </g>
   <g id="line2d_21">
    <path d="M 96.280317 94.932475 
L 97.563759 94.76193 
L 98.847201 94.355907 
L 100.130643 93.66773 
L 101.414085 92.69992 
L 102.697527 91.468694 
L 103.980969 89.995527 
L 105.264411 88.303384 
L 107.831294 84.352674 
L 110.398178 79.789349 
L 112.965062 74.77382 
L 114.248504 133.339279 
L 115.531946 131.271144 
L 116.815388 128.97873 
L 118.09883 126.429106 
L 120.665714 120.59595 
L 121.949156 165.820093 
L 123.232598 163.248532 
L 124.51604 160.403644 
L 125.799482 157.262777 
L 127.082924 192.028876 
L 128.366366 189.282738 
L 129.649807 186.227302 
L 130.933249 212.869997 
L 132.216691 210.134819 
L 133.500133 207.06973 
L 134.783575 257.660162 
L 136.067017 265.555781 
L 137.350459 264.277321 
L 138.633901 270.274319 
L 139.917343 268.948119 
L 141.200785 267.370202 
L 142.484227 265.512342 
L 143.767669 263.349085 
L 145.051111 260.854528 
L 146.334553 258.002008 
L 147.617995 254.76445 
L 148.901437 251.115101 
L 150.184879 258.984393 
L 151.46832 265.205976 
L 152.751762 270.121417 
L 154.035204 267.928111 
L 155.318646 265.421698 
L 156.602088 262.563013 
L 157.88553 267.814347 
L 159.168972 272.013809 
L 160.452414 275.371411 
L 161.735856 273.570148 
L 163.019298 271.493056 
L 164.30274 278.968152 
L 165.586182 277.534649 
L 166.869624 279.703371 
L 168.153066 278.300352 
L 169.436508 280.27202 
L 170.71995 285.559103 
L 172.003392 284.943762 
L 173.286834 284.20249 
L 174.570275 285.048392 
L 175.853717 284.267928 
L 177.137159 285.059529 
L 178.420601 284.23349 
L 179.704043 283.230397 
L 180.987485 284.12043 
L 182.270927 283.061575 
L 183.554369 281.780472 
L 184.837811 282.84191 
L 186.121253 283.752766 
L 187.404695 282.590835 
L 188.688137 283.526749 
L 189.971579 282.309241 
L 191.255021 280.841675 
L 192.538463 279.078902 
L 193.821905 276.976619 
L 195.105347 274.48591 
L 196.388789 271.558203 
L 197.67223 268.14599 
L 198.955672 264.204827 
L 200.239114 259.695592 
L 201.522556 264.414639 
L 202.805998 260.272635 
L 204.08944 265.163427 
L 205.372882 261.424209 
L 206.656324 257.252095 
L 207.939766 252.621129 
L 209.223208 259.3354 
L 210.50665 264.921216 
L 211.790092 269.532792 
L 213.073534 266.961797 
L 214.356976 271.242491 
L 215.640418 278.875138 
L 216.92386 277.507602 
L 218.207302 279.752114 
L 219.490743 278.441966 
L 220.774185 276.919708 
L 222.057627 279.189892 
L 223.341069 277.709207 
L 224.624511 282.521145 
L 225.907953 281.473577 
L 227.191395 280.235423 
L 228.474837 278.772673 
L 229.758279 277.048209 
L 231.041721 275.01953 
L 232.325163 272.652388 
L 233.608605 275.41892 
L 234.892047 277.731265 
L 236.175489 275.808816 
L 237.458931 278.052388 
L 238.742373 276.17156 
L 240.025815 273.977685 
L 241.309257 280.167942 
L 242.592698 278.627444 
L 243.87614 276.824816 
L 245.159582 274.718279 
L 246.443024 277.11668 
L 247.726466 275.067862 
L 249.009908 272.692812 
L 250.29335 275.454299 
L 251.576792 277.773705 
L 252.860234 282.46737 
L 254.143676 281.32238 
L 255.427118 279.97555 
L 256.71056 278.390226 
L 257.994002 276.531423 
L 259.277444 278.621164 
L 260.560886 276.796655 
L 261.844328 274.673518 
L 263.12777 272.206767 
L 264.411211 269.359677 
L 265.694653 266.089406 
L 266.978095 262.355526 
L 268.261537 266.965094 
L 269.544979 270.844611 
L 270.828421 274.086551 
L 272.111863 271.796943 
L 273.395305 269.181722 
L 274.678747 266.205519 
L 275.962189 262.832625 
L 277.245631 267.607024 
L 278.529073 264.530645 
L 279.812515 261.074747 
L 281.095957 266.295104 
L 282.379399 263.177988 
L 283.662841 259.695197 
L 284.946283 265.293468 
L 286.229725 262.1773 
L 287.513166 258.702338 
L 288.796608 254.837836 
L 290.08005 250.561131 
L 291.363492 266.968292 
L 292.646934 264.267368 
L 293.930376 269.207299 
L 295.213818 266.775441 
L 296.49726 264.0384 
L 297.780702 260.958933 
L 299.064144 257.513881 
L 300.347586 253.672286 
L 301.631028 249.419523 
L 302.91447 244.734947 
L 305.481354 234.021485 
L 308.048238 221.505145 
L 310.615121 207.286497 
L 313.182005 191.573446 
L 317.032331 166.032582 
L 323.449541 122.326313 
L 326.016425 106.026188 
L 328.583309 91.062181 
L 331.150193 77.68186 
L 333.717076 66.087047 
L 336.28396 56.289366 
L 337.567402 51.985615 
L 338.850844 48.133397 
L 340.134286 44.66089 
L 341.417728 41.544021 
L 342.70117 38.734399 
L 343.984612 36.255181 
L 345.268054 34.053983 
L 346.551496 32.08199 
L 349.11838 28.785873 
L 350.401822 27.467874 
L 352.968706 25.301574 
L 355.535589 23.62442 
L 358.102473 22.377697 
L 360.669357 21.437202 
L 363.236241 20.730818 
L 365.803125 20.156418 
L 365.803125 20.156418 
" style="fill: none; stroke: #dd8452; stroke-width: 2; stroke-linecap: round"/>
   </g>
   <g id="patch_216">
    <path d="M 94.996875 289.4925 
L 94.996875 18.68625 
" style="fill: none; stroke: #262626; stroke-width: 1.25; stroke-linejoin: miter; stroke-linecap: square"/>
   </g>
   <g id="patch_217">
    <path d="M 365.803125 289.4925 
L 365.803125 18.68625 
" style="fill: none; stroke: #1f77b4; stroke-width: 1.25; stroke-linejoin: miter; stroke-linecap: square"/>
   </g>
   <g id="patch_218">
    <path d="M 94.996875 289.4925 
L 365.803125 289.4925 
" style="fill: none; stroke: #262626; stroke-width: 1.25; stroke-linejoin: miter; stroke-linecap: square"/>
   </g>
  </g>
 </g>
</svg>
