<?xml version="1.0" encoding="utf-8" standalone="no"?>
<!DOCTYPE svg PUBLIC "-//W3C//DTD SVG 1.1//EN"
  "http://www.w3.org/Graphics/SVG/1.1/DTD/svg11.dtd">
<svg xmlns:xlink="http://www.w3.org/1999/xlink" width="460.8pt" height="345.6pt" viewBox="0 0 460.8 345.6" xmlns="http://www.w3.org/2000/svg" version="1.1">
 <metadata>
  <rdf:RDF xmlns:dc="http://purl.org/dc/elements/1.1/" xmlns:cc="http://creativecommons.org/ns#" xmlns:rdf="http://www.w3.org/1999/02/22-rdf-syntax-ns#">
   <cc:Work>
    <dc:type rdf:resource="http://purl.org/dc/dcmitype/StillImage"/>
    <dc:date>2024-04-29T12:48:26.552737</dc:date>
    <dc:format>image/svg+xml</dc:format>
    <dc:creator>
     <cc:Agent>
      <dc:title>Matplotlib v3.8.2, https://matplotlib.org/</dc:title>
     </cc:Agent>
    </dc:creator>
   </cc:Work>
  </rdf:RDF>
 </metadata>
 <defs>
  <style type="text/css">*{stroke-linejoin: round; stroke-linecap: butt}</style>
 </defs>
 <g id="figure_1">
  <g id="patch_1">
   <path d="M 0 345.6 
L 460.8 345.6 
L 460.8 0 
L 0 0 
L 0 345.6 
z
" style="fill: none"/>
  </g>
  <g id="axes_1">
   <g id="patch_2">
    <path d="M 94.805625 289.875 
L 365.994375 289.875 
L 365.994375 18.68625 
L 94.805625 18.68625 
L 94.805625 289.875 
z
" style="fill: none"/>
   </g>
   <g id="matplotlib.axis_1">
    <g id="xtick_1">
     <g id="line2d_1">
      <defs>
       <path id="m2c83b995c0" d="M 0 0 
L 0 6 
" style="stroke: #262626; stroke-width: 1.25"/>
      </defs>
      <g>
       <use xlink:href="#m2c83b995c0" x="94.805625" y="289.875" style="fill: #262626; stroke: #262626; stroke-width: 1.25"/>
      </g>
     </g>
     <g id="text_1">
      <text style="fill: #262626; font: 16px 'Arial', 'DejaVu Sans', 'Liberation Sans', 'Bitstream Vera Sans', sans-serif; text-anchor: middle" x="94.805625" y="310.8275" transform="rotate(-0 94.805625 310.8275)">0.0</text>
     </g>
    </g>
    <g id="xtick_2">
     <g id="line2d_2">
      <g>
       <use xlink:href="#m2c83b995c0" x="121.9245" y="289.875" style="fill: #262626; stroke: #262626; stroke-width: 1.25"/>
      </g>
     </g>
     <g id="text_2">
      <text style="fill: #262626; font: 16px 'Arial', 'DejaVu Sans', 'Liberation Sans', 'Bitstream Vera Sans', sans-serif; text-anchor: middle" x="121.9245" y="310.8275" transform="rotate(-0 121.9245 310.8275)">0.1</text>
     </g>
    </g>
    <g id="xtick_3">
     <g id="line2d_3">
      <g>
       <use xlink:href="#m2c83b995c0" x="149.043375" y="289.875" style="fill: #262626; stroke: #262626; stroke-width: 1.25"/>
      </g>
     </g>
     <g id="text_3">
      <text style="fill: #262626; font: 16px 'Arial', 'DejaVu Sans', 'Liberation Sans', 'Bitstream Vera Sans', sans-serif; text-anchor: middle" x="149.043375" y="310.8275" transform="rotate(-0 149.043375 310.8275)">0.2</text>
     </g>
    </g>
    <g id="xtick_4">
     <g id="line2d_4">
      <g>
       <use xlink:href="#m2c83b995c0" x="176.16225" y="289.875" style="fill: #262626; stroke: #262626; stroke-width: 1.25"/>
      </g>
     </g>
     <g id="text_4">
      <text style="fill: #262626; font: 16px 'Arial', 'DejaVu Sans', 'Liberation Sans', 'Bitstream Vera Sans', sans-serif; text-anchor: middle" x="176.16225" y="310.8275" transform="rotate(-0 176.16225 310.8275)">0.3</text>
     </g>
    </g>
    <g id="xtick_5">
     <g id="line2d_5">
      <g>
       <use xlink:href="#m2c83b995c0" x="203.281125" y="289.875" style="fill: #262626; stroke: #262626; stroke-width: 1.25"/>
      </g>
     </g>
     <g id="text_5">
      <text style="fill: #262626; font: 16px 'Arial', 'DejaVu Sans', 'Liberation Sans', 'Bitstream Vera Sans', sans-serif; text-anchor: middle" x="203.281125" y="310.8275" transform="rotate(-0 203.281125 310.8275)">0.4</text>
     </g>
    </g>
    <g id="xtick_6">
     <g id="line2d_6">
      <g>
       <use xlink:href="#m2c83b995c0" x="230.4" y="289.875" style="fill: #262626; stroke: #262626; stroke-width: 1.25"/>
      </g>
     </g>
     <g id="text_6">
      <text style="fill: #262626; font: 16px 'Arial', 'DejaVu Sans', 'Liberation Sans', 'Bitstream Vera Sans', sans-serif; text-anchor: middle" x="230.4" y="310.8275" transform="rotate(-0 230.4 310.8275)">0.5</text>
     </g>
    </g>
    <g id="xtick_7">
     <g id="line2d_7">
      <g>
       <use xlink:href="#m2c83b995c0" x="257.518875" y="289.875" style="fill: #262626; stroke: #262626; stroke-width: 1.25"/>
      </g>
     </g>
     <g id="text_7">
      <text style="fill: #262626; font: 16px 'Arial', 'DejaVu Sans', 'Liberation Sans', 'Bitstream Vera Sans', sans-serif; text-anchor: middle" x="257.518875" y="310.8275" transform="rotate(-0 257.518875 310.8275)">0.6</text>
     </g>
    </g>
    <g id="xtick_8">
     <g id="line2d_8">
      <g>
       <use xlink:href="#m2c83b995c0" x="284.63775" y="289.875" style="fill: #262626; stroke: #262626; stroke-width: 1.25"/>
      </g>
     </g>
     <g id="text_8">
      <text style="fill: #262626; font: 16px 'Arial', 'DejaVu Sans', 'Liberation Sans', 'Bitstream Vera Sans', sans-serif; text-anchor: middle" x="284.63775" y="310.8275" transform="rotate(-0 284.63775 310.8275)">0.7</text>
     </g>
    </g>
    <g id="xtick_9">
     <g id="line2d_9">
      <g>
       <use xlink:href="#m2c83b995c0" x="311.756625" y="289.875" style="fill: #262626; stroke: #262626; stroke-width: 1.25"/>
      </g>
     </g>
     <g id="text_9">
      <text style="fill: #262626; font: 16px 'Arial', 'DejaVu Sans', 'Liberation Sans', 'Bitstream Vera Sans', sans-serif; text-anchor: middle" x="311.756625" y="310.8275" transform="rotate(-0 311.756625 310.8275)">0.8</text>
     </g>
    </g>
    <g id="xtick_10">
     <g id="line2d_10">
      <g>
       <use xlink:href="#m2c83b995c0" x="338.8755" y="289.875" style="fill: #262626; stroke: #262626; stroke-width: 1.25"/>
      </g>
     </g>
     <g id="text_10">
      <text style="fill: #262626; font: 16px 'Arial', 'DejaVu Sans', 'Liberation Sans', 'Bitstream Vera Sans', sans-serif; text-anchor: middle" x="338.8755" y="310.8275" transform="rotate(-0 338.8755 310.8275)">0.9</text>
     </g>
    </g>
    <g id="xtick_11">
     <g id="line2d_11">
      <g>
       <use xlink:href="#m2c83b995c0" x="365.994375" y="289.875" style="fill: #262626; stroke: #262626; stroke-width: 1.25"/>
      </g>
     </g>
     <g id="text_11">
      <text style="fill: #262626; font: 16px 'Arial', 'DejaVu Sans', 'Liberation Sans', 'Bitstream Vera Sans', sans-serif; text-anchor: middle" x="365.994375" y="310.8275" transform="rotate(-0 365.994375 310.8275)">1.0</text>
     </g>
    </g>
    <g id="text_12">
     <text style="fill: #262626; font: 16px 'Arial', 'DejaVu Sans', 'Liberation Sans', 'Bitstream Vera Sans', sans-serif; text-anchor: middle" x="230.4" y="329.46" transform="rotate(-0 230.4 329.46)">MCMC iteration</text>
    </g>
    <g id="text_13">
     <text style="fill: #262626; font: 16px 'Arial', 'DejaVu Sans', 'Liberation Sans', 'Bitstream Vera Sans', sans-serif; text-anchor: end" x="365.994375" y="328.46" transform="rotate(-0 365.994375 328.46)">1e7</text>
    </g>
   </g>
   <g id="matplotlib.axis_2">
    <g id="ytick_1">
     <g id="line2d_12">
      <defs>
       <path id="m8cea302a19" d="M 0 0 
L -6 0 
" style="stroke: #262626; stroke-width: 1.25"/>
      </defs>
      <g>
       <use xlink:href="#m8cea302a19" x="94.805625" y="289.875" style="fill: #262626; stroke: #262626; stroke-width: 1.25"/>
      </g>
     </g>
     <g id="text_14">
      <text style="fill: #262626; font: 16px 'Arial', 'DejaVu Sans', 'Liberation Sans', 'Bitstream Vera Sans', sans-serif; text-anchor: end" x="85.305625" y="295.60125" transform="rotate(-0 85.305625 295.60125)">−15</text>
     </g>
    </g>
    <g id="ytick_2">
     <g id="line2d_13">
      <g>
       <use xlink:href="#m8cea302a19" x="94.805625" y="235.63725" style="fill: #262626; stroke: #262626; stroke-width: 1.25"/>
      </g>
     </g>
     <g id="text_15">
      <text style="fill: #262626; font: 16px 'Arial', 'DejaVu Sans', 'Liberation Sans', 'Bitstream Vera Sans', sans-serif; text-anchor: end" x="85.305625" y="241.3635" transform="rotate(-0 85.305625 241.3635)">−14</text>
     </g>
    </g>
    <g id="ytick_3">
     <g id="line2d_14">
      <g>
       <use xlink:href="#m8cea302a19" x="94.805625" y="181.3995" style="fill: #262626; stroke: #262626; stroke-width: 1.25"/>
      </g>
     </g>
     <g id="text_16">
      <text style="fill: #262626; font: 16px 'Arial', 'DejaVu Sans', 'Liberation Sans', 'Bitstream Vera Sans', sans-serif; text-anchor: end" x="85.305625" y="187.12575" transform="rotate(-0 85.305625 187.12575)">−13</text>
     </g>
    </g>
    <g id="ytick_4">
     <g id="line2d_15">
      <g>
       <use xlink:href="#m8cea302a19" x="94.805625" y="127.16175" style="fill: #262626; stroke: #262626; stroke-width: 1.25"/>
      </g>
     </g>
     <g id="text_17">
      <text style="fill: #262626; font: 16px 'Arial', 'DejaVu Sans', 'Liberation Sans', 'Bitstream Vera Sans', sans-serif; text-anchor: end" x="85.305625" y="132.888" transform="rotate(-0 85.305625 132.888)">−12</text>
     </g>
    </g>
    <g id="ytick_5">
     <g id="line2d_16">
      <g>
       <use xlink:href="#m8cea302a19" x="94.805625" y="72.924" style="fill: #262626; stroke: #262626; stroke-width: 1.25"/>
      </g>
     </g>
     <g id="text_18">
      <text style="fill: #262626; font: 16px 'Arial', 'DejaVu Sans', 'Liberation Sans', 'Bitstream Vera Sans', sans-serif; text-anchor: end" x="85.305625" y="78.65025" transform="rotate(-0 85.305625 78.65025)">−11</text>
     </g>
    </g>
    <g id="ytick_6">
     <g id="line2d_17">
      <g>
       <use xlink:href="#m8cea302a19" x="94.805625" y="18.68625" style="fill: #262626; stroke: #262626; stroke-width: 1.25"/>
      </g>
     </g>
     <g id="text_19">
      <text style="fill: #262626; font: 16px 'Arial', 'DejaVu Sans', 'Liberation Sans', 'Bitstream Vera Sans', sans-serif; text-anchor: end" x="85.305625" y="24.4125" transform="rotate(-0 85.305625 24.4125)">−10</text>
     </g>
    </g>
    <g id="text_20">
     <text style="fill: #262626; font: 16px 'Arial', 'DejaVu Sans', 'Liberation Sans', 'Bitstream Vera Sans', sans-serif; text-anchor: middle" x="50.798125" y="154.280625" transform="rotate(-90 50.798125 154.280625)">Log-likelihood</text>
    </g>
   </g>
   <g id="line2d_18">
    <path d="M 94.805652 132.96279 
L 94.85989 132.96279 
L 94.887009 255.45043 
L 94.968365 132.96279 
L 94.995484 132.96279 
L 95.076841 271.986174 
L 95.131079 255.45043 
L 95.212435 132.96279 
L 95.239554 271.986174 
L 95.320911 251.702683 
L 95.375148 281.593424 
L 95.402267 132.96279 
L 95.429386 264.837471 
L 95.510743 132.96279 
L 95.592099 264.837471 
L 95.619218 132.96279 
L 95.727694 132.96279 
L 95.754813 255.45043 
L 95.836169 132.96279 
L 95.944645 132.96279 
L 95.971764 264.837471 
L 96.05312 132.96279 
L 96.161596 132.96279 
L 96.270071 271.986174 
L 96.29719 251.702683 
L 96.378547 255.45043 
L 96.405666 132.96279 
L 96.514141 281.593424 
L 96.622617 132.96279 
L 96.649736 271.986174 
L 96.731092 132.96279 
L 96.866687 271.986174 
L 96.893805 281.593424 
L 96.920924 264.837471 
L 97.056519 132.96279 
L 97.083638 132.96279 
L 97.110756 271.986174 
L 97.192113 132.96279 
L 97.327707 132.96279 
L 97.354826 255.45043 
L 97.436183 132.96279 
L 97.544658 132.96279 
L 97.653134 271.986174 
L 97.734491 281.593424 
L 97.788728 132.96279 
L 98.032798 132.96279 
L 98.087036 271.986174 
L 98.141274 132.96279 
L 98.168393 132.96279 
L 98.195511 264.837471 
L 98.276868 132.96279 
L 98.303987 132.96279 
L 98.358225 271.986174 
L 98.439581 264.837471 
L 98.4667 264.837471 
L 98.493819 255.45043 
L 98.602295 132.96279 
L 98.737889 271.986174 
L 98.792127 251.702683 
L 98.819246 271.986174 
L 98.95484 132.96279 
L 98.981959 132.96279 
L 99.090434 271.986174 
L 99.117553 132.96279 
L 99.19891 271.986174 
L 99.226029 281.593424 
L 99.253148 255.45043 
L 99.280266 251.702683 
L 99.361623 132.96279 
L 99.388742 281.593424 
L 99.497217 271.986174 
L 99.524336 271.986174 
L 99.551455 255.45043 
L 99.659931 132.96279 
L 99.68705 271.986174 
L 99.768406 251.702683 
L 99.904001 132.96279 
L 100.120952 132.96279 
L 100.14807 271.986174 
L 100.229427 132.96279 
L 100.310784 271.986174 
L 100.337903 264.837471 
L 100.473497 132.96279 
L 100.798923 132.96279 
L 100.88028 271.986174 
L 100.907399 132.96279 
L 100.934518 132.96279 
L 101.070112 255.45043 
L 101.178588 264.837471 
L 101.205707 132.96279 
L 101.314182 281.593424 
L 101.341301 255.45043 
L 101.449776 132.96279 
L 101.558252 281.593424 
L 101.693846 132.96279 
L 101.802322 132.96279 
L 101.85656 271.986174 
L 101.910797 132.96279 
L 101.937916 132.96279 
L 101.992154 264.837471 
L 102.046392 251.702683 
L 102.154867 255.45043 
L 102.181986 132.96279 
L 102.209105 264.837471 
L 102.290462 132.96279 
L 102.426056 281.593424 
L 102.56165 132.96279 
L 102.615888 132.96279 
L 102.751482 264.837471 
L 102.778601 271.986174 
L 102.887077 132.96279 
L 102.968433 264.837471 
L 102.995552 132.96279 
L 103.104028 132.96279 
L 103.131147 271.986174 
L 103.212503 132.96279 
L 103.320979 132.96279 
L 103.429454 271.986174 
L 103.53793 132.96279 
L 103.646405 264.837471 
L 103.782 132.96279 
L 103.890475 281.593424 
L 104.02607 132.96279 
L 104.053188 132.96279 
L 104.188783 281.593424 
L 104.324377 132.96279 
L 104.351496 281.593424 
L 104.432853 255.45043 
L 104.541328 132.96279 
L 104.595566 255.45043 
L 104.676923 251.702683 
L 104.758279 271.986174 
L 104.812517 132.96279 
L 104.839636 264.837471 
L 104.920992 132.96279 
L 104.948111 251.702683 
L 105.029468 132.96279 
L 105.083706 132.96279 
L 105.110825 255.45043 
L 105.192181 251.702683 
L 105.327776 132.96279 
L 105.354894 132.96279 
L 105.490489 281.593424 
L 105.517608 281.593424 
L 105.653202 132.96279 
L 105.70744 132.96279 
L 105.734559 264.837471 
L 105.815915 132.96279 
L 105.843034 251.702683 
L 105.924391 132.96279 
L 106.059985 132.96279 
L 106.168461 255.45043 
L 106.249817 132.96279 
L 106.276936 281.593424 
L 106.385412 271.986174 
L 106.521006 132.96279 
L 106.602363 132.96279 
L 106.629482 281.593424 
L 106.710838 255.45043 
L 106.819314 264.837471 
L 106.846433 132.96279 
L 106.90067 132.96279 
L 106.927789 255.45043 
L 107.009146 132.96279 
L 107.036265 132.96279 
L 107.063384 255.45043 
L 107.14474 132.96279 
L 107.198978 132.96279 
L 107.307453 281.593424 
L 107.38881 132.96279 
L 107.415929 281.593424 
L 107.443048 281.593424 
L 107.524404 132.96279 
L 107.551523 255.45043 
L 107.578642 271.986174 
L 107.714237 132.96279 
L 107.768474 132.96279 
L 107.795593 271.986174 
L 107.87695 264.837471 
L 107.931188 132.96279 
L 107.958306 255.45043 
L 107.985425 281.593424 
L 108.12102 132.96279 
L 108.256614 132.96279 
L 108.283733 255.45043 
L 108.36509 251.702683 
L 108.392208 132.96279 
L 108.419327 255.45043 
L 108.473565 251.702683 
L 108.500684 251.702683 
L 108.554922 281.593424 
L 108.690516 132.96279 
L 108.717635 132.96279 
L 108.82611 255.45043 
L 108.907467 132.96279 
L 108.934586 271.986174 
L 109.015943 132.96279 
L 109.097299 132.96279 
L 109.124418 264.837471 
L 109.205775 132.96279 
L 109.368488 132.96279 
L 109.395607 255.45043 
L 109.476963 132.96279 
L 109.531201 132.96279 
L 109.666796 281.593424 
L 109.80239 132.96279 
L 109.829509 132.96279 
L 109.965103 271.986174 
L 110.073579 132.96279 
L 110.154935 281.593424 
L 110.182054 132.96279 
L 110.236292 132.96279 
L 110.29053 264.837471 
L 110.371886 255.45043 
L 110.453243 281.593424 
L 110.507481 132.96279 
L 110.5346 132.96279 
L 110.561718 271.986174 
L 110.643075 132.96279 
L 110.751551 132.96279 
L 110.778669 251.702683 
L 110.860026 132.96279 
L 110.914264 132.96279 
L 111.022739 264.837471 
L 111.158334 132.96279 
L 111.185453 264.837471 
L 111.266809 132.96279 
L 111.293928 132.96279 
L 111.321047 251.702683 
L 111.402404 132.96279 
L 111.456641 132.96279 
L 111.592236 264.837471 
L 111.72783 132.96279 
L 111.863424 132.96279 
L 111.9719 281.593424 
L 112.107494 132.96279 
L 112.188851 132.96279 
L 112.21597 251.702683 
L 112.297326 132.96279 
L 112.324445 132.96279 
L 112.432921 281.593424 
L 112.541396 132.96279 
L 112.649872 271.986174 
L 112.676991 251.702683 
L 112.70411 251.702683 
L 112.812585 132.96279 
L 112.948179 281.593424 
L 113.083774 132.96279 
L 113.110893 271.986174 
L 113.192249 132.96279 
L 113.246487 132.96279 
L 113.300725 271.986174 
L 113.354963 132.96279 
L 113.517676 132.96279 
L 113.544795 271.986174 
L 113.626151 132.96279 
L 113.680389 132.96279 
L 113.707508 255.45043 
L 113.788865 132.96279 
L 113.843102 132.96279 
L 113.870221 281.593424 
L 113.951578 132.96279 
L 114.032934 132.96279 
L 114.060053 271.986174 
L 114.14141 132.96279 
L 114.331242 132.96279 
L 114.38548 271.986174 
L 114.439718 132.96279 
L 114.548193 271.986174 
L 114.62955 132.96279 
L 114.656669 255.45043 
L 114.683787 264.837471 
L 114.792263 271.986174 
L 114.819382 132.96279 
L 114.900738 132.96279 
L 115.036333 281.593424 
L 115.171927 132.96279 
L 115.253284 281.593424 
L 115.280403 132.96279 
L 115.415997 132.96279 
L 115.443116 264.837471 
L 115.524473 132.96279 
L 115.551591 251.702683 
L 115.632948 132.96279 
L 115.660067 132.96279 
L 115.687186 271.986174 
L 115.795661 264.837471 
L 115.931256 132.96279 
L 116.012612 132.96279 
L 116.039731 255.45043 
L 116.148207 251.702683 
L 116.175326 251.702683 
L 116.229563 271.986174 
L 116.256682 132.96279 
L 116.283801 271.986174 
L 116.365158 255.45043 
L 116.500752 132.96279 
L 116.609228 251.702683 
L 116.744822 132.96279 
L 116.771941 132.96279 
L 116.880416 271.986174 
L 116.907535 264.837471 
L 116.934654 255.45043 
L 117.04313 132.96279 
L 117.151605 264.837471 
L 117.287199 132.96279 
L 117.422794 132.96279 
L 117.50415 281.593424 
L 117.531269 132.96279 
L 117.775339 132.96279 
L 117.802458 271.986174 
L 117.883815 255.45043 
L 117.965171 132.96279 
L 117.99229 251.702683 
L 118.019409 251.702683 
L 118.073647 271.986174 
L 118.155003 132.96279 
L 118.182122 132.96279 
L 118.209241 251.702683 
L 118.290598 132.96279 
L 118.371954 132.96279 
L 118.399073 271.986174 
L 118.507549 264.837471 
L 118.616024 132.96279 
L 118.697381 255.45043 
L 118.7245 132.96279 
L 118.751619 132.96279 
L 118.832975 281.593424 
L 118.887213 264.837471 
L 119.022807 132.96279 
L 119.158402 132.96279 
L 119.21264 271.986174 
L 119.266877 132.96279 
L 119.293996 132.96279 
L 119.375353 264.837471 
L 119.402472 132.96279 
L 119.456709 132.96279 
L 119.565185 271.986174 
L 119.700779 132.96279 
L 119.727898 264.837471 
L 119.809255 132.96279 
L 119.890611 132.96279 
L 119.971968 271.986174 
L 119.999087 132.96279 
L 120.107562 132.96279 
L 120.188919 271.986174 
L 120.243157 255.45043 
L 120.324513 271.986174 
L 120.378751 132.96279 
L 120.432989 281.593424 
L 120.487227 264.837471 
L 120.595702 132.96279 
L 120.622821 251.702683 
L 120.704178 132.96279 
L 121.029604 132.96279 
L 121.110961 255.45043 
L 121.13808 132.96279 
L 121.192317 132.96279 
L 121.300793 264.837471 
L 121.355031 281.593424 
L 121.436387 132.96279 
L 121.680457 132.96279 
L 121.816052 271.986174 
L 121.951646 132.96279 
L 122.033003 264.837471 
L 122.060121 132.96279 
L 122.114359 132.96279 
L 122.141478 271.986174 
L 122.222835 132.96279 
L 122.358429 281.593424 
L 122.494023 132.96279 
L 122.57538 132.96279 
L 122.710974 281.593424 
L 122.738093 281.593424 
L 122.873688 132.96279 
L 122.900807 132.96279 
L 122.927925 251.702683 
L 123.009282 132.96279 
L 123.171995 132.96279 
L 123.30759 281.593424 
L 123.416065 132.96279 
L 123.497422 281.593424 
L 123.524541 132.96279 
L 123.660135 132.96279 
L 123.687254 281.593424 
L 123.768611 132.96279 
L 123.822848 132.96279 
L 123.849967 271.986174 
L 123.931324 132.96279 
L 124.01268 132.96279 
L 124.039799 264.837471 
L 124.121156 132.96279 
L 124.25675 132.96279 
L 124.283869 271.986174 
L 124.365226 264.837471 
L 124.419464 271.986174 
L 124.50082 132.96279 
L 124.690652 132.96279 
L 124.74489 271.986174 
L 124.799128 132.96279 
L 124.98896 132.96279 
L 125.070317 264.837471 
L 125.097435 132.96279 
L 125.124554 132.96279 
L 125.205911 255.45043 
L 125.23303 132.96279 
L 125.287268 132.96279 
L 125.314386 281.593424 
L 125.395743 255.45043 
L 125.4771 132.96279 
L 125.504219 255.45043 
L 125.531337 271.986174 
L 125.639813 132.96279 
L 125.72117 264.837471 
L 125.748288 132.96279 
L 125.775407 132.96279 
L 125.856764 271.986174 
L 125.883883 132.96279 
L 125.992358 132.96279 
L 126.019477 281.593424 
L 126.100834 132.96279 
L 126.209309 132.96279 
L 126.290666 271.986174 
L 126.317785 132.96279 
L 126.344904 255.45043 
L 126.42626 132.96279 
L 126.507617 132.96279 
L 126.616092 281.593424 
L 126.724568 132.96279 
L 126.805925 271.986174 
L 126.860162 264.837471 
L 126.995757 132.96279 
L 127.022876 271.986174 
L 127.104232 132.96279 
L 127.131351 255.45043 
L 127.212708 132.96279 
L 127.239827 132.96279 
L 127.321183 271.986174 
L 127.348302 132.96279 
L 127.375421 132.96279 
L 127.40254 251.702683 
L 127.483896 132.96279 
L 127.511015 132.96279 
L 127.538134 251.702683 
L 127.619491 132.96279 
L 127.673729 132.96279 
L 127.727966 271.986174 
L 127.782204 132.96279 
L 127.836442 132.96279 
L 127.863561 281.593424 
L 127.944917 132.96279 
L 127.972036 132.96279 
L 128.053393 281.593424 
L 128.080512 132.96279 
L 128.487295 132.96279 
L 128.568651 264.837471 
L 128.59577 132.96279 
L 128.622889 132.96279 
L 128.731365 251.702683 
L 128.866959 132.96279 
L 129.138148 132.96279 
L 129.192386 281.593424 
L 129.246623 132.96279 
L 129.436455 132.96279 
L 129.490693 281.593424 
L 129.544931 251.702683 
L 129.680525 132.96279 
L 129.707644 132.96279 
L 129.734763 271.986174 
L 129.81612 132.96279 
L 130.087308 132.96279 
L 130.114427 255.45043 
L 130.195784 132.96279 
L 130.358497 132.96279 
L 130.385616 271.986174 
L 130.466973 132.96279 
L 130.494092 132.96279 
L 130.575448 281.593424 
L 130.602567 271.986174 
L 130.711043 132.96279 
L 130.846637 281.593424 
L 130.873756 281.593424 
L 131.00935 132.96279 
L 131.172063 132.96279 
L 131.226301 255.45043 
L 131.280539 132.96279 
L 131.361896 132.96279 
L 131.470371 255.45043 
L 131.578847 132.96279 
L 131.605965 251.702683 
L 131.687322 132.96279 
L 131.877154 132.96279 
L 131.958511 271.986174 
L 131.98563 132.96279 
L 132.012749 132.96279 
L 132.121224 255.45043 
L 132.256818 132.96279 
L 132.283937 132.96279 
L 132.365294 281.593424 
L 132.392413 132.96279 
L 132.446651 132.96279 
L 132.473769 255.45043 
L 132.555126 251.702683 
L 132.609364 255.45043 
L 132.69072 132.96279 
L 132.717839 132.96279 
L 132.744958 271.986174 
L 132.826315 132.96279 
L 132.907671 264.837471 
L 132.93479 132.96279 
L 132.989028 132.96279 
L 133.016147 255.45043 
L 133.097504 251.702683 
L 133.151741 264.837471 
L 133.205979 132.96279 
L 133.341573 271.986174 
L 133.368692 271.986174 
L 133.504287 132.96279 
L 133.639881 271.986174 
L 133.775475 132.96279 
L 133.91107 132.96279 
L 133.938189 281.593424 
L 134.019545 132.96279 
L 134.073783 132.96279 
L 134.128021 271.986174 
L 134.209377 264.837471 
L 134.317853 132.96279 
L 134.344972 255.45043 
L 134.426328 132.96279 
L 134.480566 132.96279 
L 134.616161 281.593424 
L 134.86023 132.96279 
L 134.914468 132.96279 
L 134.968706 281.593424 
L 135.022944 255.45043 
L 135.1043 132.96279 
L 135.131419 251.702683 
L 135.158538 255.45043 
L 135.294132 132.96279 
L 135.456846 132.96279 
L 135.483965 251.702683 
L 135.565321 132.96279 
L 135.673797 132.96279 
L 135.809391 264.837471 
L 135.83651 255.45043 
L 135.917867 271.986174 
L 135.972104 132.96279 
L 136.053461 251.702683 
L 136.08058 132.96279 
L 136.189055 132.96279 
L 136.216174 255.45043 
L 136.297531 132.96279 
L 136.32465 132.96279 
L 136.351769 271.986174 
L 136.433125 132.96279 
L 136.460244 132.96279 
L 136.487363 251.702683 
L 136.56872 132.96279 
L 136.731433 132.96279 
L 136.758552 255.45043 
L 136.839908 132.96279 
L 136.867027 132.96279 
L 136.975503 271.986174 
L 137.083978 132.96279 
L 137.111097 271.986174 
L 137.192454 132.96279 
L 137.219573 132.96279 
L 137.300929 281.593424 
L 137.328048 132.96279 
L 137.436524 132.96279 
L 137.490761 264.837471 
L 137.544999 132.96279 
L 137.572118 132.96279 
L 137.599237 271.986174 
L 137.680593 255.45043 
L 137.707712 255.45043 
L 137.789069 281.593424 
L 137.816188 132.96279 
L 137.924663 271.986174 
L 137.951782 251.702683 
L 138.033139 132.96279 
L 138.060258 281.593424 
L 138.141614 264.837471 
L 138.195852 264.837471 
L 138.304328 271.986174 
L 138.331446 132.96279 
L 138.358565 281.593424 
L 138.467041 271.986174 
L 138.602635 132.96279 
L 138.73823 271.986174 
L 138.765348 281.593424 
L 138.792467 271.986174 
L 138.819586 255.45043 
L 138.900943 132.96279 
L 138.928062 271.986174 
L 139.009418 264.837471 
L 139.117894 132.96279 
L 139.226369 264.837471 
L 139.253488 255.45043 
L 139.280607 251.702683 
L 139.389083 132.96279 
L 139.416201 251.702683 
L 139.497558 132.96279 
L 139.524677 132.96279 
L 139.633152 281.593424 
L 139.741628 132.96279 
L 139.795866 271.986174 
L 139.850103 132.96279 
L 139.904341 132.96279 
L 140.039936 271.986174 
L 140.148411 132.96279 
L 140.17553 271.986174 
L 140.256887 132.96279 
L 140.311124 132.96279 
L 140.338243 281.593424 
L 140.4196 132.96279 
L 140.500956 132.96279 
L 140.636551 264.837471 
L 140.66367 251.702683 
L 140.690789 255.45043 
L 140.772145 264.837471 
L 140.826383 132.96279 
L 140.853502 281.593424 
L 140.961977 271.986174 
L 141.097572 132.96279 
L 141.124691 132.96279 
L 141.233166 264.837471 
L 141.36876 132.96279 
L 141.422998 281.593424 
L 141.477236 132.96279 
L 141.585711 132.96279 
L 141.61283 271.986174 
L 141.694187 132.96279 
L 141.721306 132.96279 
L 141.8569 281.593424 
L 141.992495 132.96279 
L 142.019613 132.96279 
L 142.046732 281.593424 
L 142.128089 132.96279 
L 142.209446 132.96279 
L 142.263683 281.593424 
L 142.317921 132.96279 
L 142.372159 132.96279 
L 142.399278 271.986174 
L 142.480634 255.45043 
L 142.58911 132.96279 
L 142.670466 271.986174 
L 142.724704 255.45043 
L 142.751823 255.45043 
L 142.860299 132.96279 
L 142.914536 271.986174 
L 142.995893 264.837471 
L 143.131487 132.96279 
L 143.158606 132.96279 
L 143.185725 251.702683 
L 143.267082 132.96279 
L 143.402676 132.96279 
L 143.53827 264.837471 
L 143.673865 132.96279 
L 143.728103 132.96279 
L 143.836578 281.593424 
L 143.999291 132.96279 
L 144.02641 264.837471 
L 144.107767 132.96279 
L 144.189123 132.96279 
L 144.324718 281.593424 
L 144.378956 251.702683 
L 144.406074 255.45043 
L 144.541669 132.96279 
L 144.568788 132.96279 
L 144.677263 255.45043 
L 144.785739 132.96279 
L 144.894214 271.986174 
L 144.921333 264.837471 
L 145.056927 132.96279 
L 145.138284 132.96279 
L 145.165403 281.593424 
L 145.24676 251.702683 
L 145.382354 132.96279 
L 145.409473 251.702683 
L 145.490829 132.96279 
L 145.626424 132.96279 
L 145.653543 264.837471 
L 145.734899 132.96279 
L 145.843375 132.96279 
L 145.897613 281.593424 
L 145.95185 132.96279 
L 145.978969 132.96279 
L 146.006088 271.986174 
L 146.087445 132.96279 
L 146.223039 255.45043 
L 146.358633 132.96279 
L 146.467109 132.96279 
L 146.575584 271.986174 
L 146.711179 132.96279 
L 146.765417 132.96279 
L 146.792535 255.45043 
L 146.873892 132.96279 
L 147.063724 132.96279 
L 147.1722 271.986174 
L 147.280675 132.96279 
L 147.334913 281.593424 
L 147.389151 132.96279 
L 147.443388 132.96279 
L 147.470507 271.986174 
L 147.551864 251.702683 
L 147.687458 132.96279 
L 147.823053 132.96279 
L 147.850172 281.593424 
L 147.931528 255.45043 
L 148.012885 132.96279 
L 148.040004 281.593424 
L 148.12136 132.96279 
L 148.202717 132.96279 
L 148.311192 281.593424 
L 148.446787 132.96279 
L 148.501025 132.96279 
L 148.528143 281.593424 
L 148.6095 132.96279 
L 148.826451 132.96279 
L 148.962045 281.593424 
L 149.070521 132.96279 
L 149.124759 264.837471 
L 149.178996 132.96279 
L 149.206115 132.96279 
L 149.34171 255.45043 
L 149.450185 132.96279 
L 149.477304 271.986174 
L 149.558661 132.96279 
L 149.612898 132.96279 
L 149.748493 281.593424 
L 149.884087 132.96279 
L 149.938325 132.96279 
L 149.965444 264.837471 
L 150.0468 132.96279 
L 150.155276 132.96279 
L 150.209514 264.837471 
L 150.29087 251.702683 
L 150.345108 255.45043 
L 150.426465 132.96279 
L 150.507821 132.96279 
L 150.643416 264.837471 
L 150.77901 132.96279 
L 150.860367 255.45043 
L 150.914604 251.702683 
L 150.941723 251.702683 
L 151.02308 255.45043 
L 151.077318 132.96279 
L 151.131555 132.96279 
L 151.212912 281.593424 
L 151.240031 132.96279 
L 151.456982 132.96279 
L 151.565457 281.593424 
L 151.673933 132.96279 
L 151.782408 281.593424 
L 151.809527 271.986174 
L 151.918003 132.96279 
L 151.999359 264.837471 
L 152.026478 132.96279 
L 152.243429 132.96279 
L 152.351905 271.986174 
L 152.487499 132.96279 
L 152.514618 271.986174 
L 152.595975 132.96279 
L 152.731569 132.96279 
L 152.758688 255.45043 
L 152.840045 132.96279 
L 153.029877 132.96279 
L 153.165471 271.986174 
L 153.301065 132.96279 
L 153.328184 271.986174 
L 153.43666 264.837471 
L 153.545135 271.986174 
L 153.572254 132.96279 
L 153.653611 132.96279 
L 153.734967 255.45043 
L 153.762086 132.96279 
L 153.789205 132.96279 
L 153.897681 271.986174 
L 154.033275 132.96279 
L 154.060394 132.96279 
L 154.087513 264.837471 
L 154.168869 132.96279 
L 154.277345 132.96279 
L 154.38582 271.986174 
L 154.494296 132.96279 
L 154.62989 251.702683 
L 154.684128 271.986174 
L 154.765485 132.96279 
L 154.819722 281.593424 
L 154.87396 264.837471 
L 155.009555 132.96279 
L 155.036673 271.986174 
L 155.11803 132.96279 
L 155.145149 251.702683 
L 155.226506 132.96279 
L 155.280743 132.96279 
L 155.307862 281.593424 
L 155.389219 132.96279 
L 155.443457 271.986174 
L 155.497694 251.702683 
L 155.579051 281.593424 
L 155.60617 132.96279 
L 155.633289 281.593424 
L 155.714645 132.96279 
L 155.958715 132.96279 
L 155.985834 255.45043 
L 156.067191 132.96279 
L 156.148547 132.96279 
L 156.175666 281.593424 
L 156.257023 264.837471 
L 156.284142 251.702683 
L 156.311261 264.837471 
L 156.446855 132.96279 
L 156.473974 132.96279 
L 156.55533 281.593424 
L 156.582449 132.96279 
L 156.636687 132.96279 
L 156.690925 255.45043 
L 156.745163 132.96279 
L 156.772281 132.96279 
L 156.7994 264.837471 
L 156.880757 132.96279 
L 156.907876 132.96279 
L 156.934995 271.986174 
L 157.016351 132.96279 
L 157.097708 132.96279 
L 157.124827 281.593424 
L 157.206183 264.837471 
L 157.28754 271.986174 
L 157.314659 132.96279 
L 157.341778 281.593424 
L 157.423134 132.96279 
L 157.640085 132.96279 
L 157.667204 251.702683 
L 157.748561 132.96279 
L 157.802799 132.96279 
L 157.829918 255.45043 
L 157.911274 132.96279 
L 158.073987 132.96279 
L 158.182463 264.837471 
L 158.209582 251.702683 
L 158.26382 264.837471 
L 158.345176 132.96279 
L 158.399414 132.96279 
L 158.507889 255.45043 
L 158.535008 251.702683 
L 158.616365 132.96279 
L 158.643484 281.593424 
L 158.72484 132.96279 
L 158.914673 132.96279 
L 158.996029 255.45043 
L 159.023148 132.96279 
L 159.104505 132.96279 
L 159.21298 264.837471 
L 159.294337 271.986174 
L 159.348575 132.96279 
L 159.45705 132.96279 
L 159.592644 281.593424 
L 159.70112 132.96279 
L 159.728239 271.986174 
L 159.809595 132.96279 
L 160.053665 132.96279 
L 160.080784 255.45043 
L 160.162141 132.96279 
L 160.297735 132.96279 
L 160.324854 281.593424 
L 160.406211 132.96279 
L 160.487567 132.96279 
L 160.623162 271.986174 
L 160.677399 132.96279 
L 160.731637 255.45043 
L 160.758756 251.702683 
L 160.812994 271.986174 
L 160.89435 132.96279 
L 161.002826 132.96279 
L 161.13842 281.593424 
L 161.219777 132.96279 
L 161.246896 281.593424 
L 161.436728 132.96279 
L 161.545203 255.45043 
L 161.572322 251.702683 
L 161.707917 132.96279 
L 161.789273 132.96279 
L 161.924868 281.593424 
L 162.060462 132.96279 
L 162.141819 132.96279 
L 162.168938 271.986174 
L 162.250294 132.96279 
L 162.277413 132.96279 
L 162.331651 255.45043 
L 162.385889 132.96279 
L 162.440126 132.96279 
L 162.521483 271.986174 
L 162.548602 132.96279 
L 162.60284 132.96279 
L 162.684196 271.986174 
L 162.711315 251.702683 
L 162.738434 251.702683 
L 162.874028 132.96279 
L 163.009623 271.986174 
L 163.145217 132.96279 
L 163.172336 132.96279 
L 163.199455 281.593424 
L 163.280811 132.96279 
L 163.335049 264.837471 
L 163.416406 255.45043 
L 163.497762 281.593424 
L 163.660476 132.96279 
L 163.741832 281.593424 
L 163.768951 251.702683 
L 163.904546 132.96279 
L 164.311329 132.96279 
L 164.338448 255.45043 
L 164.419804 132.96279 
L 164.446923 132.96279 
L 164.474042 251.702683 
L 164.555399 132.96279 
L 164.690993 132.96279 
L 164.718112 281.593424 
L 164.799468 132.96279 
L 164.853706 132.96279 
L 164.907944 281.593424 
L 164.962182 132.96279 
L 165.260489 132.96279 
L 165.396084 255.45043 
L 165.531678 132.96279 
L 165.829986 132.96279 
L 165.857105 251.702683 
L 165.938461 132.96279 
L 165.992699 132.96279 
L 166.128293 281.593424 
L 166.20965 132.96279 
L 166.236769 255.45043 
L 166.263888 255.45043 
L 166.291007 271.986174 
L 166.318125 255.45043 
L 166.45372 132.96279 
L 166.507958 132.96279 
L 166.589314 281.593424 
L 166.616433 132.96279 
L 166.69779 264.837471 
L 166.724909 132.96279 
L 166.806265 132.96279 
L 166.94186 271.986174 
L 167.050335 132.96279 
L 167.077454 281.593424 
L 167.158811 132.96279 
L 167.213048 132.96279 
L 167.321524 255.45043 
L 167.457118 132.96279 
L 167.484237 132.96279 
L 167.511356 255.45043 
L 167.592713 132.96279 
L 167.64695 132.96279 
L 167.674069 271.986174 
L 167.755426 132.96279 
L 167.782545 251.702683 
L 167.863901 132.96279 
L 167.945258 132.96279 
L 167.972377 281.593424 
L 168.053733 132.96279 
L 168.162209 132.96279 
L 168.297803 271.986174 
L 168.324922 251.702683 
L 168.406279 132.96279 
L 168.433398 281.593424 
L 168.541873 271.986174 
L 168.677468 132.96279 
L 168.704586 132.96279 
L 168.840181 264.837471 
L 168.8673 251.702683 
L 168.894419 264.837471 
L 168.948656 271.986174 
L 169.002894 132.96279 
L 169.084251 255.45043 
L 169.11137 132.96279 
L 169.165607 132.96279 
L 169.274083 271.986174 
L 169.409677 132.96279 
L 169.463915 132.96279 
L 169.545272 264.837471 
L 169.599509 255.45043 
L 169.626628 271.986174 
L 169.680866 281.593424 
L 169.762223 132.96279 
L 169.789341 251.702683 
L 169.870698 132.96279 
L 170.033411 132.96279 
L 170.06053 255.45043 
L 170.141887 132.96279 
L 170.277481 132.96279 
L 170.331719 271.986174 
L 170.385957 132.96279 
L 170.521551 132.96279 
L 170.575789 255.45043 
L 170.630027 132.96279 
L 170.684264 132.96279 
L 170.819859 264.837471 
L 170.846978 255.45043 
L 170.955453 132.96279 
L 170.982572 255.45043 
L 171.063929 132.96279 
L 171.307998 132.96279 
L 171.335117 271.986174 
L 171.443593 264.837471 
L 171.579187 132.96279 
L 171.606306 132.96279 
L 171.633425 255.45043 
L 171.714782 132.96279 
L 171.7419 132.96279 
L 171.769019 271.986174 
L 171.850376 255.45043 
L 171.877495 255.45043 
L 172.013089 132.96279 
L 172.148684 255.45043 
L 172.175802 251.702683 
L 172.23004 264.837471 
L 172.284278 132.96279 
L 172.392753 264.837471 
L 172.501229 132.96279 
L 172.636823 264.837471 
L 172.71818 271.986174 
L 172.772418 132.96279 
L 172.826655 271.986174 
L 172.880893 255.45043 
L 173.016488 132.96279 
L 173.043606 264.837471 
L 173.124963 132.96279 
L 173.20632 132.96279 
L 173.314795 281.593424 
L 173.341914 271.986174 
L 173.477508 132.96279 
L 173.667341 132.96279 
L 173.694459 271.986174 
L 173.775816 132.96279 
L 173.884292 132.96279 
L 173.938529 271.986174 
L 173.992767 132.96279 
L 174.047005 132.96279 
L 174.101243 264.837471 
L 174.15548 132.96279 
L 174.263956 132.96279 
L 174.318194 271.986174 
L 174.39955 264.837471 
L 174.480907 281.593424 
L 174.535145 132.96279 
L 174.589382 132.96279 
L 174.697858 251.702683 
L 174.779214 264.837471 
L 174.833452 132.96279 
L 174.914809 132.96279 
L 174.941928 264.837471 
L 175.023284 132.96279 
L 175.104641 132.96279 
L 175.185998 271.986174 
L 175.213116 132.96279 
L 175.240235 132.96279 
L 175.267354 264.837471 
L 175.348711 132.96279 
L 175.484305 251.702683 
L 175.6199 132.96279 
L 175.674137 132.96279 
L 175.701256 281.593424 
L 175.782613 132.96279 
L 175.809732 132.96279 
L 175.863969 281.593424 
L 175.918207 251.702683 
L 176.026683 132.96279 
L 176.135158 271.986174 
L 176.243634 132.96279 
L 176.32499 271.986174 
L 176.352109 132.96279 
L 176.379228 132.96279 
L 176.514822 281.593424 
L 176.596179 132.96279 
L 176.623298 251.702683 
L 176.650417 271.986174 
L 176.758892 132.96279 
L 176.81313 271.986174 
L 176.867368 132.96279 
L 176.921606 132.96279 
L 177.0572 271.986174 
L 177.138557 132.96279 
L 177.165675 255.45043 
L 177.192794 255.45043 
L 177.219913 281.593424 
L 177.247032 251.702683 
L 177.274151 255.45043 
L 177.30127 251.702683 
L 177.409745 132.96279 
L 177.436864 271.986174 
L 177.518221 132.96279 
L 177.653815 132.96279 
L 177.735172 281.593424 
L 177.762291 132.96279 
L 177.979242 132.96279 
L 178.006361 264.837471 
L 178.087717 132.96279 
L 178.114836 132.96279 
L 178.223312 281.593424 
L 178.358906 132.96279 
L 178.467381 264.837471 
L 178.521619 132.96279 
L 178.575857 251.702683 
L 178.630095 264.837471 
L 178.684332 281.593424 
L 178.765689 132.96279 
L 178.847046 255.45043 
L 178.874165 132.96279 
L 178.928402 132.96279 
L 178.955521 251.702683 
L 179.036878 132.96279 
L 179.063997 132.96279 
L 179.091116 255.45043 
L 179.172472 132.96279 
L 179.253829 132.96279 
L 179.280948 264.837471 
L 179.389423 255.45043 
L 179.497899 132.96279 
L 179.579255 281.593424 
L 179.606374 251.702683 
L 179.687731 271.986174 
L 179.71485 132.96279 
L 179.741969 281.593424 
L 179.823325 132.96279 
L 179.904682 132.96279 
L 179.931801 264.837471 
L 180.040276 255.45043 
L 180.175871 132.96279 
L 180.202989 281.593424 
L 180.284346 132.96279 
L 180.365703 132.96279 
L 180.447059 271.986174 
L 180.474178 132.96279 
L 180.609773 132.96279 
L 180.636891 281.593424 
L 180.718248 255.45043 
L 180.799605 132.96279 
L 180.826724 271.986174 
L 180.90808 132.96279 
L 180.989437 132.96279 
L 181.097912 271.986174 
L 181.206388 132.96279 
L 181.287744 281.593424 
L 181.314863 132.96279 
L 181.504695 132.96279 
L 181.558933 251.702683 
L 181.613171 132.96279 
L 181.667409 132.96279 
L 181.694528 251.702683 
L 181.775884 132.96279 
L 181.857241 132.96279 
L 181.911479 281.593424 
L 181.992835 271.986174 
L 182.074192 132.96279 
L 182.101311 271.986174 
L 182.12843 281.593424 
L 182.264024 132.96279 
L 182.291143 132.96279 
L 182.318262 281.593424 
L 182.399618 132.96279 
L 182.480975 132.96279 
L 182.508094 264.837471 
L 182.58945 251.702683 
L 182.697926 132.96279 
L 182.725045 255.45043 
L 182.806401 132.96279 
L 182.83352 132.96279 
L 182.887758 255.45043 
L 182.941996 132.96279 
L 182.996234 132.96279 
L 183.023352 281.593424 
L 183.104709 132.96279 
L 183.375898 132.96279 
L 183.430136 264.837471 
L 183.484373 132.96279 
L 183.511492 132.96279 
L 183.619968 271.986174 
L 183.755562 132.96279 
L 183.864038 132.96279 
L 183.891156 255.45043 
L 183.999632 251.702683 
L 184.108107 132.96279 
L 184.189464 271.986174 
L 184.216583 264.837471 
L 184.352177 132.96279 
L 184.379296 132.96279 
L 184.487772 281.593424 
L 184.514891 251.702683 
L 184.596247 271.986174 
L 184.650485 132.96279 
L 184.75896 132.96279 
L 184.786079 251.702683 
L 184.867436 132.96279 
L 184.894555 132.96279 
L 185.030149 264.837471 
L 185.057268 251.702683 
L 185.165744 255.45043 
L 185.192862 132.96279 
L 185.2471 132.96279 
L 185.355576 281.593424 
L 185.382695 255.45043 
L 185.518289 132.96279 
L 185.653883 132.96279 
L 185.681002 281.593424 
L 185.762359 251.702683 
L 185.816597 271.986174 
L 185.897953 132.96279 
L 185.952191 132.96279 
L 186.006429 251.702683 
L 186.060666 132.96279 
L 186.169142 132.96279 
L 186.250499 281.593424 
L 186.277617 255.45043 
L 186.304736 251.702683 
L 186.386093 132.96279 
L 186.46745 281.593424 
L 186.494568 255.45043 
L 186.630163 132.96279 
L 186.738638 132.96279 
L 186.874233 255.45043 
L 187.009827 132.96279 
L 187.145421 132.96279 
L 187.17254 271.986174 
L 187.253897 132.96279 
L 187.281016 132.96279 
L 187.362372 281.593424 
L 187.389491 132.96279 
L 187.769156 132.96279 
L 187.850512 271.986174 
L 187.877631 132.96279 
L 187.90475 132.96279 
L 187.958988 271.986174 
L 188.013225 132.96279 
L 188.040344 132.96279 
L 188.067463 264.837471 
L 188.14882 132.96279 
L 188.203058 132.96279 
L 188.230176 281.593424 
L 188.311533 132.96279 
L 188.338652 255.45043 
L 188.420009 132.96279 
L 188.447127 132.96279 
L 188.474246 251.702683 
L 188.555603 132.96279 
L 188.609841 132.96279 
L 188.691197 281.593424 
L 188.718316 132.96279 
L 188.853911 132.96279 
L 188.935267 255.45043 
L 188.962386 132.96279 
L 188.989505 132.96279 
L 189.016624 255.45043 
L 189.09798 132.96279 
L 189.206456 132.96279 
L 189.233575 281.593424 
L 189.314931 271.986174 
L 189.423407 132.96279 
L 189.531882 281.593424 
L 189.613239 132.96279 
L 189.640358 251.702683 
L 189.667477 251.702683 
L 189.721715 264.837471 
L 189.803071 132.96279 
L 189.83019 281.593424 
L 189.911547 132.96279 
L 190.047141 132.96279 
L 190.101379 264.837471 
L 190.155617 132.96279 
L 190.209854 132.96279 
L 190.345449 281.593424 
L 190.426805 132.96279 
L 190.453924 264.837471 
L 190.481043 271.986174 
L 190.616637 132.96279 
L 190.643756 264.837471 
L 190.725113 132.96279 
L 190.752232 132.96279 
L 190.833588 271.986174 
L 190.860707 132.96279 
L 190.942064 132.96279 
L 190.996302 264.837471 
L 191.050539 132.96279 
L 191.104777 132.96279 
L 191.131896 264.837471 
L 191.213253 132.96279 
L 191.321728 132.96279 
L 191.348847 264.837471 
L 191.430204 255.45043 
L 191.484441 132.96279 
L 191.538679 251.702683 
L 191.565798 271.986174 
L 191.647155 132.96279 
L 191.674274 264.837471 
L 191.701392 281.593424 
L 191.836987 132.96279 
L 191.864106 132.96279 
L 191.945462 281.593424 
L 191.972581 132.96279 
L 192.216651 132.96279 
L 192.24377 271.986174 
L 192.325127 132.96279 
L 192.352245 132.96279 
L 192.379364 271.986174 
L 192.460721 255.45043 
L 192.596315 132.96279 
L 192.623434 132.96279 
L 192.704791 281.593424 
L 192.73191 132.96279 
L 192.759029 132.96279 
L 192.786147 281.593424 
L 192.867504 132.96279 
L 192.948861 271.986174 
L 192.97598 251.702683 
L 193.030217 281.593424 
L 193.057336 132.96279 
L 193.192931 281.593424 
L 193.220049 271.986174 
L 193.328525 132.96279 
L 193.355644 281.593424 
L 193.437 251.702683 
L 193.572595 132.96279 
L 193.599714 132.96279 
L 193.626833 281.593424 
L 193.708189 132.96279 
L 193.789546 132.96279 
L 193.816665 271.986174 
L 193.898021 132.96279 
L 193.92514 132.96279 
L 193.979378 271.986174 
L 194.033616 132.96279 
L 194.087853 132.96279 
L 194.16921 281.593424 
L 194.196329 132.96279 
L 194.223448 132.96279 
L 194.304804 281.593424 
L 194.331923 132.96279 
L 194.548874 132.96279 
L 194.630231 255.45043 
L 194.65735 132.96279 
L 194.711588 132.96279 
L 194.820063 264.837471 
L 194.955657 132.96279 
L 194.982776 132.96279 
L 195.009895 264.837471 
L 195.091252 132.96279 
L 195.118371 132.96279 
L 195.226846 281.593424 
L 195.253965 255.45043 
L 195.389559 132.96279 
L 195.470916 132.96279 
L 195.60651 255.45043 
L 195.687867 281.593424 
L 195.714986 132.96279 
L 195.742105 271.986174 
L 195.823461 132.96279 
L 195.904818 132.96279 
L 196.040412 271.986174 
L 196.067531 264.837471 
L 196.203126 132.96279 
L 196.257363 132.96279 
L 196.284482 271.986174 
L 196.365839 132.96279 
L 196.420077 255.45043 
L 196.474314 132.96279 
L 196.637028 132.96279 
L 196.664147 281.593424 
L 196.745503 132.96279 
L 196.82686 132.96279 
L 196.853979 264.837471 
L 196.935335 255.45043 
L 197.016692 264.837471 
L 197.07093 132.96279 
L 197.125167 271.986174 
L 197.206524 255.45043 
L 197.315 132.96279 
L 197.450594 255.45043 
L 197.559069 132.96279 
L 197.640426 271.986174 
L 197.694664 264.837471 
L 197.748902 251.702683 
L 197.884496 132.96279 
L 197.965853 132.96279 
L 198.101447 271.986174 
L 198.237041 132.96279 
L 198.318398 132.96279 
L 198.372636 264.837471 
L 198.426873 132.96279 
L 198.481111 132.96279 
L 198.562468 264.837471 
L 198.589587 132.96279 
L 198.643824 251.702683 
L 198.698062 132.96279 
L 198.725181 132.96279 
L 198.833657 281.593424 
L 198.969251 132.96279 
L 199.050608 281.593424 
L 199.104845 264.837471 
L 199.213321 132.96279 
L 199.348915 281.593424 
L 199.457391 132.96279 
L 199.48451 271.986174 
L 199.565866 255.45043 
L 199.592985 251.702683 
L 199.647223 255.45043 
L 199.728579 132.96279 
L 199.864174 264.837471 
L 199.972649 132.96279 
L 200.026887 264.837471 
L 200.081125 132.96279 
L 200.135363 132.96279 
L 200.162481 264.837471 
L 200.243838 255.45043 
L 200.352314 132.96279 
L 200.406551 271.986174 
L 200.460789 132.96279 
L 200.515027 132.96279 
L 200.542146 251.702683 
L 200.623502 132.96279 
L 200.731978 132.96279 
L 200.867572 271.986174 
L 200.894691 264.837471 
L 201.003167 132.96279 
L 201.030285 281.593424 
L 201.111642 264.837471 
L 201.247236 132.96279 
L 201.274355 132.96279 
L 201.301474 281.593424 
L 201.382831 251.702683 
L 201.40995 264.837471 
L 201.491306 281.593424 
L 201.518425 132.96279 
L 201.626901 251.702683 
L 201.708257 132.96279 
L 201.681138 255.45043 
L 201.735376 251.702683 
L 201.762495 264.837471 
L 201.789614 255.45043 
L 201.870971 132.96279 
L 201.843852 281.593424 
L 201.898089 255.45043 
L 201.925208 281.593424 
L 202.060803 132.96279 
L 202.087922 271.986174 
L 202.169278 255.45043 
L 202.304873 132.96279 
L 202.386229 132.96279 
L 202.494705 271.986174 
L 202.60318 132.96279 
L 202.657418 271.986174 
L 202.711656 132.96279 
L 202.765893 132.96279 
L 202.820131 281.593424 
L 202.874369 255.45043 
L 202.955726 132.96279 
L 202.982844 281.593424 
L 203.064201 132.96279 
L 203.145558 132.96279 
L 203.199795 271.986174 
L 203.254033 132.96279 
L 203.281152 132.96279 
L 203.33539 264.837471 
L 203.416746 255.45043 
L 203.552341 132.96279 
L 203.57946 281.593424 
L 203.660816 132.96279 
L 203.742173 132.96279 
L 203.877767 264.837471 
L 203.904886 255.45043 
L 203.932005 264.837471 
L 203.986243 132.96279 
L 204.040481 271.986174 
L 204.067599 281.593424 
L 204.203194 132.96279 
L 204.311669 132.96279 
L 204.338788 255.45043 
L 204.420145 132.96279 
L 204.474383 132.96279 
L 204.609977 281.593424 
L 204.718452 132.96279 
L 204.77269 281.593424 
L 204.826928 132.96279 
L 204.881166 264.837471 
L 204.935403 255.45043 
L 205.070998 132.96279 
L 205.098117 132.96279 
L 205.125236 264.837471 
L 205.206592 132.96279 
L 205.233711 132.96279 
L 205.342187 281.593424 
L 205.369305 264.837471 
L 205.423543 132.96279 
L 205.477781 255.45043 
L 205.5049 255.45043 
L 205.586256 281.593424 
L 205.640494 132.96279 
L 205.776089 264.837471 
L 205.911683 132.96279 
L 205.938802 132.96279 
L 205.965921 281.593424 
L 206.047277 132.96279 
L 206.372704 132.96279 
L 206.399823 255.45043 
L 206.481179 132.96279 
L 206.508298 132.96279 
L 206.589655 271.986174 
L 206.643893 251.702683 
L 206.725249 132.96279 
L 206.752368 281.593424 
L 206.833725 132.96279 
L 206.860844 132.96279 
L 206.887962 281.593424 
L 206.969319 132.96279 
L 207.104913 132.96279 
L 207.159151 281.593424 
L 207.213389 132.96279 
L 207.240508 264.837471 
L 207.321864 251.702683 
L 207.348983 251.702683 
L 207.484578 132.96279 
L 207.728648 132.96279 
L 207.864242 281.593424 
L 208.026955 132.96279 
L 208.108312 271.986174 
L 208.135431 132.96279 
L 208.16255 132.96279 
L 208.189668 264.837471 
L 208.271025 132.96279 
L 208.325263 132.96279 
L 208.379501 281.593424 
L 208.433738 132.96279 
L 208.677808 132.96279 
L 208.732046 281.593424 
L 208.786284 271.986174 
L 208.921878 132.96279 
L 208.976116 132.96279 
L 209.057472 281.593424 
L 209.084591 132.96279 
L 209.11171 132.96279 
L 209.138829 271.986174 
L 209.220186 132.96279 
L 209.247305 255.45043 
L 209.328661 132.96279 
L 209.410018 132.96279 
L 209.464256 251.702683 
L 209.518493 132.96279 
L 209.59985 132.96279 
L 209.626969 255.45043 
L 209.708325 132.96279 
L 209.735444 132.96279 
L 209.84392 271.986174 
L 209.871039 251.702683 
L 210.006633 132.96279 
L 210.142227 281.593424 
L 210.250703 132.96279 
L 210.277822 281.593424 
L 210.359178 132.96279 
L 210.386297 132.96279 
L 210.440535 255.45043 
L 210.494773 132.96279 
L 210.603248 132.96279 
L 210.684605 271.986174 
L 210.711724 132.96279 
L 210.765962 132.96279 
L 210.820199 255.45043 
L 210.874437 132.96279 
L 210.928675 132.96279 
L 210.955794 271.986174 
L 211.03715 132.96279 
L 211.091388 132.96279 
L 211.118507 264.837471 
L 211.226982 255.45043 
L 211.254101 251.702683 
L 211.335458 132.96279 
L 211.362577 264.837471 
L 211.443933 132.96279 
L 211.52529 132.96279 
L 211.633766 255.45043 
L 211.76936 132.96279 
L 211.823598 132.96279 
L 211.850717 264.837471 
L 211.932073 132.96279 
L 211.959192 132.96279 
L 212.040549 281.593424 
L 212.067668 264.837471 
L 212.203262 132.96279 
L 212.284619 132.96279 
L 212.338856 281.593424 
L 212.420213 255.45043 
L 212.555807 132.96279 
L 212.664283 132.96279 
L 212.772758 264.837471 
L 212.799877 255.45043 
L 212.826996 264.837471 
L 212.935472 271.986174 
L 212.96259 132.96279 
L 213.016828 132.96279 
L 213.043947 281.593424 
L 213.125304 132.96279 
L 213.260898 132.96279 
L 213.369374 271.986174 
L 213.504968 132.96279 
L 213.559206 132.96279 
L 213.586325 264.837471 
L 213.667681 132.96279 
L 213.857513 132.96279 
L 213.884632 255.45043 
L 213.965989 132.96279 
L 214.074464 132.96279 
L 214.210059 281.593424 
L 214.345653 132.96279 
L 214.508366 132.96279 
L 214.535485 255.45043 
L 214.616842 132.96279 
L 214.833793 132.96279 
L 214.860912 264.837471 
L 214.942268 132.96279 
L 214.996506 132.96279 
L 215.104982 281.593424 
L 215.213457 132.96279 
L 215.240576 264.837471 
L 215.321933 132.96279 
L 215.484646 132.96279 
L 215.593121 281.593424 
L 215.728716 132.96279 
L 215.782953 132.96279 
L 215.918548 281.593424 
L 216.054142 132.96279 
L 216.081261 132.96279 
L 216.10838 281.593424 
L 216.189737 132.96279 
L 216.216855 132.96279 
L 216.298212 255.45043 
L 216.325331 132.96279 
L 216.488044 132.96279 
L 216.515163 255.45043 
L 216.59652 132.96279 
L 216.677876 132.96279 
L 216.759233 281.593424 
L 216.786352 255.45043 
L 216.84059 264.837471 
L 216.921946 132.96279 
L 217.030422 281.593424 
L 217.166016 132.96279 
L 217.220254 132.96279 
L 217.274492 271.986174 
L 217.328729 264.837471 
L 217.382967 281.593424 
L 217.464324 132.96279 
L 217.54568 132.96279 
L 217.627037 251.702683 
L 217.654156 132.96279 
L 217.681275 132.96279 
L 217.708394 271.986174 
L 217.78975 132.96279 
L 217.898226 132.96279 
L 217.925345 251.702683 
L 218.006701 132.96279 
L 218.223652 132.96279 
L 218.250771 264.837471 
L 218.332128 255.45043 
L 218.413484 264.837471 
L 218.440603 132.96279 
L 218.549079 264.837471 
L 218.630435 132.96279 
L 218.657554 281.593424 
L 218.738911 132.96279 
L 218.982981 132.96279 
L 219.0101 271.986174 
L 219.091456 132.96279 
L 219.145694 132.96279 
L 219.172813 264.837471 
L 219.254169 132.96279 
L 219.308407 132.96279 
L 219.389764 255.45043 
L 219.416883 132.96279 
L 219.47112 132.96279 
L 219.498239 264.837471 
L 219.579596 132.96279 
L 219.606715 132.96279 
L 219.688071 271.986174 
L 219.71519 132.96279 
L 219.742309 132.96279 
L 219.823666 271.986174 
L 219.877904 264.837471 
L 219.95926 271.986174 
L 220.013498 132.96279 
L 220.040617 132.96279 
L 220.149092 264.837471 
L 220.284687 132.96279 
L 220.4474 132.96279 
L 220.555875 264.837471 
L 220.69147 132.96279 
L 220.827064 132.96279 
L 220.962659 255.45043 
L 221.071134 132.96279 
L 221.17961 281.593424 
L 221.315204 132.96279 
L 221.450798 132.96279 
L 221.477917 281.593424 
L 221.559274 132.96279 
L 221.586393 132.96279 
L 221.613512 251.702683 
L 221.694868 132.96279 
L 221.830463 132.96279 
L 221.857581 281.593424 
L 221.938938 255.45043 
L 221.966057 251.702683 
L 221.993176 255.45043 
L 222.12877 132.96279 
L 222.291483 132.96279 
L 222.399959 271.986174 
L 222.535553 132.96279 
L 222.61691 132.96279 
L 222.644029 264.837471 
L 222.725385 132.96279 
L 222.86098 255.45043 
L 222.888099 281.593424 
L 222.996574 132.96279 
L 223.023693 281.593424 
L 223.10505 132.96279 
L 223.240644 132.96279 
L 223.34912 271.986174 
L 223.403357 281.593424 
L 223.457595 132.96279 
L 223.484714 281.593424 
L 223.566071 255.45043 
L 223.674546 264.837471 
L 223.701665 132.96279 
L 223.918616 132.96279 
L 223.945735 271.986174 
L 224.027091 264.837471 
L 224.05421 255.45043 
L 224.108448 264.837471 
L 224.162686 132.96279 
L 224.189805 271.986174 
L 224.271161 255.45043 
L 224.406756 132.96279 
L 224.54235 132.96279 
L 224.569469 264.837471 
L 224.677944 255.45043 
L 224.732182 271.986174 
L 224.759301 132.96279 
L 224.78642 271.986174 
L 224.867777 132.96279 
L 224.894895 132.96279 
L 224.949133 255.45043 
L 225.003371 132.96279 
L 225.057609 132.96279 
L 225.084728 264.837471 
L 225.166084 132.96279 
L 225.220322 132.96279 
L 225.328797 271.986174 
L 225.464392 132.96279 
L 225.51863 132.96279 
L 225.545748 271.986174 
L 225.627105 251.702683 
L 225.681343 271.986174 
L 225.708462 132.96279 
L 225.735581 281.593424 
L 225.816937 132.96279 
L 225.871175 132.96279 
L 225.952532 281.593424 
L 225.97965 132.96279 
L 226.006769 132.96279 
L 226.033888 255.45043 
L 226.115245 132.96279 
L 226.386434 132.96279 
L 226.413552 251.702683 
L 226.494909 132.96279 
L 226.576266 132.96279 
L 226.603385 281.593424 
L 226.71186 271.986174 
L 226.847454 132.96279 
L 226.928811 132.96279 
L 227.010168 271.986174 
L 227.037287 132.96279 
L 227.091524 132.96279 
L 227.118643 264.837471 
L 227.2 132.96279 
L 227.227119 251.702683 
L 227.308475 132.96279 
L 227.389832 132.96279 
L 227.416951 281.593424 
L 227.525426 271.986174 
L 227.606783 132.96279 
L 227.633902 281.593424 
L 227.769496 132.96279 
L 227.796615 251.702683 
L 227.877972 132.96279 
L 227.986447 132.96279 
L 228.122042 264.837471 
L 228.203398 281.593424 
L 228.257636 132.96279 
L 228.338993 132.96279 
L 228.420349 271.986174 
L 228.447468 132.96279 
L 228.528825 132.96279 
L 228.555944 281.593424 
L 228.6373 271.986174 
L 228.664419 255.45043 
L 228.691538 271.986174 
L 228.827132 132.96279 
L 228.88137 132.96279 
L 228.989846 281.593424 
L 229.12544 132.96279 
L 229.152559 255.45043 
L 229.233915 132.96279 
L 229.288153 132.96279 
L 229.423748 281.593424 
L 229.559342 132.96279 
L 229.586461 271.986174 
L 229.667817 264.837471 
L 229.776293 132.96279 
L 229.911887 271.986174 
L 229.939006 255.45043 
L 230.074601 132.96279 
L 230.101719 251.702683 
L 230.183076 132.96279 
L 230.210195 132.96279 
L 230.291552 271.986174 
L 230.31867 132.96279 
L 230.345789 132.96279 
L 230.372908 255.45043 
L 230.454265 132.96279 
L 230.481384 132.96279 
L 230.535621 271.986174 
L 230.589859 132.96279 
L 230.616978 132.96279 
L 230.725454 271.986174 
L 230.752572 255.45043 
L 230.779691 264.837471 
L 230.80681 251.702683 
L 230.942405 132.96279 
L 230.996642 132.96279 
L 231.05088 264.837471 
L 231.105118 132.96279 
L 231.132237 132.96279 
L 231.159356 255.45043 
L 231.240712 132.96279 
L 231.267831 132.96279 
L 231.403425 271.986174 
L 231.457663 281.593424 
L 231.511901 132.96279 
L 231.566139 271.986174 
L 231.620376 132.96279 
L 231.674614 132.96279 
L 231.728852 271.986174 
L 231.78309 132.96279 
L 231.810209 132.96279 
L 231.837327 281.593424 
L 231.918684 251.702683 
L 231.972922 255.45043 
L 232.02716 132.96279 
L 232.054278 281.593424 
L 232.135635 251.702683 
L 232.271229 132.96279 
L 232.406824 132.96279 
L 232.433943 271.986174 
L 232.515299 132.96279 
L 232.596656 132.96279 
L 232.623775 271.986174 
L 232.705131 132.96279 
L 232.813607 255.45043 
L 232.922082 264.837471 
L 232.949201 132.96279 
L 233.003439 132.96279 
L 233.057677 255.45043 
L 233.111915 132.96279 
L 233.301747 132.96279 
L 233.328866 281.593424 
L 233.410222 271.986174 
L 233.46446 281.593424 
L 233.545817 132.96279 
L 233.844124 132.96279 
L 233.871243 251.702683 
L 233.9526 132.96279 
L 234.033956 132.96279 
L 234.061075 281.593424 
L 234.142432 132.96279 
L 234.250907 132.96279 
L 234.386502 281.593424 
L 234.494977 132.96279 
L 234.522096 271.986174 
L 234.603453 132.96279 
L 234.711928 132.96279 
L 234.766166 264.837471 
L 234.820404 132.96279 
L 234.847523 132.96279 
L 234.983117 271.986174 
L 235.091592 132.96279 
L 235.118711 255.45043 
L 235.200068 132.96279 
L 235.254306 132.96279 
L 235.281425 281.593424 
L 235.362781 132.96279 
L 235.471257 132.96279 
L 235.498376 281.593424 
L 235.579732 132.96279 
L 235.661089 132.96279 
L 235.769564 264.837471 
L 235.87804 132.96279 
L 235.932278 255.45043 
L 236.013634 251.702683 
L 236.094991 271.986174 
L 236.12211 132.96279 
L 236.230585 281.593424 
L 236.339061 132.96279 
L 236.393298 264.837471 
L 236.447536 132.96279 
L 236.610249 132.96279 
L 236.664487 281.593424 
L 236.718725 132.96279 
L 236.854319 132.96279 
L 236.881438 271.986174 
L 236.962795 132.96279 
L 237.125508 132.96279 
L 237.206865 255.45043 
L 237.233984 132.96279 
L 237.288221 132.96279 
L 237.31534 251.702683 
L 237.396697 132.96279 
L 237.423816 132.96279 
L 237.450935 251.702683 
L 237.532291 132.96279 
L 237.55941 132.96279 
L 237.586529 281.593424 
L 237.667886 271.986174 
L 237.695004 255.45043 
L 237.80348 132.96279 
L 237.884837 271.986174 
L 237.911955 132.96279 
L 237.939074 132.96279 
L 237.966193 271.986174 
L 238.04755 132.96279 
L 238.210263 132.96279 
L 238.345857 271.986174 
L 238.427214 281.593424 
L 238.562808 132.96279 
L 238.698403 255.45043 
L 238.725522 132.96279 
L 238.752641 281.593424 
L 238.806878 255.45043 
L 238.833997 251.702683 
L 238.969592 132.96279 
L 239.078067 132.96279 
L 239.105186 255.45043 
L 239.186543 132.96279 
L 239.24078 132.96279 
L 239.322137 271.986174 
L 239.376375 264.837471 
L 239.403494 271.986174 
L 239.48485 132.96279 
L 239.511969 281.593424 
L 239.539088 271.986174 
L 239.620445 132.96279 
L 239.647563 251.702683 
L 239.674682 271.986174 
L 239.783158 132.96279 
L 239.810277 281.593424 
L 239.891633 132.96279 
L 239.945871 132.96279 
L 239.97299 264.837471 
L 240.054347 132.96279 
L 240.298416 132.96279 
L 240.325535 251.702683 
L 240.406892 132.96279 
L 240.515367 132.96279 
L 240.569605 281.593424 
L 240.623843 132.96279 
L 240.7052 132.96279 
L 240.732318 264.837471 
L 240.813675 255.45043 
L 240.840794 251.702683 
L 240.895032 255.45043 
L 240.976388 132.96279 
L 241.003507 132.96279 
L 241.084864 271.986174 
L 241.111983 132.96279 
L 241.193339 132.96279 
L 241.301815 271.986174 
L 241.41029 132.96279 
L 241.518766 264.837471 
L 241.600122 281.593424 
L 241.627241 132.96279 
L 241.65436 251.702683 
L 241.735717 132.96279 
L 241.817073 132.96279 
L 241.89843 281.593424 
L 241.925549 132.96279 
L 242.088262 132.96279 
L 242.115381 264.837471 
L 242.196738 251.702683 
L 242.223857 251.702683 
L 242.359451 132.96279 
L 242.467926 132.96279 
L 242.495045 251.702683 
L 242.576402 132.96279 
L 242.603521 132.96279 
L 242.63064 271.986174 
L 242.711996 132.96279 
L 242.820472 255.45043 
L 242.901828 132.96279 
L 242.928947 255.45043 
L 242.983185 255.45043 
L 243.037423 264.837471 
L 243.118779 132.96279 
L 243.227255 132.96279 
L 243.254374 271.986174 
L 243.362849 264.837471 
L 243.498444 132.96279 
L 243.525563 132.96279 
L 243.552681 271.986174 
L 243.634038 132.96279 
L 243.688276 132.96279 
L 243.715395 281.593424 
L 243.796751 132.96279 
L 243.905227 132.96279 
L 243.932346 255.45043 
L 244.013702 132.96279 
L 244.095059 132.96279 
L 244.230653 271.986174 
L 244.257772 255.45043 
L 244.284891 271.986174 
L 244.393367 132.96279 
L 244.420485 251.702683 
L 244.501842 132.96279 
L 244.691674 132.96279 
L 244.773031 255.45043 
L 244.80015 132.96279 
L 245.017101 132.96279 
L 245.125576 281.593424 
L 245.261171 132.96279 
L 245.396765 281.593424 
L 245.532359 132.96279 
L 245.640835 132.96279 
L 245.776429 264.837471 
L 245.803548 281.593424 
L 245.939142 132.96279 
L 246.074737 132.96279 
L 246.101856 255.45043 
L 246.183212 132.96279 
L 246.210331 132.96279 
L 246.318807 264.837471 
L 246.454401 132.96279 
L 246.48152 132.96279 
L 246.535758 281.593424 
L 246.589995 132.96279 
L 246.671352 132.96279 
L 246.698471 271.986174 
L 246.779828 132.96279 
L 246.806946 132.96279 
L 246.834065 255.45043 
L 246.915422 132.96279 
L 246.96966 132.96279 
L 246.996779 281.593424 
L 247.078135 271.986174 
L 247.159492 255.45043 
L 247.240848 264.837471 
L 247.267967 132.96279 
L 247.295086 255.45043 
L 247.403562 251.702683 
L 247.430681 264.837471 
L 247.539156 132.96279 
L 247.593394 264.837471 
L 247.647632 132.96279 
L 247.701869 132.96279 
L 247.728988 271.986174 
L 247.810345 251.702683 
L 247.945939 132.96279 
L 248.027296 264.837471 
L 248.054415 132.96279 
L 248.081534 132.96279 
L 248.108652 271.986174 
L 248.190009 132.96279 
L 248.217128 132.96279 
L 248.325603 271.986174 
L 248.461198 132.96279 
L 248.569673 132.96279 
L 248.596792 271.986174 
L 248.678149 132.96279 
L 248.705268 132.96279 
L 248.786624 281.593424 
L 248.813743 132.96279 
L 249.030694 132.96279 
L 249.057813 281.593424 
L 249.13917 132.96279 
L 249.166289 132.96279 
L 249.193407 264.837471 
L 249.274764 132.96279 
L 249.301883 251.702683 
L 249.38324 132.96279 
L 249.410358 132.96279 
L 249.437477 255.45043 
L 249.518834 132.96279 
L 249.545953 132.96279 
L 249.681547 271.986174 
L 249.708666 264.837471 
L 249.84426 132.96279 
L 250.006974 132.96279 
L 250.034093 281.593424 
L 250.115449 251.702683 
L 250.169687 281.593424 
L 250.223925 132.96279 
L 250.305281 255.45043 
L 250.3324 132.96279 
L 250.440876 132.96279 
L 250.549351 251.702683 
L 250.603589 132.96279 
L 250.630708 281.593424 
L 250.684946 255.45043 
L 250.766302 271.986174 
L 250.82054 132.96279 
L 250.847659 281.593424 
L 250.929015 132.96279 
L 251.037491 132.96279 
L 251.06461 271.986174 
L 251.145966 132.96279 
L 251.200204 132.96279 
L 251.227323 271.986174 
L 251.30868 132.96279 
L 251.335799 251.702683 
L 251.417155 132.96279 
L 251.498512 132.96279 
L 251.525631 281.593424 
L 251.606987 132.96279 
L 251.742582 132.96279 
L 251.769701 281.593424 
L 251.851057 264.837471 
L 251.959533 132.96279 
L 251.986652 255.45043 
L 252.095127 251.702683 
L 252.149365 255.45043 
L 252.230721 132.96279 
L 252.25784 255.45043 
L 252.366316 251.702683 
L 252.50191 132.96279 
L 252.529029 132.96279 
L 252.664623 264.837471 
L 252.800218 132.96279 
L 252.908693 281.593424 
L 253.044288 132.96279 
L 253.125644 264.837471 
L 253.152763 132.96279 
L 253.179882 132.96279 
L 253.288358 264.837471 
L 253.423952 132.96279 
L 253.72226 132.96279 
L 253.749378 255.45043 
L 253.830735 132.96279 
L 253.857854 132.96279 
L 253.993448 271.986174 
L 254.129043 132.96279 
L 254.210399 132.96279 
L 254.264637 271.986174 
L 254.318875 132.96279 
L 254.400231 132.96279 
L 254.42735 281.593424 
L 254.508707 255.45043 
L 254.562945 132.96279 
L 254.617182 251.702683 
L 254.67142 255.45043 
L 254.779896 132.96279 
L 254.861252 281.593424 
L 254.888371 132.96279 
L 254.942609 132.96279 
L 254.969728 264.837471 
L 255.051084 132.96279 
L 255.132441 264.837471 
L 255.15956 255.45043 
L 255.240917 132.96279 
L 255.268035 251.702683 
L 255.295154 251.702683 
L 255.349392 264.837471 
L 255.430749 132.96279 
L 255.512105 132.96279 
L 255.620581 281.593424 
L 255.756175 132.96279 
L 255.837532 271.986174 
L 255.864651 132.96279 
L 255.973126 264.837471 
L 256.081602 132.96279 
L 256.162958 264.837471 
L 256.190077 255.45043 
L 256.298553 132.96279 
L 256.325672 264.837471 
L 256.407028 251.702683 
L 256.542623 132.96279 
L 256.59686 132.96279 
L 256.623979 251.702683 
L 256.705336 132.96279 
L 256.759574 132.96279 
L 256.786692 255.45043 
L 256.868049 132.96279 
L 256.895168 132.96279 
L 257.030762 281.593424 
L 257.166357 132.96279 
L 257.193476 255.45043 
L 257.301951 251.702683 
L 257.437545 132.96279 
L 257.464664 132.96279 
L 257.491783 264.837471 
L 257.57314 132.96279 
L 257.762972 132.96279 
L 257.790091 271.986174 
L 257.871447 132.96279 
L 257.925685 132.96279 
L 257.952804 251.702683 
L 258.034161 132.96279 
L 258.06128 132.96279 
L 258.088398 264.837471 
L 258.169755 132.96279 
L 258.305349 264.837471 
L 258.386706 271.986174 
L 258.440944 132.96279 
L 258.712133 132.96279 
L 258.739251 281.593424 
L 258.820608 132.96279 
L 258.983321 132.96279 
L 259.01044 255.45043 
L 259.091797 132.96279 
L 259.362986 132.96279 
L 259.417223 281.593424 
L 259.471461 271.986174 
L 259.579937 132.96279 
L 259.661293 255.45043 
L 259.688412 132.96279 
L 259.715531 132.96279 
L 259.824006 255.45043 
L 259.959601 132.96279 
L 259.98672 132.96279 
L 260.013839 255.45043 
L 260.095195 132.96279 
L 260.176552 132.96279 
L 260.203671 281.593424 
L 260.285027 132.96279 
L 260.420622 132.96279 
L 260.501978 281.593424 
L 260.529097 132.96279 
L 260.583335 132.96279 
L 260.637573 264.837471 
L 260.718929 251.702683 
L 260.773167 255.45043 
L 260.854524 132.96279 
L 260.908761 132.96279 
L 260.93588 271.986174 
L 261.017237 132.96279 
L 261.044356 132.96279 
L 261.071475 271.986174 
L 261.152831 132.96279 
L 261.315545 132.96279 
L 261.451139 281.593424 
L 261.586733 132.96279 
L 261.613852 132.96279 
L 261.66809 255.45043 
L 261.722328 132.96279 
L 261.749447 132.96279 
L 261.885041 281.593424 
L 262.020635 132.96279 
L 262.047754 132.96279 
L 262.183349 255.45043 
L 262.318943 132.96279 
L 262.373181 271.986174 
L 262.427418 132.96279 
L 262.454537 132.96279 
L 262.508775 264.837471 
L 262.563013 132.96279 
L 262.590132 132.96279 
L 262.671488 271.986174 
L 262.698607 255.45043 
L 262.752845 281.593424 
L 262.834202 132.96279 
L 262.86132 132.96279 
L 262.888439 264.837471 
L 262.969796 132.96279 
L 263.10539 132.96279 
L 263.240985 271.986174 
L 263.403698 132.96279 
L 263.457936 281.593424 
L 263.512173 132.96279 
L 263.539292 132.96279 
L 263.647768 271.986174 
L 263.783362 132.96279 
L 263.810481 132.96279 
L 263.946075 264.837471 
L 263.973194 255.45043 
L 264.000313 264.837471 
L 264.054551 281.593424 
L 264.135908 132.96279 
L 264.163026 271.986174 
L 264.244383 132.96279 
L 264.379977 132.96279 
L 264.407096 271.986174 
L 264.488453 264.837471 
L 264.624047 132.96279 
L 264.651166 132.96279 
L 264.732523 281.593424 
L 264.759642 132.96279 
L 264.786761 132.96279 
L 264.840998 281.593424 
L 264.895236 251.702683 
L 264.949474 271.986174 
L 265.003712 132.96279 
L 265.03083 251.702683 
L 265.112187 132.96279 
L 265.220663 132.96279 
L 265.247781 251.702683 
L 265.329138 132.96279 
L 265.464732 132.96279 
L 265.546089 255.45043 
L 265.573208 132.96279 
L 265.844397 132.96279 
L 265.898634 264.837471 
L 265.952872 132.96279 
L 265.979991 132.96279 
L 266.00711 264.837471 
L 266.088467 255.45043 
L 266.196942 132.96279 
L 266.332536 271.986174 
L 266.441012 132.96279 
L 266.522369 271.986174 
L 266.549487 255.45043 
L 266.685082 132.96279 
L 266.820676 132.96279 
L 266.874914 281.593424 
L 266.929152 132.96279 
L 266.983389 132.96279 
L 267.010508 271.986174 
L 267.091865 251.702683 
L 267.173222 132.96279 
L 267.308816 281.593424 
L 267.44441 132.96279 
L 267.552886 281.593424 
L 267.661361 132.96279 
L 267.68848 271.986174 
L 267.769837 132.96279 
L 267.824075 132.96279 
L 267.851193 281.593424 
L 267.959669 271.986174 
L 267.986788 271.986174 
L 268.041026 281.593424 
L 268.122382 132.96279 
L 268.149501 132.96279 
L 268.17662 271.986174 
L 268.257977 132.96279 
L 268.285095 132.96279 
L 268.312214 255.45043 
L 268.393571 132.96279 
L 268.691879 132.96279 
L 268.718997 271.986174 
L 268.800354 132.96279 
L 268.90883 132.96279 
L 268.935948 271.986174 
L 269.017305 132.96279 
L 269.152899 264.837471 
L 269.234256 281.593424 
L 269.288494 132.96279 
L 269.505445 132.96279 
L 269.586801 264.837471 
L 269.61392 132.96279 
L 269.776634 132.96279 
L 269.85799 281.593424 
L 269.885109 132.96279 
L 269.966466 132.96279 
L 270.020703 281.593424 
L 270.074941 132.96279 
L 270.183417 132.96279 
L 270.210536 281.593424 
L 270.291892 132.96279 
L 270.400368 132.96279 
L 270.427487 271.986174 
L 270.508843 132.96279 
L 270.535962 132.96279 
L 270.671556 281.593424 
L 270.780032 132.96279 
L 270.807151 281.593424 
L 270.888507 132.96279 
L 270.915626 132.96279 
L 270.942745 255.45043 
L 271.024102 132.96279 
L 271.376647 132.96279 
L 271.512242 271.986174 
L 271.566479 281.593424 
L 271.647836 132.96279 
L 271.756311 132.96279 
L 271.810549 264.837471 
L 271.864787 132.96279 
L 271.891906 132.96279 
L 272.000381 264.837471 
L 272.054619 281.593424 
L 272.108857 132.96279 
L 272.135976 281.593424 
L 272.217332 251.702683 
L 272.325808 132.96279 
L 272.380046 281.593424 
L 272.461402 264.837471 
L 272.596997 132.96279 
L 272.624115 132.96279 
L 272.75971 281.593424 
L 272.786829 264.837471 
L 272.922423 132.96279 
L 272.976661 132.96279 
L 273.112255 271.986174 
L 273.166493 281.593424 
L 273.24785 132.96279 
L 273.274968 132.96279 
L 273.302087 281.593424 
L 273.383444 132.96279 
L 273.410563 132.96279 
L 273.464801 271.986174 
L 273.519038 132.96279 
L 273.573276 132.96279 
L 273.600395 281.593424 
L 273.681752 132.96279 
L 273.871584 132.96279 
L 273.898703 281.593424 
L 273.980059 132.96279 
L 274.007178 132.96279 
L 274.034297 271.986174 
L 274.115654 132.96279 
L 274.169891 132.96279 
L 274.224129 264.837471 
L 274.278367 132.96279 
L 274.359723 132.96279 
L 274.413961 271.986174 
L 274.468199 132.96279 
L 274.522437 132.96279 
L 274.603793 271.986174 
L 274.630912 132.96279 
L 274.766507 132.96279 
L 274.820744 271.986174 
L 274.874982 132.96279 
L 274.92922 132.96279 
L 275.064814 251.702683 
L 275.119052 271.986174 
L 275.200409 132.96279 
L 275.227527 132.96279 
L 275.254646 281.593424 
L 275.336003 132.96279 
L 275.363122 132.96279 
L 275.41736 271.986174 
L 275.471597 132.96279 
L 275.552954 132.96279 
L 275.661429 264.837471 
L 275.742786 132.96279 
L 275.769905 271.986174 
L 275.797024 251.702683 
L 275.87838 132.96279 
L 276.013975 264.837471 
L 276.041094 264.837471 
L 276.12245 132.96279 
L 276.149569 281.593424 
L 276.230926 132.96279 
L 276.258045 132.96279 
L 276.312282 264.837471 
L 276.36652 132.96279 
L 276.420758 132.96279 
L 276.474996 281.593424 
L 276.529233 251.702683 
L 276.61059 132.96279 
L 276.746184 281.593424 
L 276.881779 132.96279 
L 277.09873 132.96279 
L 277.125849 255.45043 
L 277.207205 132.96279 
L 277.397037 132.96279 
L 277.424156 271.986174 
L 277.532632 264.837471 
L 277.641107 132.96279 
L 277.668226 271.986174 
L 277.749583 132.96279 
L 277.776702 132.96279 
L 277.885177 271.986174 
L 278.020772 132.96279 
L 278.04789 132.96279 
L 278.156366 264.837471 
L 278.29196 132.96279 
L 278.373317 271.986174 
L 278.400436 132.96279 
L 278.53603 132.96279 
L 278.563149 271.986174 
L 278.644506 132.96279 
L 278.671625 132.96279 
L 278.7801 281.593424 
L 278.807219 271.986174 
L 278.915694 132.96279 
L 279.051289 264.837471 
L 279.078408 255.45043 
L 279.159764 132.96279 
L 279.132645 281.593424 
L 279.186883 255.45043 
L 279.241121 255.45043 
L 279.322478 271.986174 
L 279.376715 132.96279 
L 279.485191 132.96279 
L 279.51231 255.45043 
L 279.593666 132.96279 
L 279.647904 132.96279 
L 279.675023 281.593424 
L 279.75638 132.96279 
L 279.783498 251.702683 
L 279.864855 132.96279 
L 279.891974 132.96279 
L 279.919093 281.593424 
L 280.000449 132.96279 
L 280.027568 132.96279 
L 280.136044 271.986174 
L 280.271638 132.96279 
L 280.325876 132.96279 
L 280.352995 271.986174 
L 280.434351 255.45043 
L 280.569946 132.96279 
L 280.597065 132.96279 
L 280.624184 255.45043 
L 280.70554 132.96279 
L 280.759778 132.96279 
L 280.814016 264.837471 
L 280.868253 255.45043 
L 280.94961 132.96279 
L 280.976729 281.593424 
L 281.058086 132.96279 
L 281.085204 132.96279 
L 281.112323 271.986174 
L 281.19368 132.96279 
L 281.275037 132.96279 
L 281.329274 271.986174 
L 281.383512 132.96279 
L 281.43775 132.96279 
L 281.464869 281.593424 
L 281.546225 251.702683 
L 281.654701 132.96279 
L 281.763176 281.593424 
L 281.790295 264.837471 
L 281.871652 132.96279 
L 281.844533 281.593424 
L 281.898771 251.702683 
L 281.953008 264.837471 
L 282.088603 132.96279 
L 282.169959 281.593424 
L 282.224197 255.45043 
L 282.359792 132.96279 
L 282.495386 271.986174 
L 282.63098 132.96279 
L 282.685218 132.96279 
L 282.766575 271.986174 
L 282.793694 132.96279 
L 282.847931 132.96279 
L 282.956407 281.593424 
L 283.064882 132.96279 
L 283.092001 271.986174 
L 283.173358 132.96279 
L 283.308952 132.96279 
L 283.336071 255.45043 
L 283.417428 132.96279 
L 283.498784 132.96279 
L 283.525903 281.593424 
L 283.60726 132.96279 
L 283.688616 132.96279 
L 283.797092 271.986174 
L 283.932686 132.96279 
L 283.986924 264.837471 
L 284.041162 132.96279 
L 284.149637 132.96279 
L 284.176756 264.837471 
L 284.258113 132.96279 
L 284.285232 132.96279 
L 284.366588 264.837471 
L 284.393707 255.45043 
L 284.475064 264.837471 
L 284.529302 132.96279 
L 284.610658 132.96279 
L 284.637777 281.593424 
L 284.719134 132.96279 
L 284.854728 255.45043 
L 284.990322 132.96279 
L 285.04456 132.96279 
L 285.180155 271.986174 
L 285.28863 132.96279 
L 285.315749 264.837471 
L 285.397106 132.96279 
L 285.451343 132.96279 
L 285.5327 281.593424 
L 285.559819 132.96279 
L 285.695413 132.96279 
L 285.749651 281.593424 
L 285.831008 255.45043 
L 285.858126 255.45043 
L 285.939483 271.986174 
L 285.966602 132.96279 
L 286.02084 255.45043 
L 286.075077 132.96279 
L 286.102196 132.96279 
L 286.210672 251.702683 
L 286.26491 132.96279 
L 286.292028 255.45043 
L 286.319147 271.986174 
L 286.427623 132.96279 
L 286.454742 251.702683 
L 286.536098 132.96279 
L 286.617455 132.96279 
L 286.72593 281.593424 
L 286.861525 132.96279 
L 286.97 255.45043 
L 287.024238 264.837471 
L 287.105595 132.96279 
L 287.268308 132.96279 
L 287.295427 281.593424 
L 287.376783 132.96279 
L 287.431021 132.96279 
L 287.539497 271.986174 
L 287.620853 281.593424 
L 287.647972 132.96279 
L 287.675091 281.593424 
L 287.756448 255.45043 
L 287.892042 132.96279 
L 287.919161 132.96279 
L 288.054755 264.837471 
L 288.081874 271.986174 
L 288.19035 132.96279 
L 288.271706 281.593424 
L 288.298825 255.45043 
L 288.43442 132.96279 
L 288.515776 132.96279 
L 288.597133 281.593424 
L 288.624252 132.96279 
L 288.814084 132.96279 
L 288.922559 271.986174 
L 289.058154 132.96279 
L 289.13951 132.96279 
L 289.166629 251.702683 
L 289.247986 132.96279 
L 289.275105 132.96279 
L 289.38358 255.45043 
L 289.410699 251.702683 
L 289.546293 132.96279 
L 289.600531 132.96279 
L 289.709007 281.593424 
L 289.844601 132.96279 
L 289.87172 132.96279 
L 289.980195 281.593424 
L 290.061552 132.96279 
L 290.088671 281.593424 
L 290.251384 132.96279 
L 290.278503 255.45043 
L 290.35986 132.96279 
L 290.414097 132.96279 
L 290.441216 255.45043 
L 290.522573 132.96279 
L 290.60393 132.96279 
L 290.631048 271.986174 
L 290.712405 132.96279 
L 290.766643 132.96279 
L 290.902237 271.986174 
L 290.929356 264.837471 
L 291.010713 281.593424 
L 291.06495 132.96279 
L 291.092069 132.96279 
L 291.227664 271.986174 
L 291.363258 132.96279 
L 291.390377 271.986174 
L 291.471734 132.96279 
L 291.498852 251.702683 
L 291.580209 132.96279 
L 291.607328 132.96279 
L 291.634447 281.593424 
L 291.715803 132.96279 
L 291.742922 132.96279 
L 291.770041 271.986174 
L 291.851398 132.96279 
L 291.878517 132.96279 
L 291.905636 264.837471 
L 291.986992 132.96279 
L 292.04123 132.96279 
L 292.176824 281.593424 
L 292.2853 132.96279 
L 292.312419 271.986174 
L 292.393775 132.96279 
L 292.583607 132.96279 
L 292.692083 271.986174 
L 292.827677 132.96279 
L 293.071747 132.96279 
L 293.180223 281.593424 
L 293.315817 132.96279 
L 293.451411 271.986174 
L 293.532768 132.96279 
L 293.559887 271.986174 
L 293.587006 255.45043 
L 293.614125 264.837471 
L 293.668362 281.593424 
L 293.749719 132.96279 
L 293.912432 132.96279 
L 294.048027 281.593424 
L 294.183621 132.96279 
L 294.21074 132.96279 
L 294.237859 264.837471 
L 294.319215 132.96279 
L 294.346334 132.96279 
L 294.373453 251.702683 
L 294.45481 132.96279 
L 294.536166 132.96279 
L 294.617523 271.986174 
L 294.671761 255.45043 
L 294.725999 271.986174 
L 294.807355 132.96279 
L 295.024306 132.96279 
L 295.051425 255.45043 
L 295.132782 132.96279 
L 295.241257 132.96279 
L 295.268376 264.837471 
L 295.376852 255.45043 
L 295.40397 251.702683 
L 295.485327 264.837471 
L 295.539565 132.96279 
L 295.675159 132.96279 
L 295.702278 264.837471 
L 295.783635 132.96279 
L 295.946348 132.96279 
L 295.973467 281.593424 
L 296.054823 271.986174 
L 296.109061 132.96279 
L 296.163299 271.986174 
L 296.190418 255.45043 
L 296.271774 132.96279 
L 296.298893 251.702683 
L 296.326012 251.702683 
L 296.407369 255.45043 
L 296.434488 132.96279 
L 296.570082 255.45043 
L 296.597201 281.593424 
L 296.678558 132.96279 
L 296.705676 271.986174 
L 296.732795 271.986174 
L 296.841271 132.96279 
L 296.86839 281.593424 
L 296.949746 132.96279 
L 297.166697 132.96279 
L 297.302292 281.593424 
L 297.410767 132.96279 
L 297.437886 271.986174 
L 297.519243 132.96279 
L 297.681956 132.96279 
L 297.790431 264.837471 
L 297.81755 255.45043 
L 297.898907 281.593424 
L 297.980264 132.96279 
L 298.007382 264.837471 
L 298.034501 255.45043 
L 298.142977 132.96279 
L 298.251452 251.702683 
L 298.30569 281.593424 
L 298.387047 132.96279 
L 298.414166 132.96279 
L 298.441284 271.986174 
L 298.522641 132.96279 
L 298.631117 132.96279 
L 298.658235 264.837471 
L 298.739592 132.96279 
L 298.820949 132.96279 
L 298.848068 251.702683 
L 298.929424 132.96279 
L 298.956543 132.96279 
L 299.092137 281.593424 
L 299.119256 132.96279 
L 299.200613 264.837471 
L 299.227732 255.45043 
L 299.363326 132.96279 
L 299.444683 264.837471 
L 299.471802 132.96279 
L 299.580277 264.837471 
L 299.715872 132.96279 
L 300.014179 132.96279 
L 300.149774 281.593424 
L 300.339606 132.96279 
L 300.366725 271.986174 
L 300.448081 132.96279 
L 300.529438 132.96279 
L 300.665032 255.45043 
L 300.800627 132.96279 
L 300.96334 132.96279 
L 301.071815 264.837471 
L 301.20741 132.96279 
L 301.234529 132.96279 
L 301.370123 271.986174 
L 301.505717 132.96279 
L 301.532836 251.702683 
L 301.614193 132.96279 
L 301.858263 132.96279 
L 301.993857 255.45043 
L 302.020976 281.593424 
L 302.048095 132.96279 
L 302.129451 281.593424 
L 302.346402 132.96279 
L 302.373521 255.45043 
L 302.454878 132.96279 
L 302.536235 132.96279 
L 302.671829 264.837471 
L 302.807423 132.96279 
L 302.834542 132.96279 
L 302.861661 255.45043 
L 302.943018 132.96279 
L 303.078612 132.96279 
L 303.105731 251.702683 
L 303.187088 132.96279 
L 303.241325 132.96279 
L 303.268444 264.837471 
L 303.349801 132.96279 
L 303.37692 132.96279 
L 303.431157 271.986174 
L 303.485395 132.96279 
L 303.566752 132.96279 
L 303.593871 281.593424 
L 303.675227 132.96279 
L 303.756584 281.593424 
L 303.810822 271.986174 
L 303.946416 132.96279 
L 303.973535 132.96279 
L 304.000654 271.986174 
L 304.08201 264.837471 
L 304.109129 132.96279 
L 304.190486 264.837471 
L 304.217605 271.986174 
L 304.353199 132.96279 
L 304.380318 271.986174 
L 304.461675 132.96279 
L 304.488794 132.96279 
L 304.515912 281.593424 
L 304.597269 251.702683 
L 304.705745 132.96279 
L 304.81422 271.986174 
L 304.949814 132.96279 
L 305.031171 132.96279 
L 305.05829 281.593424 
L 305.139647 132.96279 
L 305.193884 132.96279 
L 305.221003 271.986174 
L 305.30236 255.45043 
L 305.356598 132.96279 
L 305.383716 264.837471 
L 305.410835 271.986174 
L 305.54643 132.96279 
L 305.682024 271.986174 
L 305.7905 132.96279 
L 305.817618 264.837471 
L 305.898975 132.96279 
L 305.953213 132.96279 
L 305.980332 251.702683 
L 306.061688 132.96279 
L 306.088807 132.96279 
L 306.115926 281.593424 
L 306.197283 255.45043 
L 306.25152 264.837471 
L 306.332877 132.96279 
L 306.359996 132.96279 
L 306.414234 255.45043 
L 306.468471 132.96279 
L 306.549828 132.96279 
L 306.658304 281.593424 
L 306.766779 132.96279 
L 306.793898 281.593424 
L 306.875255 132.96279 
L 306.929492 132.96279 
L 307.065087 281.593424 
L 307.200681 132.96279 
L 307.254919 132.96279 
L 307.363394 264.837471 
L 307.47187 271.986174 
L 307.498989 132.96279 
L 307.526108 264.837471 
L 307.634583 255.45043 
L 307.661702 251.702683 
L 307.770177 132.96279 
L 307.851534 264.837471 
L 307.878653 132.96279 
L 307.987128 132.96279 
L 308.014247 251.702683 
L 308.095604 132.96279 
L 308.285436 132.96279 
L 308.312555 255.45043 
L 308.393912 251.702683 
L 308.529506 132.96279 
L 308.556625 132.96279 
L 308.583744 281.593424 
L 308.6651 132.96279 
L 308.719338 132.96279 
L 308.773576 264.837471 
L 308.854932 255.45043 
L 308.882051 132.96279 
L 308.936289 281.593424 
L 308.963408 264.837471 
L 308.990527 271.986174 
L 309.017646 255.45043 
L 309.15324 132.96279 
L 309.180359 255.45043 
L 309.261716 132.96279 
L 309.315953 132.96279 
L 309.451548 264.837471 
L 309.532904 281.593424 
L 309.560023 132.96279 
L 309.695618 255.45043 
L 309.831212 132.96279 
L 309.88545 132.96279 
L 310.021044 264.837471 
L 310.048163 255.45043 
L 310.102401 264.837471 
L 310.183757 132.96279 
L 310.210876 132.96279 
L 310.265114 255.45043 
L 310.319352 132.96279 
L 310.346471 132.96279 
L 310.427827 281.593424 
L 310.454946 132.96279 
L 310.482065 264.837471 
L 310.563422 132.96279 
L 310.671897 132.96279 
L 310.699016 264.837471 
L 310.780373 132.96279 
L 310.861729 132.96279 
L 310.888848 264.837471 
L 310.970205 251.702683 
L 311.105799 132.96279 
L 311.214275 271.986174 
L 311.241393 255.45043 
L 311.268512 255.45043 
L 311.404107 132.96279 
L 311.485463 132.96279 
L 311.512582 271.986174 
L 311.593939 132.96279 
L 312.05496 132.96279 
L 312.082079 281.593424 
L 312.163435 132.96279 
L 312.217673 264.837471 
L 312.271911 132.96279 
L 312.570218 132.96279 
L 312.597337 281.593424 
L 312.705813 271.986174 
L 312.814288 132.96279 
L 312.841407 281.593424 
L 312.922764 251.702683 
L 313.058358 132.96279 
L 313.139715 132.96279 
L 313.166834 281.593424 
L 313.275309 271.986174 
L 313.302428 281.593424 
L 313.438022 132.96279 
L 313.519379 271.986174 
L 313.546498 251.702683 
L 313.600736 132.96279 
L 313.627854 271.986174 
L 313.682092 251.702683 
L 313.73633 132.96279 
L 313.763449 251.702683 
L 313.790568 264.837471 
L 313.926162 132.96279 
L 314.061756 281.593424 
L 314.170232 132.96279 
L 314.278707 255.45043 
L 314.360064 132.96279 
L 314.387183 271.986174 
L 314.46854 264.837471 
L 314.522777 271.986174 
L 314.577015 132.96279 
L 314.631253 281.593424 
L 314.685491 132.96279 
L 314.821085 281.593424 
L 314.956679 132.96279 
L 315.065155 132.96279 
L 315.092274 255.45043 
L 315.17363 132.96279 
L 315.200749 132.96279 
L 315.227868 271.986174 
L 315.309225 132.96279 
L 315.390581 132.96279 
L 315.444819 255.45043 
L 315.499057 132.96279 
L 315.553295 132.96279 
L 315.580413 255.45043 
L 315.66177 132.96279 
L 315.688889 132.96279 
L 315.716008 281.593424 
L 315.797364 132.96279 
L 315.960078 132.96279 
L 315.987197 271.986174 
L 316.068553 132.96279 
L 316.14991 132.96279 
L 316.177029 271.986174 
L 316.258385 132.96279 
L 316.421099 132.96279 
L 316.448217 264.837471 
L 316.529574 132.96279 
L 316.583812 132.96279 
L 316.610931 271.986174 
L 316.692287 132.96279 
L 316.746525 132.96279 
L 316.855001 264.837471 
L 316.990595 132.96279 
L 317.09907 132.96279 
L 317.126189 271.986174 
L 317.207546 251.702683 
L 317.234665 251.702683 
L 317.288903 264.837471 
L 317.34314 132.96279 
L 317.370259 271.986174 
L 317.451616 132.96279 
L 317.478735 132.96279 
L 317.58721 281.593424 
L 317.722805 132.96279 
L 317.804161 281.593424 
L 317.858399 255.45043 
L 317.885518 251.702683 
L 317.939756 255.45043 
L 318.021112 132.96279 
L 318.156707 132.96279 
L 318.265182 271.986174 
L 318.292301 264.837471 
L 318.31942 251.702683 
L 318.455014 132.96279 
L 318.482133 255.45043 
L 318.56349 132.96279 
L 318.644846 132.96279 
L 318.671965 281.593424 
L 318.753322 132.96279 
L 318.80756 132.96279 
L 318.888916 264.837471 
L 318.916035 132.96279 
L 318.997392 132.96279 
L 319.105867 281.593424 
L 319.241462 132.96279 
L 319.26858 255.45043 
L 319.349937 132.96279 
L 319.485531 132.96279 
L 319.539769 271.986174 
L 319.594007 132.96279 
L 319.621126 132.96279 
L 319.75672 271.986174 
L 319.892315 132.96279 
L 319.946552 132.96279 
L 319.973671 251.702683 
L 320.055028 132.96279 
L 320.326217 132.96279 
L 320.353335 264.837471 
L 320.434692 251.702683 
L 320.543168 132.96279 
L 320.570286 271.986174 
L 320.651643 132.96279 
L 320.678762 132.96279 
L 320.705881 255.45043 
L 320.787237 132.96279 
L 320.895713 132.96279 
L 320.922832 281.593424 
L 321.004188 132.96279 
L 321.221139 132.96279 
L 321.248258 281.593424 
L 321.329615 132.96279 
L 321.356734 255.45043 
L 321.43809 132.96279 
L 321.465209 132.96279 
L 321.492328 281.593424 
L 321.573685 132.96279 
L 321.655041 255.45043 
L 321.68216 132.96279 
L 321.709279 132.96279 
L 321.817755 271.986174 
L 321.953349 132.96279 
L 322.007587 281.593424 
L 322.088943 264.837471 
L 322.197419 132.96279 
L 322.305894 264.837471 
L 322.387251 132.96279 
L 322.41437 251.702683 
L 322.441489 271.986174 
L 322.577083 132.96279 
L 322.604202 255.45043 
L 322.685559 132.96279 
L 322.712678 132.96279 
L 322.739796 264.837471 
L 322.821153 251.702683 
L 322.875391 281.593424 
L 322.956747 132.96279 
L 322.983866 281.593424 
L 323.065223 132.96279 
L 323.14658 132.96279 
L 323.173698 271.986174 
L 323.255055 264.837471 
L 323.282174 251.702683 
L 323.390649 255.45043 
L 323.417768 132.96279 
L 323.526244 251.702683 
L 323.661838 132.96279 
L 323.688957 264.837471 
L 323.770314 251.702683 
L 323.824551 255.45043 
L 323.878789 132.96279 
L 323.905908 281.593424 
L 323.987265 132.96279 
L 324.014384 132.96279 
L 324.068621 281.593424 
L 324.149978 251.702683 
L 324.231335 271.986174 
L 324.285572 132.96279 
L 324.33981 132.96279 
L 324.394048 281.593424 
L 324.448286 132.96279 
L 324.58388 281.593424 
L 324.719474 132.96279 
L 324.773712 132.96279 
L 324.800831 281.593424 
L 324.882188 132.96279 
L 324.963544 132.96279 
L 324.990663 264.837471 
L 325.07202 255.45043 
L 325.207614 132.96279 
L 325.234733 255.45043 
L 325.31609 132.96279 
L 325.451684 132.96279 
L 325.478803 251.702683 
L 325.560159 132.96279 
L 325.668635 132.96279 
L 325.804229 255.45043 
L 325.939824 132.96279 
L 325.966943 132.96279 
L 326.102537 264.837471 
L 326.238131 132.96279 
L 326.346607 132.96279 
L 326.373726 271.986174 
L 326.455082 132.96279 
L 326.563558 132.96279 
L 326.617796 264.837471 
L 326.672033 255.45043 
L 326.75339 264.837471 
L 326.807628 132.96279 
L 326.834747 132.96279 
L 326.916103 281.593424 
L 326.943222 132.96279 
L 327.024579 132.96279 
L 327.105935 271.986174 
L 327.133054 132.96279 
L 327.214411 132.96279 
L 327.268649 255.45043 
L 327.322886 132.96279 
L 327.431362 132.96279 
L 327.539837 264.837471 
L 327.648313 132.96279 
L 327.675432 281.593424 
L 327.756788 255.45043 
L 327.892383 132.96279 
L 327.94662 264.837471 
L 328.000858 251.702683 
L 328.055096 281.593424 
L 328.136453 132.96279 
L 328.217809 132.96279 
L 328.244928 255.45043 
L 328.326285 132.96279 
L 328.353404 132.96279 
L 328.461879 271.986174 
L 328.597473 132.96279 
L 328.624592 264.837471 
L 328.705949 132.96279 
L 328.733068 132.96279 
L 328.760187 281.593424 
L 328.841543 132.96279 
L 328.868662 132.96279 
L 328.950019 281.593424 
L 329.004257 271.986174 
L 329.139851 132.96279 
L 329.356802 132.96279 
L 329.41104 271.986174 
L 329.465277 251.702683 
L 329.519515 271.986174 
L 329.600872 132.96279 
L 329.817823 132.96279 
L 329.899179 255.45043 
L 329.926298 132.96279 
L 329.980536 132.96279 
L 330.089012 271.986174 
L 330.224606 132.96279 
L 330.278844 281.593424 
L 330.333081 264.837471 
L 330.387319 271.986174 
L 330.468676 132.96279 
L 330.495795 132.96279 
L 330.550032 281.593424 
L 330.60427 132.96279 
L 330.794102 132.96279 
L 330.821221 264.837471 
L 330.929697 255.45043 
L 331.065291 132.96279 
L 331.09241 132.96279 
L 331.200885 271.986174 
L 331.33648 132.96279 
L 331.472074 271.986174 
L 331.553431 132.96279 
L 331.58055 264.837471 
L 331.607669 255.45043 
L 331.743263 132.96279 
L 331.770382 132.96279 
L 331.851738 281.593424 
L 331.878857 251.702683 
L 332.014452 132.96279 
L 332.231403 132.96279 
L 332.339878 271.986174 
L 332.475473 132.96279 
L 332.556829 281.593424 
L 332.583948 132.96279 
L 332.936493 132.96279 
L 333.044969 264.837471 
L 333.126326 281.593424 
L 333.180563 132.96279 
L 333.370395 132.96279 
L 333.397514 281.593424 
L 333.478871 132.96279 
L 333.587346 264.837471 
L 333.722941 132.96279 
L 333.804297 132.96279 
L 333.831416 281.593424 
L 333.912773 132.96279 
L 334.048367 132.96279 
L 334.156843 271.986174 
L 334.292437 132.96279 
L 334.346675 132.96279 
L 334.482269 271.986174 
L 334.509388 281.593424 
L 334.590745 132.96279 
L 334.617864 255.45043 
L 334.644983 281.593424 
L 334.780577 132.96279 
L 334.861934 132.96279 
L 334.889052 255.45043 
L 334.970409 251.702683 
L 335.024647 271.986174 
L 335.078885 132.96279 
L 335.214479 264.837471 
L 335.268717 271.986174 
L 335.350073 132.96279 
L 335.404311 132.96279 
L 335.43143 281.593424 
L 335.512787 132.96279 
L 335.539905 132.96279 
L 335.567024 255.45043 
L 335.648381 132.96279 
L 335.756856 132.96279 
L 335.783975 255.45043 
L 335.892451 251.702683 
L 336.028045 132.96279 
L 336.055164 132.96279 
L 336.082283 255.45043 
L 336.16364 132.96279 
L 336.217877 132.96279 
L 336.244996 281.593424 
L 336.326353 251.702683 
L 336.380591 255.45043 
L 336.407709 132.96279 
L 336.543304 271.986174 
L 336.651779 132.96279 
L 336.678898 255.45043 
L 336.760255 132.96279 
L 336.787374 132.96279 
L 336.922968 271.986174 
L 336.950087 255.45043 
L 337.004325 132.96279 
L 337.031444 271.986174 
L 337.058562 251.702683 
L 337.085681 264.837471 
L 337.139919 271.986174 
L 337.221276 132.96279 
L 337.302632 132.96279 
L 337.438227 264.837471 
L 337.573821 132.96279 
L 337.628059 264.837471 
L 337.682297 132.96279 
L 337.817891 281.593424 
L 337.84501 281.593424 
L 337.980604 132.96279 
L 338.007723 251.702683 
L 338.08908 132.96279 
L 338.170436 132.96279 
L 338.251793 255.45043 
L 338.278912 251.702683 
L 338.360268 132.96279 
L 338.387387 281.593424 
L 338.468744 132.96279 
L 338.577219 132.96279 
L 338.712814 271.986174 
L 338.767052 132.96279 
L 338.821289 264.837471 
L 338.848408 264.837471 
L 338.875527 281.593424 
L 339.011121 132.96279 
L 339.092478 132.96279 
L 339.119597 281.593424 
L 339.200954 132.96279 
L 339.28231 255.45043 
L 339.309429 132.96279 
L 339.607737 132.96279 
L 339.689093 264.837471 
L 339.716212 251.702683 
L 339.743331 132.96279 
L 339.77045 271.986174 
L 339.824688 251.702683 
L 339.851807 255.45043 
L 339.987401 132.96279 
L 340.177233 132.96279 
L 340.204352 271.986174 
L 340.285709 132.96279 
L 340.421303 132.96279 
L 340.556897 264.837471 
L 340.692492 132.96279 
L 340.746729 132.96279 
L 340.882324 281.593424 
L 340.990799 132.96279 
L 341.126394 251.702683 
L 341.153513 271.986174 
L 341.234869 132.96279 
L 341.261988 255.45043 
L 341.289107 251.702683 
L 341.343345 264.837471 
L 341.424701 132.96279 
L 341.533177 132.96279 
L 341.560296 255.45043 
L 341.641652 132.96279 
L 342.048435 132.96279 
L 342.075554 271.986174 
L 342.156911 132.96279 
L 342.18403 132.96279 
L 342.211149 251.702683 
L 342.292505 132.96279 
L 342.319624 132.96279 
L 342.373862 255.45043 
L 342.4281 132.96279 
L 342.455219 132.96279 
L 342.590813 271.986174 
L 342.67217 281.593424 
L 342.726407 132.96279 
L 342.780645 132.96279 
L 342.834883 271.986174 
L 342.889121 132.96279 
L 342.916239 132.96279 
L 343.051834 255.45043 
L 343.078953 264.837471 
L 343.160309 271.986174 
L 343.214547 132.96279 
L 343.268785 132.96279 
L 343.37726 251.702683 
L 343.512855 132.96279 
L 343.539974 132.96279 
L 343.567092 264.837471 
L 343.648449 132.96279 
L 343.702687 132.96279 
L 343.838281 264.837471 
L 343.919638 281.593424 
L 343.973876 132.96279 
L 344.000994 132.96279 
L 344.028113 255.45043 
L 344.10947 132.96279 
L 344.163708 132.96279 
L 344.190827 264.837471 
L 344.272183 132.96279 
L 344.326421 132.96279 
L 344.35354 271.986174 
L 344.434896 132.96279 
L 344.543372 132.96279 
L 344.624729 264.837471 
L 344.651847 132.96279 
L 344.787442 132.96279 
L 344.84168 255.45043 
L 344.895917 132.96279 
L 344.977274 132.96279 
L 345.058631 271.986174 
L 345.112868 264.837471 
L 345.248463 132.96279 
L 345.275582 132.96279 
L 345.3027 255.45043 
L 345.384057 132.96279 
L 345.411176 132.96279 
L 345.438295 281.593424 
L 345.519651 132.96279 
L 345.628127 132.96279 
L 345.763721 271.986174 
L 345.899316 132.96279 
L 345.980672 132.96279 
L 346.007791 271.986174 
L 346.089148 132.96279 
L 346.224742 132.96279 
L 346.251861 251.702683 
L 346.333218 132.96279 
L 346.360337 132.96279 
L 346.387455 271.986174 
L 346.468812 132.96279 
L 346.550169 132.96279 
L 346.604406 271.986174 
L 346.658644 132.96279 
L 346.685763 132.96279 
L 346.76712 281.593424 
L 346.821357 251.702683 
L 346.875595 255.45043 
L 346.929833 132.96279 
L 346.956952 255.45043 
L 347.038308 132.96279 
L 347.092546 132.96279 
L 347.119665 264.837471 
L 347.201022 132.96279 
L 347.282378 132.96279 
L 347.309497 281.593424 
L 347.390854 132.96279 
L 347.445092 132.96279 
L 347.47221 271.986174 
L 347.553567 132.96279 
L 347.662043 132.96279 
L 347.743399 281.593424 
L 347.797637 251.702683 
L 347.851875 255.45043 
L 347.878994 132.96279 
L 347.906112 271.986174 
L 347.987469 132.96279 
L 348.068826 264.837471 
L 348.123063 255.45043 
L 348.231539 271.986174 
L 348.367133 132.96279 
L 348.529847 132.96279 
L 348.584084 264.837471 
L 348.638322 132.96279 
L 348.719679 132.96279 
L 348.746798 281.593424 
L 348.828154 132.96279 
L 348.855273 132.96279 
L 348.882392 281.593424 
L 348.963749 255.45043 
L 348.990867 264.837471 
L 349.126462 132.96279 
L 349.207818 255.45043 
L 349.234937 132.96279 
L 349.262056 132.96279 
L 349.289175 281.593424 
L 349.370532 271.986174 
L 349.506126 132.96279 
L 349.614602 132.96279 
L 349.64172 271.986174 
L 349.723077 132.96279 
L 349.750196 251.702683 
L 349.831553 132.96279 
L 349.912909 132.96279 
L 350.021385 264.837471 
L 350.156979 132.96279 
L 350.184098 132.96279 
L 350.292573 264.837471 
L 350.401049 132.96279 
L 350.455287 281.593424 
L 350.509524 132.96279 
L 350.536643 132.96279 
L 350.618 255.45043 
L 350.645119 132.96279 
L 350.699357 132.96279 
L 350.780713 281.593424 
L 350.807832 132.96279 
L 350.889189 281.593424 
L 350.916308 132.96279 
L 350.997664 132.96279 
L 351.024783 281.593424 
L 351.133259 271.986174 
L 351.187496 281.593424 
L 351.458685 132.96279 
L 351.485804 132.96279 
L 351.540042 264.837471 
L 351.594279 132.96279 
L 351.648517 132.96279 
L 351.784112 271.986174 
L 351.865468 281.593424 
L 351.919706 132.96279 
L 352.136657 132.96279 
L 352.163776 281.593424 
L 352.245132 251.702683 
L 352.326489 264.837471 
L 352.380727 132.96279 
L 352.814629 132.96279 
L 352.950223 281.593424 
L 353.085818 132.96279 
L 353.140055 132.96279 
L 353.194293 264.837471 
L 353.248531 132.96279 
L 353.302769 132.96279 
L 353.438363 281.593424 
L 353.682433 132.96279 
L 353.709552 132.96279 
L 353.845146 271.986174 
L 353.926503 132.96279 
L 353.953622 251.702683 
L 353.98074 281.593424 
L 354.116335 132.96279 
L 354.170573 132.96279 
L 354.279048 264.837471 
L 354.414642 132.96279 
L 354.550237 271.986174 
L 354.685831 132.96279 
L 354.767188 255.45043 
L 354.794307 132.96279 
L 354.875663 132.96279 
L 354.902782 271.986174 
L 354.984139 132.96279 
L 355.011258 132.96279 
L 355.092614 271.986174 
L 355.146852 264.837471 
L 355.20109 271.986174 
L 355.282446 132.96279 
L 355.309565 132.96279 
L 355.336684 251.702683 
L 355.418041 132.96279 
L 355.44516 132.96279 
L 355.580754 255.45043 
L 355.607873 251.702683 
L 355.743467 132.96279 
L 355.824824 281.593424 
L 355.851943 132.96279 
L 355.933299 132.96279 
L 356.014656 271.986174 
L 356.041775 132.96279 
L 356.068894 132.96279 
L 356.204488 281.593424 
L 356.340083 132.96279 
L 356.367201 132.96279 
L 356.502796 255.45043 
L 356.529915 271.986174 
L 356.63839 132.96279 
L 356.692628 255.45043 
L 356.746866 132.96279 
L 356.801103 132.96279 
L 356.828222 264.837471 
L 356.909579 132.96279 
L 357.180768 132.96279 
L 357.262124 271.986174 
L 357.289243 255.45043 
L 357.424838 132.96279 
L 357.451956 132.96279 
L 357.560432 255.45043 
L 357.696026 132.96279 
L 357.804502 132.96279 
L 357.912977 271.986174 
L 358.021453 132.96279 
L 358.157047 271.986174 
L 358.292642 132.96279 
L 358.31976 281.593424 
L 358.401117 132.96279 
L 358.428236 132.96279 
L 358.455355 271.986174 
L 358.536711 132.96279 
L 358.590949 132.96279 
L 358.699425 264.837471 
L 358.835019 132.96279 
L 359.133327 132.96279 
L 359.268921 281.593424 
L 359.404515 132.96279 
L 359.594348 132.96279 
L 359.621466 271.986174 
L 359.702823 255.45043 
L 359.757061 255.45043 
L 359.865536 132.96279 
L 359.974012 281.593424 
L 360.109606 132.96279 
L 360.190963 271.986174 
L 360.218082 132.96279 
L 360.245201 132.96279 
L 360.272319 251.702683 
L 360.353676 132.96279 
L 360.407914 132.96279 
L 360.543508 255.45043 
L 360.679103 132.96279 
L 360.787578 132.96279 
L 360.868935 264.837471 
L 360.896054 132.96279 
L 361.004529 271.986174 
L 361.031648 132.96279 
L 361.058767 281.593424 
L 361.113005 281.593424 
L 361.140123 264.837471 
L 361.194361 281.593424 
L 361.275718 132.96279 
L 361.302837 132.96279 
L 361.438431 281.593424 
L 361.574025 132.96279 
L 361.601144 281.593424 
L 361.70962 271.986174 
L 361.845214 132.96279 
L 361.872333 132.96279 
L 361.899452 251.702683 
L 361.980809 132.96279 
L 362.035046 132.96279 
L 362.116403 271.986174 
L 362.143522 132.96279 
L 362.414711 132.96279 
L 362.441829 281.593424 
L 362.523186 255.45043 
L 362.65878 132.96279 
L 362.685899 132.96279 
L 362.767256 281.593424 
L 362.794375 132.96279 
L 362.821494 132.96279 
L 362.875731 281.593424 
L 362.929969 132.96279 
L 363.038445 255.45043 
L 363.174039 132.96279 
L 363.282515 132.96279 
L 363.39099 255.45043 
L 363.445228 271.986174 
L 363.526584 132.96279 
L 363.580822 132.96279 
L 363.662179 271.986174 
L 363.689298 132.96279 
L 363.716417 132.96279 
L 363.743535 281.593424 
L 363.824892 251.702683 
L 363.960486 132.96279 
L 363.987605 264.837471 
L 364.068962 132.96279 
L 364.150319 132.96279 
L 364.177437 264.837471 
L 364.258794 132.96279 
L 364.340151 132.96279 
L 364.36727 281.593424 
L 364.448626 132.96279 
L 364.502864 132.96279 
L 364.611339 281.593424 
L 364.638458 255.45043 
L 364.665577 255.45043 
L 364.692696 271.986174 
L 364.801172 132.96279 
L 364.82829 271.986174 
L 364.909647 264.837471 
L 364.991004 281.593424 
L 365.018123 132.96279 
L 365.045241 264.837471 
L 365.153717 255.45043 
L 365.289311 132.96279 
L 365.31643 132.96279 
L 365.343549 264.837471 
L 365.424906 132.96279 
L 365.506262 132.96279 
L 365.614738 255.45043 
L 365.723213 132.96279 
L 365.750332 281.593424 
L 365.831689 132.96279 
L 365.913045 132.96279 
L 365.940164 255.45043 
L 365.967283 251.702683 
" clip-path="url(#pedc06df4e1)" style="fill: none; stroke: #4c72b0; stroke-width: 2; stroke-linecap: round"/>
   </g>
   <g id="line2d_19">
    <path d="M 149.043375 289.875 
L 149.043375 18.68625 
" clip-path="url(#pedc06df4e1)" style="fill: none; stroke-dasharray: 7.4,3.2; stroke-dashoffset: 0; stroke: #1a1a1a; stroke-width: 2"/>
   </g>
   <g id="patch_3">
    <path d="M 94.805625 289.875 
L 94.805625 18.68625 
" style="fill: none; stroke: #262626; stroke-width: 1.25; stroke-linejoin: miter; stroke-linecap: square"/>
   </g>
   <g id="patch_4">
    <path d="M 94.805625 289.875 
L 365.994375 289.875 
" style="fill: none; stroke: #262626; stroke-width: 1.25; stroke-linejoin: miter; stroke-linecap: square"/>
   </g>
  </g>
 </g>
 <defs>
  <clipPath id="pedc06df4e1">
   <rect x="94.805625" y="18.68625" width="271.18875" height="271.18875"/>
  </clipPath>
 </defs>
</svg>
