<?xml version="1.0" encoding="utf-8" standalone="no"?>
<!DOCTYPE svg PUBLIC "-//W3C//DTD SVG 1.1//EN"
  "http://www.w3.org/Graphics/SVG/1.1/DTD/svg11.dtd">
<svg xmlns:xlink="http://www.w3.org/1999/xlink" width="460.8pt" height="345.6pt" viewBox="0 0 460.8 345.6" xmlns="http://www.w3.org/2000/svg" version="1.1">
 <metadata>
  <rdf:RDF xmlns:dc="http://purl.org/dc/elements/1.1/" xmlns:cc="http://creativecommons.org/ns#" xmlns:rdf="http://www.w3.org/1999/02/22-rdf-syntax-ns#">
   <cc:Work>
    <dc:type rdf:resource="http://purl.org/dc/dcmitype/StillImage"/>
    <dc:date>2024-04-24T16:07:16.974684</dc:date>
    <dc:format>image/svg+xml</dc:format>
    <dc:creator>
     <cc:Agent>
      <dc:title>Matplotlib v3.8.2, https://matplotlib.org/</dc:title>
     </cc:Agent>
    </dc:creator>
   </cc:Work>
  </rdf:RDF>
 </metadata>
 <defs>
  <style type="text/css">*{stroke-linejoin: round; stroke-linecap: butt}</style>
 </defs>
 <g id="figure_1">
  <g id="patch_1">
   <path d="M 0 345.6 
L 460.8 345.6 
L 460.8 0 
L 0 0 
L 0 345.6 
z
" style="fill: none"/>
  </g>
  <g id="axes_1">
   <g id="patch_2">
    <path d="M 94.805625 289.875 
L 365.994375 289.875 
L 365.994375 18.68625 
L 94.805625 18.68625 
L 94.805625 289.875 
z
" style="fill: none"/>
   </g>
   <g id="matplotlib.axis_1">
    <g id="xtick_1">
     <g id="line2d_1">
      <defs>
       <path id="m3572cc095f" d="M 0 0 
L 0 6 
" style="stroke: #262626; stroke-width: 1.25"/>
      </defs>
      <g>
       <use xlink:href="#m3572cc095f" x="105.653175" y="289.875" style="fill: #262626; stroke: #262626; stroke-width: 1.25"/>
      </g>
     </g>
     <g id="text_1">
      <text style="fill: #262626; font: 16px 'Arial', 'DejaVu Sans', 'Liberation Sans', 'Bitstream Vera Sans', sans-serif; text-anchor: middle" x="105.653175" y="310.8275" transform="rotate(-0 105.653175 310.8275)">0</text>
     </g>
    </g>
    <g id="xtick_2">
     <g id="line2d_2">
      <g>
       <use xlink:href="#m3572cc095f" x="149.043375" y="289.875" style="fill: #262626; stroke: #262626; stroke-width: 1.25"/>
      </g>
     </g>
     <g id="text_2">
      <text style="fill: #262626; font: 16px 'Arial', 'DejaVu Sans', 'Liberation Sans', 'Bitstream Vera Sans', sans-serif; text-anchor: middle" x="149.043375" y="310.8275" transform="rotate(-0 149.043375 310.8275)">2</text>
     </g>
    </g>
    <g id="xtick_3">
     <g id="line2d_3">
      <g>
       <use xlink:href="#m3572cc095f" x="192.433575" y="289.875" style="fill: #262626; stroke: #262626; stroke-width: 1.25"/>
      </g>
     </g>
     <g id="text_3">
      <text style="fill: #262626; font: 16px 'Arial', 'DejaVu Sans', 'Liberation Sans', 'Bitstream Vera Sans', sans-serif; text-anchor: middle" x="192.433575" y="310.8275" transform="rotate(-0 192.433575 310.8275)">4</text>
     </g>
    </g>
    <g id="xtick_4">
     <g id="line2d_4">
      <g>
       <use xlink:href="#m3572cc095f" x="235.823775" y="289.875" style="fill: #262626; stroke: #262626; stroke-width: 1.25"/>
      </g>
     </g>
     <g id="text_4">
      <text style="fill: #262626; font: 16px 'Arial', 'DejaVu Sans', 'Liberation Sans', 'Bitstream Vera Sans', sans-serif; text-anchor: middle" x="235.823775" y="310.8275" transform="rotate(-0 235.823775 310.8275)">6</text>
     </g>
    </g>
    <g id="xtick_5">
     <g id="line2d_5">
      <g>
       <use xlink:href="#m3572cc095f" x="279.213975" y="289.875" style="fill: #262626; stroke: #262626; stroke-width: 1.25"/>
      </g>
     </g>
     <g id="text_5">
      <text style="fill: #262626; font: 16px 'Arial', 'DejaVu Sans', 'Liberation Sans', 'Bitstream Vera Sans', sans-serif; text-anchor: middle" x="279.213975" y="310.8275" transform="rotate(-0 279.213975 310.8275)">8</text>
     </g>
    </g>
    <g id="xtick_6">
     <g id="line2d_6">
      <g>
       <use xlink:href="#m3572cc095f" x="322.604175" y="289.875" style="fill: #262626; stroke: #262626; stroke-width: 1.25"/>
      </g>
     </g>
     <g id="text_6">
      <text style="fill: #262626; font: 16px 'Arial', 'DejaVu Sans', 'Liberation Sans', 'Bitstream Vera Sans', sans-serif; text-anchor: middle" x="322.604175" y="310.8275" transform="rotate(-0 322.604175 310.8275)">10</text>
     </g>
    </g>
    <g id="xtick_7">
     <g id="line2d_7">
      <g>
       <use xlink:href="#m3572cc095f" x="365.994375" y="289.875" style="fill: #262626; stroke: #262626; stroke-width: 1.25"/>
      </g>
     </g>
     <g id="text_7">
      <text style="fill: #262626; font: 16px 'Arial', 'DejaVu Sans', 'Liberation Sans', 'Bitstream Vera Sans', sans-serif; text-anchor: middle" x="365.994375" y="310.8275" transform="rotate(-0 365.994375 310.8275)">12</text>
     </g>
    </g>
    <g id="text_8">
     <text style="fill: #262626; font: 16px 'Arial', 'DejaVu Sans', 'Liberation Sans', 'Bitstream Vera Sans', sans-serif; text-anchor: middle" x="230.4" y="329.46" transform="rotate(-0 230.4 329.46)">Week of outbreak</text>
    </g>
   </g>
   <g id="matplotlib.axis_2">
    <g id="ytick_1">
     <g id="line2d_8">
      <defs>
       <path id="m3296c59d01" d="M 0 0 
L -6 0 
" style="stroke: #262626; stroke-width: 1.25"/>
      </defs>
      <g>
       <use xlink:href="#m3296c59d01" x="94.805625" y="289.875" style="fill: #262626; stroke: #262626; stroke-width: 1.25"/>
      </g>
     </g>
     <g id="text_9">
      <text style="fill: #262626; font: 16px 'Arial', 'DejaVu Sans', 'Liberation Sans', 'Bitstream Vera Sans', sans-serif; text-anchor: end" x="85.305625" y="295.60125" transform="rotate(-0 85.305625 295.60125)">0</text>
     </g>
    </g>
    <g id="ytick_2">
     <g id="line2d_9">
      <g>
       <use xlink:href="#m3296c59d01" x="94.805625" y="199.47875" style="fill: #262626; stroke: #262626; stroke-width: 1.25"/>
      </g>
     </g>
     <g id="text_10">
      <text style="fill: #262626; font: 16px 'Arial', 'DejaVu Sans', 'Liberation Sans', 'Bitstream Vera Sans', sans-serif; text-anchor: end" x="85.305625" y="205.205" transform="rotate(-0 85.305625 205.205)">1</text>
     </g>
    </g>
    <g id="ytick_3">
     <g id="line2d_10">
      <g>
       <use xlink:href="#m3296c59d01" x="94.805625" y="109.0825" style="fill: #262626; stroke: #262626; stroke-width: 1.25"/>
      </g>
     </g>
     <g id="text_11">
      <text style="fill: #262626; font: 16px 'Arial', 'DejaVu Sans', 'Liberation Sans', 'Bitstream Vera Sans', sans-serif; text-anchor: end" x="85.305625" y="114.80875" transform="rotate(-0 85.305625 114.80875)">2</text>
     </g>
    </g>
    <g id="ytick_4">
     <g id="line2d_11">
      <g>
       <use xlink:href="#m3296c59d01" x="94.805625" y="18.68625" style="fill: #262626; stroke: #262626; stroke-width: 1.25"/>
      </g>
     </g>
     <g id="text_12">
      <text style="fill: #262626; font: 16px 'Arial', 'DejaVu Sans', 'Liberation Sans', 'Bitstream Vera Sans', sans-serif; text-anchor: end" x="85.305625" y="24.4125" transform="rotate(-0 85.305625 24.4125)">3</text>
     </g>
    </g>
    <g id="text_13">
     <text style="fill: #262626; font: 16px 'Arial', 'DejaVu Sans', 'Liberation Sans', 'Bitstream Vera Sans', sans-serif; text-anchor: middle" x="69.228125" y="154.280625" transform="rotate(-90 69.228125 154.280625)">Number of cases</text>
    </g>
   </g>
   <g id="patch_3">
    <path d="M 94.805625 289.875 
L 116.500725 289.875 
L 116.500725 199.47875 
L 94.805625 199.47875 
z
" style="fill: #1a1a1a; opacity: 0.25; stroke: #1a1a1a; stroke-width: 0.1; stroke-linejoin: miter"/>
   </g>
   <g id="patch_4">
    <path d="M 116.500725 289.875 
L 138.195825 289.875 
L 138.195825 199.47875 
L 116.500725 199.47875 
z
" style="fill: #1a1a1a; opacity: 0.25; stroke: #1a1a1a; stroke-width: 0.1; stroke-linejoin: miter"/>
   </g>
   <g id="patch_5">
    <path d="M 138.195825 289.875 
L 159.890925 289.875 
L 159.890925 18.68625 
L 138.195825 18.68625 
z
" style="fill: #1a1a1a; opacity: 0.25; stroke: #1a1a1a; stroke-width: 0.1; stroke-linejoin: miter"/>
   </g>
   <g id="patch_6">
    <path d="M 159.890925 289.875 
L 181.586025 289.875 
L 181.586025 199.47875 
L 159.890925 199.47875 
z
" style="fill: #1a1a1a; opacity: 0.25; stroke: #1a1a1a; stroke-width: 0.1; stroke-linejoin: miter"/>
   </g>
   <g id="patch_7">
    <path d="M 181.586025 289.875 
L 203.281125 289.875 
L 203.281125 18.68625 
L 181.586025 18.68625 
z
" style="fill: #1a1a1a; opacity: 0.25; stroke: #1a1a1a; stroke-width: 0.1; stroke-linejoin: miter"/>
   </g>
   <g id="patch_8">
    <path d="M 203.281125 289.875 
L 224.976225 289.875 
L 224.976225 199.47875 
L 203.281125 199.47875 
z
" style="fill: #1a1a1a; opacity: 0.25; stroke: #1a1a1a; stroke-width: 0.1; stroke-linejoin: miter"/>
   </g>
   <g id="patch_9">
    <path d="M 224.976225 289.875 
L 246.671325 289.875 
L 246.671325 289.875 
L 224.976225 289.875 
z
" style="fill: #1a1a1a; opacity: 0.25; stroke: #1a1a1a; stroke-width: 0.1; stroke-linejoin: miter"/>
   </g>
   <g id="patch_10">
    <path d="M 246.671325 289.875 
L 268.366425 289.875 
L 268.366425 289.875 
L 246.671325 289.875 
z
" style="fill: #1a1a1a; opacity: 0.25; stroke: #1a1a1a; stroke-width: 0.1; stroke-linejoin: miter"/>
   </g>
   <g id="patch_11">
    <path d="M 268.366425 289.875 
L 290.061525 289.875 
L 290.061525 289.875 
L 268.366425 289.875 
z
" style="fill: #1a1a1a; opacity: 0.25; stroke: #1a1a1a; stroke-width: 0.1; stroke-linejoin: miter"/>
   </g>
   <g id="patch_12">
    <path d="M 290.061525 289.875 
L 311.756625 289.875 
L 311.756625 289.875 
L 290.061525 289.875 
z
" style="fill: #1a1a1a; opacity: 0.25; stroke: #1a1a1a; stroke-width: 0.1; stroke-linejoin: miter"/>
   </g>
   <g id="patch_13">
    <path d="M 311.756625 289.875 
L 333.451725 289.875 
L 333.451725 289.875 
L 311.756625 289.875 
z
" style="fill: #1a1a1a; opacity: 0.25; stroke: #1a1a1a; stroke-width: 0.1; stroke-linejoin: miter"/>
   </g>
   <g id="patch_14">
    <path d="M 333.451725 289.875 
L 355.146825 289.875 
L 355.146825 289.875 
L 333.451725 289.875 
z
" style="fill: #1a1a1a; opacity: 0.25; stroke: #1a1a1a; stroke-width: 0.1; stroke-linejoin: miter"/>
   </g>
   <g id="patch_15">
    <path d="M 355.146825 289.875 
L 376.841925 289.875 
L 376.841925 289.875 
L 355.146825 289.875 
z
" style="fill: #1a1a1a; opacity: 0.25; stroke: #1a1a1a; stroke-width: 0.1; stroke-linejoin: miter"/>
   </g>
   <g id="patch_16">
    <path d="M 94.805625 289.875 
L 94.805625 18.68625 
" style="fill: none; stroke: #262626; stroke-width: 1.25; stroke-linejoin: miter; stroke-linecap: square"/>
   </g>
   <g id="patch_17">
    <path d="M 94.805625 289.875 
L 365.994375 289.875 
" style="fill: none; stroke: #262626; stroke-width: 1.25; stroke-linejoin: miter; stroke-linecap: square"/>
   </g>
  </g>
  <g id="axes_2">
   <g id="matplotlib.axis_3">
    <g id="ytick_5">
     <g id="line2d_12">
      <defs>
       <path id="m0ac4c38b30" d="M 0 0 
L 6 0 
" style="stroke: #1f77b4; stroke-width: 1.25"/>
      </defs>
      <g>
       <use xlink:href="#m0ac4c38b30" x="365.994375" y="289.875" style="fill: #1f77b4; stroke: #1f77b4; stroke-width: 1.25"/>
      </g>
     </g>
     <g id="text_14">
      <text style="fill: #1f77b4; font: 16px 'Arial', 'DejaVu Sans', 'Liberation Sans', 'Bitstream Vera Sans', sans-serif; text-anchor: start" x="375.494375" y="295.60125" transform="rotate(-0 375.494375 295.60125)">0.0</text>
     </g>
    </g>
    <g id="ytick_6">
     <g id="line2d_13">
      <g>
       <use xlink:href="#m0ac4c38b30" x="365.994375" y="235.63725" style="fill: #1f77b4; stroke: #1f77b4; stroke-width: 1.25"/>
      </g>
     </g>
     <g id="text_15">
      <text style="fill: #1f77b4; font: 16px 'Arial', 'DejaVu Sans', 'Liberation Sans', 'Bitstream Vera Sans', sans-serif; text-anchor: start" x="375.494375" y="241.3635" transform="rotate(-0 375.494375 241.3635)">0.2</text>
     </g>
    </g>
    <g id="ytick_7">
     <g id="line2d_14">
      <g>
       <use xlink:href="#m0ac4c38b30" x="365.994375" y="181.3995" style="fill: #1f77b4; stroke: #1f77b4; stroke-width: 1.25"/>
      </g>
     </g>
     <g id="text_16">
      <text style="fill: #1f77b4; font: 16px 'Arial', 'DejaVu Sans', 'Liberation Sans', 'Bitstream Vera Sans', sans-serif; text-anchor: start" x="375.494375" y="187.12575" transform="rotate(-0 375.494375 187.12575)">0.4</text>
     </g>
    </g>
    <g id="ytick_8">
     <g id="line2d_15">
      <g>
       <use xlink:href="#m0ac4c38b30" x="365.994375" y="127.16175" style="fill: #1f77b4; stroke: #1f77b4; stroke-width: 1.25"/>
      </g>
     </g>
     <g id="text_17">
      <text style="fill: #1f77b4; font: 16px 'Arial', 'DejaVu Sans', 'Liberation Sans', 'Bitstream Vera Sans', sans-serif; text-anchor: start" x="375.494375" y="132.888" transform="rotate(-0 375.494375 132.888)">0.6</text>
     </g>
    </g>
    <g id="ytick_9">
     <g id="line2d_16">
      <g>
       <use xlink:href="#m0ac4c38b30" x="365.994375" y="72.924" style="fill: #1f77b4; stroke: #1f77b4; stroke-width: 1.25"/>
      </g>
     </g>
     <g id="text_18">
      <text style="fill: #1f77b4; font: 16px 'Arial', 'DejaVu Sans', 'Liberation Sans', 'Bitstream Vera Sans', sans-serif; text-anchor: start" x="375.494375" y="78.65025" transform="rotate(-0 375.494375 78.65025)">0.8</text>
     </g>
    </g>
    <g id="ytick_10">
     <g id="line2d_17">
      <g>
       <use xlink:href="#m0ac4c38b30" x="365.994375" y="18.68625" style="fill: #1f77b4; stroke: #1f77b4; stroke-width: 1.25"/>
      </g>
     </g>
     <g id="text_19">
      <text style="fill: #1f77b4; font: 16px 'Arial', 'DejaVu Sans', 'Liberation Sans', 'Bitstream Vera Sans', sans-serif; text-anchor: start" x="375.494375" y="24.4125" transform="rotate(-0 375.494375 24.4125)">1.0</text>
     </g>
    </g>
    <g id="text_20">
     <text style="fill: #1f77b4; font: 16px 'Arial', 'DejaVu Sans', 'Liberation Sans', 'Bitstream Vera Sans', sans-serif; text-anchor: middle" x="413.381875" y="154.280625" transform="rotate(-90 413.381875 154.280625)">End-of-outbreak-probability</text>
    </g>
   </g>
   <g id="PolyCollection_1">
    <defs>
     <path id="m994a2709eb" d="M 105.653175 -250.559832 
L 105.653175 -250.559832 
L 127.348275 -132.911955 
L 149.043375 -61.299851 
L 170.738475 -72.66101 
L 192.433575 -59.670644 
L 214.128675 -76.693591 
L 235.823775 -151.203274 
L 257.518875 -236.046328 
L 279.213975 -286.925215 
L 300.909075 -311.074937 
L 322.604175 -321.084878 
L 344.299275 -324.894919 
L 365.994375 -326.244433 
L 365.994375 -326.614743 
L 365.994375 -326.614743 
L 344.299275 -326.023162 
L 322.604175 -324.360366 
L 300.909075 -319.374857 
L 279.213975 -307.533673 
L 257.518875 -280.201029 
L 235.823775 -225.804259 
L 214.128675 -137.786858 
L 192.433575 -100.980167 
L 170.738475 -114.244064 
L 149.043375 -77.101009 
L 127.348275 -132.911955 
L 105.653175 -250.559832 
z
" style="stroke: #ffffff; stroke-opacity: 0.5"/>
    </defs>
    <g>
     <use xlink:href="#m994a2709eb" x="0" y="345.6" style="fill: #4c72b0; fill-opacity: 0.5; stroke: #ffffff; stroke-opacity: 0.5"/>
    </g>
   </g>
   <g id="line2d_18">
    <path d="M 105.653175 95.040168 
L 127.348275 212.688045 
L 149.043375 274.242426 
L 170.738475 247.505783 
L 192.433575 270.77512 
L 214.128675 241.735951 
L 235.823775 155.133365 
L 257.518875 84.510175 
L 279.213975 46.501748 
L 300.909075 29.515464 
L 322.604175 22.572278 
L 344.299275 20.011007 
L 365.994375 19.082495 
" style="fill: none; stroke: #4c72b0; stroke-width: 2; stroke-linecap: round"/>
   </g>
   <g id="line2d_19">
    <path d="M 105.653175 95.040168 
L 127.348275 212.688045 
L 149.043375 284.300149 
L 170.738475 272.93899 
L 192.433575 275.959717 
L 214.128675 249.222646 
L 235.823775 165.440817 
L 257.518875 91.194531 
L 279.213975 49.396165 
L 300.909075 30.626797 
L 322.604175 23.063571 
L 344.299275 20.121378 
L 365.994375 19.077882 
" style="fill: none; stroke-dasharray: 7.4,3.2; stroke-dashoffset: 0; stroke: #1a1a1a; stroke-width: 2"/>
   </g>
   <g id="line2d_20">
    <path d="M 105.653175 95.040168 
L 127.348275 140.730696 
L 149.043375 225.892719 
L 170.738475 224.616597 
L 192.433575 252.186856 
L 214.128675 240.973908 
L 235.823775 201.091491 
L 257.518875 146.40507 
L 279.213975 92.135877 
L 300.909075 53.690452 
L 322.604175 33.147139 
L 344.299275 24.137416 
L 365.994375 20.545857 
" style="fill: none; stroke: #dd8452; stroke-width: 2; stroke-linecap: round"/>
   </g>
   <g id="line2d_21">
    <defs>
     <path id="m35d48df156" d="M 0 5 
C 1.326016 5 2.597899 4.473168 3.535534 3.535534 
C 4.473168 2.597899 5 1.326016 5 0 
C 5 -1.326016 4.473168 -2.597899 3.535534 -3.535534 
C 2.597899 -4.473168 1.326016 -5 0 -5 
C -1.326016 -5 -2.597899 -4.473168 -3.535534 -3.535534 
C -4.473168 -2.597899 -5 -1.326016 -5 0 
C -5 1.326016 -4.473168 2.597899 -3.535534 3.535534 
C -2.597899 4.473168 -1.326016 5 0 5 
z
" style="stroke: #c44e52"/>
    </defs>
    <g>
     <use xlink:href="#m35d48df156" x="105.653175" y="95.040168" style="fill: #c44e52; stroke: #c44e52"/>
     <use xlink:href="#m35d48df156" x="127.348275" y="212.688045" style="fill: #c44e52; stroke: #c44e52"/>
     <use xlink:href="#m35d48df156" x="149.043375" y="274.375658" style="fill: #c44e52; stroke: #c44e52"/>
     <use xlink:href="#m35d48df156" x="170.738475" y="247.609167" style="fill: #c44e52; stroke: #c44e52"/>
     <use xlink:href="#m35d48df156" x="192.433575" y="270.90596" style="fill: #c44e52; stroke: #c44e52"/>
     <use xlink:href="#m35d48df156" x="214.128675" y="242.006202" style="fill: #c44e52; stroke: #c44e52"/>
     <use xlink:href="#m35d48df156" x="235.823775" y="155.277038" style="fill: #c44e52; stroke: #c44e52"/>
     <use xlink:href="#m35d48df156" x="257.518875" y="84.738582" style="fill: #c44e52; stroke: #c44e52"/>
     <use xlink:href="#m35d48df156" x="279.213975" y="46.500549" style="fill: #c44e52; stroke: #c44e52"/>
     <use xlink:href="#m35d48df156" x="300.909075" y="29.51866" style="fill: #c44e52; stroke: #c44e52"/>
     <use xlink:href="#m35d48df156" x="322.604175" y="22.564932" style="fill: #c44e52; stroke: #c44e52"/>
     <use xlink:href="#m35d48df156" x="344.299275" y="20.006905" style="fill: #c44e52; stroke: #c44e52"/>
     <use xlink:href="#m35d48df156" x="365.994375" y="19.080563" style="fill: #c44e52; stroke: #c44e52"/>
    </g>
   </g>
   <g id="line2d_22">
    <defs>
     <path id="m29d522db3d" d="M 0 -5 
L -5 5 
L 5 5 
z
" style="stroke: #ccb974; stroke-linejoin: miter"/>
    </defs>
    <g>
     <use xlink:href="#m29d522db3d" x="105.653175" y="94.103841" style="fill: #ccb974; stroke: #ccb974; stroke-linejoin: miter"/>
     <use xlink:href="#m29d522db3d" x="127.348275" y="213.155703" style="fill: #ccb974; stroke: #ccb974; stroke-linejoin: miter"/>
     <use xlink:href="#m29d522db3d" x="149.043375" y="275.854542" style="fill: #ccb974; stroke: #ccb974; stroke-linejoin: miter"/>
     <use xlink:href="#m29d522db3d" x="170.738475" y="245.481402" style="fill: #ccb974; stroke: #ccb974; stroke-linejoin: miter"/>
     <use xlink:href="#m29d522db3d" x="192.433575" y="271.32569" style="fill: #ccb974; stroke: #ccb974; stroke-linejoin: miter"/>
     <use xlink:href="#m29d522db3d" x="214.128675" y="242.823752" style="fill: #ccb974; stroke: #ccb974; stroke-linejoin: miter"/>
     <use xlink:href="#m29d522db3d" x="235.823775" y="156.178946" style="fill: #ccb974; stroke: #ccb974; stroke-linejoin: miter"/>
     <use xlink:href="#m29d522db3d" x="257.518875" y="84.313927" style="fill: #ccb974; stroke: #ccb974; stroke-linejoin: miter"/>
     <use xlink:href="#m29d522db3d" x="279.213975" y="45.45258" style="fill: #ccb974; stroke: #ccb974; stroke-linejoin: miter"/>
     <use xlink:href="#m29d522db3d" x="300.909075" y="28.421926" style="fill: #ccb974; stroke: #ccb974; stroke-linejoin: miter"/>
     <use xlink:href="#m29d522db3d" x="322.604175" y="21.777802" style="fill: #ccb974; stroke: #ccb974; stroke-linejoin: miter"/>
     <use xlink:href="#m29d522db3d" x="344.299275" y="19.635411" style="fill: #ccb974; stroke: #ccb974; stroke-linejoin: miter"/>
     <use xlink:href="#m29d522db3d" x="365.994375" y="18.848963" style="fill: #ccb974; stroke: #ccb974; stroke-linejoin: miter"/>
    </g>
   </g>
   <g id="patch_18">
    <path d="M 94.805625 289.875 
L 94.805625 18.68625 
" style="fill: none; stroke: #262626; stroke-width: 1.25; stroke-linejoin: miter; stroke-linecap: square"/>
   </g>
   <g id="patch_19">
    <path d="M 365.994375 289.875 
L 365.994375 18.68625 
" style="fill: none; stroke: #1f77b4; stroke-width: 1.25; stroke-linejoin: miter; stroke-linecap: square"/>
   </g>
   <g id="patch_20">
    <path d="M 94.805625 289.875 
L 365.994375 289.875 
" style="fill: none; stroke: #262626; stroke-width: 1.25; stroke-linejoin: miter; stroke-linecap: square"/>
   </g>
  </g>
 </g>
</svg>
