<?xml version="1.0" encoding="utf-8" standalone="no"?>
<!DOCTYPE svg PUBLIC "-//W3C//DTD SVG 1.1//EN"
  "http://www.w3.org/Graphics/SVG/1.1/DTD/svg11.dtd">
<svg xmlns:xlink="http://www.w3.org/1999/xlink" width="460.8pt" height="345.6pt" viewBox="0 0 460.8 345.6" xmlns="http://www.w3.org/2000/svg" version="1.1">
 <metadata>
  <rdf:RDF xmlns:dc="http://purl.org/dc/elements/1.1/" xmlns:cc="http://creativecommons.org/ns#" xmlns:rdf="http://www.w3.org/1999/02/22-rdf-syntax-ns#">
   <cc:Work>
    <dc:type rdf:resource="http://purl.org/dc/dcmitype/StillImage"/>
    <dc:date>2024-04-29T12:48:39.841569</dc:date>
    <dc:format>image/svg+xml</dc:format>
    <dc:creator>
     <cc:Agent>
      <dc:title>Matplotlib v3.8.2, https://matplotlib.org/</dc:title>
     </cc:Agent>
    </dc:creator>
   </cc:Work>
  </rdf:RDF>
 </metadata>
 <defs>
  <style type="text/css">*{stroke-linejoin: round; stroke-linecap: butt}</style>
 </defs>
 <g id="figure_1">
  <g id="patch_1">
   <path d="M 0 345.6 
L 460.8 345.6 
L 460.8 0 
L 0 0 
L 0 345.6 
z
" style="fill: none"/>
  </g>
  <g id="axes_1">
   <g id="patch_2">
    <path d="M 94.996875 289.4925 
L 365.803125 289.4925 
L 365.803125 18.68625 
L 94.996875 18.68625 
L 94.996875 289.4925 
z
" style="fill: none"/>
   </g>
   <g id="matplotlib.axis_1">
    <g id="xtick_1">
     <g id="line2d_1">
      <defs>
       <path id="m6b5308e50b" d="M 0 0 
L 0 6 
" style="stroke: #262626; stroke-width: 1.25"/>
      </defs>
      <g>
       <use xlink:href="#m6b5308e50b" x="111.755422" y="289.4925" style="fill: #262626; stroke: #262626; stroke-width: 1.25"/>
      </g>
     </g>
     <g id="text_1">
      <text style="fill: #262626; font: 16px 'Arial', 'DejaVu Sans', 'Liberation Sans', 'Bitstream Vera Sans', sans-serif; text-anchor: middle" x="111.755422" y="310.445" transform="rotate(-0 111.755422 310.445)">5</text>
     </g>
    </g>
    <g id="xtick_2">
     <g id="line2d_2">
      <g>
       <use xlink:href="#m6b5308e50b" x="141.416566" y="289.4925" style="fill: #262626; stroke: #262626; stroke-width: 1.25"/>
      </g>
     </g>
     <g id="text_2">
      <text style="fill: #262626; font: 16px 'Arial', 'DejaVu Sans', 'Liberation Sans', 'Bitstream Vera Sans', sans-serif; text-anchor: middle" x="141.416566" y="310.445" transform="rotate(-0 141.416566 310.445)">4</text>
     </g>
    </g>
    <g id="xtick_3">
     <g id="line2d_3">
      <g>
       <use xlink:href="#m6b5308e50b" x="171.077711" y="289.4925" style="fill: #262626; stroke: #262626; stroke-width: 1.25"/>
      </g>
     </g>
     <g id="text_3">
      <text style="fill: #262626; font: 16px 'Arial', 'DejaVu Sans', 'Liberation Sans', 'Bitstream Vera Sans', sans-serif; text-anchor: middle" x="171.077711" y="310.445" transform="rotate(-0 171.077711 310.445)">3</text>
     </g>
    </g>
    <g id="xtick_4">
     <g id="line2d_4">
      <g>
       <use xlink:href="#m6b5308e50b" x="200.738855" y="289.4925" style="fill: #262626; stroke: #262626; stroke-width: 1.25"/>
      </g>
     </g>
     <g id="text_4">
      <text style="fill: #262626; font: 16px 'Arial', 'DejaVu Sans', 'Liberation Sans', 'Bitstream Vera Sans', sans-serif; text-anchor: middle" x="200.738855" y="310.445" transform="rotate(-0 200.738855 310.445)">2</text>
     </g>
    </g>
    <g id="xtick_5">
     <g id="line2d_5">
      <g>
       <use xlink:href="#m6b5308e50b" x="230.4" y="289.4925" style="fill: #262626; stroke: #262626; stroke-width: 1.25"/>
      </g>
     </g>
     <g id="text_5">
      <text style="fill: #262626; font: 16px 'Arial', 'DejaVu Sans', 'Liberation Sans', 'Bitstream Vera Sans', sans-serif; text-anchor: middle" x="230.4" y="310.445" transform="rotate(-0 230.4 310.445)">1</text>
     </g>
    </g>
    <g id="xtick_6">
     <g id="line2d_6">
      <g>
       <use xlink:href="#m6b5308e50b" x="260.061145" y="289.4925" style="fill: #262626; stroke: #262626; stroke-width: 1.25"/>
      </g>
     </g>
     <g id="text_6">
      <text style="fill: #262626; font: 16px 'Arial', 'DejaVu Sans', 'Liberation Sans', 'Bitstream Vera Sans', sans-serif; text-anchor: middle" x="260.061145" y="310.445" transform="rotate(-0 260.061145 310.445)">0.8</text>
     </g>
    </g>
    <g id="xtick_7">
     <g id="line2d_7">
      <g>
       <use xlink:href="#m6b5308e50b" x="289.722289" y="289.4925" style="fill: #262626; stroke: #262626; stroke-width: 1.25"/>
      </g>
     </g>
     <g id="text_7">
      <text style="fill: #262626; font: 16px 'Arial', 'DejaVu Sans', 'Liberation Sans', 'Bitstream Vera Sans', sans-serif; text-anchor: middle" x="289.722289" y="310.445" transform="rotate(-0 289.722289 310.445)">0.6</text>
     </g>
    </g>
    <g id="xtick_8">
     <g id="line2d_8">
      <g>
       <use xlink:href="#m6b5308e50b" x="319.383434" y="289.4925" style="fill: #262626; stroke: #262626; stroke-width: 1.25"/>
      </g>
     </g>
     <g id="text_8">
      <text style="fill: #262626; font: 16px 'Arial', 'DejaVu Sans', 'Liberation Sans', 'Bitstream Vera Sans', sans-serif; text-anchor: middle" x="319.383434" y="310.445" transform="rotate(-0 319.383434 310.445)">0.4</text>
     </g>
    </g>
    <g id="xtick_9">
     <g id="line2d_9">
      <g>
       <use xlink:href="#m6b5308e50b" x="349.044578" y="289.4925" style="fill: #262626; stroke: #262626; stroke-width: 1.25"/>
      </g>
     </g>
     <g id="text_9">
      <text style="fill: #262626; font: 16px 'Arial', 'DejaVu Sans', 'Liberation Sans', 'Bitstream Vera Sans', sans-serif; text-anchor: middle" x="349.044578" y="310.445" transform="rotate(-0 349.044578 310.445)">0.2</text>
     </g>
    </g>
    <g id="text_10">
     <text style="fill: #262626; font: 16px 'Arial', 'DejaVu Sans', 'Liberation Sans', 'Bitstream Vera Sans', sans-serif; text-anchor: middle" x="230.4" y="329.2725" transform="rotate(-0 230.4 329.2725)">Threshold risk of additional cases (%)</text>
    </g>
   </g>
   <g id="matplotlib.axis_2">
    <g id="ytick_1">
     <g id="line2d_10">
      <defs>
       <path id="m75be8fe465" d="M 0 0 
L -6 0 
" style="stroke: #262626; stroke-width: 1.25"/>
      </defs>
      <g>
       <use xlink:href="#m75be8fe465" x="94.996875" y="289.4925" style="fill: #262626; stroke: #262626; stroke-width: 1.25"/>
      </g>
     </g>
     <g id="text_11">
      <text style="fill: #262626; font: 16px 'Arial', 'DejaVu Sans', 'Liberation Sans', 'Bitstream Vera Sans', sans-serif; text-anchor: end" x="85.496875" y="295.21875" transform="rotate(-0 85.496875 295.21875)">0</text>
     </g>
    </g>
    <g id="ytick_2">
     <g id="line2d_11">
      <g>
       <use xlink:href="#m75be8fe465" x="94.996875" y="259.402917" style="fill: #262626; stroke: #262626; stroke-width: 1.25"/>
      </g>
     </g>
     <g id="text_12">
      <text style="fill: #262626; font: 16px 'Arial', 'DejaVu Sans', 'Liberation Sans', 'Bitstream Vera Sans', sans-serif; text-anchor: end" x="85.496875" y="265.129167" transform="rotate(-0 85.496875 265.129167)">1</text>
     </g>
    </g>
    <g id="ytick_3">
     <g id="line2d_12">
      <g>
       <use xlink:href="#m75be8fe465" x="94.996875" y="229.313333" style="fill: #262626; stroke: #262626; stroke-width: 1.25"/>
      </g>
     </g>
     <g id="text_13">
      <text style="fill: #262626; font: 16px 'Arial', 'DejaVu Sans', 'Liberation Sans', 'Bitstream Vera Sans', sans-serif; text-anchor: end" x="85.496875" y="235.039583" transform="rotate(-0 85.496875 235.039583)">2</text>
     </g>
    </g>
    <g id="ytick_4">
     <g id="line2d_13">
      <g>
       <use xlink:href="#m75be8fe465" x="94.996875" y="199.22375" style="fill: #262626; stroke: #262626; stroke-width: 1.25"/>
      </g>
     </g>
     <g id="text_14">
      <text style="fill: #262626; font: 16px 'Arial', 'DejaVu Sans', 'Liberation Sans', 'Bitstream Vera Sans', sans-serif; text-anchor: end" x="85.496875" y="204.95" transform="rotate(-0 85.496875 204.95)">3</text>
     </g>
    </g>
    <g id="ytick_5">
     <g id="line2d_14">
      <g>
       <use xlink:href="#m75be8fe465" x="94.996875" y="169.134167" style="fill: #262626; stroke: #262626; stroke-width: 1.25"/>
      </g>
     </g>
     <g id="text_15">
      <text style="fill: #262626; font: 16px 'Arial', 'DejaVu Sans', 'Liberation Sans', 'Bitstream Vera Sans', sans-serif; text-anchor: end" x="85.496875" y="174.860417" transform="rotate(-0 85.496875 174.860417)">4</text>
     </g>
    </g>
    <g id="ytick_6">
     <g id="line2d_15">
      <g>
       <use xlink:href="#m75be8fe465" x="94.996875" y="139.044583" style="fill: #262626; stroke: #262626; stroke-width: 1.25"/>
      </g>
     </g>
     <g id="text_16">
      <text style="fill: #262626; font: 16px 'Arial', 'DejaVu Sans', 'Liberation Sans', 'Bitstream Vera Sans', sans-serif; text-anchor: end" x="85.496875" y="144.770833" transform="rotate(-0 85.496875 144.770833)">5</text>
     </g>
    </g>
    <g id="ytick_7">
     <g id="line2d_16">
      <g>
       <use xlink:href="#m75be8fe465" x="94.996875" y="108.955" style="fill: #262626; stroke: #262626; stroke-width: 1.25"/>
      </g>
     </g>
     <g id="text_17">
      <text style="fill: #262626; font: 16px 'Arial', 'DejaVu Sans', 'Liberation Sans', 'Bitstream Vera Sans', sans-serif; text-anchor: end" x="85.496875" y="114.68125" transform="rotate(-0 85.496875 114.68125)">6</text>
     </g>
    </g>
    <g id="ytick_8">
     <g id="line2d_17">
      <g>
       <use xlink:href="#m75be8fe465" x="94.996875" y="78.865417" style="fill: #262626; stroke: #262626; stroke-width: 1.25"/>
      </g>
     </g>
     <g id="text_18">
      <text style="fill: #262626; font: 16px 'Arial', 'DejaVu Sans', 'Liberation Sans', 'Bitstream Vera Sans', sans-serif; text-anchor: end" x="85.496875" y="84.591667" transform="rotate(-0 85.496875 84.591667)">7</text>
     </g>
    </g>
    <g id="ytick_9">
     <g id="line2d_18">
      <g>
       <use xlink:href="#m75be8fe465" x="94.996875" y="48.775833" style="fill: #262626; stroke: #262626; stroke-width: 1.25"/>
      </g>
     </g>
     <g id="text_19">
      <text style="fill: #262626; font: 16px 'Arial', 'DejaVu Sans', 'Liberation Sans', 'Bitstream Vera Sans', sans-serif; text-anchor: end" x="85.496875" y="54.502083" transform="rotate(-0 85.496875 54.502083)">8</text>
     </g>
    </g>
    <g id="ytick_10">
     <g id="line2d_19">
      <g>
       <use xlink:href="#m75be8fe465" x="94.996875" y="18.68625" style="fill: #262626; stroke: #262626; stroke-width: 1.25"/>
      </g>
     </g>
     <g id="text_20">
      <text style="fill: #262626; font: 16px 'Arial', 'DejaVu Sans', 'Liberation Sans', 'Bitstream Vera Sans', sans-serif; text-anchor: end" x="85.496875" y="24.4125" transform="rotate(-0 85.496875 24.4125)">9</text>
     </g>
    </g>
    <g id="text_21">
     <text style="fill: #262626; font: 16px 'Arial', 'DejaVu Sans', 'Liberation Sans', 'Bitstream Vera Sans', sans-serif; text-anchor: middle" x="69.231875" y="154.089375" transform="rotate(-90 69.231875 154.089375)">Days from final case to declaration</text>
    </g>
   </g>
   <g id="line2d_20"/>
   <g id="line2d_21">
    <path d="M 107.30625 169.134167 
L 116.204593 169.134167 
M 111.755422 169.134167 
L 111.755422 139.044583 
M 107.30625 139.044583 
L 116.204593 139.044583 
" clip-path="url(#pc19a6e3bf8)" style="fill: none; stroke: #1f77b4; stroke-width: 1.5; stroke-linecap: round"/>
   </g>
   <g id="line2d_22">
    <path d="M 136.967395 169.134167 
L 145.865738 169.134167 
M 141.416566 169.134167 
L 141.416566 139.044583 
M 136.967395 139.044583 
L 145.865738 139.044583 
" clip-path="url(#pc19a6e3bf8)" style="fill: none; stroke: #1f77b4; stroke-width: 1.5; stroke-linecap: round"/>
   </g>
   <g id="line2d_23">
    <path d="M 166.628539 169.134167 
L 175.526883 169.134167 
M 171.077711 169.134167 
L 171.077711 139.044583 
M 166.628539 139.044583 
L 175.526883 139.044583 
" clip-path="url(#pc19a6e3bf8)" style="fill: none; stroke: #1f77b4; stroke-width: 1.5; stroke-linecap: round"/>
   </g>
   <g id="line2d_24">
    <path d="M 196.289684 139.044583 
L 205.188027 139.044583 
M 200.738855 139.044583 
L 200.738855 108.955 
M 196.289684 108.955 
L 205.188027 108.955 
" clip-path="url(#pc19a6e3bf8)" style="fill: none; stroke: #1f77b4; stroke-width: 1.5; stroke-linecap: round"/>
   </g>
   <g id="line2d_25">
    <path d="M 225.950828 139.044583 
L 234.849172 139.044583 
M 230.4 139.044583 
L 230.4 108.955 
M 225.950828 108.955 
L 234.849172 108.955 
" clip-path="url(#pc19a6e3bf8)" style="fill: none; stroke: #1f77b4; stroke-width: 1.5; stroke-linecap: round"/>
   </g>
   <g id="line2d_26">
    <path d="M 255.611973 108.955 
L 264.510316 108.955 
M 260.061145 108.955 
L 260.061145 108.955 
M 255.611973 108.955 
L 264.510316 108.955 
" clip-path="url(#pc19a6e3bf8)" style="fill: none; stroke: #1f77b4; stroke-width: 1.5; stroke-linecap: round"/>
   </g>
   <g id="line2d_27">
    <path d="M 285.273117 108.955 
L 294.171461 108.955 
M 289.722289 108.955 
L 289.722289 78.865417 
M 285.273117 78.865417 
L 294.171461 78.865417 
" clip-path="url(#pc19a6e3bf8)" style="fill: none; stroke: #1f77b4; stroke-width: 1.5; stroke-linecap: round"/>
   </g>
   <g id="line2d_28">
    <path d="M 314.934262 108.955 
L 323.832605 108.955 
M 319.383434 108.955 
L 319.383434 78.865417 
M 314.934262 78.865417 
L 323.832605 78.865417 
" clip-path="url(#pc19a6e3bf8)" style="fill: none; stroke: #1f77b4; stroke-width: 1.5; stroke-linecap: round"/>
   </g>
   <g id="line2d_29">
    <path d="M 344.595407 78.865417 
L 353.49375 78.865417 
M 349.044578 78.865417 
L 349.044578 48.775833 
M 344.595407 48.775833 
L 353.49375 48.775833 
" clip-path="url(#pc19a6e3bf8)" style="fill: none; stroke: #1f77b4; stroke-width: 1.5; stroke-linecap: round"/>
   </g>
   <g id="line2d_30">
    <defs>
     <path id="me6fd4012ce" d="M 0 3.75 
C 0.994512 3.75 1.948425 3.354876 2.65165 2.65165 
C 3.354876 1.948425 3.75 0.994512 3.75 0 
C 3.75 -0.994512 3.354876 -1.948425 2.65165 -2.65165 
C 1.948425 -3.354876 0.994512 -3.75 0 -3.75 
C -0.994512 -3.75 -1.948425 -3.354876 -2.65165 -2.65165 
C -3.354876 -1.948425 -3.75 -0.994512 -3.75 0 
C -3.75 0.994512 -3.354876 1.948425 -2.65165 2.65165 
C -1.948425 3.354876 -0.994512 3.75 0 3.75 
z
" style="stroke: #4c72b0"/>
    </defs>
    <g clip-path="url(#pc19a6e3bf8)">
     <use xlink:href="#me6fd4012ce" x="111.755422" y="169.134167" style="fill: #4c72b0; stroke: #4c72b0"/>
     <use xlink:href="#me6fd4012ce" x="141.416566" y="169.134167" style="fill: #4c72b0; stroke: #4c72b0"/>
     <use xlink:href="#me6fd4012ce" x="171.077711" y="139.044583" style="fill: #4c72b0; stroke: #4c72b0"/>
     <use xlink:href="#me6fd4012ce" x="200.738855" y="139.044583" style="fill: #4c72b0; stroke: #4c72b0"/>
     <use xlink:href="#me6fd4012ce" x="230.4" y="108.955" style="fill: #4c72b0; stroke: #4c72b0"/>
     <use xlink:href="#me6fd4012ce" x="260.061145" y="108.955" style="fill: #4c72b0; stroke: #4c72b0"/>
     <use xlink:href="#me6fd4012ce" x="289.722289" y="108.955" style="fill: #4c72b0; stroke: #4c72b0"/>
     <use xlink:href="#me6fd4012ce" x="319.383434" y="78.865417" style="fill: #4c72b0; stroke: #4c72b0"/>
     <use xlink:href="#me6fd4012ce" x="349.044578" y="78.865417" style="fill: #4c72b0; stroke: #4c72b0"/>
    </g>
   </g>
   <g id="line2d_31">
    <defs>
     <path id="mb4d3d24716" d="M -3.75 3.75 
L 3.75 -3.75 
M -3.75 -3.75 
L 3.75 3.75 
" style="stroke: #1a1a1a"/>
    </defs>
    <g clip-path="url(#pc19a6e3bf8)">
     <use xlink:href="#mb4d3d24716" x="111.755422" y="169.134167" style="fill: #1a1a1a; stroke: #1a1a1a"/>
     <use xlink:href="#mb4d3d24716" x="141.416566" y="139.044583" style="fill: #1a1a1a; stroke: #1a1a1a"/>
     <use xlink:href="#mb4d3d24716" x="171.077711" y="139.044583" style="fill: #1a1a1a; stroke: #1a1a1a"/>
     <use xlink:href="#mb4d3d24716" x="200.738855" y="139.044583" style="fill: #1a1a1a; stroke: #1a1a1a"/>
     <use xlink:href="#mb4d3d24716" x="230.4" y="108.955" style="fill: #1a1a1a; stroke: #1a1a1a"/>
     <use xlink:href="#mb4d3d24716" x="260.061145" y="108.955" style="fill: #1a1a1a; stroke: #1a1a1a"/>
     <use xlink:href="#mb4d3d24716" x="289.722289" y="108.955" style="fill: #1a1a1a; stroke: #1a1a1a"/>
     <use xlink:href="#mb4d3d24716" x="319.383434" y="78.865417" style="fill: #1a1a1a; stroke: #1a1a1a"/>
     <use xlink:href="#mb4d3d24716" x="349.044578" y="78.865417" style="fill: #1a1a1a; stroke: #1a1a1a"/>
    </g>
   </g>
   <g id="line2d_32">
    <defs>
     <path id="m8a5e9b54f0" d="M 0 3.75 
C 0.994512 3.75 1.948425 3.354876 2.65165 2.65165 
C 3.354876 1.948425 3.75 0.994512 3.75 0 
C 3.75 -0.994512 3.354876 -1.948425 2.65165 -2.65165 
C 1.948425 -3.354876 0.994512 -3.75 0 -3.75 
C -0.994512 -3.75 -1.948425 -3.354876 -2.65165 -2.65165 
C -3.354876 -1.948425 -3.75 -0.994512 -3.75 0 
C -3.75 0.994512 -3.354876 1.948425 -2.65165 2.65165 
C -1.948425 3.354876 -0.994512 3.75 0 3.75 
z
" style="stroke: #dd8452"/>
    </defs>
    <g clip-path="url(#pc19a6e3bf8)">
     <use xlink:href="#m8a5e9b54f0" x="111.755422" y="108.955" style="fill: #dd8452; stroke: #dd8452"/>
     <use xlink:href="#m8a5e9b54f0" x="141.416566" y="108.955" style="fill: #dd8452; stroke: #dd8452"/>
     <use xlink:href="#m8a5e9b54f0" x="171.077711" y="108.955" style="fill: #dd8452; stroke: #dd8452"/>
     <use xlink:href="#m8a5e9b54f0" x="200.738855" y="78.865417" style="fill: #dd8452; stroke: #dd8452"/>
     <use xlink:href="#m8a5e9b54f0" x="230.4" y="78.865417" style="fill: #dd8452; stroke: #dd8452"/>
     <use xlink:href="#m8a5e9b54f0" x="260.061145" y="78.865417" style="fill: #dd8452; stroke: #dd8452"/>
     <use xlink:href="#m8a5e9b54f0" x="289.722289" y="48.775833" style="fill: #dd8452; stroke: #dd8452"/>
     <use xlink:href="#m8a5e9b54f0" x="319.383434" y="48.775833" style="fill: #dd8452; stroke: #dd8452"/>
     <use xlink:href="#m8a5e9b54f0" x="349.044578" y="18.68625" style="fill: #dd8452; stroke: #dd8452"/>
    </g>
   </g>
   <g id="patch_3">
    <path d="M 94.996875 289.4925 
L 94.996875 18.68625 
" style="fill: none; stroke: #262626; stroke-width: 1.25; stroke-linejoin: miter; stroke-linecap: square"/>
   </g>
   <g id="patch_4">
    <path d="M 94.996875 289.4925 
L 365.803125 289.4925 
" style="fill: none; stroke: #262626; stroke-width: 1.25; stroke-linejoin: miter; stroke-linecap: square"/>
   </g>
   <g id="legend_1">
    <g id="patch_5">
     <path d="M 259.85375 89.296562 
L 356.003125 89.296562 
Q 358.803125 89.296562 358.803125 86.496562 
L 358.803125 28.48625 
Q 358.803125 25.68625 356.003125 25.68625 
L 259.85375 25.68625 
Q 257.05375 25.68625 257.05375 28.48625 
L 257.05375 86.496562 
Q 257.05375 89.296562 259.85375 89.296562 
z
" style="fill: #ffffff; opacity: 0.8; stroke: #cccccc; stroke-linejoin: miter"/>
    </g>
    <g id="line2d_33">
     <g>
      <use xlink:href="#me6fd4012ce" x="276.65375" y="36.407187" style="fill: #4c72b0; stroke: #4c72b0"/>
     </g>
    </g>
    <g id="text_22">
     <text style="fill: #262626; font: 14px 'Arial', 'DejaVu Sans', 'Liberation Sans', 'Bitstream Vera Sans', sans-serif; text-anchor: start" x="301.85375" y="41.307187" transform="rotate(-0 301.85375 41.307187)">MCMC</text>
    </g>
    <g id="line2d_34">
     <g>
      <use xlink:href="#mb4d3d24716" x="276.65375" y="56.210625" style="fill: #1a1a1a; stroke: #1a1a1a"/>
     </g>
    </g>
    <g id="text_23">
     <text style="fill: #262626; font: 14px 'Arial', 'DejaVu Sans', 'Liberation Sans', 'Bitstream Vera Sans', sans-serif; text-anchor: start" x="301.85375" y="61.110625" transform="rotate(-0 301.85375 61.110625)">Traced</text>
    </g>
    <g id="line2d_35">
     <g>
      <use xlink:href="#m8a5e9b54f0" x="276.65375" y="76.014062" style="fill: #dd8452; stroke: #dd8452"/>
     </g>
    </g>
    <g id="text_24">
     <text style="fill: #262626; font: 14px 'Arial', 'DejaVu Sans', 'Liberation Sans', 'Bitstream Vera Sans', sans-serif; text-anchor: start" x="301.85375" y="80.914062" transform="rotate(-0 301.85375 80.914062)">Nishiura</text>
    </g>
   </g>
  </g>
 </g>
 <defs>
  <clipPath id="pc19a6e3bf8">
   <rect x="94.996875" y="18.68625" width="270.80625" height="270.80625"/>
  </clipPath>
 </defs>
</svg>
