<?xml version="1.0" encoding="utf-8" standalone="no"?>
<!DOCTYPE svg PUBLIC "-//W3C//DTD SVG 1.1//EN"
  "http://www.w3.org/Graphics/SVG/1.1/DTD/svg11.dtd">
<svg xmlns:xlink="http://www.w3.org/1999/xlink" width="460.8pt" height="345.6pt" viewBox="0 0 460.8 345.6" xmlns="http://www.w3.org/2000/svg" version="1.1">
 <metadata>
  <rdf:RDF xmlns:dc="http://purl.org/dc/elements/1.1/" xmlns:cc="http://creativecommons.org/ns#" xmlns:rdf="http://www.w3.org/1999/02/22-rdf-syntax-ns#">
   <cc:Work>
    <dc:type rdf:resource="http://purl.org/dc/dcmitype/StillImage"/>
    <dc:date>2024-04-29T12:48:26.190808</dc:date>
    <dc:format>image/svg+xml</dc:format>
    <dc:creator>
     <cc:Agent>
      <dc:title>Matplotlib v3.8.2, https://matplotlib.org/</dc:title>
     </cc:Agent>
    </dc:creator>
   </cc:Work>
  </rdf:RDF>
 </metadata>
 <defs>
  <style type="text/css">*{stroke-linejoin: round; stroke-linecap: butt}</style>
 </defs>
 <g id="figure_1">
  <g id="patch_1">
   <path d="M 0 345.6 
L 460.8 345.6 
L 460.8 0 
L 0 0 
L 0 345.6 
z
" style="fill: none"/>
  </g>
  <g id="axes_1">
   <g id="patch_2">
    <path d="M 94.996875 289.4925 
L 365.803125 289.4925 
L 365.803125 18.68625 
L 94.996875 18.68625 
L 94.996875 289.4925 
z
" style="fill: none"/>
   </g>
   <g id="matplotlib.axis_1">
    <g id="xtick_1">
     <g id="line2d_1">
      <defs>
       <path id="m4b2229cde7" d="M 0 0 
L 0 6 
" style="stroke: #262626; stroke-width: 1.25"/>
      </defs>
      <g>
       <use xlink:href="#m4b2229cde7" x="97.678125" y="289.4925" style="fill: #262626; stroke: #262626; stroke-width: 1.25"/>
      </g>
     </g>
     <g id="text_1">
      <text style="fill: #262626; font: 16px 'Arial', 'DejaVu Sans', 'Liberation Sans', 'Bitstream Vera Sans', sans-serif; text-anchor: middle" x="97.678125" y="310.445" transform="rotate(-0 97.678125 310.445)">0</text>
     </g>
    </g>
    <g id="xtick_2">
     <g id="line2d_2">
      <g>
       <use xlink:href="#m4b2229cde7" x="151.303125" y="289.4925" style="fill: #262626; stroke: #262626; stroke-width: 1.25"/>
      </g>
     </g>
     <g id="text_2">
      <text style="fill: #262626; font: 16px 'Arial', 'DejaVu Sans', 'Liberation Sans', 'Bitstream Vera Sans', sans-serif; text-anchor: middle" x="151.303125" y="310.445" transform="rotate(-0 151.303125 310.445)">20</text>
     </g>
    </g>
    <g id="xtick_3">
     <g id="line2d_3">
      <g>
       <use xlink:href="#m4b2229cde7" x="204.928125" y="289.4925" style="fill: #262626; stroke: #262626; stroke-width: 1.25"/>
      </g>
     </g>
     <g id="text_3">
      <text style="fill: #262626; font: 16px 'Arial', 'DejaVu Sans', 'Liberation Sans', 'Bitstream Vera Sans', sans-serif; text-anchor: middle" x="204.928125" y="310.445" transform="rotate(-0 204.928125 310.445)">40</text>
     </g>
    </g>
    <g id="xtick_4">
     <g id="line2d_4">
      <g>
       <use xlink:href="#m4b2229cde7" x="258.553125" y="289.4925" style="fill: #262626; stroke: #262626; stroke-width: 1.25"/>
      </g>
     </g>
     <g id="text_4">
      <text style="fill: #262626; font: 16px 'Arial', 'DejaVu Sans', 'Liberation Sans', 'Bitstream Vera Sans', sans-serif; text-anchor: middle" x="258.553125" y="310.445" transform="rotate(-0 258.553125 310.445)">60</text>
     </g>
    </g>
    <g id="xtick_5">
     <g id="line2d_5">
      <g>
       <use xlink:href="#m4b2229cde7" x="312.178125" y="289.4925" style="fill: #262626; stroke: #262626; stroke-width: 1.25"/>
      </g>
     </g>
     <g id="text_5">
      <text style="fill: #262626; font: 16px 'Arial', 'DejaVu Sans', 'Liberation Sans', 'Bitstream Vera Sans', sans-serif; text-anchor: middle" x="312.178125" y="310.445" transform="rotate(-0 312.178125 310.445)">80</text>
     </g>
    </g>
    <g id="xtick_6">
     <g id="line2d_6">
      <g>
       <use xlink:href="#m4b2229cde7" x="365.803125" y="289.4925" style="fill: #262626; stroke: #262626; stroke-width: 1.25"/>
      </g>
     </g>
     <g id="text_6">
      <text style="fill: #262626; font: 16px 'Arial', 'DejaVu Sans', 'Liberation Sans', 'Bitstream Vera Sans', sans-serif; text-anchor: middle" x="365.803125" y="310.445" transform="rotate(-0 365.803125 310.445)">100</text>
     </g>
    </g>
    <g id="text_7">
     <text style="fill: #262626; font: 16px 'Arial', 'DejaVu Sans', 'Liberation Sans', 'Bitstream Vera Sans', sans-serif; text-anchor: middle" x="230.4" y="329.2725" transform="rotate(-0 230.4 329.2725)">Day of outbreak</text>
    </g>
   </g>
   <g id="matplotlib.axis_2">
    <g id="ytick_1">
     <g id="line2d_7">
      <defs>
       <path id="m711e6848f1" d="M 0 0 
L -6 0 
" style="stroke: #262626; stroke-width: 1.25"/>
      </defs>
      <g>
       <use xlink:href="#m711e6848f1" x="94.996875" y="289.4925" style="fill: #262626; stroke: #262626; stroke-width: 1.25"/>
      </g>
     </g>
     <g id="text_8">
      <text style="fill: #262626; font: 16px 'Arial', 'DejaVu Sans', 'Liberation Sans', 'Bitstream Vera Sans', sans-serif; text-anchor: end" x="85.496875" y="295.21875" transform="rotate(-0 85.496875 295.21875)">0</text>
     </g>
    </g>
    <g id="ytick_2">
     <g id="line2d_8">
      <g>
       <use xlink:href="#m711e6848f1" x="94.996875" y="18.68625" style="fill: #262626; stroke: #262626; stroke-width: 1.25"/>
      </g>
     </g>
     <g id="text_9">
      <text style="fill: #262626; font: 16px 'Arial', 'DejaVu Sans', 'Liberation Sans', 'Bitstream Vera Sans', sans-serif; text-anchor: end" x="85.496875" y="24.4125" transform="rotate(-0 85.496875 24.4125)">1</text>
     </g>
    </g>
    <g id="text_10">
     <text style="fill: #262626; font: 16px 'Arial', 'DejaVu Sans', 'Liberation Sans', 'Bitstream Vera Sans', sans-serif; text-anchor: middle" x="69.419375" y="154.089375" transform="rotate(-90 69.419375 154.089375)">Number of cases</text>
    </g>
   </g>
   <g id="patch_3">
    <path d="M 96.3375 289.4925 
L 99.01875 289.4925 
L 99.01875 18.68625 
L 96.3375 18.68625 
z
" style="fill: #1a1a1a; opacity: 0.25; stroke: #1a1a1a; stroke-width: 0.1; stroke-linejoin: miter"/>
   </g>
   <g id="patch_4">
    <path d="M 99.01875 289.4925 
L 101.7 289.4925 
L 101.7 289.4925 
L 99.01875 289.4925 
z
" style="fill: #1a1a1a; opacity: 0.25; stroke: #1a1a1a; stroke-width: 0.1; stroke-linejoin: miter"/>
   </g>
   <g id="patch_5">
    <path d="M 101.7 289.4925 
L 104.38125 289.4925 
L 104.38125 289.4925 
L 101.7 289.4925 
z
" style="fill: #1a1a1a; opacity: 0.25; stroke: #1a1a1a; stroke-width: 0.1; stroke-linejoin: miter"/>
   </g>
   <g id="patch_6">
    <path d="M 104.38125 289.4925 
L 107.0625 289.4925 
L 107.0625 289.4925 
L 104.38125 289.4925 
z
" style="fill: #1a1a1a; opacity: 0.25; stroke: #1a1a1a; stroke-width: 0.1; stroke-linejoin: miter"/>
   </g>
   <g id="patch_7">
    <path d="M 107.0625 289.4925 
L 109.74375 289.4925 
L 109.74375 289.4925 
L 107.0625 289.4925 
z
" style="fill: #1a1a1a; opacity: 0.25; stroke: #1a1a1a; stroke-width: 0.1; stroke-linejoin: miter"/>
   </g>
   <g id="patch_8">
    <path d="M 109.74375 289.4925 
L 112.425 289.4925 
L 112.425 289.4925 
L 109.74375 289.4925 
z
" style="fill: #1a1a1a; opacity: 0.25; stroke: #1a1a1a; stroke-width: 0.1; stroke-linejoin: miter"/>
   </g>
   <g id="patch_9">
    <path d="M 112.425 289.4925 
L 115.10625 289.4925 
L 115.10625 289.4925 
L 112.425 289.4925 
z
" style="fill: #1a1a1a; opacity: 0.25; stroke: #1a1a1a; stroke-width: 0.1; stroke-linejoin: miter"/>
   </g>
   <g id="patch_10">
    <path d="M 115.10625 289.4925 
L 117.7875 289.4925 
L 117.7875 289.4925 
L 115.10625 289.4925 
z
" style="fill: #1a1a1a; opacity: 0.25; stroke: #1a1a1a; stroke-width: 0.1; stroke-linejoin: miter"/>
   </g>
   <g id="patch_11">
    <path d="M 117.7875 289.4925 
L 120.46875 289.4925 
L 120.46875 289.4925 
L 117.7875 289.4925 
z
" style="fill: #1a1a1a; opacity: 0.25; stroke: #1a1a1a; stroke-width: 0.1; stroke-linejoin: miter"/>
   </g>
   <g id="patch_12">
    <path d="M 120.46875 289.4925 
L 123.15 289.4925 
L 123.15 289.4925 
L 120.46875 289.4925 
z
" style="fill: #1a1a1a; opacity: 0.25; stroke: #1a1a1a; stroke-width: 0.1; stroke-linejoin: miter"/>
   </g>
   <g id="patch_13">
    <path d="M 123.15 289.4925 
L 125.83125 289.4925 
L 125.83125 289.4925 
L 123.15 289.4925 
z
" style="fill: #1a1a1a; opacity: 0.25; stroke: #1a1a1a; stroke-width: 0.1; stroke-linejoin: miter"/>
   </g>
   <g id="patch_14">
    <path d="M 125.83125 289.4925 
L 128.5125 289.4925 
L 128.5125 289.4925 
L 125.83125 289.4925 
z
" style="fill: #1a1a1a; opacity: 0.25; stroke: #1a1a1a; stroke-width: 0.1; stroke-linejoin: miter"/>
   </g>
   <g id="patch_15">
    <path d="M 128.5125 289.4925 
L 131.19375 289.4925 
L 131.19375 289.4925 
L 128.5125 289.4925 
z
" style="fill: #1a1a1a; opacity: 0.25; stroke: #1a1a1a; stroke-width: 0.1; stroke-linejoin: miter"/>
   </g>
   <g id="patch_16">
    <path d="M 131.19375 289.4925 
L 133.875 289.4925 
L 133.875 289.4925 
L 131.19375 289.4925 
z
" style="fill: #1a1a1a; opacity: 0.25; stroke: #1a1a1a; stroke-width: 0.1; stroke-linejoin: miter"/>
   </g>
   <g id="patch_17">
    <path d="M 133.875 289.4925 
L 136.55625 289.4925 
L 136.55625 289.4925 
L 133.875 289.4925 
z
" style="fill: #1a1a1a; opacity: 0.25; stroke: #1a1a1a; stroke-width: 0.1; stroke-linejoin: miter"/>
   </g>
   <g id="patch_18">
    <path d="M 136.55625 289.4925 
L 139.2375 289.4925 
L 139.2375 289.4925 
L 136.55625 289.4925 
z
" style="fill: #1a1a1a; opacity: 0.25; stroke: #1a1a1a; stroke-width: 0.1; stroke-linejoin: miter"/>
   </g>
   <g id="patch_19">
    <path d="M 139.2375 289.4925 
L 141.91875 289.4925 
L 141.91875 289.4925 
L 139.2375 289.4925 
z
" style="fill: #1a1a1a; opacity: 0.25; stroke: #1a1a1a; stroke-width: 0.1; stroke-linejoin: miter"/>
   </g>
   <g id="patch_20">
    <path d="M 141.91875 289.4925 
L 144.6 289.4925 
L 144.6 289.4925 
L 141.91875 289.4925 
z
" style="fill: #1a1a1a; opacity: 0.25; stroke: #1a1a1a; stroke-width: 0.1; stroke-linejoin: miter"/>
   </g>
   <g id="patch_21">
    <path d="M 144.6 289.4925 
L 147.28125 289.4925 
L 147.28125 289.4925 
L 144.6 289.4925 
z
" style="fill: #1a1a1a; opacity: 0.25; stroke: #1a1a1a; stroke-width: 0.1; stroke-linejoin: miter"/>
   </g>
   <g id="patch_22">
    <path d="M 147.28125 289.4925 
L 149.9625 289.4925 
L 149.9625 289.4925 
L 147.28125 289.4925 
z
" style="fill: #1a1a1a; opacity: 0.25; stroke: #1a1a1a; stroke-width: 0.1; stroke-linejoin: miter"/>
   </g>
   <g id="patch_23">
    <path d="M 149.9625 289.4925 
L 152.64375 289.4925 
L 152.64375 289.4925 
L 149.9625 289.4925 
z
" style="fill: #1a1a1a; opacity: 0.25; stroke: #1a1a1a; stroke-width: 0.1; stroke-linejoin: miter"/>
   </g>
   <g id="patch_24">
    <path d="M 152.64375 289.4925 
L 155.325 289.4925 
L 155.325 289.4925 
L 152.64375 289.4925 
z
" style="fill: #1a1a1a; opacity: 0.25; stroke: #1a1a1a; stroke-width: 0.1; stroke-linejoin: miter"/>
   </g>
   <g id="patch_25">
    <path d="M 155.325 289.4925 
L 158.00625 289.4925 
L 158.00625 18.68625 
L 155.325 18.68625 
z
" style="fill: #1a1a1a; opacity: 0.25; stroke: #1a1a1a; stroke-width: 0.1; stroke-linejoin: miter"/>
   </g>
   <g id="patch_26">
    <path d="M 158.00625 289.4925 
L 160.6875 289.4925 
L 160.6875 289.4925 
L 158.00625 289.4925 
z
" style="fill: #1a1a1a; opacity: 0.25; stroke: #1a1a1a; stroke-width: 0.1; stroke-linejoin: miter"/>
   </g>
   <g id="patch_27">
    <path d="M 160.6875 289.4925 
L 163.36875 289.4925 
L 163.36875 289.4925 
L 160.6875 289.4925 
z
" style="fill: #1a1a1a; opacity: 0.25; stroke: #1a1a1a; stroke-width: 0.1; stroke-linejoin: miter"/>
   </g>
   <g id="patch_28">
    <path d="M 163.36875 289.4925 
L 166.05 289.4925 
L 166.05 289.4925 
L 163.36875 289.4925 
z
" style="fill: #1a1a1a; opacity: 0.25; stroke: #1a1a1a; stroke-width: 0.1; stroke-linejoin: miter"/>
   </g>
   <g id="patch_29">
    <path d="M 166.05 289.4925 
L 168.73125 289.4925 
L 168.73125 289.4925 
L 166.05 289.4925 
z
" style="fill: #1a1a1a; opacity: 0.25; stroke: #1a1a1a; stroke-width: 0.1; stroke-linejoin: miter"/>
   </g>
   <g id="patch_30">
    <path d="M 168.73125 289.4925 
L 171.4125 289.4925 
L 171.4125 289.4925 
L 168.73125 289.4925 
z
" style="fill: #1a1a1a; opacity: 0.25; stroke: #1a1a1a; stroke-width: 0.1; stroke-linejoin: miter"/>
   </g>
   <g id="patch_31">
    <path d="M 171.4125 289.4925 
L 174.09375 289.4925 
L 174.09375 18.68625 
L 171.4125 18.68625 
z
" style="fill: #1a1a1a; opacity: 0.25; stroke: #1a1a1a; stroke-width: 0.1; stroke-linejoin: miter"/>
   </g>
   <g id="patch_32">
    <path d="M 174.09375 289.4925 
L 176.775 289.4925 
L 176.775 289.4925 
L 174.09375 289.4925 
z
" style="fill: #1a1a1a; opacity: 0.25; stroke: #1a1a1a; stroke-width: 0.1; stroke-linejoin: miter"/>
   </g>
   <g id="patch_33">
    <path d="M 176.775 289.4925 
L 179.45625 289.4925 
L 179.45625 18.68625 
L 176.775 18.68625 
z
" style="fill: #1a1a1a; opacity: 0.25; stroke: #1a1a1a; stroke-width: 0.1; stroke-linejoin: miter"/>
   </g>
   <g id="patch_34">
    <path d="M 179.45625 289.4925 
L 182.1375 289.4925 
L 182.1375 289.4925 
L 179.45625 289.4925 
z
" style="fill: #1a1a1a; opacity: 0.25; stroke: #1a1a1a; stroke-width: 0.1; stroke-linejoin: miter"/>
   </g>
   <g id="patch_35">
    <path d="M 182.1375 289.4925 
L 184.81875 289.4925 
L 184.81875 289.4925 
L 182.1375 289.4925 
z
" style="fill: #1a1a1a; opacity: 0.25; stroke: #1a1a1a; stroke-width: 0.1; stroke-linejoin: miter"/>
   </g>
   <g id="patch_36">
    <path d="M 184.81875 289.4925 
L 187.5 289.4925 
L 187.5 289.4925 
L 184.81875 289.4925 
z
" style="fill: #1a1a1a; opacity: 0.25; stroke: #1a1a1a; stroke-width: 0.1; stroke-linejoin: miter"/>
   </g>
   <g id="patch_37">
    <path d="M 187.5 289.4925 
L 190.18125 289.4925 
L 190.18125 18.68625 
L 187.5 18.68625 
z
" style="fill: #1a1a1a; opacity: 0.25; stroke: #1a1a1a; stroke-width: 0.1; stroke-linejoin: miter"/>
   </g>
   <g id="patch_38">
    <path d="M 190.18125 289.4925 
L 192.8625 289.4925 
L 192.8625 18.68625 
L 190.18125 18.68625 
z
" style="fill: #1a1a1a; opacity: 0.25; stroke: #1a1a1a; stroke-width: 0.1; stroke-linejoin: miter"/>
   </g>
   <g id="patch_39">
    <path d="M 192.8625 289.4925 
L 195.54375 289.4925 
L 195.54375 18.68625 
L 192.8625 18.68625 
z
" style="fill: #1a1a1a; opacity: 0.25; stroke: #1a1a1a; stroke-width: 0.1; stroke-linejoin: miter"/>
   </g>
   <g id="patch_40">
    <path d="M 195.54375 289.4925 
L 198.225 289.4925 
L 198.225 289.4925 
L 195.54375 289.4925 
z
" style="fill: #1a1a1a; opacity: 0.25; stroke: #1a1a1a; stroke-width: 0.1; stroke-linejoin: miter"/>
   </g>
   <g id="patch_41">
    <path d="M 198.225 289.4925 
L 200.90625 289.4925 
L 200.90625 289.4925 
L 198.225 289.4925 
z
" style="fill: #1a1a1a; opacity: 0.25; stroke: #1a1a1a; stroke-width: 0.1; stroke-linejoin: miter"/>
   </g>
   <g id="patch_42">
    <path d="M 200.90625 289.4925 
L 203.5875 289.4925 
L 203.5875 289.4925 
L 200.90625 289.4925 
z
" style="fill: #1a1a1a; opacity: 0.25; stroke: #1a1a1a; stroke-width: 0.1; stroke-linejoin: miter"/>
   </g>
   <g id="patch_43">
    <path d="M 203.5875 289.4925 
L 206.26875 289.4925 
L 206.26875 289.4925 
L 203.5875 289.4925 
z
" style="fill: #1a1a1a; opacity: 0.25; stroke: #1a1a1a; stroke-width: 0.1; stroke-linejoin: miter"/>
   </g>
   <g id="patch_44">
    <path d="M 206.26875 289.4925 
L 208.95 289.4925 
L 208.95 289.4925 
L 206.26875 289.4925 
z
" style="fill: #1a1a1a; opacity: 0.25; stroke: #1a1a1a; stroke-width: 0.1; stroke-linejoin: miter"/>
   </g>
   <g id="patch_45">
    <path d="M 208.95 289.4925 
L 211.63125 289.4925 
L 211.63125 289.4925 
L 208.95 289.4925 
z
" style="fill: #1a1a1a; opacity: 0.25; stroke: #1a1a1a; stroke-width: 0.1; stroke-linejoin: miter"/>
   </g>
   <g id="patch_46">
    <path d="M 211.63125 289.4925 
L 214.3125 289.4925 
L 214.3125 289.4925 
L 211.63125 289.4925 
z
" style="fill: #1a1a1a; opacity: 0.25; stroke: #1a1a1a; stroke-width: 0.1; stroke-linejoin: miter"/>
   </g>
   <g id="patch_47">
    <path d="M 214.3125 289.4925 
L 216.99375 289.4925 
L 216.99375 289.4925 
L 214.3125 289.4925 
z
" style="fill: #1a1a1a; opacity: 0.25; stroke: #1a1a1a; stroke-width: 0.1; stroke-linejoin: miter"/>
   </g>
   <g id="patch_48">
    <path d="M 216.99375 289.4925 
L 219.675 289.4925 
L 219.675 18.68625 
L 216.99375 18.68625 
z
" style="fill: #1a1a1a; opacity: 0.25; stroke: #1a1a1a; stroke-width: 0.1; stroke-linejoin: miter"/>
   </g>
   <g id="patch_49">
    <path d="M 219.675 289.4925 
L 222.35625 289.4925 
L 222.35625 289.4925 
L 219.675 289.4925 
z
" style="fill: #1a1a1a; opacity: 0.25; stroke: #1a1a1a; stroke-width: 0.1; stroke-linejoin: miter"/>
   </g>
   <g id="patch_50">
    <path d="M 222.35625 289.4925 
L 225.0375 289.4925 
L 225.0375 289.4925 
L 222.35625 289.4925 
z
" style="fill: #1a1a1a; opacity: 0.25; stroke: #1a1a1a; stroke-width: 0.1; stroke-linejoin: miter"/>
   </g>
   <g id="patch_51">
    <path d="M 225.0375 289.4925 
L 227.71875 289.4925 
L 227.71875 289.4925 
L 225.0375 289.4925 
z
" style="fill: #1a1a1a; opacity: 0.25; stroke: #1a1a1a; stroke-width: 0.1; stroke-linejoin: miter"/>
   </g>
   <g id="patch_52">
    <path d="M 227.71875 289.4925 
L 230.4 289.4925 
L 230.4 289.4925 
L 227.71875 289.4925 
z
" style="fill: #1a1a1a; opacity: 0.25; stroke: #1a1a1a; stroke-width: 0.1; stroke-linejoin: miter"/>
   </g>
   <g id="patch_53">
    <path d="M 230.4 289.4925 
L 233.08125 289.4925 
L 233.08125 289.4925 
L 230.4 289.4925 
z
" style="fill: #1a1a1a; opacity: 0.25; stroke: #1a1a1a; stroke-width: 0.1; stroke-linejoin: miter"/>
   </g>
   <g id="patch_54">
    <path d="M 233.08125 289.4925 
L 235.7625 289.4925 
L 235.7625 289.4925 
L 233.08125 289.4925 
z
" style="fill: #1a1a1a; opacity: 0.25; stroke: #1a1a1a; stroke-width: 0.1; stroke-linejoin: miter"/>
   </g>
   <g id="patch_55">
    <path d="M 235.7625 289.4925 
L 238.44375 289.4925 
L 238.44375 289.4925 
L 235.7625 289.4925 
z
" style="fill: #1a1a1a; opacity: 0.25; stroke: #1a1a1a; stroke-width: 0.1; stroke-linejoin: miter"/>
   </g>
   <g id="patch_56">
    <path d="M 238.44375 289.4925 
L 241.125 289.4925 
L 241.125 289.4925 
L 238.44375 289.4925 
z
" style="fill: #1a1a1a; opacity: 0.25; stroke: #1a1a1a; stroke-width: 0.1; stroke-linejoin: miter"/>
   </g>
   <g id="patch_57">
    <path d="M 241.125 289.4925 
L 243.80625 289.4925 
L 243.80625 289.4925 
L 241.125 289.4925 
z
" style="fill: #1a1a1a; opacity: 0.25; stroke: #1a1a1a; stroke-width: 0.1; stroke-linejoin: miter"/>
   </g>
   <g id="patch_58">
    <path d="M 243.80625 289.4925 
L 246.4875 289.4925 
L 246.4875 289.4925 
L 243.80625 289.4925 
z
" style="fill: #1a1a1a; opacity: 0.25; stroke: #1a1a1a; stroke-width: 0.1; stroke-linejoin: miter"/>
   </g>
   <g id="patch_59">
    <path d="M 246.4875 289.4925 
L 249.16875 289.4925 
L 249.16875 289.4925 
L 246.4875 289.4925 
z
" style="fill: #1a1a1a; opacity: 0.25; stroke: #1a1a1a; stroke-width: 0.1; stroke-linejoin: miter"/>
   </g>
   <g id="patch_60">
    <path d="M 249.16875 289.4925 
L 251.85 289.4925 
L 251.85 289.4925 
L 249.16875 289.4925 
z
" style="fill: #1a1a1a; opacity: 0.25; stroke: #1a1a1a; stroke-width: 0.1; stroke-linejoin: miter"/>
   </g>
   <g id="patch_61">
    <path d="M 251.85 289.4925 
L 254.53125 289.4925 
L 254.53125 289.4925 
L 251.85 289.4925 
z
" style="fill: #1a1a1a; opacity: 0.25; stroke: #1a1a1a; stroke-width: 0.1; stroke-linejoin: miter"/>
   </g>
   <g id="patch_62">
    <path d="M 254.53125 289.4925 
L 257.2125 289.4925 
L 257.2125 289.4925 
L 254.53125 289.4925 
z
" style="fill: #1a1a1a; opacity: 0.25; stroke: #1a1a1a; stroke-width: 0.1; stroke-linejoin: miter"/>
   </g>
   <g id="patch_63">
    <path d="M 257.2125 289.4925 
L 259.89375 289.4925 
L 259.89375 289.4925 
L 257.2125 289.4925 
z
" style="fill: #1a1a1a; opacity: 0.25; stroke: #1a1a1a; stroke-width: 0.1; stroke-linejoin: miter"/>
   </g>
   <g id="patch_64">
    <path d="M 259.89375 289.4925 
L 262.575 289.4925 
L 262.575 289.4925 
L 259.89375 289.4925 
z
" style="fill: #1a1a1a; opacity: 0.25; stroke: #1a1a1a; stroke-width: 0.1; stroke-linejoin: miter"/>
   </g>
   <g id="patch_65">
    <path d="M 262.575 289.4925 
L 265.25625 289.4925 
L 265.25625 289.4925 
L 262.575 289.4925 
z
" style="fill: #1a1a1a; opacity: 0.25; stroke: #1a1a1a; stroke-width: 0.1; stroke-linejoin: miter"/>
   </g>
   <g id="patch_66">
    <path d="M 265.25625 289.4925 
L 267.9375 289.4925 
L 267.9375 289.4925 
L 265.25625 289.4925 
z
" style="fill: #1a1a1a; opacity: 0.25; stroke: #1a1a1a; stroke-width: 0.1; stroke-linejoin: miter"/>
   </g>
   <g id="patch_67">
    <path d="M 267.9375 289.4925 
L 270.61875 289.4925 
L 270.61875 289.4925 
L 267.9375 289.4925 
z
" style="fill: #1a1a1a; opacity: 0.25; stroke: #1a1a1a; stroke-width: 0.1; stroke-linejoin: miter"/>
   </g>
   <g id="patch_68">
    <path d="M 270.61875 289.4925 
L 273.3 289.4925 
L 273.3 289.4925 
L 270.61875 289.4925 
z
" style="fill: #1a1a1a; opacity: 0.25; stroke: #1a1a1a; stroke-width: 0.1; stroke-linejoin: miter"/>
   </g>
   <g id="patch_69">
    <path d="M 273.3 289.4925 
L 275.98125 289.4925 
L 275.98125 289.4925 
L 273.3 289.4925 
z
" style="fill: #1a1a1a; opacity: 0.25; stroke: #1a1a1a; stroke-width: 0.1; stroke-linejoin: miter"/>
   </g>
   <g id="patch_70">
    <path d="M 275.98125 289.4925 
L 278.6625 289.4925 
L 278.6625 289.4925 
L 275.98125 289.4925 
z
" style="fill: #1a1a1a; opacity: 0.25; stroke: #1a1a1a; stroke-width: 0.1; stroke-linejoin: miter"/>
   </g>
   <g id="patch_71">
    <path d="M 278.6625 289.4925 
L 281.34375 289.4925 
L 281.34375 289.4925 
L 278.6625 289.4925 
z
" style="fill: #1a1a1a; opacity: 0.25; stroke: #1a1a1a; stroke-width: 0.1; stroke-linejoin: miter"/>
   </g>
   <g id="patch_72">
    <path d="M 281.34375 289.4925 
L 284.025 289.4925 
L 284.025 289.4925 
L 281.34375 289.4925 
z
" style="fill: #1a1a1a; opacity: 0.25; stroke: #1a1a1a; stroke-width: 0.1; stroke-linejoin: miter"/>
   </g>
   <g id="patch_73">
    <path d="M 284.025 289.4925 
L 286.70625 289.4925 
L 286.70625 289.4925 
L 284.025 289.4925 
z
" style="fill: #1a1a1a; opacity: 0.25; stroke: #1a1a1a; stroke-width: 0.1; stroke-linejoin: miter"/>
   </g>
   <g id="patch_74">
    <path d="M 286.70625 289.4925 
L 289.3875 289.4925 
L 289.3875 289.4925 
L 286.70625 289.4925 
z
" style="fill: #1a1a1a; opacity: 0.25; stroke: #1a1a1a; stroke-width: 0.1; stroke-linejoin: miter"/>
   </g>
   <g id="patch_75">
    <path d="M 289.3875 289.4925 
L 292.06875 289.4925 
L 292.06875 289.4925 
L 289.3875 289.4925 
z
" style="fill: #1a1a1a; opacity: 0.25; stroke: #1a1a1a; stroke-width: 0.1; stroke-linejoin: miter"/>
   </g>
   <g id="patch_76">
    <path d="M 292.06875 289.4925 
L 294.75 289.4925 
L 294.75 289.4925 
L 292.06875 289.4925 
z
" style="fill: #1a1a1a; opacity: 0.25; stroke: #1a1a1a; stroke-width: 0.1; stroke-linejoin: miter"/>
   </g>
   <g id="patch_77">
    <path d="M 294.75 289.4925 
L 297.43125 289.4925 
L 297.43125 289.4925 
L 294.75 289.4925 
z
" style="fill: #1a1a1a; opacity: 0.25; stroke: #1a1a1a; stroke-width: 0.1; stroke-linejoin: miter"/>
   </g>
   <g id="patch_78">
    <path d="M 297.43125 289.4925 
L 300.1125 289.4925 
L 300.1125 289.4925 
L 297.43125 289.4925 
z
" style="fill: #1a1a1a; opacity: 0.25; stroke: #1a1a1a; stroke-width: 0.1; stroke-linejoin: miter"/>
   </g>
   <g id="patch_79">
    <path d="M 300.1125 289.4925 
L 302.79375 289.4925 
L 302.79375 289.4925 
L 300.1125 289.4925 
z
" style="fill: #1a1a1a; opacity: 0.25; stroke: #1a1a1a; stroke-width: 0.1; stroke-linejoin: miter"/>
   </g>
   <g id="patch_80">
    <path d="M 302.79375 289.4925 
L 305.475 289.4925 
L 305.475 289.4925 
L 302.79375 289.4925 
z
" style="fill: #1a1a1a; opacity: 0.25; stroke: #1a1a1a; stroke-width: 0.1; stroke-linejoin: miter"/>
   </g>
   <g id="patch_81">
    <path d="M 305.475 289.4925 
L 308.15625 289.4925 
L 308.15625 289.4925 
L 305.475 289.4925 
z
" style="fill: #1a1a1a; opacity: 0.25; stroke: #1a1a1a; stroke-width: 0.1; stroke-linejoin: miter"/>
   </g>
   <g id="patch_82">
    <path d="M 308.15625 289.4925 
L 310.8375 289.4925 
L 310.8375 289.4925 
L 308.15625 289.4925 
z
" style="fill: #1a1a1a; opacity: 0.25; stroke: #1a1a1a; stroke-width: 0.1; stroke-linejoin: miter"/>
   </g>
   <g id="patch_83">
    <path d="M 310.8375 289.4925 
L 313.51875 289.4925 
L 313.51875 289.4925 
L 310.8375 289.4925 
z
" style="fill: #1a1a1a; opacity: 0.25; stroke: #1a1a1a; stroke-width: 0.1; stroke-linejoin: miter"/>
   </g>
   <g id="patch_84">
    <path d="M 313.51875 289.4925 
L 316.2 289.4925 
L 316.2 289.4925 
L 313.51875 289.4925 
z
" style="fill: #1a1a1a; opacity: 0.25; stroke: #1a1a1a; stroke-width: 0.1; stroke-linejoin: miter"/>
   </g>
   <g id="patch_85">
    <path d="M 316.2 289.4925 
L 318.88125 289.4925 
L 318.88125 289.4925 
L 316.2 289.4925 
z
" style="fill: #1a1a1a; opacity: 0.25; stroke: #1a1a1a; stroke-width: 0.1; stroke-linejoin: miter"/>
   </g>
   <g id="patch_86">
    <path d="M 318.88125 289.4925 
L 321.5625 289.4925 
L 321.5625 289.4925 
L 318.88125 289.4925 
z
" style="fill: #1a1a1a; opacity: 0.25; stroke: #1a1a1a; stroke-width: 0.1; stroke-linejoin: miter"/>
   </g>
   <g id="patch_87">
    <path d="M 321.5625 289.4925 
L 324.24375 289.4925 
L 324.24375 289.4925 
L 321.5625 289.4925 
z
" style="fill: #1a1a1a; opacity: 0.25; stroke: #1a1a1a; stroke-width: 0.1; stroke-linejoin: miter"/>
   </g>
   <g id="patch_88">
    <path d="M 324.24375 289.4925 
L 326.925 289.4925 
L 326.925 289.4925 
L 324.24375 289.4925 
z
" style="fill: #1a1a1a; opacity: 0.25; stroke: #1a1a1a; stroke-width: 0.1; stroke-linejoin: miter"/>
   </g>
   <g id="patch_89">
    <path d="M 326.925 289.4925 
L 329.60625 289.4925 
L 329.60625 289.4925 
L 326.925 289.4925 
z
" style="fill: #1a1a1a; opacity: 0.25; stroke: #1a1a1a; stroke-width: 0.1; stroke-linejoin: miter"/>
   </g>
   <g id="patch_90">
    <path d="M 329.60625 289.4925 
L 332.2875 289.4925 
L 332.2875 289.4925 
L 329.60625 289.4925 
z
" style="fill: #1a1a1a; opacity: 0.25; stroke: #1a1a1a; stroke-width: 0.1; stroke-linejoin: miter"/>
   </g>
   <g id="patch_91">
    <path d="M 332.2875 289.4925 
L 334.96875 289.4925 
L 334.96875 289.4925 
L 332.2875 289.4925 
z
" style="fill: #1a1a1a; opacity: 0.25; stroke: #1a1a1a; stroke-width: 0.1; stroke-linejoin: miter"/>
   </g>
   <g id="patch_92">
    <path d="M 334.96875 289.4925 
L 337.65 289.4925 
L 337.65 289.4925 
L 334.96875 289.4925 
z
" style="fill: #1a1a1a; opacity: 0.25; stroke: #1a1a1a; stroke-width: 0.1; stroke-linejoin: miter"/>
   </g>
   <g id="patch_93">
    <path d="M 337.65 289.4925 
L 340.33125 289.4925 
L 340.33125 289.4925 
L 337.65 289.4925 
z
" style="fill: #1a1a1a; opacity: 0.25; stroke: #1a1a1a; stroke-width: 0.1; stroke-linejoin: miter"/>
   </g>
   <g id="patch_94">
    <path d="M 340.33125 289.4925 
L 343.0125 289.4925 
L 343.0125 289.4925 
L 340.33125 289.4925 
z
" style="fill: #1a1a1a; opacity: 0.25; stroke: #1a1a1a; stroke-width: 0.1; stroke-linejoin: miter"/>
   </g>
   <g id="patch_95">
    <path d="M 343.0125 289.4925 
L 345.69375 289.4925 
L 345.69375 289.4925 
L 343.0125 289.4925 
z
" style="fill: #1a1a1a; opacity: 0.25; stroke: #1a1a1a; stroke-width: 0.1; stroke-linejoin: miter"/>
   </g>
   <g id="patch_96">
    <path d="M 345.69375 289.4925 
L 348.375 289.4925 
L 348.375 289.4925 
L 345.69375 289.4925 
z
" style="fill: #1a1a1a; opacity: 0.25; stroke: #1a1a1a; stroke-width: 0.1; stroke-linejoin: miter"/>
   </g>
   <g id="patch_97">
    <path d="M 348.375 289.4925 
L 351.05625 289.4925 
L 351.05625 289.4925 
L 348.375 289.4925 
z
" style="fill: #1a1a1a; opacity: 0.25; stroke: #1a1a1a; stroke-width: 0.1; stroke-linejoin: miter"/>
   </g>
   <g id="patch_98">
    <path d="M 351.05625 289.4925 
L 353.7375 289.4925 
L 353.7375 289.4925 
L 351.05625 289.4925 
z
" style="fill: #1a1a1a; opacity: 0.25; stroke: #1a1a1a; stroke-width: 0.1; stroke-linejoin: miter"/>
   </g>
   <g id="patch_99">
    <path d="M 353.7375 289.4925 
L 356.41875 289.4925 
L 356.41875 289.4925 
L 353.7375 289.4925 
z
" style="fill: #1a1a1a; opacity: 0.25; stroke: #1a1a1a; stroke-width: 0.1; stroke-linejoin: miter"/>
   </g>
   <g id="patch_100">
    <path d="M 356.41875 289.4925 
L 359.1 289.4925 
L 359.1 289.4925 
L 356.41875 289.4925 
z
" style="fill: #1a1a1a; opacity: 0.25; stroke: #1a1a1a; stroke-width: 0.1; stroke-linejoin: miter"/>
   </g>
   <g id="patch_101">
    <path d="M 359.1 289.4925 
L 361.78125 289.4925 
L 361.78125 289.4925 
L 359.1 289.4925 
z
" style="fill: #1a1a1a; opacity: 0.25; stroke: #1a1a1a; stroke-width: 0.1; stroke-linejoin: miter"/>
   </g>
   <g id="patch_102">
    <path d="M 361.78125 289.4925 
L 364.4625 289.4925 
L 364.4625 289.4925 
L 361.78125 289.4925 
z
" style="fill: #1a1a1a; opacity: 0.25; stroke: #1a1a1a; stroke-width: 0.1; stroke-linejoin: miter"/>
   </g>
   <g id="patch_103">
    <path d="M 364.4625 289.4925 
L 367.14375 289.4925 
L 367.14375 289.4925 
L 364.4625 289.4925 
z
" style="fill: #1a1a1a; opacity: 0.25; stroke: #1a1a1a; stroke-width: 0.1; stroke-linejoin: miter"/>
   </g>
   <g id="line2d_9">
    <path d="M 357.759375 289.4925 
L 357.759375 18.68625 
" clip-path="url(#p0a965dcc4c)" style="fill: none; stroke-dasharray: 2,3.3; stroke-dashoffset: 0; stroke: #ff7f0e; stroke-width: 2"/>
   </g>
   <g id="patch_104">
    <path d="M 94.996875 289.4925 
L 94.996875 18.68625 
" style="fill: none; stroke: #262626; stroke-width: 1.25; stroke-linejoin: miter; stroke-linecap: square"/>
   </g>
   <g id="patch_105">
    <path d="M 94.996875 289.4925 
L 365.803125 289.4925 
" style="fill: none; stroke: #262626; stroke-width: 1.25; stroke-linejoin: miter; stroke-linecap: square"/>
   </g>
  </g>
  <g id="axes_2">
   <g id="matplotlib.axis_3">
    <g id="ytick_3">
     <g id="line2d_10">
      <defs>
       <path id="me88e1c0007" d="M 0 0 
L 6 0 
" style="stroke: #1f77b4; stroke-width: 1.25"/>
      </defs>
      <g>
       <use xlink:href="#me88e1c0007" x="365.803125" y="289.4925" style="fill: #1f77b4; stroke: #1f77b4; stroke-width: 1.25"/>
      </g>
     </g>
     <g id="text_11">
      <text style="fill: #1f77b4; font: 16px 'Arial', 'DejaVu Sans', 'Liberation Sans', 'Bitstream Vera Sans', sans-serif; text-anchor: start" x="375.303125" y="295.21875" transform="rotate(-0 375.303125 295.21875)">0.0</text>
     </g>
    </g>
    <g id="ytick_4">
     <g id="line2d_11">
      <g>
       <use xlink:href="#me88e1c0007" x="365.803125" y="235.33125" style="fill: #1f77b4; stroke: #1f77b4; stroke-width: 1.25"/>
      </g>
     </g>
     <g id="text_12">
      <text style="fill: #1f77b4; font: 16px 'Arial', 'DejaVu Sans', 'Liberation Sans', 'Bitstream Vera Sans', sans-serif; text-anchor: start" x="375.303125" y="241.0575" transform="rotate(-0 375.303125 241.0575)">0.2</text>
     </g>
    </g>
    <g id="ytick_5">
     <g id="line2d_12">
      <g>
       <use xlink:href="#me88e1c0007" x="365.803125" y="181.17" style="fill: #1f77b4; stroke: #1f77b4; stroke-width: 1.25"/>
      </g>
     </g>
     <g id="text_13">
      <text style="fill: #1f77b4; font: 16px 'Arial', 'DejaVu Sans', 'Liberation Sans', 'Bitstream Vera Sans', sans-serif; text-anchor: start" x="375.303125" y="186.89625" transform="rotate(-0 375.303125 186.89625)">0.4</text>
     </g>
    </g>
    <g id="ytick_6">
     <g id="line2d_13">
      <g>
       <use xlink:href="#me88e1c0007" x="365.803125" y="127.00875" style="fill: #1f77b4; stroke: #1f77b4; stroke-width: 1.25"/>
      </g>
     </g>
     <g id="text_14">
      <text style="fill: #1f77b4; font: 16px 'Arial', 'DejaVu Sans', 'Liberation Sans', 'Bitstream Vera Sans', sans-serif; text-anchor: start" x="375.303125" y="132.735" transform="rotate(-0 375.303125 132.735)">0.6</text>
     </g>
    </g>
    <g id="ytick_7">
     <g id="line2d_14">
      <g>
       <use xlink:href="#me88e1c0007" x="365.803125" y="72.8475" style="fill: #1f77b4; stroke: #1f77b4; stroke-width: 1.25"/>
      </g>
     </g>
     <g id="text_15">
      <text style="fill: #1f77b4; font: 16px 'Arial', 'DejaVu Sans', 'Liberation Sans', 'Bitstream Vera Sans', sans-serif; text-anchor: start" x="375.303125" y="78.57375" transform="rotate(-0 375.303125 78.57375)">0.8</text>
     </g>
    </g>
    <g id="ytick_8">
     <g id="line2d_15">
      <g>
       <use xlink:href="#me88e1c0007" x="365.803125" y="18.68625" style="fill: #1f77b4; stroke: #1f77b4; stroke-width: 1.25"/>
      </g>
     </g>
     <g id="text_16">
      <text style="fill: #1f77b4; font: 16px 'Arial', 'DejaVu Sans', 'Liberation Sans', 'Bitstream Vera Sans', sans-serif; text-anchor: start" x="375.303125" y="24.4125" transform="rotate(-0 375.303125 24.4125)">1.0</text>
     </g>
    </g>
    <g id="text_17">
     <text style="fill: #1f77b4; font: 16px 'Arial', 'DejaVu Sans', 'Liberation Sans', 'Bitstream Vera Sans', sans-serif; text-anchor: middle" x="413.190625" y="154.089375" transform="rotate(-90 413.190625 154.089375)">End-of-outbreak probability</text>
    </g>
   </g>
   <g id="PolyCollection_1">
    <defs>
     <path id="m66e41b5995" d="M 97.678125 -250.667525 
L 97.678125 -250.667525 
L 100.359375 -251.721993 
L 103.040625 -254.110469 
L 105.721875 -257.815955 
L 108.403125 -262.430241 
L 111.084375 -267.514909 
L 113.765625 -272.722089 
L 116.446875 -277.817505 
L 119.128125 -282.661038 
L 121.809375 -287.178787 
L 124.490625 -291.33958 
L 127.171875 -295.138355 
L 129.853125 -298.585272 
L 132.534375 -301.698862 
L 135.215625 -304.501812 
L 137.896875 -307.018416 
L 140.578125 -309.273067 
L 143.259375 -311.289381 
L 145.940625 -313.089724 
L 148.621875 -314.694971 
L 151.303125 -316.124419 
L 153.984375 -317.395783 
L 156.665625 -214.403073 
L 159.346875 -219.288468 
L 162.028125 -224.967399 
L 164.709375 -231.512026 
L 167.390625 -238.634913 
L 170.071875 -245.988265 
L 172.753125 -97.081807 
L 175.434375 -104.653779 
L 178.115625 -63.324438 
L 180.796875 -65.518736 
L 183.478125 -68.626943 
L 186.159375 -72.841456 
L 188.840625 -60.718461 
L 191.521875 -57.734658 
L 194.203125 -56.666545 
L 196.884375 -57.131908 
L 199.565625 -57.909672 
L 202.246875 -59.167954 
L 204.928125 -61.09707 
L 207.609375 -64.010504 
L 210.290625 -67.918211 
L 212.971875 -74.933362 
L 215.653125 -79.458242 
L 218.334375 -68.227501 
L 221.015625 -72.930975 
L 223.696875 -79.700254 
L 226.378125 -87.8083 
L 229.059375 -96.546167 
L 231.740625 -106.812969 
L 234.421875 -117.791145 
L 237.103125 -129.427273 
L 239.784375 -143.105496 
L 242.465625 -154.720667 
L 245.146875 -169.511168 
L 247.828125 -181.61807 
L 250.509375 -194.396179 
L 253.190625 -206.226151 
L 255.871875 -217.517252 
L 258.553125 -228.164808 
L 261.234375 -238.119931 
L 263.915625 -247.371752 
L 266.596875 -255.885462 
L 269.278125 -263.658907 
L 271.959375 -270.77423 
L 274.640625 -277.177443 
L 277.321875 -282.993021 
L 280.003125 -288.725803 
L 282.684375 -292.847306 
L 285.365625 -297.209713 
L 288.046875 -301.0897 
L 290.728125 -303.9351 
L 293.409375 -306.8409 
L 296.090625 -309.550971 
L 298.771875 -311.659201 
L 301.453125 -313.760031 
L 304.134375 -315.603225 
L 306.815625 -316.974105 
L 309.496875 -318.285599 
L 312.178125 -319.496528 
L 314.859375 -320.408158 
L 317.540625 -321.297678 
L 320.221875 -322.021665 
L 322.903125 -322.675577 
L 325.584375 -323.288041 
L 328.265625 -323.766002 
L 330.946875 -324.170618 
L 333.628125 -324.569444 
L 336.309375 -324.884174 
L 338.990625 -325.178716 
L 341.671875 -325.419278 
L 344.353125 -325.608282 
L 347.034375 -325.796769 
L 349.715625 -325.960304 
L 352.396875 -326.100852 
L 355.078125 -326.206555 
L 357.759375 -326.366959 
L 360.440625 -326.444095 
L 363.121875 -326.507639 
L 365.803125 -326.565132 
L 365.803125 -326.758565 
L 365.803125 -326.758565 
L 363.121875 -326.733284 
L 360.440625 -326.703967 
L 357.759375 -326.669986 
L 355.078125 -326.49773 
L 352.396875 -326.429812 
L 349.715625 -326.351025 
L 347.034375 -326.259672 
L 344.353125 -326.153802 
L 341.671875 -326.031173 
L 338.990625 -325.889208 
L 336.309375 -325.724949 
L 333.628125 -325.535008 
L 330.946875 -325.315501 
L 328.265625 -325.061989 
L 325.584375 -324.769397 
L 322.903125 -324.431935 
L 320.221875 -324.043009 
L 317.540625 -323.595112 
L 314.859375 -323.079721 
L 312.178125 -322.487172 
L 309.496875 -321.806529 
L 306.815625 -321.025445 
L 304.134375 -320.130012 
L 301.453125 -319.104605 
L 298.771875 -317.931723 
L 296.090625 -316.537967 
L 293.409375 -315.000625 
L 290.728125 -313.249138 
L 288.046875 -311.256792 
L 285.365625 -308.994301 
L 282.684375 -306.429768 
L 280.003125 -303.528706 
L 277.321875 -300.254163 
L 274.640625 -296.56696 
L 271.959375 -292.426095 
L 269.278125 -287.78934 
L 266.596875 -282.614092 
L 263.915625 -276.85852 
L 261.234375 -270.483073 
L 258.553125 -263.452411 
L 255.871875 -255.737801 
L 253.190625 -247.320053 
L 250.509375 -238.193003 
L 247.828125 -228.367569 
L 245.146875 -217.876325 
L 242.465625 -206.778496 
L 239.784375 -195.165119 
L 237.103125 -183.163903 
L 234.421875 -170.942853 
L 231.740625 -158.710747 
L 229.059375 -146.710771 
L 226.378125 -135.201012 
L 223.696875 -124.41447 
L 221.015625 -114.499161 
L 218.334375 -105.436181 
L 215.653125 -124.148695 
L 212.971875 -112.793907 
L 210.290625 -102.330008 
L 207.609375 -92.953256 
L 204.928125 -84.810684 
L 202.246875 -77.979811 
L 199.565625 -72.452598 
L 196.884375 -68.130107 
L 194.203125 -64.830949 
L 191.521875 -71.045881 
L 188.840625 -107.451953 
L 186.159375 -178.260053 
L 183.478125 -169.120916 
L 180.796875 -161.050331 
L 178.115625 -154.135517 
L 175.434375 -193.668807 
L 172.753125 -186.913083 
L 170.071875 -245.988265 
L 167.390625 -238.634913 
L 164.709375 -231.512026 
L 162.028125 -224.967399 
L 159.346875 -219.288468 
L 156.665625 -214.403073 
L 153.984375 -317.395783 
L 151.303125 -316.124419 
L 148.621875 -314.694971 
L 145.940625 -313.089724 
L 143.259375 -311.289381 
L 140.578125 -309.273067 
L 137.896875 -307.018416 
L 135.215625 -304.501812 
L 132.534375 -301.698862 
L 129.853125 -298.585272 
L 127.171875 -295.138355 
L 124.490625 -291.33958 
L 121.809375 -287.178787 
L 119.128125 -282.661038 
L 116.446875 -277.817505 
L 113.765625 -272.722089 
L 111.084375 -267.514909 
L 108.403125 -262.430241 
L 105.721875 -257.815955 
L 103.040625 -254.110469 
L 100.359375 -251.721993 
L 97.678125 -250.667525 
z
" style="stroke: #ffffff; stroke-opacity: 0.5"/>
    </defs>
    <g>
     <use xlink:href="#m66e41b5995" x="0" y="345.6" style="fill: #4c72b0; fill-opacity: 0.5; stroke: #ffffff; stroke-opacity: 0.5"/>
    </g>
   </g>
   <g id="line2d_16">
    <path d="M 97.678125 94.932475 
L 100.359375 93.878007 
L 103.040625 91.489531 
L 105.721875 87.784045 
L 108.403125 83.169759 
L 111.084375 78.085091 
L 113.765625 72.877911 
L 116.446875 67.782495 
L 119.128125 62.938962 
L 121.809375 58.421213 
L 124.490625 54.26042 
L 127.171875 50.461645 
L 129.853125 47.014728 
L 132.534375 43.901138 
L 135.215625 41.098188 
L 137.896875 38.581584 
L 140.578125 36.326933 
L 143.259375 34.310619 
L 145.940625 32.510276 
L 148.621875 30.905029 
L 151.303125 29.475581 
L 153.984375 28.204217 
L 156.665625 131.196927 
L 159.346875 126.311532 
L 162.028125 120.632601 
L 164.709375 114.087974 
L 167.390625 106.965087 
L 170.071875 99.611735 
L 172.753125 214.539513 
L 175.434375 205.596128 
L 178.115625 265.232556 
L 180.796875 259.491554 
L 183.478125 251.395313 
L 186.159375 242.30137 
L 188.840625 272.436055 
L 191.521875 282.284906 
L 194.203125 285.913144 
L 196.884375 283.905841 
L 199.565625 281.119559 
L 202.246875 277.340854 
L 204.928125 272.287446 
L 207.609375 265.77467 
L 210.290625 257.931696 
L 212.971875 248.446953 
L 215.653125 238.581735 
L 218.334375 258.875334 
L 221.015625 250.922211 
L 223.696875 241.944186 
L 226.378125 231.776032 
L 229.059375 220.369899 
L 231.740625 208.811809 
L 234.421875 196.223248 
L 237.103125 183.709135 
L 239.784375 170.890044 
L 242.465625 158.481161 
L 245.146875 146.485763 
L 247.828125 134.484496 
L 250.509375 123.624176 
L 253.190625 113.155059 
L 255.871875 103.728404 
L 258.553125 94.820914 
L 261.234375 86.285927 
L 263.915625 78.992925 
L 266.596875 72.176647 
L 269.278125 66.135881 
L 271.959375 60.426035 
L 274.640625 55.555081 
L 277.321875 51.072948 
L 280.003125 46.996349 
L 282.684375 43.626691 
L 285.365625 40.537584 
L 288.046875 37.740877 
L 290.728125 35.375866 
L 293.409375 33.249072 
L 296.090625 31.382945 
L 298.771875 29.70292 
L 301.453125 28.230692 
L 304.134375 26.966293 
L 306.815625 25.897833 
L 309.496875 24.945358 
L 312.178125 24.103827 
L 314.859375 23.379179 
L 317.540625 22.752315 
L 320.221875 22.199711 
L 322.903125 21.732853 
L 325.584375 21.309304 
L 328.265625 20.954188 
L 330.946875 20.642263 
L 333.628125 20.371963 
L 336.309375 20.141461 
L 338.990625 19.936391 
L 341.671875 19.766251 
L 344.353125 19.616342 
L 347.034375 19.483357 
L 349.715625 19.375006 
L 352.396875 19.276306 
L 355.078125 19.195068 
L 357.759375 19.018671 
L 360.440625 18.972256 
L 363.121875 18.932477 
L 365.803125 18.897514 
" style="fill: none; stroke: #4c72b0; stroke-width: 2; stroke-linecap: round"/>
   </g>
   <g id="line2d_17">
    <path d="M 97.678125 94.932475 
L 100.359375 93.878007 
L 103.040625 91.489531 
L 105.721875 87.784045 
L 108.403125 83.169759 
L 111.084375 78.085091 
L 113.765625 72.877911 
L 116.446875 67.782495 
L 119.128125 62.938962 
L 121.809375 58.421213 
L 124.490625 54.26042 
L 127.171875 50.461645 
L 129.853125 47.014728 
L 132.534375 43.901138 
L 135.215625 41.098188 
L 137.896875 38.581584 
L 140.578125 36.326933 
L 143.259375 34.310619 
L 145.940625 32.510276 
L 148.621875 30.905029 
L 151.303125 29.475581 
L 153.984375 28.204217 
L 156.665625 131.196927 
L 159.346875 126.311532 
L 162.028125 120.632601 
L 164.709375 114.087974 
L 167.390625 106.965087 
L 170.071875 99.611735 
L 172.753125 158.686917 
L 175.434375 151.931193 
L 178.115625 250.824721 
L 180.796875 243.651995 
L 183.478125 235.34849 
L 186.159375 225.900875 
L 188.840625 274.105906 
L 191.521875 284.698905 
L 194.203125 288.602248 
L 196.884375 288.060731 
L 199.565625 287.174037 
L 202.246875 285.774311 
L 204.928125 283.667763 
L 207.609375 280.655059 
L 210.290625 276.556674 
L 212.971875 271.236854 
L 215.653125 264.621376 
L 218.334375 269.292002 
L 221.015625 263.025143 
L 223.696875 255.596802 
L 226.378125 246.949737 
L 229.059375 237.137377 
L 231.740625 226.303872 
L 234.421875 214.655103 
L 237.103125 202.427769 
L 239.784375 189.86459 
L 242.465625 177.196763 
L 245.146875 164.63259 
L 247.828125 152.350919 
L 250.509375 140.498242 
L 253.190625 129.188503 
L 255.871875 118.504792 
L 258.553125 108.502287 
L 261.234375 99.211867 
L 263.915625 90.644005 
L 266.596875 82.792622 
L 269.278125 75.638709 
L 271.959375 69.153578 
L 274.640625 63.301691 
L 277.321875 58.043045 
L 280.003125 53.335122 
L 282.684375 49.134455 
L 285.365625 45.397825 
L 288.046875 42.083171 
L 290.728125 39.150235 
L 293.409375 36.561004 
L 296.090625 34.279976 
L 298.771875 32.228791 
L 301.453125 30.474645 
L 304.134375 28.937382 
L 306.815625 27.592184 
L 309.496875 26.416665 
L 312.178125 25.390726 
L 314.859375 24.496387 
L 317.540625 23.717621 
L 320.221875 23.040185 
L 322.903125 22.451459 
L 325.584375 21.940284 
L 328.265625 21.496819 
L 330.946875 21.112399 
L 333.628125 20.779414 
L 336.309375 20.491185 
L 338.990625 20.241865 
L 341.671875 20.026339 
L 344.353125 19.840139 
L 347.034375 19.67937 
L 349.715625 19.540633 
L 352.396875 19.420974 
L 355.078125 19.317822 
L 357.759375 19.181115 
L 360.440625 19.111469 
L 363.121875 19.05149 
L 365.803125 18.999858 
" style="fill: none; stroke-dasharray: 7.4,3.2; stroke-dashoffset: 0; stroke: #1a1a1a; stroke-width: 2"/>
   </g>
   <g id="patch_106">
    <path d="M 94.996875 289.4925 
L 94.996875 18.68625 
" style="fill: none; stroke: #262626; stroke-width: 1.25; stroke-linejoin: miter; stroke-linecap: square"/>
   </g>
   <g id="patch_107">
    <path d="M 365.803125 289.4925 
L 365.803125 18.68625 
" style="fill: none; stroke: #1f77b4; stroke-width: 1.25; stroke-linejoin: miter; stroke-linecap: square"/>
   </g>
   <g id="patch_108">
    <path d="M 94.996875 289.4925 
L 365.803125 289.4925 
" style="fill: none; stroke: #262626; stroke-width: 1.25; stroke-linejoin: miter; stroke-linecap: square"/>
   </g>
   <g id="legend_1">
    <g id="patch_109">
     <path d="M 246.740313 284.076375 
L 335.084687 284.076375 
Q 337.884687 284.076375 337.884687 281.276375 
L 337.884687 243.0695 
Q 337.884687 240.2695 335.084687 240.2695 
L 246.740313 240.2695 
Q 243.940313 240.2695 243.940313 243.0695 
L 243.940313 281.276375 
Q 243.940313 284.076375 246.740313 284.076375 
z
" style="fill: #ffffff; opacity: 0.8; stroke: #cccccc; stroke-linejoin: miter"/>
    </g>
    <g id="line2d_18">
     <path d="M 249.540312 250.990437 
L 263.540313 250.990437 
L 277.540313 250.990437 
" style="fill: none; stroke: #4c72b0; stroke-width: 2; stroke-linecap: round"/>
    </g>
    <g id="text_18">
     <text style="fill: #262626; font: 14px 'Arial', 'DejaVu Sans', 'Liberation Sans', 'Bitstream Vera Sans', sans-serif; text-anchor: start" x="288.740313" y="255.890437" transform="rotate(-0 288.740313 255.890437)">MCMC</text>
    </g>
    <g id="line2d_19">
     <path d="M 249.540312 270.793875 
L 263.540313 270.793875 
L 277.540313 270.793875 
" style="fill: none; stroke-dasharray: 7.4,3.2; stroke-dashoffset: 0; stroke: #1a1a1a; stroke-width: 2"/>
    </g>
    <g id="text_19">
     <text style="fill: #262626; font: 14px 'Arial', 'DejaVu Sans', 'Liberation Sans', 'Bitstream Vera Sans', sans-serif; text-anchor: start" x="288.740313" y="275.693875" transform="rotate(-0 288.740313 275.693875)">Traced</text>
    </g>
   </g>
  </g>
 </g>
 <defs>
  <clipPath id="p0a965dcc4c">
   <rect x="94.996875" y="18.68625" width="270.80625" height="270.80625"/>
  </clipPath>
 </defs>
</svg>
