<?xml version="1.0" encoding="utf-8" standalone="no"?>
<!DOCTYPE svg PUBLIC "-//W3C//DTD SVG 1.1//EN"
  "http://www.w3.org/Graphics/SVG/1.1/DTD/svg11.dtd">
<svg xmlns:xlink="http://www.w3.org/1999/xlink" width="460.8pt" height="345.6pt" viewBox="0 0 460.8 345.6" xmlns="http://www.w3.org/2000/svg" version="1.1">
 <metadata>
  <rdf:RDF xmlns:dc="http://purl.org/dc/elements/1.1/" xmlns:cc="http://creativecommons.org/ns#" xmlns:rdf="http://www.w3.org/1999/02/22-rdf-syntax-ns#">
   <cc:Work>
    <dc:type rdf:resource="http://purl.org/dc/dcmitype/StillImage"/>
    <dc:date>2024-04-24T16:06:53.151878</dc:date>
    <dc:format>image/svg+xml</dc:format>
    <dc:creator>
     <cc:Agent>
      <dc:title>Matplotlib v3.8.2, https://matplotlib.org/</dc:title>
     </cc:Agent>
    </dc:creator>
   </cc:Work>
  </rdf:RDF>
 </metadata>
 <defs>
  <style type="text/css">*{stroke-linejoin: round; stroke-linecap: butt}</style>
 </defs>
 <g id="figure_1">
  <g id="patch_1">
   <path d="M 0 345.6 
L 460.8 345.6 
L 460.8 0 
L 0 0 
L 0 345.6 
z
" style="fill: none"/>
  </g>
  <g id="axes_1">
   <g id="patch_2">
    <path d="M 94.996875 289.4925 
L 365.803125 289.4925 
L 365.803125 18.68625 
L 94.996875 18.68625 
L 94.996875 289.4925 
z
" style="fill: none"/>
   </g>
   <g id="matplotlib.axis_1">
    <g id="xtick_1">
     <g id="line2d_1">
      <defs>
       <path id="mcb8838ee81" d="M 0 0 
L 0 6 
" style="stroke: #262626; stroke-width: 1.25"/>
      </defs>
      <g>
       <use xlink:href="#mcb8838ee81" x="97.678125" y="289.4925" style="fill: #262626; stroke: #262626; stroke-width: 1.25"/>
      </g>
     </g>
     <g id="text_1">
      <text style="fill: #262626; font: 16px 'Arial', 'DejaVu Sans', 'Liberation Sans', 'Bitstream Vera Sans', sans-serif; text-anchor: middle" x="97.678125" y="310.445" transform="rotate(-0 97.678125 310.445)">0</text>
     </g>
    </g>
    <g id="xtick_2">
     <g id="line2d_2">
      <g>
       <use xlink:href="#mcb8838ee81" x="151.303125" y="289.4925" style="fill: #262626; stroke: #262626; stroke-width: 1.25"/>
      </g>
     </g>
     <g id="text_2">
      <text style="fill: #262626; font: 16px 'Arial', 'DejaVu Sans', 'Liberation Sans', 'Bitstream Vera Sans', sans-serif; text-anchor: middle" x="151.303125" y="310.445" transform="rotate(-0 151.303125 310.445)">20</text>
     </g>
    </g>
    <g id="xtick_3">
     <g id="line2d_3">
      <g>
       <use xlink:href="#mcb8838ee81" x="204.928125" y="289.4925" style="fill: #262626; stroke: #262626; stroke-width: 1.25"/>
      </g>
     </g>
     <g id="text_3">
      <text style="fill: #262626; font: 16px 'Arial', 'DejaVu Sans', 'Liberation Sans', 'Bitstream Vera Sans', sans-serif; text-anchor: middle" x="204.928125" y="310.445" transform="rotate(-0 204.928125 310.445)">40</text>
     </g>
    </g>
    <g id="xtick_4">
     <g id="line2d_4">
      <g>
       <use xlink:href="#mcb8838ee81" x="258.553125" y="289.4925" style="fill: #262626; stroke: #262626; stroke-width: 1.25"/>
      </g>
     </g>
     <g id="text_4">
      <text style="fill: #262626; font: 16px 'Arial', 'DejaVu Sans', 'Liberation Sans', 'Bitstream Vera Sans', sans-serif; text-anchor: middle" x="258.553125" y="310.445" transform="rotate(-0 258.553125 310.445)">60</text>
     </g>
    </g>
    <g id="xtick_5">
     <g id="line2d_5">
      <g>
       <use xlink:href="#mcb8838ee81" x="312.178125" y="289.4925" style="fill: #262626; stroke: #262626; stroke-width: 1.25"/>
      </g>
     </g>
     <g id="text_5">
      <text style="fill: #262626; font: 16px 'Arial', 'DejaVu Sans', 'Liberation Sans', 'Bitstream Vera Sans', sans-serif; text-anchor: middle" x="312.178125" y="310.445" transform="rotate(-0 312.178125 310.445)">80</text>
     </g>
    </g>
    <g id="xtick_6">
     <g id="line2d_6">
      <g>
       <use xlink:href="#mcb8838ee81" x="365.803125" y="289.4925" style="fill: #262626; stroke: #262626; stroke-width: 1.25"/>
      </g>
     </g>
     <g id="text_6">
      <text style="fill: #262626; font: 16px 'Arial', 'DejaVu Sans', 'Liberation Sans', 'Bitstream Vera Sans', sans-serif; text-anchor: middle" x="365.803125" y="310.445" transform="rotate(-0 365.803125 310.445)">100</text>
     </g>
    </g>
    <g id="text_7">
     <text style="fill: #262626; font: 16px 'Arial', 'DejaVu Sans', 'Liberation Sans', 'Bitstream Vera Sans', sans-serif; text-anchor: middle" x="230.4" y="329.2725" transform="rotate(-0 230.4 329.2725)">Day of outbreak</text>
    </g>
   </g>
   <g id="matplotlib.axis_2">
    <g id="ytick_1">
     <g id="line2d_7">
      <defs>
       <path id="m1e087f13b5" d="M 0 0 
L -6 0 
" style="stroke: #262626; stroke-width: 1.25"/>
      </defs>
      <g>
       <use xlink:href="#m1e087f13b5" x="94.996875" y="289.4925" style="fill: #262626; stroke: #262626; stroke-width: 1.25"/>
      </g>
     </g>
     <g id="text_8">
      <text style="fill: #262626; font: 16px 'Arial', 'DejaVu Sans', 'Liberation Sans', 'Bitstream Vera Sans', sans-serif; text-anchor: end" x="85.496875" y="295.21875" transform="rotate(-0 85.496875 295.21875)">0</text>
     </g>
    </g>
    <g id="ytick_2">
     <g id="line2d_8">
      <g>
       <use xlink:href="#m1e087f13b5" x="94.996875" y="18.68625" style="fill: #262626; stroke: #262626; stroke-width: 1.25"/>
      </g>
     </g>
     <g id="text_9">
      <text style="fill: #262626; font: 16px 'Arial', 'DejaVu Sans', 'Liberation Sans', 'Bitstream Vera Sans', sans-serif; text-anchor: end" x="85.496875" y="24.4125" transform="rotate(-0 85.496875 24.4125)">1</text>
     </g>
    </g>
    <g id="text_10">
     <text style="fill: #262626; font: 16px 'Arial', 'DejaVu Sans', 'Liberation Sans', 'Bitstream Vera Sans', sans-serif; text-anchor: middle" x="69.419375" y="154.089375" transform="rotate(-90 69.419375 154.089375)">Number of cases</text>
    </g>
   </g>
   <g id="patch_3">
    <path d="M 96.3375 289.4925 
L 99.01875 289.4925 
L 99.01875 18.68625 
L 96.3375 18.68625 
z
" style="fill: #1a1a1a; opacity: 0.25; stroke: #1a1a1a; stroke-width: 0.1; stroke-linejoin: miter"/>
   </g>
   <g id="patch_4">
    <path d="M 99.01875 289.4925 
L 101.7 289.4925 
L 101.7 289.4925 
L 99.01875 289.4925 
z
" style="fill: #1a1a1a; opacity: 0.25; stroke: #1a1a1a; stroke-width: 0.1; stroke-linejoin: miter"/>
   </g>
   <g id="patch_5">
    <path d="M 101.7 289.4925 
L 104.38125 289.4925 
L 104.38125 289.4925 
L 101.7 289.4925 
z
" style="fill: #1a1a1a; opacity: 0.25; stroke: #1a1a1a; stroke-width: 0.1; stroke-linejoin: miter"/>
   </g>
   <g id="patch_6">
    <path d="M 104.38125 289.4925 
L 107.0625 289.4925 
L 107.0625 289.4925 
L 104.38125 289.4925 
z
" style="fill: #1a1a1a; opacity: 0.25; stroke: #1a1a1a; stroke-width: 0.1; stroke-linejoin: miter"/>
   </g>
   <g id="patch_7">
    <path d="M 107.0625 289.4925 
L 109.74375 289.4925 
L 109.74375 289.4925 
L 107.0625 289.4925 
z
" style="fill: #1a1a1a; opacity: 0.25; stroke: #1a1a1a; stroke-width: 0.1; stroke-linejoin: miter"/>
   </g>
   <g id="patch_8">
    <path d="M 109.74375 289.4925 
L 112.425 289.4925 
L 112.425 289.4925 
L 109.74375 289.4925 
z
" style="fill: #1a1a1a; opacity: 0.25; stroke: #1a1a1a; stroke-width: 0.1; stroke-linejoin: miter"/>
   </g>
   <g id="patch_9">
    <path d="M 112.425 289.4925 
L 115.10625 289.4925 
L 115.10625 289.4925 
L 112.425 289.4925 
z
" style="fill: #1a1a1a; opacity: 0.25; stroke: #1a1a1a; stroke-width: 0.1; stroke-linejoin: miter"/>
   </g>
   <g id="patch_10">
    <path d="M 115.10625 289.4925 
L 117.7875 289.4925 
L 117.7875 289.4925 
L 115.10625 289.4925 
z
" style="fill: #1a1a1a; opacity: 0.25; stroke: #1a1a1a; stroke-width: 0.1; stroke-linejoin: miter"/>
   </g>
   <g id="patch_11">
    <path d="M 117.7875 289.4925 
L 120.46875 289.4925 
L 120.46875 289.4925 
L 117.7875 289.4925 
z
" style="fill: #1a1a1a; opacity: 0.25; stroke: #1a1a1a; stroke-width: 0.1; stroke-linejoin: miter"/>
   </g>
   <g id="patch_12">
    <path d="M 120.46875 289.4925 
L 123.15 289.4925 
L 123.15 289.4925 
L 120.46875 289.4925 
z
" style="fill: #1a1a1a; opacity: 0.25; stroke: #1a1a1a; stroke-width: 0.1; stroke-linejoin: miter"/>
   </g>
   <g id="patch_13">
    <path d="M 123.15 289.4925 
L 125.83125 289.4925 
L 125.83125 289.4925 
L 123.15 289.4925 
z
" style="fill: #1a1a1a; opacity: 0.25; stroke: #1a1a1a; stroke-width: 0.1; stroke-linejoin: miter"/>
   </g>
   <g id="patch_14">
    <path d="M 125.83125 289.4925 
L 128.5125 289.4925 
L 128.5125 289.4925 
L 125.83125 289.4925 
z
" style="fill: #1a1a1a; opacity: 0.25; stroke: #1a1a1a; stroke-width: 0.1; stroke-linejoin: miter"/>
   </g>
   <g id="patch_15">
    <path d="M 128.5125 289.4925 
L 131.19375 289.4925 
L 131.19375 289.4925 
L 128.5125 289.4925 
z
" style="fill: #1a1a1a; opacity: 0.25; stroke: #1a1a1a; stroke-width: 0.1; stroke-linejoin: miter"/>
   </g>
   <g id="patch_16">
    <path d="M 131.19375 289.4925 
L 133.875 289.4925 
L 133.875 289.4925 
L 131.19375 289.4925 
z
" style="fill: #1a1a1a; opacity: 0.25; stroke: #1a1a1a; stroke-width: 0.1; stroke-linejoin: miter"/>
   </g>
   <g id="patch_17">
    <path d="M 133.875 289.4925 
L 136.55625 289.4925 
L 136.55625 289.4925 
L 133.875 289.4925 
z
" style="fill: #1a1a1a; opacity: 0.25; stroke: #1a1a1a; stroke-width: 0.1; stroke-linejoin: miter"/>
   </g>
   <g id="patch_18">
    <path d="M 136.55625 289.4925 
L 139.2375 289.4925 
L 139.2375 289.4925 
L 136.55625 289.4925 
z
" style="fill: #1a1a1a; opacity: 0.25; stroke: #1a1a1a; stroke-width: 0.1; stroke-linejoin: miter"/>
   </g>
   <g id="patch_19">
    <path d="M 139.2375 289.4925 
L 141.91875 289.4925 
L 141.91875 289.4925 
L 139.2375 289.4925 
z
" style="fill: #1a1a1a; opacity: 0.25; stroke: #1a1a1a; stroke-width: 0.1; stroke-linejoin: miter"/>
   </g>
   <g id="patch_20">
    <path d="M 141.91875 289.4925 
L 144.6 289.4925 
L 144.6 289.4925 
L 141.91875 289.4925 
z
" style="fill: #1a1a1a; opacity: 0.25; stroke: #1a1a1a; stroke-width: 0.1; stroke-linejoin: miter"/>
   </g>
   <g id="patch_21">
    <path d="M 144.6 289.4925 
L 147.28125 289.4925 
L 147.28125 289.4925 
L 144.6 289.4925 
z
" style="fill: #1a1a1a; opacity: 0.25; stroke: #1a1a1a; stroke-width: 0.1; stroke-linejoin: miter"/>
   </g>
   <g id="patch_22">
    <path d="M 147.28125 289.4925 
L 149.9625 289.4925 
L 149.9625 289.4925 
L 147.28125 289.4925 
z
" style="fill: #1a1a1a; opacity: 0.25; stroke: #1a1a1a; stroke-width: 0.1; stroke-linejoin: miter"/>
   </g>
   <g id="patch_23">
    <path d="M 149.9625 289.4925 
L 152.64375 289.4925 
L 152.64375 289.4925 
L 149.9625 289.4925 
z
" style="fill: #1a1a1a; opacity: 0.25; stroke: #1a1a1a; stroke-width: 0.1; stroke-linejoin: miter"/>
   </g>
   <g id="patch_24">
    <path d="M 152.64375 289.4925 
L 155.325 289.4925 
L 155.325 289.4925 
L 152.64375 289.4925 
z
" style="fill: #1a1a1a; opacity: 0.25; stroke: #1a1a1a; stroke-width: 0.1; stroke-linejoin: miter"/>
   </g>
   <g id="patch_25">
    <path d="M 155.325 289.4925 
L 158.00625 289.4925 
L 158.00625 18.68625 
L 155.325 18.68625 
z
" style="fill: #1a1a1a; opacity: 0.25; stroke: #1a1a1a; stroke-width: 0.1; stroke-linejoin: miter"/>
   </g>
   <g id="patch_26">
    <path d="M 158.00625 289.4925 
L 160.6875 289.4925 
L 160.6875 289.4925 
L 158.00625 289.4925 
z
" style="fill: #1a1a1a; opacity: 0.25; stroke: #1a1a1a; stroke-width: 0.1; stroke-linejoin: miter"/>
   </g>
   <g id="patch_27">
    <path d="M 160.6875 289.4925 
L 163.36875 289.4925 
L 163.36875 289.4925 
L 160.6875 289.4925 
z
" style="fill: #1a1a1a; opacity: 0.25; stroke: #1a1a1a; stroke-width: 0.1; stroke-linejoin: miter"/>
   </g>
   <g id="patch_28">
    <path d="M 163.36875 289.4925 
L 166.05 289.4925 
L 166.05 289.4925 
L 163.36875 289.4925 
z
" style="fill: #1a1a1a; opacity: 0.25; stroke: #1a1a1a; stroke-width: 0.1; stroke-linejoin: miter"/>
   </g>
   <g id="patch_29">
    <path d="M 166.05 289.4925 
L 168.73125 289.4925 
L 168.73125 289.4925 
L 166.05 289.4925 
z
" style="fill: #1a1a1a; opacity: 0.25; stroke: #1a1a1a; stroke-width: 0.1; stroke-linejoin: miter"/>
   </g>
   <g id="patch_30">
    <path d="M 168.73125 289.4925 
L 171.4125 289.4925 
L 171.4125 289.4925 
L 168.73125 289.4925 
z
" style="fill: #1a1a1a; opacity: 0.25; stroke: #1a1a1a; stroke-width: 0.1; stroke-linejoin: miter"/>
   </g>
   <g id="patch_31">
    <path d="M 171.4125 289.4925 
L 174.09375 289.4925 
L 174.09375 18.68625 
L 171.4125 18.68625 
z
" style="fill: #1a1a1a; opacity: 0.25; stroke: #1a1a1a; stroke-width: 0.1; stroke-linejoin: miter"/>
   </g>
   <g id="patch_32">
    <path d="M 174.09375 289.4925 
L 176.775 289.4925 
L 176.775 289.4925 
L 174.09375 289.4925 
z
" style="fill: #1a1a1a; opacity: 0.25; stroke: #1a1a1a; stroke-width: 0.1; stroke-linejoin: miter"/>
   </g>
   <g id="patch_33">
    <path d="M 176.775 289.4925 
L 179.45625 289.4925 
L 179.45625 18.68625 
L 176.775 18.68625 
z
" style="fill: #1a1a1a; opacity: 0.25; stroke: #1a1a1a; stroke-width: 0.1; stroke-linejoin: miter"/>
   </g>
   <g id="patch_34">
    <path d="M 179.45625 289.4925 
L 182.1375 289.4925 
L 182.1375 289.4925 
L 179.45625 289.4925 
z
" style="fill: #1a1a1a; opacity: 0.25; stroke: #1a1a1a; stroke-width: 0.1; stroke-linejoin: miter"/>
   </g>
   <g id="patch_35">
    <path d="M 182.1375 289.4925 
L 184.81875 289.4925 
L 184.81875 289.4925 
L 182.1375 289.4925 
z
" style="fill: #1a1a1a; opacity: 0.25; stroke: #1a1a1a; stroke-width: 0.1; stroke-linejoin: miter"/>
   </g>
   <g id="patch_36">
    <path d="M 184.81875 289.4925 
L 187.5 289.4925 
L 187.5 289.4925 
L 184.81875 289.4925 
z
" style="fill: #1a1a1a; opacity: 0.25; stroke: #1a1a1a; stroke-width: 0.1; stroke-linejoin: miter"/>
   </g>
   <g id="patch_37">
    <path d="M 187.5 289.4925 
L 190.18125 289.4925 
L 190.18125 18.68625 
L 187.5 18.68625 
z
" style="fill: #1a1a1a; opacity: 0.25; stroke: #1a1a1a; stroke-width: 0.1; stroke-linejoin: miter"/>
   </g>
   <g id="patch_38">
    <path d="M 190.18125 289.4925 
L 192.8625 289.4925 
L 192.8625 18.68625 
L 190.18125 18.68625 
z
" style="fill: #1a1a1a; opacity: 0.25; stroke: #1a1a1a; stroke-width: 0.1; stroke-linejoin: miter"/>
   </g>
   <g id="patch_39">
    <path d="M 192.8625 289.4925 
L 195.54375 289.4925 
L 195.54375 18.68625 
L 192.8625 18.68625 
z
" style="fill: #1a1a1a; opacity: 0.25; stroke: #1a1a1a; stroke-width: 0.1; stroke-linejoin: miter"/>
   </g>
   <g id="patch_40">
    <path d="M 195.54375 289.4925 
L 198.225 289.4925 
L 198.225 289.4925 
L 195.54375 289.4925 
z
" style="fill: #1a1a1a; opacity: 0.25; stroke: #1a1a1a; stroke-width: 0.1; stroke-linejoin: miter"/>
   </g>
   <g id="patch_41">
    <path d="M 198.225 289.4925 
L 200.90625 289.4925 
L 200.90625 289.4925 
L 198.225 289.4925 
z
" style="fill: #1a1a1a; opacity: 0.25; stroke: #1a1a1a; stroke-width: 0.1; stroke-linejoin: miter"/>
   </g>
   <g id="patch_42">
    <path d="M 200.90625 289.4925 
L 203.5875 289.4925 
L 203.5875 289.4925 
L 200.90625 289.4925 
z
" style="fill: #1a1a1a; opacity: 0.25; stroke: #1a1a1a; stroke-width: 0.1; stroke-linejoin: miter"/>
   </g>
   <g id="patch_43">
    <path d="M 203.5875 289.4925 
L 206.26875 289.4925 
L 206.26875 289.4925 
L 203.5875 289.4925 
z
" style="fill: #1a1a1a; opacity: 0.25; stroke: #1a1a1a; stroke-width: 0.1; stroke-linejoin: miter"/>
   </g>
   <g id="patch_44">
    <path d="M 206.26875 289.4925 
L 208.95 289.4925 
L 208.95 289.4925 
L 206.26875 289.4925 
z
" style="fill: #1a1a1a; opacity: 0.25; stroke: #1a1a1a; stroke-width: 0.1; stroke-linejoin: miter"/>
   </g>
   <g id="patch_45">
    <path d="M 208.95 289.4925 
L 211.63125 289.4925 
L 211.63125 289.4925 
L 208.95 289.4925 
z
" style="fill: #1a1a1a; opacity: 0.25; stroke: #1a1a1a; stroke-width: 0.1; stroke-linejoin: miter"/>
   </g>
   <g id="patch_46">
    <path d="M 211.63125 289.4925 
L 214.3125 289.4925 
L 214.3125 289.4925 
L 211.63125 289.4925 
z
" style="fill: #1a1a1a; opacity: 0.25; stroke: #1a1a1a; stroke-width: 0.1; stroke-linejoin: miter"/>
   </g>
   <g id="patch_47">
    <path d="M 214.3125 289.4925 
L 216.99375 289.4925 
L 216.99375 289.4925 
L 214.3125 289.4925 
z
" style="fill: #1a1a1a; opacity: 0.25; stroke: #1a1a1a; stroke-width: 0.1; stroke-linejoin: miter"/>
   </g>
   <g id="patch_48">
    <path d="M 216.99375 289.4925 
L 219.675 289.4925 
L 219.675 18.68625 
L 216.99375 18.68625 
z
" style="fill: #1a1a1a; opacity: 0.25; stroke: #1a1a1a; stroke-width: 0.1; stroke-linejoin: miter"/>
   </g>
   <g id="patch_49">
    <path d="M 219.675 289.4925 
L 222.35625 289.4925 
L 222.35625 289.4925 
L 219.675 289.4925 
z
" style="fill: #1a1a1a; opacity: 0.25; stroke: #1a1a1a; stroke-width: 0.1; stroke-linejoin: miter"/>
   </g>
   <g id="patch_50">
    <path d="M 222.35625 289.4925 
L 225.0375 289.4925 
L 225.0375 289.4925 
L 222.35625 289.4925 
z
" style="fill: #1a1a1a; opacity: 0.25; stroke: #1a1a1a; stroke-width: 0.1; stroke-linejoin: miter"/>
   </g>
   <g id="patch_51">
    <path d="M 225.0375 289.4925 
L 227.71875 289.4925 
L 227.71875 289.4925 
L 225.0375 289.4925 
z
" style="fill: #1a1a1a; opacity: 0.25; stroke: #1a1a1a; stroke-width: 0.1; stroke-linejoin: miter"/>
   </g>
   <g id="patch_52">
    <path d="M 227.71875 289.4925 
L 230.4 289.4925 
L 230.4 289.4925 
L 227.71875 289.4925 
z
" style="fill: #1a1a1a; opacity: 0.25; stroke: #1a1a1a; stroke-width: 0.1; stroke-linejoin: miter"/>
   </g>
   <g id="patch_53">
    <path d="M 230.4 289.4925 
L 233.08125 289.4925 
L 233.08125 289.4925 
L 230.4 289.4925 
z
" style="fill: #1a1a1a; opacity: 0.25; stroke: #1a1a1a; stroke-width: 0.1; stroke-linejoin: miter"/>
   </g>
   <g id="patch_54">
    <path d="M 233.08125 289.4925 
L 235.7625 289.4925 
L 235.7625 289.4925 
L 233.08125 289.4925 
z
" style="fill: #1a1a1a; opacity: 0.25; stroke: #1a1a1a; stroke-width: 0.1; stroke-linejoin: miter"/>
   </g>
   <g id="patch_55">
    <path d="M 235.7625 289.4925 
L 238.44375 289.4925 
L 238.44375 289.4925 
L 235.7625 289.4925 
z
" style="fill: #1a1a1a; opacity: 0.25; stroke: #1a1a1a; stroke-width: 0.1; stroke-linejoin: miter"/>
   </g>
   <g id="patch_56">
    <path d="M 238.44375 289.4925 
L 241.125 289.4925 
L 241.125 289.4925 
L 238.44375 289.4925 
z
" style="fill: #1a1a1a; opacity: 0.25; stroke: #1a1a1a; stroke-width: 0.1; stroke-linejoin: miter"/>
   </g>
   <g id="patch_57">
    <path d="M 241.125 289.4925 
L 243.80625 289.4925 
L 243.80625 289.4925 
L 241.125 289.4925 
z
" style="fill: #1a1a1a; opacity: 0.25; stroke: #1a1a1a; stroke-width: 0.1; stroke-linejoin: miter"/>
   </g>
   <g id="patch_58">
    <path d="M 243.80625 289.4925 
L 246.4875 289.4925 
L 246.4875 289.4925 
L 243.80625 289.4925 
z
" style="fill: #1a1a1a; opacity: 0.25; stroke: #1a1a1a; stroke-width: 0.1; stroke-linejoin: miter"/>
   </g>
   <g id="patch_59">
    <path d="M 246.4875 289.4925 
L 249.16875 289.4925 
L 249.16875 289.4925 
L 246.4875 289.4925 
z
" style="fill: #1a1a1a; opacity: 0.25; stroke: #1a1a1a; stroke-width: 0.1; stroke-linejoin: miter"/>
   </g>
   <g id="patch_60">
    <path d="M 249.16875 289.4925 
L 251.85 289.4925 
L 251.85 289.4925 
L 249.16875 289.4925 
z
" style="fill: #1a1a1a; opacity: 0.25; stroke: #1a1a1a; stroke-width: 0.1; stroke-linejoin: miter"/>
   </g>
   <g id="patch_61">
    <path d="M 251.85 289.4925 
L 254.53125 289.4925 
L 254.53125 289.4925 
L 251.85 289.4925 
z
" style="fill: #1a1a1a; opacity: 0.25; stroke: #1a1a1a; stroke-width: 0.1; stroke-linejoin: miter"/>
   </g>
   <g id="patch_62">
    <path d="M 254.53125 289.4925 
L 257.2125 289.4925 
L 257.2125 289.4925 
L 254.53125 289.4925 
z
" style="fill: #1a1a1a; opacity: 0.25; stroke: #1a1a1a; stroke-width: 0.1; stroke-linejoin: miter"/>
   </g>
   <g id="patch_63">
    <path d="M 257.2125 289.4925 
L 259.89375 289.4925 
L 259.89375 289.4925 
L 257.2125 289.4925 
z
" style="fill: #1a1a1a; opacity: 0.25; stroke: #1a1a1a; stroke-width: 0.1; stroke-linejoin: miter"/>
   </g>
   <g id="patch_64">
    <path d="M 259.89375 289.4925 
L 262.575 289.4925 
L 262.575 289.4925 
L 259.89375 289.4925 
z
" style="fill: #1a1a1a; opacity: 0.25; stroke: #1a1a1a; stroke-width: 0.1; stroke-linejoin: miter"/>
   </g>
   <g id="patch_65">
    <path d="M 262.575 289.4925 
L 265.25625 289.4925 
L 265.25625 289.4925 
L 262.575 289.4925 
z
" style="fill: #1a1a1a; opacity: 0.25; stroke: #1a1a1a; stroke-width: 0.1; stroke-linejoin: miter"/>
   </g>
   <g id="patch_66">
    <path d="M 265.25625 289.4925 
L 267.9375 289.4925 
L 267.9375 289.4925 
L 265.25625 289.4925 
z
" style="fill: #1a1a1a; opacity: 0.25; stroke: #1a1a1a; stroke-width: 0.1; stroke-linejoin: miter"/>
   </g>
   <g id="patch_67">
    <path d="M 267.9375 289.4925 
L 270.61875 289.4925 
L 270.61875 289.4925 
L 267.9375 289.4925 
z
" style="fill: #1a1a1a; opacity: 0.25; stroke: #1a1a1a; stroke-width: 0.1; stroke-linejoin: miter"/>
   </g>
   <g id="patch_68">
    <path d="M 270.61875 289.4925 
L 273.3 289.4925 
L 273.3 289.4925 
L 270.61875 289.4925 
z
" style="fill: #1a1a1a; opacity: 0.25; stroke: #1a1a1a; stroke-width: 0.1; stroke-linejoin: miter"/>
   </g>
   <g id="patch_69">
    <path d="M 273.3 289.4925 
L 275.98125 289.4925 
L 275.98125 289.4925 
L 273.3 289.4925 
z
" style="fill: #1a1a1a; opacity: 0.25; stroke: #1a1a1a; stroke-width: 0.1; stroke-linejoin: miter"/>
   </g>
   <g id="patch_70">
    <path d="M 275.98125 289.4925 
L 278.6625 289.4925 
L 278.6625 289.4925 
L 275.98125 289.4925 
z
" style="fill: #1a1a1a; opacity: 0.25; stroke: #1a1a1a; stroke-width: 0.1; stroke-linejoin: miter"/>
   </g>
   <g id="patch_71">
    <path d="M 278.6625 289.4925 
L 281.34375 289.4925 
L 281.34375 289.4925 
L 278.6625 289.4925 
z
" style="fill: #1a1a1a; opacity: 0.25; stroke: #1a1a1a; stroke-width: 0.1; stroke-linejoin: miter"/>
   </g>
   <g id="patch_72">
    <path d="M 281.34375 289.4925 
L 284.025 289.4925 
L 284.025 289.4925 
L 281.34375 289.4925 
z
" style="fill: #1a1a1a; opacity: 0.25; stroke: #1a1a1a; stroke-width: 0.1; stroke-linejoin: miter"/>
   </g>
   <g id="patch_73">
    <path d="M 284.025 289.4925 
L 286.70625 289.4925 
L 286.70625 289.4925 
L 284.025 289.4925 
z
" style="fill: #1a1a1a; opacity: 0.25; stroke: #1a1a1a; stroke-width: 0.1; stroke-linejoin: miter"/>
   </g>
   <g id="patch_74">
    <path d="M 286.70625 289.4925 
L 289.3875 289.4925 
L 289.3875 289.4925 
L 286.70625 289.4925 
z
" style="fill: #1a1a1a; opacity: 0.25; stroke: #1a1a1a; stroke-width: 0.1; stroke-linejoin: miter"/>
   </g>
   <g id="patch_75">
    <path d="M 289.3875 289.4925 
L 292.06875 289.4925 
L 292.06875 289.4925 
L 289.3875 289.4925 
z
" style="fill: #1a1a1a; opacity: 0.25; stroke: #1a1a1a; stroke-width: 0.1; stroke-linejoin: miter"/>
   </g>
   <g id="patch_76">
    <path d="M 292.06875 289.4925 
L 294.75 289.4925 
L 294.75 289.4925 
L 292.06875 289.4925 
z
" style="fill: #1a1a1a; opacity: 0.25; stroke: #1a1a1a; stroke-width: 0.1; stroke-linejoin: miter"/>
   </g>
   <g id="patch_77">
    <path d="M 294.75 289.4925 
L 297.43125 289.4925 
L 297.43125 289.4925 
L 294.75 289.4925 
z
" style="fill: #1a1a1a; opacity: 0.25; stroke: #1a1a1a; stroke-width: 0.1; stroke-linejoin: miter"/>
   </g>
   <g id="patch_78">
    <path d="M 297.43125 289.4925 
L 300.1125 289.4925 
L 300.1125 289.4925 
L 297.43125 289.4925 
z
" style="fill: #1a1a1a; opacity: 0.25; stroke: #1a1a1a; stroke-width: 0.1; stroke-linejoin: miter"/>
   </g>
   <g id="patch_79">
    <path d="M 300.1125 289.4925 
L 302.79375 289.4925 
L 302.79375 289.4925 
L 300.1125 289.4925 
z
" style="fill: #1a1a1a; opacity: 0.25; stroke: #1a1a1a; stroke-width: 0.1; stroke-linejoin: miter"/>
   </g>
   <g id="patch_80">
    <path d="M 302.79375 289.4925 
L 305.475 289.4925 
L 305.475 289.4925 
L 302.79375 289.4925 
z
" style="fill: #1a1a1a; opacity: 0.25; stroke: #1a1a1a; stroke-width: 0.1; stroke-linejoin: miter"/>
   </g>
   <g id="patch_81">
    <path d="M 305.475 289.4925 
L 308.15625 289.4925 
L 308.15625 289.4925 
L 305.475 289.4925 
z
" style="fill: #1a1a1a; opacity: 0.25; stroke: #1a1a1a; stroke-width: 0.1; stroke-linejoin: miter"/>
   </g>
   <g id="patch_82">
    <path d="M 308.15625 289.4925 
L 310.8375 289.4925 
L 310.8375 289.4925 
L 308.15625 289.4925 
z
" style="fill: #1a1a1a; opacity: 0.25; stroke: #1a1a1a; stroke-width: 0.1; stroke-linejoin: miter"/>
   </g>
   <g id="patch_83">
    <path d="M 310.8375 289.4925 
L 313.51875 289.4925 
L 313.51875 289.4925 
L 310.8375 289.4925 
z
" style="fill: #1a1a1a; opacity: 0.25; stroke: #1a1a1a; stroke-width: 0.1; stroke-linejoin: miter"/>
   </g>
   <g id="patch_84">
    <path d="M 313.51875 289.4925 
L 316.2 289.4925 
L 316.2 289.4925 
L 313.51875 289.4925 
z
" style="fill: #1a1a1a; opacity: 0.25; stroke: #1a1a1a; stroke-width: 0.1; stroke-linejoin: miter"/>
   </g>
   <g id="patch_85">
    <path d="M 316.2 289.4925 
L 318.88125 289.4925 
L 318.88125 289.4925 
L 316.2 289.4925 
z
" style="fill: #1a1a1a; opacity: 0.25; stroke: #1a1a1a; stroke-width: 0.1; stroke-linejoin: miter"/>
   </g>
   <g id="patch_86">
    <path d="M 318.88125 289.4925 
L 321.5625 289.4925 
L 321.5625 289.4925 
L 318.88125 289.4925 
z
" style="fill: #1a1a1a; opacity: 0.25; stroke: #1a1a1a; stroke-width: 0.1; stroke-linejoin: miter"/>
   </g>
   <g id="patch_87">
    <path d="M 321.5625 289.4925 
L 324.24375 289.4925 
L 324.24375 289.4925 
L 321.5625 289.4925 
z
" style="fill: #1a1a1a; opacity: 0.25; stroke: #1a1a1a; stroke-width: 0.1; stroke-linejoin: miter"/>
   </g>
   <g id="patch_88">
    <path d="M 324.24375 289.4925 
L 326.925 289.4925 
L 326.925 289.4925 
L 324.24375 289.4925 
z
" style="fill: #1a1a1a; opacity: 0.25; stroke: #1a1a1a; stroke-width: 0.1; stroke-linejoin: miter"/>
   </g>
   <g id="patch_89">
    <path d="M 326.925 289.4925 
L 329.60625 289.4925 
L 329.60625 289.4925 
L 326.925 289.4925 
z
" style="fill: #1a1a1a; opacity: 0.25; stroke: #1a1a1a; stroke-width: 0.1; stroke-linejoin: miter"/>
   </g>
   <g id="patch_90">
    <path d="M 329.60625 289.4925 
L 332.2875 289.4925 
L 332.2875 289.4925 
L 329.60625 289.4925 
z
" style="fill: #1a1a1a; opacity: 0.25; stroke: #1a1a1a; stroke-width: 0.1; stroke-linejoin: miter"/>
   </g>
   <g id="patch_91">
    <path d="M 332.2875 289.4925 
L 334.96875 289.4925 
L 334.96875 289.4925 
L 332.2875 289.4925 
z
" style="fill: #1a1a1a; opacity: 0.25; stroke: #1a1a1a; stroke-width: 0.1; stroke-linejoin: miter"/>
   </g>
   <g id="patch_92">
    <path d="M 334.96875 289.4925 
L 337.65 289.4925 
L 337.65 289.4925 
L 334.96875 289.4925 
z
" style="fill: #1a1a1a; opacity: 0.25; stroke: #1a1a1a; stroke-width: 0.1; stroke-linejoin: miter"/>
   </g>
   <g id="patch_93">
    <path d="M 337.65 289.4925 
L 340.33125 289.4925 
L 340.33125 289.4925 
L 337.65 289.4925 
z
" style="fill: #1a1a1a; opacity: 0.25; stroke: #1a1a1a; stroke-width: 0.1; stroke-linejoin: miter"/>
   </g>
   <g id="patch_94">
    <path d="M 340.33125 289.4925 
L 343.0125 289.4925 
L 343.0125 289.4925 
L 340.33125 289.4925 
z
" style="fill: #1a1a1a; opacity: 0.25; stroke: #1a1a1a; stroke-width: 0.1; stroke-linejoin: miter"/>
   </g>
   <g id="patch_95">
    <path d="M 343.0125 289.4925 
L 345.69375 289.4925 
L 345.69375 289.4925 
L 343.0125 289.4925 
z
" style="fill: #1a1a1a; opacity: 0.25; stroke: #1a1a1a; stroke-width: 0.1; stroke-linejoin: miter"/>
   </g>
   <g id="patch_96">
    <path d="M 345.69375 289.4925 
L 348.375 289.4925 
L 348.375 289.4925 
L 345.69375 289.4925 
z
" style="fill: #1a1a1a; opacity: 0.25; stroke: #1a1a1a; stroke-width: 0.1; stroke-linejoin: miter"/>
   </g>
   <g id="patch_97">
    <path d="M 348.375 289.4925 
L 351.05625 289.4925 
L 351.05625 289.4925 
L 348.375 289.4925 
z
" style="fill: #1a1a1a; opacity: 0.25; stroke: #1a1a1a; stroke-width: 0.1; stroke-linejoin: miter"/>
   </g>
   <g id="patch_98">
    <path d="M 351.05625 289.4925 
L 353.7375 289.4925 
L 353.7375 289.4925 
L 351.05625 289.4925 
z
" style="fill: #1a1a1a; opacity: 0.25; stroke: #1a1a1a; stroke-width: 0.1; stroke-linejoin: miter"/>
   </g>
   <g id="patch_99">
    <path d="M 353.7375 289.4925 
L 356.41875 289.4925 
L 356.41875 289.4925 
L 353.7375 289.4925 
z
" style="fill: #1a1a1a; opacity: 0.25; stroke: #1a1a1a; stroke-width: 0.1; stroke-linejoin: miter"/>
   </g>
   <g id="patch_100">
    <path d="M 356.41875 289.4925 
L 359.1 289.4925 
L 359.1 289.4925 
L 356.41875 289.4925 
z
" style="fill: #1a1a1a; opacity: 0.25; stroke: #1a1a1a; stroke-width: 0.1; stroke-linejoin: miter"/>
   </g>
   <g id="patch_101">
    <path d="M 359.1 289.4925 
L 361.78125 289.4925 
L 361.78125 289.4925 
L 359.1 289.4925 
z
" style="fill: #1a1a1a; opacity: 0.25; stroke: #1a1a1a; stroke-width: 0.1; stroke-linejoin: miter"/>
   </g>
   <g id="patch_102">
    <path d="M 361.78125 289.4925 
L 364.4625 289.4925 
L 364.4625 289.4925 
L 361.78125 289.4925 
z
" style="fill: #1a1a1a; opacity: 0.25; stroke: #1a1a1a; stroke-width: 0.1; stroke-linejoin: miter"/>
   </g>
   <g id="patch_103">
    <path d="M 364.4625 289.4925 
L 367.14375 289.4925 
L 367.14375 289.4925 
L 364.4625 289.4925 
z
" style="fill: #1a1a1a; opacity: 0.25; stroke: #1a1a1a; stroke-width: 0.1; stroke-linejoin: miter"/>
   </g>
   <g id="line2d_9">
    <path d="M 357.759375 289.4925 
L 357.759375 18.68625 
" clip-path="url(#p6051a5310f)" style="fill: none; stroke-dasharray: 2,3.3; stroke-dashoffset: 0; stroke: #ff7f0e; stroke-width: 2"/>
   </g>
   <g id="patch_104">
    <path d="M 94.996875 289.4925 
L 94.996875 18.68625 
" style="fill: none; stroke: #262626; stroke-width: 1.25; stroke-linejoin: miter; stroke-linecap: square"/>
   </g>
   <g id="patch_105">
    <path d="M 94.996875 289.4925 
L 365.803125 289.4925 
" style="fill: none; stroke: #262626; stroke-width: 1.25; stroke-linejoin: miter; stroke-linecap: square"/>
   </g>
  </g>
 </g>
 <defs>
  <clipPath id="p6051a5310f">
   <rect x="94.996875" y="18.68625" width="270.80625" height="270.80625"/>
  </clipPath>
 </defs>
</svg>
