<?xml version="1.0" encoding="utf-8" standalone="no"?>
<!DOCTYPE svg PUBLIC "-//W3C//DTD SVG 1.1//EN"
  "http://www.w3.org/Graphics/SVG/1.1/DTD/svg11.dtd">
<svg xmlns:xlink="http://www.w3.org/1999/xlink" width="460.8pt" height="345.6pt" viewBox="0 0 460.8 345.6" xmlns="http://www.w3.org/2000/svg" version="1.1">
 <metadata>
  <rdf:RDF xmlns:dc="http://purl.org/dc/elements/1.1/" xmlns:cc="http://creativecommons.org/ns#" xmlns:rdf="http://www.w3.org/1999/02/22-rdf-syntax-ns#">
   <cc:Work>
    <dc:type rdf:resource="http://purl.org/dc/dcmitype/StillImage"/>
    <dc:date>2024-04-29T12:48:50.625843</dc:date>
    <dc:format>image/svg+xml</dc:format>
    <dc:creator>
     <cc:Agent>
      <dc:title>Matplotlib v3.8.2, https://matplotlib.org/</dc:title>
     </cc:Agent>
    </dc:creator>
   </cc:Work>
  </rdf:RDF>
 </metadata>
 <defs>
  <style type="text/css">*{stroke-linejoin: round; stroke-linecap: butt}</style>
 </defs>
 <g id="figure_1">
  <g id="patch_1">
   <path d="M 0 345.6 
L 460.8 345.6 
L 460.8 0 
L 0 0 
L 0 345.6 
z
" style="fill: none"/>
  </g>
  <g id="axes_1">
   <g id="patch_2">
    <path d="M 94.996875 289.4925 
L 365.803125 289.4925 
L 365.803125 18.68625 
L 94.996875 18.68625 
L 94.996875 289.4925 
z
" style="fill: none"/>
   </g>
   <g id="matplotlib.axis_1">
    <g id="xtick_1">
     <g id="line2d_1">
      <defs>
       <path id="m6347856190" d="M 0 0 
L 0 6 
" style="stroke: #262626; stroke-width: 1.25"/>
      </defs>
      <g>
       <use xlink:href="#m6347856190" x="96.917487" y="289.4925" style="fill: #262626; stroke: #262626; stroke-width: 1.25"/>
      </g>
     </g>
     <g id="text_1">
      <text style="fill: #262626; font: 16px 'Arial', 'DejaVu Sans', 'Liberation Sans', 'Bitstream Vera Sans', sans-serif; text-anchor: middle" x="96.917487" y="310.445" transform="rotate(-0 96.917487 310.445)">0</text>
     </g>
    </g>
    <g id="xtick_2">
     <g id="line2d_2">
      <g>
       <use xlink:href="#m6347856190" x="135.329721" y="289.4925" style="fill: #262626; stroke: #262626; stroke-width: 1.25"/>
      </g>
     </g>
     <g id="text_2">
      <text style="fill: #262626; font: 16px 'Arial', 'DejaVu Sans', 'Liberation Sans', 'Bitstream Vera Sans', sans-serif; text-anchor: middle" x="135.329721" y="310.445" transform="rotate(-0 135.329721 310.445)">10</text>
     </g>
    </g>
    <g id="xtick_3">
     <g id="line2d_3">
      <g>
       <use xlink:href="#m6347856190" x="173.741955" y="289.4925" style="fill: #262626; stroke: #262626; stroke-width: 1.25"/>
      </g>
     </g>
     <g id="text_3">
      <text style="fill: #262626; font: 16px 'Arial', 'DejaVu Sans', 'Liberation Sans', 'Bitstream Vera Sans', sans-serif; text-anchor: middle" x="173.741955" y="310.445" transform="rotate(-0 173.741955 310.445)">20</text>
     </g>
    </g>
    <g id="xtick_4">
     <g id="line2d_4">
      <g>
       <use xlink:href="#m6347856190" x="212.154189" y="289.4925" style="fill: #262626; stroke: #262626; stroke-width: 1.25"/>
      </g>
     </g>
     <g id="text_4">
      <text style="fill: #262626; font: 16px 'Arial', 'DejaVu Sans', 'Liberation Sans', 'Bitstream Vera Sans', sans-serif; text-anchor: middle" x="212.154189" y="310.445" transform="rotate(-0 212.154189 310.445)">30</text>
     </g>
    </g>
    <g id="xtick_5">
     <g id="line2d_5">
      <g>
       <use xlink:href="#m6347856190" x="250.566423" y="289.4925" style="fill: #262626; stroke: #262626; stroke-width: 1.25"/>
      </g>
     </g>
     <g id="text_5">
      <text style="fill: #262626; font: 16px 'Arial', 'DejaVu Sans', 'Liberation Sans', 'Bitstream Vera Sans', sans-serif; text-anchor: middle" x="250.566423" y="310.445" transform="rotate(-0 250.566423 310.445)">40</text>
     </g>
    </g>
    <g id="xtick_6">
     <g id="line2d_6">
      <g>
       <use xlink:href="#m6347856190" x="288.978657" y="289.4925" style="fill: #262626; stroke: #262626; stroke-width: 1.25"/>
      </g>
     </g>
     <g id="text_6">
      <text style="fill: #262626; font: 16px 'Arial', 'DejaVu Sans', 'Liberation Sans', 'Bitstream Vera Sans', sans-serif; text-anchor: middle" x="288.978657" y="310.445" transform="rotate(-0 288.978657 310.445)">50</text>
     </g>
    </g>
    <g id="xtick_7">
     <g id="line2d_7">
      <g>
       <use xlink:href="#m6347856190" x="327.390891" y="289.4925" style="fill: #262626; stroke: #262626; stroke-width: 1.25"/>
      </g>
     </g>
     <g id="text_7">
      <text style="fill: #262626; font: 16px 'Arial', 'DejaVu Sans', 'Liberation Sans', 'Bitstream Vera Sans', sans-serif; text-anchor: middle" x="327.390891" y="310.445" transform="rotate(-0 327.390891 310.445)">60</text>
     </g>
    </g>
    <g id="xtick_8">
     <g id="line2d_8">
      <g>
       <use xlink:href="#m6347856190" x="365.803125" y="289.4925" style="fill: #262626; stroke: #262626; stroke-width: 1.25"/>
      </g>
     </g>
     <g id="text_8">
      <text style="fill: #262626; font: 16px 'Arial', 'DejaVu Sans', 'Liberation Sans', 'Bitstream Vera Sans', sans-serif; text-anchor: middle" x="365.803125" y="310.445" transform="rotate(-0 365.803125 310.445)">70</text>
     </g>
    </g>
    <g id="text_9">
     <text style="fill: #262626; font: 16px 'Arial', 'DejaVu Sans', 'Liberation Sans', 'Bitstream Vera Sans', sans-serif; text-anchor: middle" x="230.4" y="329.2725" transform="rotate(-0 230.4 329.2725)">Day of outbreak</text>
    </g>
   </g>
   <g id="matplotlib.axis_2">
    <g id="ytick_1">
     <g id="line2d_9">
      <defs>
       <path id="mdd93ca7e15" d="M 0 0 
L -6 0 
" style="stroke: #262626; stroke-width: 1.25"/>
      </defs>
      <g>
       <use xlink:href="#mdd93ca7e15" x="94.996875" y="289.4925" style="fill: #262626; stroke: #262626; stroke-width: 1.25"/>
      </g>
     </g>
     <g id="text_10">
      <text style="fill: #262626; font: 16px 'Arial', 'DejaVu Sans', 'Liberation Sans', 'Bitstream Vera Sans', sans-serif; text-anchor: end" x="85.496875" y="295.21875" transform="rotate(-0 85.496875 295.21875)">0</text>
     </g>
    </g>
    <g id="ytick_2">
     <g id="line2d_10">
      <g>
       <use xlink:href="#mdd93ca7e15" x="94.996875" y="154.089375" style="fill: #262626; stroke: #262626; stroke-width: 1.25"/>
      </g>
     </g>
     <g id="text_11">
      <text style="fill: #262626; font: 16px 'Arial', 'DejaVu Sans', 'Liberation Sans', 'Bitstream Vera Sans', sans-serif; text-anchor: end" x="85.496875" y="159.815625" transform="rotate(-0 85.496875 159.815625)">1</text>
     </g>
    </g>
    <g id="ytick_3">
     <g id="line2d_11">
      <g>
       <use xlink:href="#mdd93ca7e15" x="94.996875" y="18.68625" style="fill: #262626; stroke: #262626; stroke-width: 1.25"/>
      </g>
     </g>
     <g id="text_12">
      <text style="fill: #262626; font: 16px 'Arial', 'DejaVu Sans', 'Liberation Sans', 'Bitstream Vera Sans', sans-serif; text-anchor: end" x="85.496875" y="24.4125" transform="rotate(-0 85.496875 24.4125)">2</text>
     </g>
    </g>
    <g id="text_13">
     <text style="fill: #262626; font: 16px 'Arial', 'DejaVu Sans', 'Liberation Sans', 'Bitstream Vera Sans', sans-serif; text-anchor: middle" x="69.419375" y="154.089375" transform="rotate(-90 69.419375 154.089375)">Number of cases</text>
    </g>
   </g>
   <g id="patch_3">
    <path d="M 94.996875 289.4925 
L 98.838098 289.4925 
L 98.838098 154.089375 
L 94.996875 154.089375 
z
" style="fill: #1a1a1a; opacity: 0.25; stroke: #1a1a1a; stroke-width: 0.1; stroke-linejoin: miter"/>
   </g>
   <g id="patch_4">
    <path d="M 98.838098 289.4925 
L 102.679322 289.4925 
L 102.679322 289.4925 
L 98.838098 289.4925 
z
" style="fill: #1a1a1a; opacity: 0.25; stroke: #1a1a1a; stroke-width: 0.1; stroke-linejoin: miter"/>
   </g>
   <g id="patch_5">
    <path d="M 102.679322 289.4925 
L 106.520545 289.4925 
L 106.520545 289.4925 
L 102.679322 289.4925 
z
" style="fill: #1a1a1a; opacity: 0.25; stroke: #1a1a1a; stroke-width: 0.1; stroke-linejoin: miter"/>
   </g>
   <g id="patch_6">
    <path d="M 106.520545 289.4925 
L 110.361769 289.4925 
L 110.361769 289.4925 
L 106.520545 289.4925 
z
" style="fill: #1a1a1a; opacity: 0.25; stroke: #1a1a1a; stroke-width: 0.1; stroke-linejoin: miter"/>
   </g>
   <g id="patch_7">
    <path d="M 110.361769 289.4925 
L 114.202992 289.4925 
L 114.202992 289.4925 
L 110.361769 289.4925 
z
" style="fill: #1a1a1a; opacity: 0.25; stroke: #1a1a1a; stroke-width: 0.1; stroke-linejoin: miter"/>
   </g>
   <g id="patch_8">
    <path d="M 114.202992 289.4925 
L 118.044215 289.4925 
L 118.044215 289.4925 
L 114.202992 289.4925 
z
" style="fill: #1a1a1a; opacity: 0.25; stroke: #1a1a1a; stroke-width: 0.1; stroke-linejoin: miter"/>
   </g>
   <g id="patch_9">
    <path d="M 118.044215 289.4925 
L 121.885439 289.4925 
L 121.885439 289.4925 
L 118.044215 289.4925 
z
" style="fill: #1a1a1a; opacity: 0.25; stroke: #1a1a1a; stroke-width: 0.1; stroke-linejoin: miter"/>
   </g>
   <g id="patch_10">
    <path d="M 121.885439 289.4925 
L 125.726662 289.4925 
L 125.726662 289.4925 
L 121.885439 289.4925 
z
" style="fill: #1a1a1a; opacity: 0.25; stroke: #1a1a1a; stroke-width: 0.1; stroke-linejoin: miter"/>
   </g>
   <g id="patch_11">
    <path d="M 125.726662 289.4925 
L 129.567886 289.4925 
L 129.567886 289.4925 
L 125.726662 289.4925 
z
" style="fill: #1a1a1a; opacity: 0.25; stroke: #1a1a1a; stroke-width: 0.1; stroke-linejoin: miter"/>
   </g>
   <g id="patch_12">
    <path d="M 129.567886 289.4925 
L 133.409109 289.4925 
L 133.409109 289.4925 
L 129.567886 289.4925 
z
" style="fill: #1a1a1a; opacity: 0.25; stroke: #1a1a1a; stroke-width: 0.1; stroke-linejoin: miter"/>
   </g>
   <g id="patch_13">
    <path d="M 133.409109 289.4925 
L 137.250332 289.4925 
L 137.250332 289.4925 
L 133.409109 289.4925 
z
" style="fill: #1a1a1a; opacity: 0.25; stroke: #1a1a1a; stroke-width: 0.1; stroke-linejoin: miter"/>
   </g>
   <g id="patch_14">
    <path d="M 137.250332 289.4925 
L 141.091556 289.4925 
L 141.091556 289.4925 
L 137.250332 289.4925 
z
" style="fill: #1a1a1a; opacity: 0.25; stroke: #1a1a1a; stroke-width: 0.1; stroke-linejoin: miter"/>
   </g>
   <g id="patch_15">
    <path d="M 141.091556 289.4925 
L 144.932779 289.4925 
L 144.932779 289.4925 
L 141.091556 289.4925 
z
" style="fill: #1a1a1a; opacity: 0.25; stroke: #1a1a1a; stroke-width: 0.1; stroke-linejoin: miter"/>
   </g>
   <g id="patch_16">
    <path d="M 144.932779 289.4925 
L 148.774003 289.4925 
L 148.774003 289.4925 
L 144.932779 289.4925 
z
" style="fill: #1a1a1a; opacity: 0.25; stroke: #1a1a1a; stroke-width: 0.1; stroke-linejoin: miter"/>
   </g>
   <g id="patch_17">
    <path d="M 148.774003 289.4925 
L 152.615226 289.4925 
L 152.615226 289.4925 
L 148.774003 289.4925 
z
" style="fill: #1a1a1a; opacity: 0.25; stroke: #1a1a1a; stroke-width: 0.1; stroke-linejoin: miter"/>
   </g>
   <g id="patch_18">
    <path d="M 152.615226 289.4925 
L 156.456449 289.4925 
L 156.456449 289.4925 
L 152.615226 289.4925 
z
" style="fill: #1a1a1a; opacity: 0.25; stroke: #1a1a1a; stroke-width: 0.1; stroke-linejoin: miter"/>
   </g>
   <g id="patch_19">
    <path d="M 156.456449 289.4925 
L 160.297673 289.4925 
L 160.297673 289.4925 
L 156.456449 289.4925 
z
" style="fill: #1a1a1a; opacity: 0.25; stroke: #1a1a1a; stroke-width: 0.1; stroke-linejoin: miter"/>
   </g>
   <g id="patch_20">
    <path d="M 160.297673 289.4925 
L 164.138896 289.4925 
L 164.138896 289.4925 
L 160.297673 289.4925 
z
" style="fill: #1a1a1a; opacity: 0.25; stroke: #1a1a1a; stroke-width: 0.1; stroke-linejoin: miter"/>
   </g>
   <g id="patch_21">
    <path d="M 164.138896 289.4925 
L 167.98012 289.4925 
L 167.98012 289.4925 
L 164.138896 289.4925 
z
" style="fill: #1a1a1a; opacity: 0.25; stroke: #1a1a1a; stroke-width: 0.1; stroke-linejoin: miter"/>
   </g>
   <g id="patch_22">
    <path d="M 167.98012 289.4925 
L 171.821343 289.4925 
L 171.821343 289.4925 
L 167.98012 289.4925 
z
" style="fill: #1a1a1a; opacity: 0.25; stroke: #1a1a1a; stroke-width: 0.1; stroke-linejoin: miter"/>
   </g>
   <g id="patch_23">
    <path d="M 171.821343 289.4925 
L 175.662566 289.4925 
L 175.662566 18.68625 
L 171.821343 18.68625 
z
" style="fill: #1a1a1a; opacity: 0.25; stroke: #1a1a1a; stroke-width: 0.1; stroke-linejoin: miter"/>
   </g>
   <g id="patch_24">
    <path d="M 175.662566 289.4925 
L 179.50379 289.4925 
L 179.50379 289.4925 
L 175.662566 289.4925 
z
" style="fill: #1a1a1a; opacity: 0.25; stroke: #1a1a1a; stroke-width: 0.1; stroke-linejoin: miter"/>
   </g>
   <g id="patch_25">
    <path d="M 179.50379 289.4925 
L 183.345013 289.4925 
L 183.345013 289.4925 
L 179.50379 289.4925 
z
" style="fill: #1a1a1a; opacity: 0.25; stroke: #1a1a1a; stroke-width: 0.1; stroke-linejoin: miter"/>
   </g>
   <g id="patch_26">
    <path d="M 183.345013 289.4925 
L 187.186237 289.4925 
L 187.186237 289.4925 
L 183.345013 289.4925 
z
" style="fill: #1a1a1a; opacity: 0.25; stroke: #1a1a1a; stroke-width: 0.1; stroke-linejoin: miter"/>
   </g>
   <g id="patch_27">
    <path d="M 187.186237 289.4925 
L 191.02746 289.4925 
L 191.02746 289.4925 
L 187.186237 289.4925 
z
" style="fill: #1a1a1a; opacity: 0.25; stroke: #1a1a1a; stroke-width: 0.1; stroke-linejoin: miter"/>
   </g>
   <g id="patch_28">
    <path d="M 191.02746 289.4925 
L 194.868684 289.4925 
L 194.868684 289.4925 
L 191.02746 289.4925 
z
" style="fill: #1a1a1a; opacity: 0.25; stroke: #1a1a1a; stroke-width: 0.1; stroke-linejoin: miter"/>
   </g>
   <g id="patch_29">
    <path d="M 194.868684 289.4925 
L 198.709907 289.4925 
L 198.709907 289.4925 
L 194.868684 289.4925 
z
" style="fill: #1a1a1a; opacity: 0.25; stroke: #1a1a1a; stroke-width: 0.1; stroke-linejoin: miter"/>
   </g>
   <g id="patch_30">
    <path d="M 198.709907 289.4925 
L 202.55113 289.4925 
L 202.55113 289.4925 
L 198.709907 289.4925 
z
" style="fill: #1a1a1a; opacity: 0.25; stroke: #1a1a1a; stroke-width: 0.1; stroke-linejoin: miter"/>
   </g>
   <g id="patch_31">
    <path d="M 202.55113 289.4925 
L 206.392354 289.4925 
L 206.392354 289.4925 
L 202.55113 289.4925 
z
" style="fill: #1a1a1a; opacity: 0.25; stroke: #1a1a1a; stroke-width: 0.1; stroke-linejoin: miter"/>
   </g>
   <g id="patch_32">
    <path d="M 206.392354 289.4925 
L 210.233577 289.4925 
L 210.233577 154.089375 
L 206.392354 154.089375 
z
" style="fill: #1a1a1a; opacity: 0.25; stroke: #1a1a1a; stroke-width: 0.1; stroke-linejoin: miter"/>
   </g>
   <g id="patch_33">
    <path d="M 210.233577 289.4925 
L 214.074801 289.4925 
L 214.074801 289.4925 
L 210.233577 289.4925 
z
" style="fill: #1a1a1a; opacity: 0.25; stroke: #1a1a1a; stroke-width: 0.1; stroke-linejoin: miter"/>
   </g>
   <g id="patch_34">
    <path d="M 214.074801 289.4925 
L 217.916024 289.4925 
L 217.916024 289.4925 
L 214.074801 289.4925 
z
" style="fill: #1a1a1a; opacity: 0.25; stroke: #1a1a1a; stroke-width: 0.1; stroke-linejoin: miter"/>
   </g>
   <g id="patch_35">
    <path d="M 217.916024 289.4925 
L 221.757247 289.4925 
L 221.757247 289.4925 
L 217.916024 289.4925 
z
" style="fill: #1a1a1a; opacity: 0.25; stroke: #1a1a1a; stroke-width: 0.1; stroke-linejoin: miter"/>
   </g>
   <g id="patch_36">
    <path d="M 221.757247 289.4925 
L 225.598471 289.4925 
L 225.598471 289.4925 
L 221.757247 289.4925 
z
" style="fill: #1a1a1a; opacity: 0.25; stroke: #1a1a1a; stroke-width: 0.1; stroke-linejoin: miter"/>
   </g>
   <g id="patch_37">
    <path d="M 225.598471 289.4925 
L 229.439694 289.4925 
L 229.439694 289.4925 
L 225.598471 289.4925 
z
" style="fill: #1a1a1a; opacity: 0.25; stroke: #1a1a1a; stroke-width: 0.1; stroke-linejoin: miter"/>
   </g>
   <g id="patch_38">
    <path d="M 229.439694 289.4925 
L 233.280918 289.4925 
L 233.280918 289.4925 
L 229.439694 289.4925 
z
" style="fill: #1a1a1a; opacity: 0.25; stroke: #1a1a1a; stroke-width: 0.1; stroke-linejoin: miter"/>
   </g>
   <g id="patch_39">
    <path d="M 233.280918 289.4925 
L 237.122141 289.4925 
L 237.122141 289.4925 
L 233.280918 289.4925 
z
" style="fill: #1a1a1a; opacity: 0.25; stroke: #1a1a1a; stroke-width: 0.1; stroke-linejoin: miter"/>
   </g>
   <g id="patch_40">
    <path d="M 237.122141 289.4925 
L 240.963364 289.4925 
L 240.963364 289.4925 
L 237.122141 289.4925 
z
" style="fill: #1a1a1a; opacity: 0.25; stroke: #1a1a1a; stroke-width: 0.1; stroke-linejoin: miter"/>
   </g>
   <g id="patch_41">
    <path d="M 240.963364 289.4925 
L 244.804588 289.4925 
L 244.804588 289.4925 
L 240.963364 289.4925 
z
" style="fill: #1a1a1a; opacity: 0.25; stroke: #1a1a1a; stroke-width: 0.1; stroke-linejoin: miter"/>
   </g>
   <g id="patch_42">
    <path d="M 244.804588 289.4925 
L 248.645811 289.4925 
L 248.645811 289.4925 
L 244.804588 289.4925 
z
" style="fill: #1a1a1a; opacity: 0.25; stroke: #1a1a1a; stroke-width: 0.1; stroke-linejoin: miter"/>
   </g>
   <g id="patch_43">
    <path d="M 248.645811 289.4925 
L 252.487035 289.4925 
L 252.487035 289.4925 
L 248.645811 289.4925 
z
" style="fill: #1a1a1a; opacity: 0.25; stroke: #1a1a1a; stroke-width: 0.1; stroke-linejoin: miter"/>
   </g>
   <g id="patch_44">
    <path d="M 252.487035 289.4925 
L 256.328258 289.4925 
L 256.328258 289.4925 
L 252.487035 289.4925 
z
" style="fill: #1a1a1a; opacity: 0.25; stroke: #1a1a1a; stroke-width: 0.1; stroke-linejoin: miter"/>
   </g>
   <g id="patch_45">
    <path d="M 256.328258 289.4925 
L 260.169481 289.4925 
L 260.169481 289.4925 
L 256.328258 289.4925 
z
" style="fill: #1a1a1a; opacity: 0.25; stroke: #1a1a1a; stroke-width: 0.1; stroke-linejoin: miter"/>
   </g>
   <g id="patch_46">
    <path d="M 260.169481 289.4925 
L 264.010705 289.4925 
L 264.010705 289.4925 
L 260.169481 289.4925 
z
" style="fill: #1a1a1a; opacity: 0.25; stroke: #1a1a1a; stroke-width: 0.1; stroke-linejoin: miter"/>
   </g>
   <g id="patch_47">
    <path d="M 264.010705 289.4925 
L 267.851928 289.4925 
L 267.851928 289.4925 
L 264.010705 289.4925 
z
" style="fill: #1a1a1a; opacity: 0.25; stroke: #1a1a1a; stroke-width: 0.1; stroke-linejoin: miter"/>
   </g>
   <g id="patch_48">
    <path d="M 267.851928 289.4925 
L 271.693152 289.4925 
L 271.693152 289.4925 
L 267.851928 289.4925 
z
" style="fill: #1a1a1a; opacity: 0.25; stroke: #1a1a1a; stroke-width: 0.1; stroke-linejoin: miter"/>
   </g>
   <g id="patch_49">
    <path d="M 271.693152 289.4925 
L 275.534375 289.4925 
L 275.534375 289.4925 
L 271.693152 289.4925 
z
" style="fill: #1a1a1a; opacity: 0.25; stroke: #1a1a1a; stroke-width: 0.1; stroke-linejoin: miter"/>
   </g>
   <g id="patch_50">
    <path d="M 275.534375 289.4925 
L 279.375598 289.4925 
L 279.375598 289.4925 
L 275.534375 289.4925 
z
" style="fill: #1a1a1a; opacity: 0.25; stroke: #1a1a1a; stroke-width: 0.1; stroke-linejoin: miter"/>
   </g>
   <g id="patch_51">
    <path d="M 279.375598 289.4925 
L 283.216822 289.4925 
L 283.216822 289.4925 
L 279.375598 289.4925 
z
" style="fill: #1a1a1a; opacity: 0.25; stroke: #1a1a1a; stroke-width: 0.1; stroke-linejoin: miter"/>
   </g>
   <g id="patch_52">
    <path d="M 283.216822 289.4925 
L 287.058045 289.4925 
L 287.058045 289.4925 
L 283.216822 289.4925 
z
" style="fill: #1a1a1a; opacity: 0.25; stroke: #1a1a1a; stroke-width: 0.1; stroke-linejoin: miter"/>
   </g>
   <g id="patch_53">
    <path d="M 287.058045 289.4925 
L 290.899269 289.4925 
L 290.899269 289.4925 
L 287.058045 289.4925 
z
" style="fill: #1a1a1a; opacity: 0.25; stroke: #1a1a1a; stroke-width: 0.1; stroke-linejoin: miter"/>
   </g>
   <g id="patch_54">
    <path d="M 290.899269 289.4925 
L 294.740492 289.4925 
L 294.740492 289.4925 
L 290.899269 289.4925 
z
" style="fill: #1a1a1a; opacity: 0.25; stroke: #1a1a1a; stroke-width: 0.1; stroke-linejoin: miter"/>
   </g>
   <g id="patch_55">
    <path d="M 294.740492 289.4925 
L 298.581715 289.4925 
L 298.581715 289.4925 
L 294.740492 289.4925 
z
" style="fill: #1a1a1a; opacity: 0.25; stroke: #1a1a1a; stroke-width: 0.1; stroke-linejoin: miter"/>
   </g>
   <g id="patch_56">
    <path d="M 298.581715 289.4925 
L 302.422939 289.4925 
L 302.422939 289.4925 
L 298.581715 289.4925 
z
" style="fill: #1a1a1a; opacity: 0.25; stroke: #1a1a1a; stroke-width: 0.1; stroke-linejoin: miter"/>
   </g>
   <g id="patch_57">
    <path d="M 302.422939 289.4925 
L 306.264162 289.4925 
L 306.264162 289.4925 
L 302.422939 289.4925 
z
" style="fill: #1a1a1a; opacity: 0.25; stroke: #1a1a1a; stroke-width: 0.1; stroke-linejoin: miter"/>
   </g>
   <g id="patch_58">
    <path d="M 306.264162 289.4925 
L 310.105386 289.4925 
L 310.105386 289.4925 
L 306.264162 289.4925 
z
" style="fill: #1a1a1a; opacity: 0.25; stroke: #1a1a1a; stroke-width: 0.1; stroke-linejoin: miter"/>
   </g>
   <g id="patch_59">
    <path d="M 310.105386 289.4925 
L 313.946609 289.4925 
L 313.946609 289.4925 
L 310.105386 289.4925 
z
" style="fill: #1a1a1a; opacity: 0.25; stroke: #1a1a1a; stroke-width: 0.1; stroke-linejoin: miter"/>
   </g>
   <g id="patch_60">
    <path d="M 313.946609 289.4925 
L 317.787832 289.4925 
L 317.787832 289.4925 
L 313.946609 289.4925 
z
" style="fill: #1a1a1a; opacity: 0.25; stroke: #1a1a1a; stroke-width: 0.1; stroke-linejoin: miter"/>
   </g>
   <g id="patch_61">
    <path d="M 317.787832 289.4925 
L 321.629056 289.4925 
L 321.629056 289.4925 
L 317.787832 289.4925 
z
" style="fill: #1a1a1a; opacity: 0.25; stroke: #1a1a1a; stroke-width: 0.1; stroke-linejoin: miter"/>
   </g>
   <g id="patch_62">
    <path d="M 321.629056 289.4925 
L 325.470279 289.4925 
L 325.470279 289.4925 
L 321.629056 289.4925 
z
" style="fill: #1a1a1a; opacity: 0.25; stroke: #1a1a1a; stroke-width: 0.1; stroke-linejoin: miter"/>
   </g>
   <g id="patch_63">
    <path d="M 325.470279 289.4925 
L 329.311503 289.4925 
L 329.311503 289.4925 
L 325.470279 289.4925 
z
" style="fill: #1a1a1a; opacity: 0.25; stroke: #1a1a1a; stroke-width: 0.1; stroke-linejoin: miter"/>
   </g>
   <g id="patch_64">
    <path d="M 329.311503 289.4925 
L 333.152726 289.4925 
L 333.152726 289.4925 
L 329.311503 289.4925 
z
" style="fill: #1a1a1a; opacity: 0.25; stroke: #1a1a1a; stroke-width: 0.1; stroke-linejoin: miter"/>
   </g>
   <g id="patch_65">
    <path d="M 333.152726 289.4925 
L 336.993949 289.4925 
L 336.993949 289.4925 
L 333.152726 289.4925 
z
" style="fill: #1a1a1a; opacity: 0.25; stroke: #1a1a1a; stroke-width: 0.1; stroke-linejoin: miter"/>
   </g>
   <g id="patch_66">
    <path d="M 336.993949 289.4925 
L 340.835173 289.4925 
L 340.835173 289.4925 
L 336.993949 289.4925 
z
" style="fill: #1a1a1a; opacity: 0.25; stroke: #1a1a1a; stroke-width: 0.1; stroke-linejoin: miter"/>
   </g>
   <g id="patch_67">
    <path d="M 340.835173 289.4925 
L 344.676396 289.4925 
L 344.676396 289.4925 
L 340.835173 289.4925 
z
" style="fill: #1a1a1a; opacity: 0.25; stroke: #1a1a1a; stroke-width: 0.1; stroke-linejoin: miter"/>
   </g>
   <g id="patch_68">
    <path d="M 344.676396 289.4925 
L 348.51762 289.4925 
L 348.51762 289.4925 
L 344.676396 289.4925 
z
" style="fill: #1a1a1a; opacity: 0.25; stroke: #1a1a1a; stroke-width: 0.1; stroke-linejoin: miter"/>
   </g>
   <g id="patch_69">
    <path d="M 348.51762 289.4925 
L 352.358843 289.4925 
L 352.358843 289.4925 
L 348.51762 289.4925 
z
" style="fill: #1a1a1a; opacity: 0.25; stroke: #1a1a1a; stroke-width: 0.1; stroke-linejoin: miter"/>
   </g>
   <g id="patch_70">
    <path d="M 352.358843 289.4925 
L 356.200066 289.4925 
L 356.200066 289.4925 
L 352.358843 289.4925 
z
" style="fill: #1a1a1a; opacity: 0.25; stroke: #1a1a1a; stroke-width: 0.1; stroke-linejoin: miter"/>
   </g>
   <g id="patch_71">
    <path d="M 356.200066 289.4925 
L 360.04129 289.4925 
L 360.04129 289.4925 
L 356.200066 289.4925 
z
" style="fill: #1a1a1a; opacity: 0.25; stroke: #1a1a1a; stroke-width: 0.1; stroke-linejoin: miter"/>
   </g>
   <g id="patch_72">
    <path d="M 360.04129 289.4925 
L 363.882513 289.4925 
L 363.882513 289.4925 
L 360.04129 289.4925 
z
" style="fill: #1a1a1a; opacity: 0.25; stroke: #1a1a1a; stroke-width: 0.1; stroke-linejoin: miter"/>
   </g>
   <g id="patch_73">
    <path d="M 363.882513 289.4925 
L 367.723737 289.4925 
L 367.723737 289.4925 
L 363.882513 289.4925 
z
" style="fill: #1a1a1a; opacity: 0.25; stroke: #1a1a1a; stroke-width: 0.1; stroke-linejoin: miter"/>
   </g>
   <g id="line2d_12">
    <path d="M 250.566423 289.4925 
L 250.566423 18.68625 
" clip-path="url(#pb48ef9ea5d)" style="fill: none; stroke-dasharray: 2,3.3; stroke-dashoffset: 0; stroke: #ff7f0e; stroke-width: 2"/>
   </g>
   <g id="patch_74">
    <path d="M 94.996875 289.4925 
L 94.996875 18.68625 
" style="fill: none; stroke: #262626; stroke-width: 1.25; stroke-linejoin: miter; stroke-linecap: square"/>
   </g>
   <g id="patch_75">
    <path d="M 94.996875 289.4925 
L 365.803125 289.4925 
" style="fill: none; stroke: #262626; stroke-width: 1.25; stroke-linejoin: miter; stroke-linecap: square"/>
   </g>
  </g>
  <g id="axes_2">
   <g id="matplotlib.axis_3">
    <g id="ytick_4">
     <g id="line2d_13">
      <defs>
       <path id="m582e277498" d="M 0 0 
L 6 0 
" style="stroke: #1f77b4; stroke-width: 1.25"/>
      </defs>
      <g>
       <use xlink:href="#m582e277498" x="365.803125" y="289.4925" style="fill: #1f77b4; stroke: #1f77b4; stroke-width: 1.25"/>
      </g>
     </g>
     <g id="text_14">
      <text style="fill: #1f77b4; font: 16px 'Arial', 'DejaVu Sans', 'Liberation Sans', 'Bitstream Vera Sans', sans-serif; text-anchor: start" x="375.303125" y="295.21875" transform="rotate(-0 375.303125 295.21875)">0.0</text>
     </g>
    </g>
    <g id="ytick_5">
     <g id="line2d_14">
      <g>
       <use xlink:href="#m582e277498" x="365.803125" y="235.33125" style="fill: #1f77b4; stroke: #1f77b4; stroke-width: 1.25"/>
      </g>
     </g>
     <g id="text_15">
      <text style="fill: #1f77b4; font: 16px 'Arial', 'DejaVu Sans', 'Liberation Sans', 'Bitstream Vera Sans', sans-serif; text-anchor: start" x="375.303125" y="241.0575" transform="rotate(-0 375.303125 241.0575)">0.2</text>
     </g>
    </g>
    <g id="ytick_6">
     <g id="line2d_15">
      <g>
       <use xlink:href="#m582e277498" x="365.803125" y="181.17" style="fill: #1f77b4; stroke: #1f77b4; stroke-width: 1.25"/>
      </g>
     </g>
     <g id="text_16">
      <text style="fill: #1f77b4; font: 16px 'Arial', 'DejaVu Sans', 'Liberation Sans', 'Bitstream Vera Sans', sans-serif; text-anchor: start" x="375.303125" y="186.89625" transform="rotate(-0 375.303125 186.89625)">0.4</text>
     </g>
    </g>
    <g id="ytick_7">
     <g id="line2d_16">
      <g>
       <use xlink:href="#m582e277498" x="365.803125" y="127.00875" style="fill: #1f77b4; stroke: #1f77b4; stroke-width: 1.25"/>
      </g>
     </g>
     <g id="text_17">
      <text style="fill: #1f77b4; font: 16px 'Arial', 'DejaVu Sans', 'Liberation Sans', 'Bitstream Vera Sans', sans-serif; text-anchor: start" x="375.303125" y="132.735" transform="rotate(-0 375.303125 132.735)">0.6</text>
     </g>
    </g>
    <g id="ytick_8">
     <g id="line2d_17">
      <g>
       <use xlink:href="#m582e277498" x="365.803125" y="72.8475" style="fill: #1f77b4; stroke: #1f77b4; stroke-width: 1.25"/>
      </g>
     </g>
     <g id="text_18">
      <text style="fill: #1f77b4; font: 16px 'Arial', 'DejaVu Sans', 'Liberation Sans', 'Bitstream Vera Sans', sans-serif; text-anchor: start" x="375.303125" y="78.57375" transform="rotate(-0 375.303125 78.57375)">0.8</text>
     </g>
    </g>
    <g id="ytick_9">
     <g id="line2d_18">
      <g>
       <use xlink:href="#m582e277498" x="365.803125" y="18.68625" style="fill: #1f77b4; stroke: #1f77b4; stroke-width: 1.25"/>
      </g>
     </g>
     <g id="text_19">
      <text style="fill: #1f77b4; font: 16px 'Arial', 'DejaVu Sans', 'Liberation Sans', 'Bitstream Vera Sans', sans-serif; text-anchor: start" x="375.303125" y="24.4125" transform="rotate(-0 375.303125 24.4125)">1.0</text>
     </g>
    </g>
    <g id="text_20">
     <text style="fill: #1f77b4; font: 16px 'Arial', 'DejaVu Sans', 'Liberation Sans', 'Bitstream Vera Sans', sans-serif; text-anchor: middle" x="413.190625" y="154.089375" transform="rotate(-90 413.190625 154.089375)">End-of-outbreak probability</text>
    </g>
   </g>
   <g id="line2d_19">
    <path d="M 96.917487 94.932475 
L 100.75871 93.878007 
L 104.599934 91.489531 
L 108.441157 87.784045 
L 112.28238 83.169759 
L 116.123604 78.085091 
L 119.964827 72.877911 
L 123.806051 67.782495 
L 127.647274 62.938962 
L 131.488497 58.421213 
L 135.329721 54.26042 
L 139.170944 50.461645 
L 143.012168 47.014728 
L 146.853391 43.901138 
L 150.694614 41.098188 
L 154.535838 38.581584 
L 158.377061 36.326933 
L 162.218285 34.310619 
L 166.059508 32.510276 
L 169.900731 30.905029 
L 173.741955 204.064204 
L 177.583178 197.880603 
L 181.424402 190.596092 
L 185.265625 182.010345 
L 189.106848 172.355868 
L 192.948072 162.003743 
L 196.789295 151.327872 
L 200.630519 140.642823 
L 204.471742 130.188507 
L 208.312965 216.154351 
L 212.154189 206.209943 
L 215.995412 195.836716 
L 219.836636 184.033533 
L 223.677859 173.544633 
L 227.519082 161.715663 
L 231.360306 150.261291 
L 235.201529 139.123198 
L 239.042753 127.493167 
L 242.883976 117.910392 
L 246.725199 107.472238 
L 250.566423 99.044103 
L 254.407646 90.615898 
L 258.24887 83.142391 
L 262.090093 76.084993 
L 265.931316 69.875237 
L 269.77254 64.222577 
L 273.613763 58.98452 
L 277.454987 54.577947 
L 281.29621 50.079052 
L 285.137434 46.469524 
L 288.978657 43.153601 
L 292.81988 40.130708 
L 296.661104 37.545959 
L 300.502327 35.280055 
L 304.343551 33.233125 
L 308.184774 31.423665 
L 312.025997 29.739663 
L 315.867221 28.401183 
L 319.708444 27.108443 
L 323.549668 26.071001 
L 327.390891 25.09158 
L 331.232114 24.265499 
L 335.073338 23.538302 
L 338.914561 22.921831 
L 342.755785 22.34292 
L 346.597008 21.869321 
L 350.438231 21.44394 
L 354.279455 21.086693 
L 358.120678 20.767045 
L 361.961902 20.478105 
L 365.803125 20.242249 
" style="fill: none; stroke: #4c72b0; stroke-width: 2; stroke-linecap: round"/>
   </g>
   <g id="patch_76">
    <path d="M 94.996875 289.4925 
L 94.996875 18.68625 
" style="fill: none; stroke: #262626; stroke-width: 1.25; stroke-linejoin: miter; stroke-linecap: square"/>
   </g>
   <g id="patch_77">
    <path d="M 365.803125 289.4925 
L 365.803125 18.68625 
" style="fill: none; stroke: #1f77b4; stroke-width: 1.25; stroke-linejoin: miter; stroke-linecap: square"/>
   </g>
   <g id="patch_78">
    <path d="M 94.996875 289.4925 
L 365.803125 289.4925 
" style="fill: none; stroke: #262626; stroke-width: 1.25; stroke-linejoin: miter; stroke-linecap: square"/>
   </g>
  </g>
 </g>
 <defs>
  <clipPath id="pb48ef9ea5d">
   <rect x="94.996875" y="18.68625" width="270.80625" height="270.80625"/>
  </clipPath>
 </defs>
</svg>
